<svg width="470" height="360" xmlns="http://www.w3.org/2000/svg">
 <metadata id="metadata8">image/svg+xml</metadata>

 <g>
  <title>background</title>
  <rect fill="none" id="canvas_background" height="362" width="472" y="-1" x="-1"/>
 </g>
 <g>
  <title>Layer 1</title>
  <g stroke="null" id="svg_2">
   <path fill="#d3a877" fill-rule="evenodd" d="m358.960452,67.924128l-48.364383,-40.495734l-44.873792,23.421712l-10.134685,31.207833l81.007159,10.948924l22.365701,-25.082736" id="path86"/>
   <path fill="#d3a877" fill-rule="evenodd" d="m267.180467,104.105734l0,0c-5.306209,-2.354957 -7.882598,-8.710204 -5.36549,-13.924586l21.24111,-50.327622c2.251507,-5.334687 11.402247,-7.163673 16.707876,-4.809878l0,0c5.304466,2.355538 7.705337,8.611983 5.363165,13.924005l-24.024981,49.773173c-2.522338,5.229493 -8.617214,7.719285 -13.92168,5.364909" id="path88"/>
   <path fill="#d3a877" fill-rule="evenodd" d="m290.591137,105.384919l0,0c-5.612493,-1.480275 -9.167595,-7.34384 -7.512383,-12.892403l15.799485,-52.960385c1.654631,-5.548563 7.280491,-8.992659 12.893565,-7.512383l0,0c5.611912,1.480275 8.977548,7.275842 7.510059,12.892403l-15.798904,52.962129c-1.65928,5.563674 -7.278748,8.990915 -12.891822,7.51064" id="path90"/>
   <path fill="#d3a877" fill-rule="evenodd" d="m315.423383,105.071661l0,0c-5.803703,0.099964 -10.817576,-4.579729 -10.731561,-10.368902l0.826444,-55.260711c0.085434,-5.788592 4.564037,-10.631598 10.368902,-10.730399l0,0c5.803703,-0.098801 10.617068,4.564037 10.729237,10.369484l-0.825281,55.260711c-0.086015,5.805446 -4.564037,10.631016 -10.36774,10.729818" id="path92"/>
   <path fill="#c39562" fill-rule="evenodd" d="m375.294045,47.967434c-32.567223,-26.415972 -76.380935,5.381182 -95.36589,36.310047l59.33946,8.020919l36.026429,-44.330966" id="path94"/>
   <path fill="#eec494" fill-rule="evenodd" d="m360.960306,51.783488c20.354805,-6.290735 39.841902,20.668644 37.656069,35.823596c-2.184089,15.154371 -20.367591,24.022075 -41.737724,22.139039c-21.371295,-1.882455 -33.398897,-19.691093 -32.039508,-27.62774c1.358227,-7.936648 15.766939,-24.042417 36.121162,-30.334895" id="path96"/>
   <path fill="#eec494" fill-rule="evenodd" d="m384.331455,65.477925l0,0c-2.89604,5.030147 -10.094584,7.732071 -14.408712,3.879403l-52.665725,-47.030566c-4.314709,-3.852668 -6.776605,-9.379146 -3.880565,-14.409293l0,0c2.898364,-5.029566 9.37101,-6.763819 14.408712,-3.877078l52.667469,47.029985c4.331564,3.866617 6.776023,9.377403 3.878822,14.40755" id="path98"/>
   <path fill="#eec494" fill-rule="evenodd" d="m269.945159,35.127338l0,0c-2.074827,-5.420121 0.725899,-11.435956 6.080927,-13.628182l41.858029,-17.781322c5.324807,-2.262549 11.551612,0.659063 13.627601,6.079765l0,0c2.075989,5.420121 -0.663712,11.537082 -6.080346,13.625857l-41.859191,17.783066c-5.341661,2.269523 -11.549868,-0.6579 -13.62702,-6.079184" id="path100"/>
   <path fill="#eec494" fill-rule="evenodd" d="m226.865482,74.496156l0,0c-3.845694,-4.347837 -3.548128,-11.198833 0.908972,-14.894582l42.542082,-35.278446c4.4571,-3.696911 11.047725,-3.437703 14.895163,0.908972l0,0c3.846275,4.347837 3.428985,11.037264 -0.911878,14.893419l-42.541501,35.279608c-4.468723,3.70621 -11.047144,3.437703 -14.892838,-0.908972" id="path102"/>
   <path fill="#eec494" fill-rule="evenodd" d="m308.167301,31.532134c8.306862,5.464291 41.182693,28.121166 19.267991,40.452145c-21.914121,12.330979 43.14477,12.995854 43.14477,12.995854l-5.642715,-40.825846c0,0 -29.65491,-44.154287 -56.770046,-12.622153" id="path104"/>
   <path fill="#eec494" fill-rule="evenodd" d="m366.554782,44.937723c1.440755,46.921884 27.256364,64.215593 36.674449,13.044092l-36.674449,-13.044092" id="path106"/>
   <path fill="#ffffff" fill-rule="evenodd" d="m400.361089,53.971646l-21.452661,63.117156l84.532621,26.787348c1.348347,-2.839083 2.700181,-6.363383 4.009588,-10.28405l0,-58.502555l-67.089548,-21.117899" id="path108"/>
   <path fill="#505659" fill-rule="evenodd" d="m416.539506,53.171937l-24.79505,74.206726l75.706181,23.431011l0,-81.956814l-50.911131,-15.680924" id="path110"/>
   <path fill="#43703a" fill-rule="evenodd" d="m292.992589,66.625182l-47.343243,144.549161l-70.237821,-23.004422l47.342662,-144.54858l70.238402,23.003841" id="path112"/>
   <path fill="#80b975" fill-rule="evenodd" d="m284.510791,70.400553l-40.484691,123.612591l0,0c-5.128367,-1.678459 -10.619974,1.033345 -12.265887,6.059424l-47.869214,-15.678018l40.485854,-123.61201c5.128367,1.680203 10.619974,-1.033345 12.266468,-6.060005l47.867471,15.678018" id="path114"/>
   <path fill="#43703a" fill-rule="evenodd" d="m256.218176,134.608591c-3.982853,12.158368 -17.067047,18.787933 -29.225996,14.805079c-12.160111,-3.982272 -18.787933,-17.067628 -14.806242,-29.226577c3.982853,-12.158949 17.067628,-18.788514 29.227159,-14.805079c12.15953,3.982272 18.786189,17.067628 14.805079,29.226577" id="path116"/>
   <path fill="#80b975" fill-rule="evenodd" d="m225.100426,123.654436l2.613003,0.856084l0,3.163384l-3.82419,-1.252451c-0.143552,1.049618 0.052307,2.002179 0.576534,2.860587c0.531783,0.860733 1.28616,1.450635 2.277079,1.774355c0.32895,0.108681 0.65267,0.173774 0.970577,0.197021l0,5.304466c-0.596876,-0.084272 -1.212931,-0.230149 -1.84584,-0.437631c-2.378786,-0.779368 -4.150816,-2.158517 -5.31144,-4.126406c-1.164693,-1.979512 -1.504685,-4.314128 -1.034507,-7.002685l-3.692261,-1.209444l0.935706,-2.8571l3.597529,1.178641c1.022303,-2.187576 2.478749,-3.762585 4.366435,-4.718632c0.89851,-0.457392 1.893497,-0.752633 2.984379,-0.886887l0,5.664219c-0.1081,0.030803 -0.215619,0.064511 -0.321976,0.101126c-0.949073,0.323719 -1.71333,0.789829 -2.291027,1.391354zm2.613003,-7.156699l0,5.664219c0.862477,-0.247584 1.794696,-0.312677 2.789102,-0.192372l1.136215,-5.336431c-1.423319,-0.235961 -2.731564,-0.281293 -3.925316,-0.135416zm14.698723,23.404277l0,-5.291098c-0.469015,0.072067 -0.974645,0.07381 -1.517471,0.005812l-0.98162,5.207989c0.877588,0.12786 1.709843,0.153433 2.499091,0.077297l0,0zm-14.698723,-15.391494l5.655501,1.851652c1.586632,-2.337522 3.317979,-3.866617 5.209152,-4.583216c1.226879,-0.460879 2.504903,-0.627679 3.83407,-0.496912l0,5.325388c-0.438213,-0.03429 -0.883981,0.016854 -1.332655,0.154014c-0.738685,0.228405 -1.433781,0.709626 -2.084126,1.443661l3.41678,1.11936l0,3.162803l-5.295167,-1.733672c-1.891173,2.880348 -3.709697,4.672138 -5.44395,5.364909c-1.221649,0.492844 -2.540936,0.639302 -3.959606,0.439375l0,-5.304466c0.53527,0.039521 1.054849,-0.038358 1.562804,-0.232474c0.81017,-0.308609 1.581983,-1.003705 2.307881,-2.078895l-3.870685,-1.268143l0,-3.163384zm14.698723,-3.228477c0.7166,0.070904 1.448892,0.227824 2.195132,0.471921c2.156774,0.706138 3.746893,1.981256 4.769776,3.823028c1.020559,1.849327 1.269887,3.93694 0.756701,6.276205l1.955103,0.640465l-0.935706,2.857681l-1.954522,-0.641046c-0.94268,2.012059 -2.195713,3.445258 -3.780601,4.299018c-0.917108,0.4911 -1.919651,0.788085 -3.005883,0.892699l0,-5.291098c0.960697,-0.148202 1.766218,-0.591064 2.419469,-1.330911l-2.419469,-0.792735l0,-3.162803l3.41678,1.11936c-0.007555,-0.867708 -0.258046,-1.628477 -0.732873,-2.299164c-0.482964,-0.666037 -1.108899,-1.12401 -1.87025,-1.373919c-0.267926,-0.087759 -0.538758,-0.14239 -0.813657,-0.163313l0,-5.325388" id="path118"/>
   <path fill="#eec494" fill-rule="evenodd" d="m348.060347,86.05881l0,0c0.076716,6.290735 -5.81707,11.932287 -13.034793,11.557424l-65.22046,-3.384815c-7.217142,-0.374864 -13.239951,-5.02201 -13.316086,-11.313908l0,0c-0.076716,-6.289572 5.785686,-11.473733 13.034212,-11.55568l65.222204,3.385396c7.236902,0.374864 13.238208,5.021429 13.314924,11.311583" id="path120"/>
   <path fill="#eec494" fill-rule="evenodd" d="m206.89484,265.879442c-19.175583,13.305625 -100.503556,-1.695895 -103.236282,-18.246269c-2.733889,-16.549794 13.320736,-31.827375 36.26239,-36.935401c22.942817,-5.106282 93.450889,11.150014 94.658589,19.888695c1.2077,8.738682 -8.509695,21.983863 -27.684696,35.292975" id="path122"/>
   <path fill="#eec494" fill-rule="evenodd" d="m176.477416,268.576136l0,0c-3.729457,-5.541589 -2.482237,-13.529381 3.292407,-16.852009l107.265049,-36.678518c12.287391,-4.20196 22.401153,7.138101 24.337077,16.170862l-118.044268,40.653235c-6.315145,2.17479 -13.12139,2.248601 -16.850266,-3.293569" id="path124"/>
   <path fill="#d3a877" fill-rule="evenodd" d="m153.675246,225.613276l0,0c0.005812,-6.678966 5.504974,-12.605879 12.150812,-12.132215l60.055479,4.283326c6.645838,0.473084 12.137445,5.471266 12.132215,12.151394l0,0c-0.005812,6.678385 -5.471266,12.12001 -12.151394,12.130471l-60.056641,-4.282744c-6.663274,-0.474827 -12.136283,-5.470684 -12.130471,-12.150231" id="path126"/>
   <path fill="#eec494" fill-rule="evenodd" d="m137.24692,221.929733l0,0c0.005231,-6.679547 5.504393,-12.605879 12.150812,-12.132215l75.292378,5.183579c6.646419,0.457973 12.137445,5.471847 12.132215,12.151394l0,0c-0.005812,6.678966 -5.470684,12.12001 -12.151394,12.130471l-75.292959,-5.182998c-6.665017,-0.458554 -12.137445,-5.470684 -12.131052,-12.150231" id="path128"/>
   <path fill="#eec494" fill-rule="evenodd" d="m77.530852,254.758488l0,0c0.327207,-6.67141 6.105918,-12.325749 12.721535,-11.531852l96.503267,5.887974c6.648163,0.405085 11.86022,6.050706 11.532433,12.722697l0,0c-0.327788,6.670829 -6.049544,11.842785 -12.722697,11.530689l-96.504429,-5.887974c-6.667342,-0.40741 -11.859058,-6.050125 -11.530108,-12.721535" id="path130"/>
   <path fill="#ffffff" fill-rule="evenodd" d="m111.639956,220.611607l1.469233,64.867682l-94.148135,0c-2.472298,-16.510273 1.441627,-51.889263 4.602221,-61.032449c3.160885,-9.143767 0.961453,-2.669378 1.474115,-3.987503l86.602566,0.15227" id="path132"/>
   <path fill="#e44217" fill-rule="evenodd" d="m94.74552,215.113026l2.071921,76.139163l-94.268033,0l0,-76.240289l92.196112,0.101126" id="path134"/>
   <path fill="#ffffff" fill-rule="evenodd" d="m78.793184,283.2365c3.588811,0 6.516815,-2.927423 6.516815,-6.516815c0,-3.590554 -2.928005,-6.517978 -6.516815,-6.517978c-3.589973,0 -6.517397,2.927423 -6.517397,6.517978c0,3.589392 2.927423,6.516815 6.517397,6.516815" id="path136"/>
   <path fill="#ffffff" fill-rule="evenodd" d="m413.585929,128.245789c3.589973,0 6.517397,-2.928005 6.517397,-6.517397c0,-3.589392 -2.927423,-6.517397 -6.517397,-6.517397c-3.589973,0 -6.517397,2.928005 -6.517397,6.517397c0,3.589392 2.927423,6.517397 6.517397,6.517397" id="path138"/>
   <path fill="#f1dcc3" fill-rule="evenodd" d="m272.680792,92.311187l-2.710642,-0.033127c-16.200502,-0.20109 -14.651647,-19.777108 0.022666,-18.940784l2.870467,0.163313c5.57181,0.317908 3.635887,18.858256 -0.182492,18.810599" id="path150"/>
   <path fill="#f1dcc3" fill-rule="evenodd" d="m219.331013,236.439571l2.688557,0.349292c16.06683,2.084707 17.202463,-18.513033 2.556628,-19.753861l-2.865237,-0.242935c-6.393604,-0.541663 -6.996873,19.156403 -2.379948,19.647504" id="path152"/>
   <path fill="#f1dcc3" fill-rule="evenodd" d="m309.685354,226.456574c-5.517179,1.82608 -10.672862,3.584742 -11.538826,3.94682c-1.90977,0.797966 -2.311368,3.187213 -1.834216,5.999562l15.059638,-5.186485c-0.331856,-1.548855 -0.903741,-3.165709 -1.686596,-4.759896" id="path154"/>
  </g>
 </g>
</svg>