<svg width="1000" height="1000" xmlns="http://www.w3.org/2000/svg">
 <metadata id="metadata8">image/svg+xml</metadata>

 <g>
  <title>background</title>
  <rect fill="none" id="canvas_background" height="402" width="582" y="-1" x="-1"/>
 </g>
 <g>
  <title>Layer 1</title>
  <g id="svg_1">
   <path fill="#dddddd" fill-rule="nonzero" d="m885.916263,521.906243c0.0675,-1.1425 1.04875,-2.015 2.19125,-1.9475l16.55875,0.98375c1.14375,0.065 2.0175,1.0475 1.94625,2.19125c-0.0675,1.1425 -1.0475,2.015 -2.19125,1.94625l-16.5575,-0.9825c-0.6675,-0.04 -1.24,-0.38875 -1.59,-0.9c-0.25125,-0.36625 -0.38625,-0.815 -0.3575,-1.29125zm-28.9775,-1.71875c0.06625,-1.1425 1.0475,-2.015 2.19125,-1.94625l8.28,0.49c1.14125,0.0625 2.0175,1.0475 1.94625,2.19125c-0.0675,1.1425 -1.0475,2.015 -2.19125,1.94625l-8.28,-0.49c-0.66625,-0.0375 -1.24,-0.3875 -1.59,-0.89875c-0.25,-0.36625 -0.38625,-0.815 -0.35625,-1.2925zm-45.536251,-2.7025c0.06625,-1.14375 1.0475,-2.015 2.19125,-1.9475l24.83875,1.475c1.145,0.065 2.01625,1.04875 1.94625,2.19125c-0.06625,1.1425 -1.0475,2.015 -2.19125,1.94625l-24.83875,-1.47375c-0.6675,-0.04 -1.24,-0.38875 -1.59,-0.9c-0.25,-0.36625 -0.38625,-0.815 -0.35625,-1.29125" id="path16"/>
   <path fill="#dddddd" fill-rule="nonzero" d="m886.120013,330.78999c-0.53625,-1.0125 -0.1475,-2.26625 0.86375,-2.80125l14.66625,-7.75c1.0125,-0.53375 2.265,-0.14875 2.8025,0.865c0.53625,1.01375 0.1475,2.26625 -0.86375,2.8025l-14.66625,7.74875c-0.8075,0.42625 -1.7675,0.2675 -2.395,-0.32625c-0.16,-0.15125 -0.29875,-0.3325 -0.4075,-0.53875zm-25.665,13.56375c-0.53625,-1.0125 -0.1475,-2.26625 0.86375,-2.80125l7.33375,-3.87625c1.01125,-0.53375 2.26375,-0.14875 2.80125,0.865c0.53625,1.0125 0.1475,2.26625 -0.86375,2.8025l-7.3325,3.875c-0.8075,0.42625 -1.76625,0.26875 -2.395,-0.32625c-0.16,-0.15125 -0.29875,-0.3325 -0.4075,-0.53875zm-40.331251,21.31625c-0.535,-1.01375 -0.1475,-2.26625 0.865,-2.80375l21.9975,-11.62625c1.0125,-0.53375 2.265,-0.14625 2.8025,0.86625c0.53625,1.0125 0.1475,2.265 -0.86375,2.80125l-21.9975,11.62625c-0.8075,0.42625 -1.76625,0.2675 -2.395,-0.3275c-0.16,-0.15125 -0.29875,-0.33125 -0.40875,-0.53625" id="path18"/>
   <path fill="#dddddd" fill-rule="nonzero" d="m830.427512,174.163738l11.3975,-12.0525c0.78625,-0.83125 2.09875,-0.86875 2.93125,-0.08125c0.8325,0.7875 0.86875,2.09875 0.08125,2.93125l-11.3975,12.05125c-0.78625,0.8325 -2.09875,0.87 -2.93125,0.0825c-0.8325,-0.7875 -0.86875,-2.1 -0.08125,-2.93125zm-19.94625,21.09l5.69875,-6.02625c0.78625,-0.83125 2.09875,-0.86875 2.93125,-0.08125c0.8325,0.7875 0.86875,2.09875 0.08125,2.93125l-5.69875,6.02625c-0.78625,0.83125 -2.09875,0.86875 -2.93125,0.08125c-0.8325,-0.7875 -0.86875,-2.1 -0.08125,-2.93125zm-31.345,33.1425l17.0975,-18.0775c0.78625,-0.8325 2.09875,-0.87 2.93125,-0.0825c0.8325,0.7875 0.86875,2.1 0.08125,2.93125l-17.09625,18.0775c-0.7875,0.8325 -2.09875,0.87 -2.93125,0.0825c-0.8325,-0.7875 -0.86875,-2.09875 -0.0825,-2.93125" id="path20"/>
   <path fill="#dddddd" fill-rule="nonzero" d="m409.377506,110.578737l-3.2425,-24.66875c-0.15,-1.13625 0.64875,-2.1775 1.78375,-2.3275c1.13875,-0.1475 2.18,0.65125 2.325,1.78625l3.2425,24.67c0.15,1.135 -0.64875,2.17625 -1.78375,2.32625c-0.455,0.05875 -0.89125,-0.0325 -1.265,-0.23625c-0.56125,-0.3075 -0.9725,-0.8675 -1.06,-1.55zm5.1325,39.060001l-2.16125,-16.44625c-0.14875,-1.13625 0.65,-2.17625 1.785,-2.32625c1.14,-0.1475 2.1775,0.65 2.325,1.785l2.16125,16.44625c0.14875,1.13625 -0.65,2.1775 -1.785,2.3275c-0.45375,0.05875 -0.89125,-0.0325 -1.26375,-0.23625c-0.5625,-0.3075 -0.97375,-0.8675 -1.06125,-1.55zm3.78125,28.7825l-1.08125,-8.225c-0.14875,-1.13375 0.65,-2.17625 1.785,-2.32625c1.13875,-0.14875 2.1775,0.65125 2.325,1.78625l1.0825,8.2225c0.14875,1.1375 -0.65,2.1775 -1.785,2.3275c-0.455,0.06 -0.8925,-0.03125 -1.265,-0.23625c-0.56125,-0.3075 -0.9725,-0.8675 -1.06125,-1.54875zm5.94375,45.227501l-3.2425,-24.67c-0.14875,-1.13625 0.64875,-2.1775 1.78375,-2.32625c1.14,-0.15 2.17875,0.65 2.32625,1.78375l3.24375,24.67c0.14875,1.13625 -0.65,2.17625 -1.785,2.32625c-0.455,0.06 -0.8925,-0.03125 -1.265,-0.23625c-0.56125,-0.30625 -0.9725,-0.86625 -1.06125,-1.5475" id="path22"/>
   <path fill="#dddddd" fill-rule="nonzero" d="m844.036263,665.929995l24.1575,5.965c1.11125,0.275 1.79,1.3975 1.51625,2.50875c-0.27625,1.11375 -1.4,1.79375 -2.51,1.515l-24.15625,-5.96375c-1.1125,-0.275 -1.79125,-1.3975 -1.5175,-2.50875c0.11125,-0.445 0.355,-0.81875 0.68125,-1.0925c0.49125,-0.41 1.1625,-0.59 1.82875,-0.42375zm-38.246251,-9.44375l16.10375,3.97625c1.1125,0.275 1.79125,1.3975 1.5175,2.51c-0.27875,1.115 -1.39875,1.79125 -2.51,1.515l-16.10375,-3.97625c-1.1125,-0.275 -1.79125,-1.39875 -1.5175,-2.51c0.11,-0.445 0.355,-0.81875 0.68125,-1.09125c0.49,-0.41125 1.1625,-0.59 1.82875,-0.42375zm-28.1825,-6.96125l8.05375,1.98875c1.11125,0.275 1.79,1.39875 1.51625,2.51c-0.27625,1.11375 -1.4,1.79125 -2.51,1.515l-8.0525,-1.9875c-1.1125,-0.275 -1.79125,-1.3975 -1.5175,-2.50875c0.11,-0.44625 0.355,-0.82 0.68125,-1.0925c0.49,-0.41125 1.16125,-0.59 1.82875,-0.425zm-44.286251,-10.935l24.15625,5.965c1.1125,0.275 1.79125,1.3975 1.5175,2.50875c-0.27625,1.115 -1.39875,1.7925 -2.50875,1.5175l-24.15625,-5.965c-1.1125,-0.275 -1.79125,-1.3975 -1.5175,-2.50875c0.11,-0.44625 0.355,-0.82 0.68,-1.0925c0.49125,-0.41125 1.1625,-0.59 1.82875,-0.425" id="path24"/>
   <path fill="#dddddd" fill-rule="nonzero" d="m230.280003,174.992488l-8.4775,-14.2575c-0.58375,-0.985 -0.26125,-2.2575 0.72375,-2.8425c0.985,-0.585 2.255,-0.26625 2.84125,0.7225l8.4775,14.2575c0.585,0.985 0.2625,2.2575 -0.7225,2.8425c-0.815,0.48375 -1.82625,0.34625 -2.4825,-0.275c-0.1375,-0.12875 -0.25875,-0.2775 -0.36,-0.4475zm14.835,24.95125l-4.2375,-7.12875c-0.585,-0.985 -0.2625,-2.2575 0.7225,-2.8425c0.985,-0.585 2.26,-0.265 2.8425,0.7225l4.2375,7.13c0.585,0.985 0.2625,2.2575 -0.7225,2.84125c-0.815,0.485 -1.8275,0.34625 -2.48375,-0.27375c-0.13625,-0.13 -0.2575,-0.2775 -0.35875,-0.44875zm23.3125,39.210001l-12.71625,-21.3875c-0.58375,-0.985 -0.26125,-2.2575 0.7225,-2.84125c0.98625,-0.585 2.26125,-0.2625 2.8425,0.7225l12.71625,21.3875c0.58375,0.98375 0.26125,2.2575 -0.72375,2.84125c-0.81375,0.48375 -1.82625,0.34625 -2.4825,-0.27375c-0.13625,-0.13 -0.25875,-0.27875 -0.35875,-0.44875" id="path26"/>
   <path fill="#dddddd" fill-rule="nonzero" d="m154.341252,343.93124c0.40625,-1.07 1.60625,-1.6075 2.67625,-1.20125l23.255,8.84875c1.0625,0.405 1.60875,1.605 1.20125,2.67625c-0.4075,1.07 -1.6075,1.6075 -2.6775,1.2l-23.255,-8.8475c-0.26125,-0.1 -0.49375,-0.25 -0.68625,-0.4325c-0.59,-0.5575 -0.82125,-1.43625 -0.51375,-2.24375zm-27.13125,-10.3225c0.4075,-1.07 1.60625,-1.6075 2.67625,-1.20125l7.75125,2.94875c1.0625,0.40625 1.6075,1.60375 1.20125,2.67625c-0.4075,1.07 -1.60625,1.60875 -2.67625,1.20125l-7.75125,-2.94875c-0.2625,-0.1 -0.495,-0.25 -0.6875,-0.4325c-0.59,-0.5575 -0.82,-1.43625 -0.51375,-2.24375zm-34.883376,-13.27375c0.40675,-1.07 1.6065,-1.6075 2.67625,-1.2l15.5045,5.89875c1.06825,0.41375 1.608875,1.605 1.200125,2.67625c-0.40675,1.07 -1.606375,1.6075 -2.67625,1.20125l-15.503875,-5.89875c-0.26375,-0.1025 -0.494125,-0.25 -0.687,-0.4325c-0.589875,-0.5575 -0.820875,-1.43625 -0.51375,-2.245" id="path28"/>
   <path fill="#dddddd" fill-rule="nonzero" d="m147.590002,502.638743c0.0275,-1.145 0.97625,-2.0525 2.12,-2.02625l24.87375,0.56875c1.145,0.02875 2.05375,0.975 2.02625,2.12125c-0.0275,1.145 -0.97625,2.0525 -2.12,2.02625l-24.87375,-0.57c-0.4675,-0.0125 -0.89375,-0.175 -1.23375,-0.4425c-0.495,-0.39 -0.80875,-1 -0.7925,-1.6775zm-29.022625,-0.665c0.027875,-1.145 0.976625,-2.0525 2.120125,-2.02625l8.29125,0.19c1.145,0.03125 2.0525,0.97625 2.02625,2.12c-0.0275,1.14625 -0.97625,2.05375 -2.12,2.0275l-8.29075,-0.19125c-0.46725,-0.01125 -0.893625,-0.17375 -1.233875,-0.4425c-0.494625,-0.38875 -0.808625,-0.99875 -0.793,-1.6775zm-24.023375,-0.55c0.02775,-1.145 0.976,-2.0525 2.120125,-2.02625l3.294875,0.075c1.147,0.03 2.054625,0.975 2.026875,2.12125c-0.027875,1.145 -0.976625,2.0525 -2.120125,2.02625l-3.295375,-0.07625c-0.467375,-0.01125 -0.893125,-0.17375 -1.234,-0.4425c-0.494625,-0.38875 -0.8085,-0.99875 -0.792375,-1.6775" id="path30"/>
   <path fill="#dddddd" fill-rule="nonzero" d="m147.663752,658.688745c-0.3025,-1.10625 0.34625,-2.245 1.45,-2.55l23.9925,-6.59375c1.10625,-0.3025 2.24125,0.35 2.55,1.45c0.30375,1.10625 -0.345,2.24625 -1.45,2.55l-23.9925,6.59375c-0.72625,0.2 -1.46625,-0.01375 -1.97625,-0.495c-0.26625,-0.25125 -0.46875,-0.5775 -0.57375,-0.955zm-27.990875,7.6925c-0.30275,-1.10625 0.345625,-2.24625 1.450125,-2.55l7.99825,-2.19875c1.10625,-0.30375 2.24125,0.34875 2.55,1.44875c0.3025,1.10625 -0.345,2.24625 -1.45,2.55l-7.998125,2.2c-0.7265,0.19875 -1.46725,-0.01375 -1.976,-0.495c-0.266625,-0.2525 -0.46875,-0.5775 -0.57425,-0.955" id="path32"/>
   <path fill="#dddddd" fill-rule="nonzero" d="m597.218759,116.952487l1.11625,-8.21875c0.1525,-1.135 1.1975,-1.93125 2.3325,-1.775c1.14125,0.15 1.9325,1.205 1.775,2.33125l-1.11625,8.21875c-0.1525,1.13625 -1.1975,1.93125 -2.3325,1.775c-0.61875,-0.0825 -1.1375,-0.4325 -1.45375,-0.91375c-0.26625,-0.405 -0.3925,-0.90375 -0.32125,-1.4175zm-6.13,45.201251l3.34375,-24.655c0.15375,-1.135 1.19875,-1.93125 2.3325,-1.775c1.14,0.1525 1.93,1.2 1.775,2.3325l-3.34375,24.655c-0.1525,1.135 -1.1975,1.93125 -2.3325,1.775c-0.61875,-0.0825 -1.13625,-0.43 -1.45375,-0.915c-0.26625,-0.40375 -0.39125,-0.9 -0.32125,-1.4175" id="path34"/>
   <path fill="#eeeeee" fill-rule="nonzero" d="m449.018757,912.294874c-89.212501,0 -161.535002,-9.181125 -161.535002,-20.50625c0,-11.32475 72.322501,-20.506125 161.535002,-20.506125c89.213751,0 161.536252,9.181375 161.536252,20.506125c0,11.325125 -72.322501,20.50625 -161.536252,20.50625" id="path36"/>
   <path fill="#fbd6b1" fill-rule="nonzero" d="m679.10376,402.138741c0,0 9.32125,-22.48625 -6.82,-25.6775c-16.0525,-3.17375 -16.13875,20.0475 -16.13875,20.0475l22.95875,5.63" id="path38"/>
   <path fill="#f8f8f8" fill-rule="nonzero" d="m653.57626,399.758741l1.255,-6.14l25.9575,7.12375l-1.64125,6.0475l-25.57125,-7.03125" id="path40"/>
   <path fill="#3c3b3d" fill-rule="nonzero" d="m527.635008,578.557494c0,0 117.036252,-20.3275 153.738752,-173.138753l-28.5925,-9.17375c0,0 -26.29625,124.345002 -128.300002,152.356252l3.15375,29.95625" id="path42"/>
   <path fill="#7a7b7c" fill-rule="nonzero" d="m673.58501,418.834991c0.21,-1.50375 -0.8375,-2.89375 -2.3375,-3.10625c-1.50625,-0.20625 -2.895,0.84 -3.105,2.34125c-0.21375,1.5 0.83625,2.89125 2.335,3.10625c1.505,0.21 2.895,-0.8375 3.1075,-2.34125" id="path44"/>
   <path fill="#7a7b7c" fill-rule="nonzero" d="m676.49876,409.948741c0.21125,-1.505 -0.835,-2.89125 -2.34,-3.10625c-1.5,-0.21125 -2.89125,0.83625 -3.10125,2.33875c-0.20875,1.50375 0.835,2.89375 2.33875,3.10625c1.50125,0.21125 2.89125,-0.835 3.1025,-2.33875" id="path46"/>
   <path fill="#fac61f" fill-rule="nonzero" d="m730.891261,436.281242l-4.56375,-14.27125l-20.16375,6.44875l-33.683751,-73.946251l-10.95,3.50125l15.47,79.770001l-20.165,6.44875l4.56375,14.27125l-18.6925,5.97625l8.21875,25.70375l106.878752,-34.177501l-8.22,-25.7025l-18.6925,5.9775" id="path48"/>
   <path fill="#f89c0e" fill-rule="nonzero" d="m672.48001,354.51249l-10.95,3.50125l6.00375,30.96375l15.55125,-11.1825l-10.605,-23.2825" id="path50"/>
   <path fill="#fac61f" fill-rule="nonzero" d="m540.183758,237.087489l160.962502,-51.472501c2.72625,-0.87125 4.23,-3.7875 3.35875,-6.515c-0.8725,-2.72625 -3.78875,-4.22875 -6.515,-3.3575l-160.963752,51.472501c-2.72625,0.87125 -4.22875,3.7875 -3.3575,6.515c0.87125,2.72625 3.78875,4.22875 6.515,3.3575" id="path52"/>
   <path fill="#fac61f" fill-rule="nonzero" d="m674.90001,380.953741l0,0c41.758751,-13.35375 64.785001,-58.030001 51.432501,-99.788751l-30.05625,-93.991251l-151.221252,48.356251l30.055,93.991251c13.35375,41.758751 58.031251,64.785001 99.790001,51.432501" id="path54"/>
   <path fill="#fac61f" fill-rule="nonzero" d="m621.031259,375.164991l-3.375,-10.5575c-28.64875,9.16125 -61.046251,-11.8075 -72.217501,-46.742501l-16.18375,-50.610001l51.956251,-16.615l-3.375,-10.55625l-57.236251,18.30125c-2.915,0.9325 -4.5225,4.0525 -3.59,6.9675l17.87125,55.888751c13.03375,40.756251 51.680001,64.946251 86.150001,53.923751" id="path56"/>
   <path fill="#fac61f" fill-rule="nonzero" d="m715.415011,344.98374c34.470001,-11.0225 51.910001,-53.147501 38.877501,-93.905001l-17.8725,-55.888751c-0.93125,-2.915 -4.05125,-4.5225 -6.96625,-3.59l-57.235001,18.3025l3.375,10.55625l51.957501,-16.61375l16.18375,50.610001c11.1725,34.935001 -3.0475,70.810001 -31.69625,79.971251c-2.915,0.9325 -4.5225,4.0525 -3.59125,6.9675c0.9325,2.915 4.0525,4.5225 6.9675,3.59" id="path58"/>
   <path fill="#f89c0e" fill-rule="nonzero" d="m696.27626,187.173738l-151.221252,48.356251l154.461252,-38.223751l-3.24,-10.1325" id="path60"/>
   <path fill="#f89c0e" fill-rule="nonzero" d="m621.133759,286.761239l-8.43125,2.69625l1.43625,8.60625l8.415,-2.69125l-1.42,-8.61125m18.97125,2.99875l2.78375,8.70625l-10.07875,3.2225l3.61625,21.9425l-8.755,2.79875l-3.615,-21.94125l-8.39875,2.685l3.6575,21.92875l-8.75125,2.79875l-3.5875,-21.95125l-9.89125,3.16375l-2.785,-8.70625l11.18625,-3.5775l-1.32,-8.6425l-9.74,3.11375l-2.78375,-8.705l10.945,-3.50125l-3.3175,-20.30125l8.53,-2.7275l3.515,20.23875l8.31625,-2.66l-3.34375,-20.2925l8.755,-2.8l3.34375,20.29375l8.79875,-2.81375l2.78375,8.70625l-10.08,3.2225l1.5075,8.58375l8.70875,-2.785" id="path62"/>
   <path fill="#f89c0e" fill-rule="nonzero" d="m649.00376,248.674989l18.33,-5.8625l20.57875,64.355001l-12.16125,3.88875l-16.9,-52.847501l-13.255,4.23875l3.4075,-13.7725" id="path64"/>
   <path fill="#88b498" fill-rule="nonzero" d="m650.92501,490.183742l-1.5525,-4.85375l0,0l1.5525,4.85375l53.440001,-17.08875l0,0l-53.440001,17.08875m20.175,-50.513751l0,0l5.9,-1.88625l-1.90375,-9.8125l0,-0.00125l1.90375,9.81375l-5.9,1.88625m-70.856251,-73.050001c-22.965,-1.7525 -45.158751,-20.20375 -54.376251,-47.450001c9.21375,27.23375 31.39625,45.662501 54.351251,47.430001c0.0075,0.00625 0.0175,0.01375 0.025,0.02m-24.92875,-36.467501c-0.00125,-0.00625 -0.00375,-0.0125 -0.00625,-0.01875c0.0025,0.0075 0.00375,0.01125 0.00625,0.01875m-0.02625,-0.0825c-0.00375,-0.01 -0.0075,-0.02125 -0.01,-0.03125c0.0025,0.01 0.00625,0.02125 0.01,0.03125m-0.02875,-0.08625c-0.00375,-0.01375 -0.00875,-0.0275 -0.01375,-0.04125c0.005,0.01625 0.00875,0.025 0.01375,0.04125m-0.03,-0.0925c-0.005,-0.01375 -0.00875,-0.02625 -0.01375,-0.04c0.005,0.0125 0.01,0.0275 0.01375,0.04m-0.03,-0.0925c-0.005,-0.015 -0.01,-0.03125 -0.015,-0.04625c0.005,0.015 0.01,0.03125 0.015,0.04625m-0.03,-0.09125c-0.00625,-0.01875 -0.0125,-0.03875 -0.01875,-0.0575c0.00625,0.0175 0.01375,0.04 0.01875,0.0575m-0.03,-0.0925c-0.01,-0.03125 -0.02,-0.0625 -0.03,-0.09375l-22.3175,-69.793751l0,0l22.3175,69.793751c0.01,0.03 0.02125,0.0625 0.03,0.09375m-29.2725,-10.44625c-0.00875,-0.025 -0.01625,-0.04875 -0.025,-0.07375c0.00875,0.025 0.01625,0.04875 0.025,0.07375m-0.0275,-0.0825c-0.00875,-0.02375 -0.01625,-0.0475 -0.02375,-0.07c0.0075,0.0225 0.015,0.04625 0.02375,0.07m-0.0275,-0.0825c-0.00875,-0.02375 -0.015,-0.0425 -0.0225,-0.06625c0.0075,0.0225 0.015,0.04375 0.0225,0.06625m-0.02875,-0.085c-0.00625,-0.02 -0.01375,-0.04125 -0.02,-0.06c0.00625,0.02 0.0125,0.03875 0.02,0.06m-0.02875,-0.085c-0.00625,-0.01875 -0.0125,-0.03625 -0.01875,-0.05625c0.00625,0.01875 0.0125,0.0375 0.01875,0.05625m-0.0275,-0.08375c-0.00625,-0.01875 -0.01125,-0.035 -0.0175,-0.05375c0.005,0.0175 0.01125,0.03625 0.0175,0.05375m-0.0275,-0.08375c-0.00625,-0.01875 -0.01125,-0.0325 -0.0175,-0.0525c0.005,0.0175 0.01125,0.035 0.0175,0.0525m-0.02875,-0.085c-0.005,-0.015 -0.01125,-0.03375 -0.01625,-0.04875c0.005,0.015 0.01125,0.03375 0.01625,0.04875m-0.0275,-0.085c-0.005,-0.015 -0.01,-0.03125 -0.015,-0.04625c0.005,0.015 0.01,0.03125 0.015,0.04625m-0.02875,-0.0875c-0.005,-0.0125 -0.00875,-0.0275 -0.01375,-0.04c0.00375,0.01125 0.01,0.0275 0.01375,0.04m-0.02875,-0.085c-0.00375,-0.01375 -0.0075,-0.02625 -0.0125,-0.03875c0.005,0.01375 0.00875,0.025 0.0125,0.03875m-0.02625,-0.085c-0.005,-0.0125 -0.00875,-0.025 -0.0125,-0.03875c0.00375,0.0125 0.0075,0.0275 0.0125,0.03875m-0.0275,-0.085c-0.005,-0.0125 -0.00875,-0.02375 -0.0125,-0.03625c0.00375,0.01375 0.0075,0.0225 0.0125,0.03625m-0.0275,-0.085c-0.005,-0.0125 -0.00875,-0.02375 -0.0125,-0.03625c0.00375,0.0125 0.0075,0.025 0.0125,0.03625m-0.0275,-0.085c-0.005,-0.0125 -0.0075,-0.0225 -0.0125,-0.035c0.005,0.0125 0.00875,0.02375 0.0125,0.035m-14.635,-62.873751l18.57375,-5.93875l-4.36125,-13.64125l0,0l4.36125,13.64125l-18.57375,5.93875m7.76125,-17.775c-0.8725,0 -1.72125,-0.2225 -2.47,-0.62875c0.74875,0.40625 1.5975,0.62875 2.47,0.62875c0.52375,0 1.055,-0.08 1.58,-0.2475l0,0c-0.525,0.1675 -1.05625,0.2475 -1.58,0.2475m-2.4725,-0.63c-0.00875,-0.005 -0.01625,-0.00875 -0.02375,-0.01375c0.0075,0.005 0.015,0.00875 0.02375,0.01375m-2.71,-4.54625c-0.00375,-2.1975 1.40125,-4.24 3.605,-4.94375c-2.20375,0.705 -3.60875,2.74625 -3.605,4.94375m3.605,-4.94375l80.481251,-25.73625l-80.481251,25.73625" id="path66"/>
   <path fill="#383939" fill-rule="nonzero" d="m649.37251,485.329992l-6.66625,-20.84875l6.66625,20.84875l0,0m17.545,-44.322501l4.1825,-1.3375l0,0l-4.1825,1.3375m8.17875,-13.03625l-1.65875,-8.555c0,0 0,0 0,-0.00125l1.65875,8.555l0,0.00125m-2.205,-11.375l0,0l-0.97125,-5.0075l0,0l0.97125,5.0075m-1.59375,-8.21625l-1.28125,-6.605l1.28125,6.605l0,0" id="path68"/>
   <path fill="#727475" fill-rule="nonzero" d="m673.43751,419.416241l-0.54625,-2.82l0,0l0.54625,2.81875c0,0.00125 0,0.00125 0,0.00125" id="path70"/>
   <path fill="#727475" fill-rule="nonzero" d="m671.92001,411.588741l0,0l-0.6225,-3.20875l0,0l0.6225,3.20875" id="path72"/>
   <path fill="#ebbb1b" fill-rule="nonzero" d="m650.92501,490.183742l-1.5525,-4.85375l-6.66625,-20.85l18.6925,-5.97625l-4.5625,-14.27125l10.08125,-3.225l4.1825,-1.3375l5.9,-1.88625l-1.90375,-9.81375l-1.65875,-8.555l-0.54625,-2.81875l-0.97125,-5.0075l-0.6225,-3.20875l-1.28125,-6.605l-0.49875,-2.57375l-1.9825,-10.22375l8.07375,-5.80625l28.75625,89.923751l-53.440001,17.08875" id="path74"/>
   <path fill="#ee9512" fill-rule="nonzero" d="m667.53501,388.977491l-1.1275,-5.81c2.8375,-0.575 5.67125,-1.31125 8.4925,-2.21375l0,0l0.70875,2.2175l-8.075,5.80625" id="path76"/>
   <path fill="#ebbb1b" fill-rule="nonzero" d="m538.603758,237.334989c-0.8725,0 -1.72125,-0.2225 -2.47,-0.62875c-0.00125,-0.00125 -0.0025,-0.00125 -0.0025,-0.00125c-0.00875,-0.005 -0.01625,-0.00875 -0.02375,-0.01375c-1.12125,-0.61625 -2.01875,-1.64625 -2.43875,-2.96125l0,0c-0.01375,-0.0425 -0.02625,-0.08625 -0.03875,-0.12875c-0.14,-0.48 -0.2075,-0.965 -0.20875,-1.4425c-0.00375,-2.1975 1.40125,-4.23875 3.605,-4.94375l0,0l80.482501,-25.73625l3.15625,9.8725l-75.610001,24.17875l0,0l-4.87125,1.5575c-0.525,0.1675 -1.05625,0.2475 -1.58,0.2475" id="path78"/>
   <path fill="#ebbb1b" fill-rule="nonzero" d="m650.71501,384.731241c-12.27,0 -24.22,-2.87 -34.976251,-8.15375c1.7725,-0.38125 3.53875,-0.85125 5.2925,-1.4125l-3.375,-10.5575c-4.54875,1.455 -9.19375,2.15 -13.83125,2.15c-1.195,0 -2.38875,-0.04625 -3.58125,-0.1375c-0.0075,-0.00625 -0.0175,-0.01375 -0.025,-0.02c0.0125,0.00125 0.02375,0.00125 0.0375,0.0025c-11.23125,-9.23375 -20.07,-21.63875 -24.94125,-36.450001c-0.0025,-0.0075 -0.00375,-0.01125 -0.00625,-0.01875c-0.00625,-0.02125 -0.01375,-0.0425 -0.02,-0.06375c-0.00375,-0.01 -0.0075,-0.02125 -0.01,-0.03125c-0.0075,-0.01875 -0.0125,-0.03625 -0.01875,-0.055c-0.005,-0.01625 -0.00875,-0.025 -0.01375,-0.04125c-0.005,-0.0175 -0.01125,-0.03375 -0.01625,-0.05125c-0.00375,-0.0125 -0.00875,-0.0275 -0.01375,-0.04c-0.005,-0.0175 -0.01125,-0.035 -0.01625,-0.0525c-0.005,-0.015 -0.01,-0.03125 -0.015,-0.04625c-0.005,-0.015 -0.01,-0.03 -0.015,-0.045c-0.005,-0.0175 -0.0125,-0.04 -0.01875,-0.0575c-0.00375,-0.0125 -0.00625,-0.02375 -0.01125,-0.035c-0.00875,-0.03125 -0.02,-0.06375 -0.03,-0.09375l-22.3175,-69.793751l28.41875,-9.0875l-3.375,-10.55625l-28.42,9.0875l-4.36125,-13.64125l75.610001,-24.17875l-75.610001,24.17875l77.230001,-19.11125l52.615001,164.535002l0,0l0,0c-2.82125,0.9025 -5.655,1.63875 -8.4925,2.21375l-0.0025,-0.01375c-5.24375,1.06375 -10.495,1.5775 -15.69,1.5775m-43.738751,-74.781251l3.5875,21.95125l8.75125,-2.79875l-3.6575,-21.92875l8.39875,-2.685l3.615,21.94125l8.755,-2.79875l-3.61625,-21.9425l10.07875,-3.2225l-2.78375,-8.70625l-8.70875,2.785l-1.5075,-8.58375l10.08,-3.2225l-2.78375,-8.70625l-8.79875,2.81375l-3.34375,-20.29375l-8.755,2.8l3.34375,20.2925l-8.31625,2.66l-3.515,-20.23875l-8.53,2.7275l3.3175,20.30125l-10.945,3.50125l2.78375,8.705l9.74,-3.11375l1.32,8.6425l-11.18625,3.5775l2.785,8.70625l9.89125,-3.16375m7.1625,-11.88625l-1.43625,-8.60625l8.43125,-2.69625l1.42,8.61125l-8.415,2.69125" id="path80"/>
   <path fill="#ebbb1b" fill-rule="nonzero" d="m603.897509,377.807491c-29.30125,-0.0025 -58.116251,-22.48375 -69.016251,-56.566251l0,0l-17.87125,-55.888751c-0.095,-0.29625 -0.16375,-0.595 -0.2075,-0.8925c-0.385,-2.63375 1.17875,-5.2375 3.79875,-6.075l10.24125,-3.275l18.57375,-5.93875l28.42,-9.0875l3.375,10.55625l-28.41875,9.0875l0,0l-23.5375,7.5275l16.18375,50.610001c0.00875,0.0275 0.0175,0.05625 0.02625,0.08375c0.005,0.0125 0.0075,0.0225 0.0125,0.035c0.005,0.0175 0.01,0.03125 0.015,0.04875c0.00375,0.0125 0.0075,0.02375 0.0125,0.03625c0.005,0.01625 0.01,0.0325 0.015,0.04875c0.00375,0.0125 0.0075,0.02375 0.0125,0.03625c0.00375,0.01625 0.01,0.03125 0.015,0.04625c0.00375,0.01375 0.0075,0.02625 0.0125,0.03875c0.00375,0.015 0.00875,0.03 0.01375,0.04625c0.005,0.0125 0.00875,0.025 0.0125,0.03875c0.005,0.015 0.01,0.03 0.015,0.045c0.005,0.0125 0.00875,0.0275 0.01375,0.04c0.005,0.015 0.00875,0.02625 0.01375,0.04125c0.005,0.015 0.01,0.03125 0.015,0.04625c0.00375,0.0125 0.0075,0.02375 0.01125,0.03625c0.005,0.015 0.01125,0.03375 0.01625,0.04875c0.00375,0.01125 0.0075,0.02125 0.01125,0.0325c0.00625,0.02 0.01125,0.03375 0.0175,0.0525c0.0025,0.01 0.00625,0.02 0.01,0.03c0.00625,0.01875 0.01125,0.035 0.0175,0.05375c0.0025,0.01 0.00625,0.0175 0.00875,0.0275c0.00625,0.02 0.0125,0.0375 0.01875,0.05625c0.00375,0.00875 0.00625,0.01625 0.00875,0.025c0.00625,0.01875 0.01375,0.04 0.02,0.06c0.00125,0.005 0.005,0.01375 0.00625,0.01875c0.0075,0.02375 0.01375,0.0425 0.0225,0.06625c0.00125,0.005 0.0025,0.00625 0.00375,0.0125c0.0075,0.0225 0.015,0.04625 0.02375,0.07c0,0.00125 0.0025,0.0075 0.0025,0.00875c0.00875,0.025 0.01625,0.04875 0.025,0.07375l0,0.00125c9.2175,27.24625 31.41125,45.697501 54.376251,47.450001c1.1925,0.09125 2.38625,0.1375 3.58125,0.1375c4.6375,0 9.2825,-0.695 13.83125,-2.15l3.375,10.5575c-1.75375,0.56125 -3.52,1.03125 -5.2925,1.4125c-0.01125,-0.00625 -0.0225,-0.01125 -0.03375,-0.01625c-3.9175,0.84 -7.865,1.24625 -11.8075,1.24625" id="path82"/>
   <path fill="#ee9512" fill-rule="nonzero" d="m545.055008,235.529989l75.610001,-24.17875l1.62,5.0675l-77.230001,19.11125" id="path84"/>
   <path fill="#ee9512" fill-rule="nonzero" d="m610.563759,331.90124l-3.5875,-21.95125l-9.89125,3.16375l-2.785,-8.70625l11.18625,-3.5775l-1.32,-8.6425l-9.74,3.11375l-2.78375,-8.705l10.945,-3.50125l-3.3175,-20.30125l8.53,-2.7275l3.515,20.23875l8.31625,-2.66l-3.34375,-20.2925l8.755,-2.8l3.34375,20.29375l8.79875,-2.81375l2.78375,8.70625l-10.08,3.2225l1.5075,8.58375l8.70875,-2.785l2.78375,8.70625l-10.07875,3.2225l3.61625,21.9425l-8.755,2.79875l-3.615,-21.94125l-8.39875,2.685l3.6575,21.92875l-8.75125,2.79875m10.57,-45.140001l-8.43125,2.69625l1.43625,8.60625l8.415,-2.69125l-1.42,-8.61125" id="path86"/>
   <path fill="#fbe99c" fill-rule="nonzero" d="m585.152509,245.943739c-7.54125,2.41125 -15.685,-1.785 -18.09625,-9.3275c-0.08625,-0.26875 -0.37375,-0.41625 -0.6425,-0.33c-0.26875,0.085 -0.4175,0.3725 -0.33125,0.6425c2.41125,7.53875 -1.78375,15.68 -9.32125,18.09375l-0.00625,0.00125c-0.26875,0.08625 -0.4175,0.37375 -0.33125,0.64375c0.08625,0.27 0.37375,0.41875 0.64375,0.3325l0.005,-0.00375c7.53625,-2.40625 15.67125,1.785 18.0875,9.3175l0.00125,0.0125c0.08625,0.27 0.375,0.41875 0.645,0.3325c0.27125,-0.08625 0.42,-0.375 0.33375,-0.64625l-0.00625,-0.01c-2.40375,-7.5375 1.7925,-15.675 9.33,-18.085c0.26875,-0.08625 0.4175,-0.37375 0.33125,-0.6425c-0.085,-0.26875 -0.37375,-0.4175 -0.6425,-0.33125" id="path88"/>
   <path fill="#fbe99c" fill-rule="nonzero" d="m716.722511,271.909989c-4.97,1.59 -10.3375,-1.17625 -11.9275,-6.1475c-0.05625,-0.17625 -0.24625,-0.275 -0.42375,-0.2175c-0.17625,0.05625 -0.275,0.24625 -0.2175,0.4225c1.58875,4.97 -1.17625,10.33625 -6.14375,11.9275l-0.005,0c-0.1775,0.05625 -0.275,0.2475 -0.21875,0.425c0.0575,0.1775 0.2475,0.275 0.425,0.21875l0.00375,-0.0025c4.9675,-1.58625 10.32875,1.1775 11.92125,6.14125l0.00125,0.00875c0.05625,0.1775 0.2475,0.27625 0.425,0.21875c0.17875,-0.05625 0.27625,-0.2475 0.22,-0.425l-0.00375,-0.0075c-1.585,-4.96875 1.18125,-10.33125 6.15,-11.92c0.17625,-0.0575 0.27375,-0.24625 0.2175,-0.42375c-0.05625,-0.1775 -0.24625,-0.275 -0.42375,-0.21875" id="path90"/>
   <path fill="#fbe99c" fill-rule="nonzero" d="m647.29376,368.296241c-3.98625,1.275 -8.29,-0.94375 -9.565,-4.93c-0.045,-0.1425 -0.1975,-0.22 -0.34,-0.175c-0.14125,0.045 -0.22,0.1975 -0.175,0.34c1.275,3.985 -0.9425,8.2875 -4.92625,9.56375l-0.00375,0c-0.1425,0.04625 -0.22125,0.19875 -0.175,0.34125c0.045,0.1425 0.1975,0.22125 0.34,0.175l0.0025,-0.00125c3.98375,-1.2725 8.28375,0.94375 9.56125,4.925l0,0.00625c0.04625,0.1425 0.19875,0.22125 0.34125,0.17625c0.14375,-0.04625 0.2225,-0.19875 0.17625,-0.34125l-0.0025,-0.00625c-1.27125,-3.98375 0.9475,-8.285 4.93125,-9.55875c0.1425,-0.04625 0.22,-0.1975 0.175,-0.34c-0.045,-0.1425 -0.1975,-0.22 -0.34,-0.175" id="path92"/>
   <path fill="#fbd6b1" fill-rule="nonzero" d="m302.912505,594.971244c0,0 -51.031251,-189.803753 65.196251,-224.001253c148.161252,-43.592501 154.488752,187.935003 154.488752,187.935003l-219.685003,36.066251" id="path94"/>
   <path fill="#3c3b3d" fill-rule="nonzero" d="m524.481258,548.601243l-19.68625,3.28625l-50.915001,101.216252l-84.782501,-77.167501l-72.625001,14.02c14.98125,52.263751 33.727501,140.097502 33.781251,219.521253l-12.4875,76.861376c0,0 70.491251,21.21875 58.980001,-1.74125c-16.1225,-32.157625 -46.198751,-11.291375 -46.198751,-11.291375l21.10875,-60.452501l11.82625,-43.767501c90.596251,6.91125 139.357502,-5.2925 139.357502,-5.2925l1.72125,47.175001l-14.77625,74.857376c0,0 81.895001,21.926375 55.407501,-9.86125c-20.2725,-24.328625 -43.455001,-1.599875 -43.455001,-1.599875l25.90375,-62.675001c13.43625,-97.532501 19.12125,-171.141253 -3.16,-263.088754" id="path96"/>
   <path fill="#f8f8f8" fill-rule="nonzero" d="m504.795008,551.887493l-50.915001,101.216252l-84.782501,-77.167501l135.697502,-24.04875" id="path98"/>
   <path fill="#7a7b7c" fill-rule="nonzero" d="m504.795008,551.887493l7.57875,38.191251l-20.8825,8.18l8.1125,28.6625l-45.723751,26.1825l50.915001,-101.216252" id="path100"/>
   <path fill="#7a7b7c" fill-rule="nonzero" d="m453.880007,653.103745l-51.235001,-14.7475l-2.0175,-21.51625l-24.2225,-4.29125l-7.3075,-36.612501l84.782501,77.167501" id="path102"/>
   <path fill="#b24929" fill-rule="nonzero" d="m460.881257,578.923744l-9.01,-9.44625l-18.54875,2.5625l-4.5375,14.0575l8.9275,7.405l-2.9725,42.253751l19.14,17.3475l13.5375,-26.88375l-13.28375,-35.152501l6.7475,-12.14375" id="path104"/>
   <path fill="#7a7b7c" fill-rule="nonzero" d="m448.223757,672.423745c1.3,3.23625 4.975,4.79875 8.20875,3.5c3.235,-1.2975 4.79875,-4.9725 3.50125,-8.20875c-1.29875,-3.23375 -4.97625,-4.7975 -8.20625,-3.50125c-3.235,1.30375 -4.805,4.97625 -3.50375,8.21" id="path106"/>
   <path fill="#7a7b7c" fill-rule="nonzero" d="m446.628757,698.217496c1.3,3.23625 4.975,4.79875 8.21,3.5c3.235,-1.2975 4.7975,-4.9725 3.5,-8.20875c-1.29875,-3.23375 -4.975,-4.7975 -8.205,-3.50125c-3.23625,1.30375 -4.805,4.9775 -3.505,8.21" id="path108"/>
   <path fill="#483a34" fill-rule="nonzero" d="m491.043757,276.338739c0,0 66.052501,141.245002 -161.407502,158.951252l4.1675,48.985001c0,0 -22.59875,-14.71375 -24.075,7.755c-1.69875,25.86875 21.305,10.83 21.305,10.83c0,0 -10.76875,61.047501 -29.65875,86.150001c-3.57375,-3.15375 -112.861252,-208.766253 -12.5825,-213.756253c-0.175,-5.94375 5.19,-46.951251 59.973751,-65.763751c82.860001,-28.45625 96.257501,38.968751 142.277502,-33.15125" id="path110"/>
   <path fill="#483a34" fill-rule="nonzero" d="m384.617506,475.149992c2.33875,8.38 0.72375,16.1525 -3.60875,17.36125c-4.3325,1.21 -9.74,-4.6025 -12.08,-12.98125c-2.33875,-8.38 -0.7225,-16.1525 3.60875,-17.3625c4.3325,-1.20875 9.74,4.60375 12.08,12.9825" id="path112"/>
   <path fill="#483a34" fill-rule="nonzero" d="m476.121257,448.677492c2.33875,8.37875 0.72375,16.1525 -3.60875,17.36125c-4.33125,1.20875 -9.74,-4.60375 -12.07875,-12.9825c-2.33875,-8.37875 -0.72375,-16.1525 3.60875,-17.36125c4.33125,-1.21 9.74,4.6025 12.07875,12.9825" id="path114"/>
   <path fill="#ec6180" fill-rule="nonzero" d="m468.100007,496.744993c0,0 -41.282501,6.87875 -64.736251,19.915c0,0 4.40875,33.867501 42.518751,23.33625c37.718751,-10.42375 22.2175,-43.251251 22.2175,-43.251251" id="path116"/>
   <path fill="#fbd6b1" fill-rule="nonzero" d="m315.813755,750.918746c0,0 20.31875,16.10625 28.95,-1.13375c8.63125,-17.24125 -17.37625,-19.47875 -17.37625,-19.47875l-11.57375,20.6125" id="path118"/>
   <path fill="#f8f8f8" fill-rule="nonzero" d="m324.811255,727.493746l5.71375,2.32125l-13.68375,22.55125l-5.3875,-3.20125l13.3575,-21.67125" id="path120"/>
   <path fill="#3c3b3d" fill-rule="nonzero" d="m296.472504,589.956244c0,0 -135.033752,79.442501 15.5725,162.270002l16.4975,-25.09c0,0 -119.960002,-50.755001 -23.49125,-112.616252l-8.57875,-24.56375" id="path122"/>
   <path fill="#7a7b7c" fill-rule="nonzero" d="m301.205004,741.127496c1.39375,0.60625 3.0125,-0.03125 3.62,-1.41875c0.60125,-1.39625 -0.035,-3.01375 -1.42375,-3.61875c-1.38875,-0.6075 -3.01,0.03125 -3.62,1.4175c-0.60375,1.3925 0.0325,3.01375 1.42375,3.62" id="path124"/>
   <path fill="#7a7b7c" fill-rule="nonzero" d="m308.986255,746.316246c1.39375,0.60625 3.01,-0.03 3.61875,-1.4225c0.60625,-1.38875 -0.03,-3.00875 -1.42125,-3.61375c-1.3925,-0.605 -3.0125,0.03 -3.61875,1.42c-0.60625,1.39 0.02875,3.01 1.42125,3.61625" id="path126"/>
  </g>
 </g>
</svg>