<svg width="150" height="150" xmlns="http://www.w3.org/2000/svg">
 <metadata id="metadata8">image/svg+xml</metadata>
 <defs>
  <clipPath clipPathUnits="userSpaceOnUse" id="clipPath18">
   <path d="m0,5523.78l0,-5523.78l5523.78,0l0,5523.78l-5523.78,0z" id="path20"/>
  </clipPath>
 </defs>
 <g>
  <title>background</title>
  <rect fill="none" id="canvas_background" height="152" width="152" y="-1" x="-1"/>
 </g>
 <g>
  <title>Layer 1</title>
  <path fill="#000000" fill-rule="evenodd" d="m71.292973,16.017671c-0.30625,5.641251 -0.6275,11.565001 -0.95875,17.687501c0.58,-0.26625 1.005,-0.3875 1.34,-0.63c3.3125,-2.38875 6.15625,-5.24875 8.2725,-8.7475c1.44875,-2.395 1.62375,-4.872501 -0.26875,-7.213751c-1.14125,-1.41375 -2.81125,-1.96875 -4.4325,-2.13625c-1.1525,-0.12 -2.3925,0.59375 -3.9525,1.04zm-0.00875,114.461252c0.16375,0.07 0.32625,0.13875 0.49125,0.20875c1.88375,-1.37625 4.01,-2.52375 5.5875,-4.18875c13.77875,-14.5425 22.01125,-43.577501 15.445,-62.775001c-2.57625,-7.53625 -7.12125,-13.795 -13.115,-18.95875c-0.9625,-0.8275 -2.42375,-1.30125 -3.71625,-1.4575c-1.5275,-0.18375 -3.1325,0.0525 -4.67375,0.2925c-1.12375,0.17625 -1.87625,0.845 -1.74875,2.205c2.62125,28.15 0.47125,56.467501 1.73,84.673751zm5.53875,-92.103751c1.1,0.25 1.8125,0.48625 2.54125,0.5675c3.85375,0.4225 6.74875,2.69375 9.69,4.9125c2.74875,2.0725 4.34875,5.03125 6.2725,7.76875c8.88625,12.65125 9.89125,30.72125 6.34,45.301251c-2.52125,10.3475 -5.99625,20.06125 -12.09375,28.89875c-7.72,11.18875 -23.0425,14.55875 -36.005,14.535c-2.320001,-0.00375 -4.637501,-0.5125 -5.973751,-2.8075c-0.2525,-0.435 -0.465,-0.9575 -0.49,-1.45c-0.135,-2.67 -0.3025,-5.31 0.1425,-8.01375c0.615,-3.7325 -0.2425,-7.9625 -0.14875,-11.75875c0.11125,-4.55 0.52875,-9.08875 0.49,-13.6425c-0.05625,-6.71125 -0.48125,-13.405 -0.50375,-20.125001c-0.03875,-13.0375 -1.16,-26.3175 -0.39875,-39.33125c0.5675,-9.66625 1.51875,-19.20125 0.6475,-28.883751c-0.16625,-1.85625 1.1575,-4.27 2.98875,-4.52c5.701251,-0.78 11.182501,1.1675 16.918751,0.9325c6.63875,-0.27 11.38625,-0.9225 17.44,1.96625c10.625,5.075 2.43125,16.545001 -3.155,21.850001c-1.39125,1.32 -2.985,2.4275 -4.7025,3.8" id="path60"/>
 </g>
</svg>