<svg width="999.9999999999999" height="750" xmlns="http://www.w3.org/2000/svg">
 <metadata id="metadata8">image/svg+xml</metadata>

 <g>
  <title>background</title>
  <rect fill="none" id="canvas_background" height="752" width="1002" y="-1" x="-1"/>
 </g>
 <g>
  <title>Layer 1</title>
  <g id="svg_1">
   <path fill="#dddddd" fill-rule="nonzero" d="m497.123493,719.234994c-132.202502,0 -143.750002,-4.945 -143.750002,-11.04375c0,-3.1825 3.145,-6.05 24.92,-8.065l0,10.8275l13.29125,0l0,-2.7625l209.600003,0l1.4775,0l0,2.7625l13.29125,0l0,-10.8275c21.77375,2.015 24.92,4.8825 24.92,8.065c0,6.09875 -11.5475,11.04375 -143.750002,11.04375" id="path16"/>
   <path fill="#f8f8f8" fill-rule="nonzero" d="m393.060991,708.191244l208.123753,0l0,-437.990007l-208.123753,0l0,437.990007z" id="path18"/>
   <path fill="#b7492f" fill-rule="nonzero" d="m378.293491,255.432487l0,455.521257l13.29125,0l0,-2.7625l211.077503,0l0,2.7625l13.29125,0l0,-455.521257l-237.660004,0" id="path20"/>
   <path fill="#b7492f" fill-rule="nonzero" d="m624.978495,244.798737l-255.710004,0l9.025,10.63375l237.660004,0l9.025,-10.63375" id="path22"/>
   <path fill="#ad452c" fill-rule="nonzero" d="m615.953494,255.432487l-237.660004,0l-9.025,-10.63375l255.710004,0l-9.025,10.63375" id="path24"/>
   <path fill="#b7492f" fill-rule="nonzero" d="m369.268491,244.798737l255.710004,0l0,-9.7749l-255.710004,0l0,9.7749z" id="path26"/>
   <path fill="#618e73" fill-rule="nonzero" d="m602.662244,708.191244l-1.4775,0l1.4775,0l0,0m-209.601253,0l-1.47625,0l1.47625,0l0,0" id="path28"/>
   <path fill="#8f3a27" fill-rule="nonzero" d="m602.662244,708.191244l-1.4775,0l0,-437.990007l-208.123753,0l0,437.990007l-1.47625,0l0,-439.466257l211.077503,0l0,439.466257" id="path30"/>
   <path fill="#8f3a27" fill-rule="nonzero" d="m573.124744,471.473741l-152.002502,0l0,-173.211253l152.002502,0l0,173.211253m-149.048752,-170.257503l0,167.303752l146.095002,0l0,-167.303752l-146.095002,0" id="path32"/>
   <path fill="#8f3a27" fill-rule="nonzero" d="m573.124744,680.131244l-152.002502,0l0,-173.212503l152.002502,0l0,173.212503m-149.048752,-170.258753l0,167.305002l146.095002,0l0,-167.305002l-146.095002,0" id="path34"/>
   <path fill="#8f3a27" fill-rule="nonzero" d="m407.830991,503.968741c-5.0425,0 -9.12875,-4.08625 -9.12875,-9.12875c0,-5.04125 4.08625,-9.1275 9.12875,-9.1275c5.04125,0 9.1275,4.08625 9.1275,9.1275c0,5.0425 -4.08625,9.12875 -9.1275,9.12875" id="path36"/>
   <path fill="#f9a727" fill-rule="nonzero" d="m416.958492,489.196241c0,5.04125 -4.08625,9.12875 -9.1275,9.12875c-5.04125,0 -9.12875,-4.0875 -9.12875,-9.12875c0,-5.04125 4.0875,-9.12875 9.12875,-9.12875c5.04125,0 9.1275,4.0875 9.1275,9.12875" id="path38"/>
   <path fill="#fbcb73" fill-rule="nonzero" d="m406.817241,483.759991c-0.4775,0 -0.8675,-0.325 -0.93,-0.79c-0.05,-0.25125 0.0125,-0.50125 0.16375,-0.7025c0.15,-0.20125 0.36375,-0.34 0.615,-0.37875c0.515,-0.07375 0.9925,0.2775 1.08,0.78c0.075,0.515 -0.27625,1.005 -0.79125,1.08l-0.1375,0.01125zm-3.805,10.66125c-0.27625,0 -0.5275,-0.1125 -0.71625,-0.31375c-1.1925,-1.34375 -1.85875,-3.08875 -1.85875,-4.91c0,-2.07125 0.86625,-4.055 2.39875,-5.46125c0.365,-0.34 0.9925,-0.30125 1.33125,0.0625c0.1625,0.18875 0.25125,0.42625 0.23875,0.6775c0,0.25125 -0.1125,0.49 -0.30125,0.6525c-1.155,1.05625 -1.78375,2.5 -1.78375,4.06875c0,1.34375 0.49,2.6375 1.36875,3.6425l0.02625,0.025c0.3375,0.38875 0.3,0.97875 -0.08875,1.3175c-0.1625,0.16375 -0.39,0.23875 -0.615,0.23875" id="path40"/>
   <path fill="#dddddd" fill-rule="nonzero" d="m844.409748,719.234994c-123.585002,0 -134.380002,-4.945 -134.380002,-11.04375c0,-2.725 2.155,-5.21875 15.55,-7.145l0,9.9075l13.2925,0l0,-2.7625l209.598753,0l1.4775,0l0,2.7625l13.29125,0l0,-9.9075c13.39625,1.92625 15.55,4.42 15.55,7.145c0,6.09875 -10.79375,11.04375 -134.380002,11.04375" id="path42"/>
   <path fill="#f8f8f8" fill-rule="nonzero" d="m740.348496,708.191244l208.122503,0l0,-437.990007l-208.122503,0l0,437.990007z" id="path44"/>
   <path fill="#b7492f" fill-rule="nonzero" d="m725.579746,255.432487l0,455.521257l13.2925,0l0,-2.7625l211.076253,0l0,2.7625l13.29125,0l0,-455.521257l-237.660004,0" id="path46"/>
   <path fill="#b7492f" fill-rule="nonzero" d="m972.266,244.798737l-255.711254,0l9.025,10.63375l237.660004,0l9.02625,-10.63375" id="path48"/>
   <path fill="#ad452c" fill-rule="nonzero" d="m963.23975,255.432487l-237.660004,0l-9.025,-10.63375l255.711254,0l-9.02625,10.63375" id="path50"/>
   <path fill="#b7492f" fill-rule="nonzero" d="m716.554746,244.798737l255.711254,0l0,-9.7749l-255.711254,0l0,9.7749z" id="path52"/>
   <path fill="#618e73" fill-rule="nonzero" d="m949.948499,708.191244l-1.4775,0l1.4775,0l0,0m-209.600003,0l-1.47625,0l1.47625,0l0,0" id="path54"/>
   <path fill="#8f3a27" fill-rule="nonzero" d="m949.948499,708.191244l-1.4775,0l0,-437.990007l-208.122503,0l0,437.990007l-1.47625,0l-0.00125,0l0,-439.466257l211.077503,0l0,439.466257" id="path56"/>
   <path fill="#8f3a27" fill-rule="nonzero" d="m920.410999,471.473741l-152.002502,0l0,-173.211253l152.002502,0l0,173.211253m-149.048752,-170.257503l0,167.303752l146.095002,0l0,-167.303752l-146.095002,0" id="path58"/>
   <path fill="#8f3a27" fill-rule="nonzero" d="m920.410999,680.131244l-152.002502,0l0,-173.212503l152.002502,0l0,173.212503m-149.048752,-170.258753l0,167.305002l146.095002,0l0,-167.305002l-146.095002,0" id="path60"/>
   <path fill="#8f3a27" fill-rule="nonzero" d="m755.117247,503.968741c-5.04125,0 -9.12875,-4.08625 -9.12875,-9.12875c0,-5.04125 4.0875,-9.1275 9.12875,-9.1275c5.04125,0 9.12875,4.08625 9.12875,9.1275c0,5.0425 -4.0875,9.12875 -9.12875,9.12875" id="path62"/>
   <path fill="#f9a727" fill-rule="nonzero" d="m764.245997,489.196241c0,5.04125 -4.0875,9.12875 -9.12875,9.12875c-5.04125,0 -9.12875,-4.0875 -9.12875,-9.12875c0,-5.04125 4.0875,-9.12875 9.12875,-9.12875c5.04125,0 9.12875,4.0875 9.12875,9.12875" id="path64"/>
   <path fill="#fbcb73" fill-rule="nonzero" d="m754.103497,483.759991c-0.4775,0 -0.8675,-0.325 -0.93,-0.79c-0.05,-0.25125 0.0125,-0.50125 0.16375,-0.7025c0.15125,-0.20125 0.36375,-0.34 0.615,-0.37875c0.515,-0.07375 0.9925,0.2775 1.08125,0.78c0.07375,0.515 -0.2775,1.005 -0.7925,1.08l-0.1375,0.01125zm-3.805,10.66125c-0.27625,0 -0.5275,-0.1125 -0.71625,-0.31375c-1.19125,-1.34375 -1.8575,-3.08875 -1.8575,-4.91c0,-2.07125 0.86625,-4.055 2.39875,-5.46125c0.36375,-0.34 0.99125,-0.30125 1.33,0.0625c0.16375,0.18875 0.25125,0.42625 0.23875,0.6775c0,0.25125 -0.1125,0.49 -0.30125,0.6525c-1.155,1.05625 -1.7825,2.5 -1.7825,4.06875c0,1.34375 0.48875,2.6375 1.3675,3.6425l0.02625,0.025c0.33875,0.38875 0.3,0.97875 -0.0875,1.3175c-0.16375,0.16375 -0.39125,0.23875 -0.61625,0.23875" id="path66"/>
   <path fill="#dddddd" fill-rule="nonzero" d="m186.647238,718.601244c-50.060001,0 -90.642501,-5.44875 -90.642501,-12.16875c0,-6.72 40.582501,-12.16875 90.642501,-12.16875c50.060001,0 90.642501,5.44875 90.642501,12.16875c0,6.72 -40.582501,12.16875 -90.642501,12.16875" id="path94"/>
   <path fill="#fbd6b1" fill-rule="nonzero" d="m105.159737,530.303742c0,0 -30.28125,-112.627502 38.686251,-132.920002c87.918751,-25.86875 91.672501,111.518752 91.672501,111.518752l-130.358752,21.40125" id="path96"/>
   <path fill="#3c3b3d" fill-rule="nonzero" d="m236.635989,502.787491l-11.68125,1.95l-30.2125,60.061251l-50.308751,-45.791251l-43.095001,8.32c8.88875,31.01375 20.01375,83.132501 20.045,130.262502l-7.41,45.608751c0,0 41.828751,12.59 34.998751,-1.03375c-9.5675,-19.08125 -27.41375,-6.7 -27.41375,-6.7l12.525,-35.871251l7.0175,-25.97125c53.758751,4.10125 82.693751,-3.14125 82.693751,-3.14125l1.02125,27.99375l-8.7675,44.420001c0,0 48.595001,13.01 32.8775,-5.8525c-12.02875,-14.43625 -25.785,-0.94875 -25.785,-0.94875l15.37125,-37.191251c7.9725,-57.875001 11.34625,-101.553752 -1.87625,-156.115002" id="path98"/>
   <path fill="#f8f8f8" fill-rule="nonzero" d="m224.954739,504.737491l-30.2125,60.061251l-50.308751,-45.791251l80.521251,-14.27" id="path100"/>
   <path fill="#7a7b7c" fill-rule="nonzero" d="m224.954739,504.737491l4.4975,22.6625l-12.39125,4.855l4.81375,17.0075l-27.1325,15.53625l30.2125,-60.061251" id="path102"/>
   <path fill="#7a7b7c" fill-rule="nonzero" d="m194.742238,564.798742l-30.4025,-8.75125l-1.1975,-12.7675l-14.3725,-2.54625l-4.33625,-21.72625l50.308751,45.791251" id="path104"/>
   <path fill="#b7492f" fill-rule="nonzero" d="m198.897238,520.781241l-5.34625,-5.605l-11.0075,1.52l-2.6925,8.34125l5.2975,4.395l-1.76375,25.0725l11.3575,10.29375l8.03375,-15.9525l-7.8825,-20.85875l4.00375,-7.20625" id="path106"/>
   <path fill="#7a7b7c" fill-rule="nonzero" d="m191.385988,576.263742c0.77125,1.92 2.9525,2.8475 4.87125,2.07625c1.92,-0.77 2.8475,-2.95 2.0775,-4.87125c-0.77125,-1.91875 -2.9525,-2.84625 -4.86875,-2.0775c-1.92125,0.77375 -2.85125,2.95375 -2.08,4.8725" id="path108"/>
   <path fill="#7a7b7c" fill-rule="nonzero" d="m190.439738,591.568742c0.77125,1.92 2.9525,2.8475 4.87125,2.07625c1.92,-0.77 2.8475,-2.95 2.0775,-4.87c-0.77125,-1.91875 -2.9525,-2.84625 -4.86875,-2.0775c-1.92125,0.77375 -2.85125,2.9525 -2.08,4.87125" id="path110"/>
   <path fill="#483a34" fill-rule="nonzero" d="m216.794739,341.229989c0,0 39.195001,83.812501 -95.777501,94.320001l2.4725,29.0675c0,0 -13.41,-8.73125 -14.285,4.60125c-1.00875,15.35125 12.64125,6.42625 12.64125,6.42625c0,0 -6.38875,36.226251 -17.59875,51.121251c-2.12125,-1.87125 -66.970501,-123.880002 -7.46625,-126.841252c-0.10375,-3.52625 3.08,-27.86 35.587501,-39.023751c49.168751,-16.885 57.118751,23.12375 84.426251,-19.67125" id="path112"/>
   <path fill="#483a34" fill-rule="nonzero" d="m153.642238,459.20249c1.38875,4.9725 0.43,9.585 -2.14125,10.3025c-2.57,0.7175 -5.78,-2.73125 -7.1675,-7.70375c-1.38875,-4.9725 -0.42875,-9.585 2.14125,-10.3025c2.57,-0.7175 5.78,2.73125 7.1675,7.70375" id="path114"/>
   <path fill="#483a34" fill-rule="nonzero" d="m207.939738,443.49374c1.38875,4.9725 0.43,9.585 -2.14125,10.3025c-2.57,0.7175 -5.77875,-2.73125 -7.1675,-7.70375c-1.3875,-4.9725 -0.42875,-9.585 2.14125,-10.3025c2.57125,-0.7175 5.78,2.73125 7.1675,7.70375" id="path116"/>
   <path fill="#fbd6b1" fill-rule="nonzero" d="m112.814737,622.841243c0,0 12.0575,9.5575 17.17875,-0.6725c5.12125,-10.23125 -10.31125,-11.55875 -10.31125,-11.55875l-6.8675,12.23125" id="path118"/>
   <path fill="#f8f8f8" fill-rule="nonzero" d="m118.153487,608.941243l3.39125,1.3775l-8.12,13.3825l-3.1975,-1.9l7.92625,-12.86" id="path120"/>
   <path fill="#3c3b3d" fill-rule="nonzero" d="m101.338487,527.327491c0,0 -80.128251,47.141251 9.24,96.290001l9.79,-14.8875c0,0 -71.183126,-30.11875 -13.94,-66.826251l-5.09,-14.57625" id="path122"/>
   <path fill="#7a7b7c" fill-rule="nonzero" d="m104.145987,617.031243c0.8275,0.36 1.7875,-0.01875 2.14875,-0.84125c0.35625,-0.82875 -0.02125,-1.78875 -0.845,-2.1475c-0.82375,-0.36125 -1.78625,0.0175 -2.1475,0.84125c-0.35875,0.82625 0.01875,1.7875 0.84375,2.1475" id="path124"/>
   <path fill="#7a7b7c" fill-rule="nonzero" d="m108.763487,620.109993c0.8275,0.36 1.78625,-0.0175 2.1475,-0.84375c0.36,-0.82375 -0.0175,-1.785 -0.84375,-2.14375c-0.82625,-0.36 -1.7875,0.01625 -2.1475,0.8425c-0.35875,0.825 0.0175,1.78625 0.84375,2.145" id="path126"/>
   <path fill="#fbd6b1" fill-rule="nonzero" d="m255.717239,600.656243c0,0 -8.44875,12.85875 -16.5225,4.7525c-8.07375,-8.10625 6.1625,-14.21 6.1625,-14.21l10.36,9.4575" id="path128"/>
   <path fill="#f8f8f8" fill-rule="nonzero" d="m246.284739,589.133742l-2.78625,2.3725l11.90875,10.15625l2.44,-2.80625l-11.5625,-9.7225" id="path130"/>
   <path fill="#3c3b3d" fill-rule="nonzero" d="m236.635989,502.787491c0,0 90.875001,23.18875 21.4475,97.903751l-13.9675,-11.06375c0,0 58.762501,-52.335001 -7.73875,-71.402501l0.25875,-15.4375" id="path132"/>
   <path fill="#7a7b7c" fill-rule="nonzero" d="m262.123489,592.418742c-0.67125,0.60125 -1.7025,0.54375 -2.30375,-0.125c-0.59875,-0.675 -0.54125,-1.705 0.12875,-2.30375c0.66875,-0.60125 1.7025,-0.54375 2.30375,0.12375c0.6,0.6725 0.5425,1.705 -0.12875,2.305" id="path134"/>
   <path fill="#7a7b7c" fill-rule="nonzero" d="m258.705989,596.791243c-0.67125,0.60125 -1.70125,0.54375 -2.30375,-0.1275c-0.6,-0.66875 -0.5425,-1.70125 0.1275,-2.30125c0.6725,-0.6 1.70375,-0.54375 2.30375,0.1275c0.60125,0.67 0.545,1.7 -0.1275,2.30125" id="path136"/>
   <path fill="#483a34" fill-rule="nonzero" d="m197.084738,424.93874c0,0 0.20625,0.1 0.55125,0.2925c0.34,0.175 0.78375,0.37625 1.3625,0.65375c0.58125,0.25375 1.25,0.55 1.9825,0.8425c0.73125,0.28875 1.51375,0.59125 2.30875,0.8575c1.585,0.54375 3.1925,0.98875 4.41625,1.22625c0.61125,0.1325 1.12625,0.21 1.48875,0.2625c0.3625,0.04875 0.57625,0.0875 0.57625,0.0875l0.06375,0.01125c0.34875,0.0625 0.58125,0.3975 0.51875,0.7475c-0.045,0.25 -0.23125,0.44 -0.46,0.505c0,0 -0.2275,0.0625 -0.6375,0.155c-0.40875,0.08375 -1.005,0.1775 -1.7125,0.18c-1.4225,0.0425 -3.30125,-0.235 -5.05375,-0.865c-1.7625,-0.60375 -3.3925,-1.54875 -4.4825,-2.44625c-0.5375,-0.43875 -0.98125,-0.89625 -1.24125,-1.21c-0.2425,-0.31125 -0.37125,-0.5 -0.37125,-0.5c-0.17,-0.24875 -0.10625,-0.58875 0.1425,-0.76c0.1675,-0.11375 0.3775,-0.12125 0.5475,-0.04" id="path138"/>
   <path fill="#483a34" fill-rule="nonzero" d="m196.200988,480.123741c0,0 -0.27875,-0.31 -0.73625,-0.8725c-0.23125,-0.27125 -0.49,-0.6575 -0.83875,-0.9675c-0.3525,-0.32375 -0.6875,-0.725 -1.12125,-1.10875c-0.2225,-0.18625 -0.45375,-0.38 -0.6925,-0.58125c-0.22625,-0.21625 -0.4775,-0.41125 -0.75625,-0.58c-0.2675,-0.18 -0.5425,-0.36625 -0.82375,-0.555c-0.295,-0.15 -0.59625,-0.3025 -0.9025,-0.4575c-0.29625,-0.18375 -0.6325,-0.24125 -0.95375,-0.35625l-0.485,-0.16375l-0.49625,-0.06875c-0.33125,-0.06125 -0.66375,-0.1125 -0.98875,-0.06125c-0.32625,0.01625 -0.6575,0.0125 -0.9625,0.12875c-0.3125,0.0825 -0.6375,0.13 -0.91375,0.3175c-0.28125,0.16375 -0.6,0.255 -0.83625,0.50625c-0.245,0.2275 -0.54375,0.37875 -0.76125,0.64375c-0.22125,0.26 -0.44125,0.51625 -0.6575,0.76875c-0.3525,0.58125 -0.765,1.11625 -1.01875,1.72c-0.2325,0.61375 -0.575,1.14125 -0.7125,1.72c-0.17,0.56125 -0.35375,1.07125 -0.50875,1.53c-0.10875,0.475 -0.2025,0.88875 -0.28,1.23c-0.1625,0.685 -0.27125,1.07875 -0.27125,1.07875l-0.01625,0.05875c-0.09375,0.3375 -0.44375,0.53625 -0.7825,0.4425c-0.285,-0.07875 -0.47,-0.34 -0.465,-0.6225c0,0 0.00625,-0.4225 0.0475,-1.16625c0.02375,-0.37375 0.0525,-0.82625 0.08625,-1.34625c0.08625,-0.5175 0.17875,-1.10625 0.31,-1.74375c0.08625,-0.64625 0.38,-1.31875 0.61125,-2.0425c0.1025,-0.36625 0.3,-0.71875 0.4875,-1.08375c0.19625,-0.3625 0.36125,-0.74875 0.61125,-1.10375c0.27125,-0.3475 0.5475,-0.70125 0.82625,-1.06c0.28,-0.35625 0.68125,-0.64 1.035,-0.95625c0.34125,-0.33625 0.81125,-0.5275 1.2425,-0.76625c0.425,-0.26375 0.91625,-0.37625 1.40125,-0.50375c0.48125,-0.1675 0.97875,-0.1725 1.47375,-0.18c0.5,-0.04375 0.975,0.0325 1.4425,0.1275l0.7,0.13l0.64375,0.2375c0.41875,0.175 0.8575,0.30625 1.21375,0.54875c0.36875,0.22125 0.73125,0.4375 1.0875,0.65c0.31125,0.25875 0.6175,0.5125 0.91375,0.75875c0.6225,0.46375 1.03875,1.05625 1.495,1.52875c0.435,0.49625 0.755,1.03 1.0575,1.46625c0.3225,0.44125 0.4825,0.8325 0.665,1.1525c0.33625,0.64125 0.51125,1.02 0.51125,1.02c0.125,0.2675 0.00875,0.585 -0.25875,0.71c-0.2175,0.10125 -0.47,0.04125 -0.6225,-0.1275" id="path140"/>
   <path fill="#483a34" fill-rule="nonzero" d="m136.275987,449.73124c0,0 0.16375,-0.16 0.4625,-0.41875c0.27875,-0.26 0.62,-0.60875 1.0775,-1.05875c0.43625,-0.46 0.9425,-0.98875 1.46625,-1.5775c0.52125,-0.59 1.07125,-1.22375 1.59125,-1.88c1.05,-1.30625 2.015,-2.66625 2.655,-3.73625c0.3325,-0.53 0.58,-0.9875 0.75375,-1.31125c0.16875,-0.32375 0.2775,-0.51125 0.2775,-0.51125l0.0325,-0.05625c0.17875,-0.3075 0.57125,-0.4125 0.87875,-0.23375c0.22,0.1275 0.33625,0.36625 0.31875,0.60375c0,0 -0.0175,0.23625 -0.07,0.65375c-0.06,0.41125 -0.175,1.00375 -0.41375,1.67c-0.44375,1.3525 -1.34375,3.025 -2.53125,4.45875c-1.1675,1.45125 -2.61,2.66375 -3.825,3.38375c-0.595,0.35625 -1.1775,0.6175 -1.56,0.75625c-0.375,0.12125 -0.59625,0.17875 -0.59625,0.17875c-0.2925,0.075 -0.59125,-0.1 -0.66625,-0.3925c-0.05125,-0.19625 0.01375,-0.39625 0.14875,-0.52875" id="path142"/>
   <path fill="#eeeeee" fill-rule="nonzero" d="m481.749742,156.057486l21.765,0l0,21.88l-21.765,0l0,-21.88zm16.1225,-125.292502c11.6675,0 20.4975,4.185 26.48625,12.5525c4.75875,6.60375 7.14,14.35625 7.14,23.26125c0,14.895 -6.74625,29.06 -20.23625,42.493751c-4.70375,4.68375 -7.2075,10.13375 -7.515,16.3525c-0.15625,2.07375 -0.2325,4.37625 -0.2325,6.91l0,8.63625l-21.765,0l0,-8.63625c0,-13.58875 3.33875,-23.6825 10.01875,-30.28625c7.215,-7.14 12.1675,-14.47125 14.855,-21.995c1.535,-4.37625 2.30375,-8.98375 2.30375,-13.82c0,-4.99 -1.11375,-8.905 -3.34,-11.74625c-2.45875,-3.3 -6.0275,-4.64375 -10.71,-4.03c-4.37625,0.5375 -7.525,3.57 -9.4425,9.0975c-0.845,2.3025 -1.42125,4.99125 -1.7275,8.06125l-20.95875,-3.685c0.76625,-8.9825 3.76,-16.54375 8.9825,-22.6875c3.53,-4.145 8.44375,-7.13875 14.74,-8.98125c3.3,-0.9975 7.1,-1.4975 11.40125,-1.4975" id="path144"/>
   <path fill="#eeeeee" fill-rule="nonzero" d="m829.035998,156.057486l21.765,0l0,21.88l-21.765,0l0,-21.88zm16.1225,-125.292502c11.66875,0 20.49875,4.185 26.48625,12.5525c4.75875,6.60375 7.14,14.35625 7.14,23.26125c0,14.895 -6.74625,29.06 -20.23625,42.493751c-4.7025,4.68375 -7.2075,10.13375 -7.515,16.3525c-0.155,2.07375 -0.2325,4.37625 -0.2325,6.91l0,8.63625l-21.765,0l0,-8.63625c0,-13.58875 3.34,-23.6825 10.01875,-30.28625c7.21625,-7.14 12.1675,-14.47125 14.85625,-21.995c1.53375,-4.37625 2.3025,-8.98375 2.3025,-13.82c0,-4.99 -1.11375,-8.905 -3.34,-11.74625c-2.4575,-3.3 -6.0275,-4.64375 -10.70875,-4.03c-4.37625,0.5375 -7.525,3.57 -9.44375,9.0975c-0.845,2.3025 -1.42125,4.99125 -1.7275,8.06125l-20.95875,-3.685c0.76625,-8.9825 3.76125,-16.54375 8.9825,-22.6875c3.53,-4.145 8.445,-7.13875 14.74,-8.98125c3.3,-0.9975 7.10125,-1.4975 11.40125,-1.4975" id="path146"/>
  </g>
 </g>
</svg>