<svg width="470" height="360" xmlns="http://www.w3.org/2000/svg">
 <metadata id="metadata8">image/svg+xml</metadata>

 <g>
  <title>background</title>
  <rect fill="none" id="canvas_background" height="362" width="472" y="-1" x="-1"/>
 </g>
 <g>
  <title>Layer 1</title>
  <g stroke="null" id="svg_1">
   <path fill="#dddddd" fill-rule="nonzero" d="m163.614252,340.114346c-41.39005,0 -70.963934,-4.182053 -70.963934,-9.344975c0,-5.157625 29.573883,-9.341123 70.963934,-9.341123c41.389569,0 78.926448,4.183498 78.926448,9.341123c0,5.162922 -37.536879,9.344975 -78.926448,9.344975" id="path16"/>
   <path fill="#a6a8ab" fill-rule="nonzero" d="m334.678777,166.386982c0,91.893944 -74.494001,166.387945 -166.389871,166.387945c-91.891055,0 -166.383129,-74.494001 -166.383129,-166.387945c0,-91.890573 74.492075,-166.386982 166.383129,-166.386982c91.89587,0 166.389871,74.496409 166.389871,166.386982" id="path18"/>
   <path fill="#f0f1f1" fill-rule="nonzero" d="m306.90243,166.386982c0,76.556377 -62.05811,138.612079 -138.613524,138.612079c-76.548673,0 -138.605338,-62.055702 -138.605338,-138.612079c0,-76.54771 62.056666,-138.610153 138.605338,-138.610153c76.555414,0 138.613524,62.062444 138.613524,138.610153" id="path20"/>
   <path fill="#d0d2d3" fill-rule="nonzero" d="m168.288906,304.999061c-76.548673,0 -138.605338,-62.055702 -138.605338,-138.612079c0,-76.54771 62.056666,-138.610153 138.605338,-138.610153l0.004334,0l0,-27.776828l-0.004334,0c-91.891055,0 -166.383129,74.496409 -166.383129,166.386982c0,91.893944 74.492075,166.387945 166.383129,166.387945l0.004334,0l0,-27.775865l-0.004334,0" id="path22"/>
   <path fill="#ffffff" fill-rule="nonzero" d="m29.683568,166.386982c0,76.556377 62.056666,138.612079 138.605338,138.612079l0.004334,0l0,-277.222233l-0.004334,0c-76.548673,0 -138.605338,62.062444 -138.605338,138.610153" id="path24"/>
   <path fill="#773249" fill-rule="nonzero" d="m175.747744,49.537952c0,3.554625 -2.882415,6.436558 -6.43704,6.436558l-2.037337,0c-3.554625,0 -6.435114,-2.881933 -6.435114,-6.436558l0,-25.546881c0,-3.555107 2.880489,-6.435595 6.435114,-6.435595l2.037337,0c3.554625,0 6.43704,2.880489 6.43704,6.435595l0,25.546881" id="path26"/>
   <path fill="#6c6e70" fill-rule="nonzero" d="m51.440358,158.926218c3.553662,0 6.43704,2.886267 6.43704,6.44667l0,2.033484c0,3.557033 -2.883378,6.441855 -6.43704,6.441855l-25.541585,0c-3.557514,0 -6.440892,-2.884822 -6.440892,-6.441855l0,-2.033484c0,-3.560403 2.883378,-6.44667 6.440892,-6.44667l25.541585,0" id="path28"/>
   <path fill="#6c6e70" fill-rule="nonzero" d="m285.146603,173.848227c-3.55607,0 -6.438003,-2.884822 -6.438003,-6.441855l0,-2.033484c0,-3.560403 2.881933,-6.44667 6.438003,-6.44667l25.542548,0c3.557033,0 6.439929,2.886267 6.439929,6.44667l0,2.033484c0,3.557033 -2.882896,6.441855 -6.439929,6.441855l-25.542548,0" id="path30"/>
   <path fill="#6c6e70" fill-rule="nonzero" d="m175.747744,49.537952c0,3.554625 -2.882415,6.436558 -6.43704,6.436558l-2.037337,0c-3.554625,0 -6.435114,-2.881933 -6.435114,-6.436558l0,-25.546881c0,-3.555107 2.880489,-6.435595 6.435114,-6.435595l2.037337,0c3.554625,0 6.43704,2.880489 6.43704,6.435595l0,25.546881" id="path32"/>
   <path fill="#6c6e70" fill-rule="nonzero" d="m160.838254,283.242271c0,-3.559922 2.880489,-6.442818 6.435114,-6.442818l2.037337,0c3.554625,0 6.43704,2.882896 6.43704,6.442818l0,25.543992c0,3.55318 -2.882415,6.434151 -6.43704,6.434151l-2.037337,0c-3.554625,0 -6.435114,-2.88097 -6.435114,-6.434151l0,-25.543992" id="path34"/>
   <path fill="#403f41" fill-rule="nonzero" d="m185.063828,178.640856c2.512603,2.518381 2.512603,6.596906 0,9.107102l-1.442652,1.441207c-2.5179,2.51501 -6.590647,2.518381 -9.109028,0l-83.524058,-83.525503c-2.52127,-2.513566 -2.519344,-6.59498 0,-9.114806l1.437837,-1.439763c2.509714,-2.51501 6.589202,-2.51501 9.103249,0l83.534652,83.531763" id="path36"/>
   <path fill="#403f41" fill-rule="nonzero" d="m162.800954,189.189165c-2.511158,2.518381 -6.593054,2.51501 -9.105175,0l-1.437355,-1.441207c-2.521752,-2.510195 -2.521752,-6.58872 -0.004334,-9.107102l61.709967,-61.707078c2.509714,-2.516936 6.590165,-2.516936 9.10662,0l1.440726,1.442652c2.515492,2.512121 2.515492,6.590165 0,9.106139l-61.710448,61.706596" id="path38"/>
   <path fill="#dddddd" fill-rule="nonzero" d="m283.508933,350.73055c-26.33225,0 -45.149806,-3.79924 -45.149806,-8.489304c0,-4.688619 18.817555,-8.488822 45.149806,-8.488822c26.334658,0 50.215941,3.800203 50.215941,8.488822c0,4.690063 -23.881283,8.489304 -50.215941,8.489304" id="path40"/>
   <path fill="#dddddd" fill-rule="nonzero" d="m376.950983,339.975185c-26.336102,0 -44.309061,-3.803092 -44.309061,-8.488822c0,-4.690545 17.972959,-8.491711 44.309061,-8.491711c26.33225,0 47.685522,3.801166 47.685522,8.491711c0,4.68573 -21.353271,8.488822 -47.685522,8.488822" id="path42"/>
   <path fill="#d15c58" fill-rule="nonzero" d="m432.995797,193.306212c0,0 3.568108,3.857505 9.389757,-8.395406c5.812019,-12.246651 1.863506,15.269672 -4.502268,21.077838c-6.360959,5.812982 -6.717288,-0.336105 -6.717288,-0.336105l1.829799,-12.346327" id="path44"/>
   <path fill="#ea786a" fill-rule="nonzero" d="m405.453953,180.990221c0,0 19.375162,-7.337975 28.553048,10.403851c9.173071,17.737492 1.295305,26.905748 -4.858598,29.971142c-6.153903,3.062505 -23.694451,-40.374994 -23.694451,-40.374994" id="path46"/>
   <path fill="#ea786a" fill-rule="nonzero" d="m245.807854,302.346816l6.50349,36.273355c0,0 11.204629,7.93266 28.946455,3.037466c17.741345,-4.895675 7.83491,-22.576829 7.83491,-22.576829l-43.284855,-16.733992" id="path48"/>
   <path fill="#d15c58" fill-rule="nonzero" d="m344.880387,311.548778l4.283174,21.542993c0,0 11.623075,4.893749 24.468263,0c12.847114,-4.893749 3.059616,-30.744955 3.059616,-30.744955l-31.811053,9.201962" id="path50"/>
   <path fill="#ea786a" fill-rule="nonzero" d="m271.774626,143.43071c0,0 -21.412499,-27.204294 -28.141344,-25.370643c-6.7274,1.837503 3.061542,47.226627 0,54.507782c-3.05769,7.281636 28.141344,-29.137139 28.141344,-29.137139" id="path52"/>
   <path fill="#d15c58" fill-rule="nonzero" d="m264.636003,150.695493c0,0 -16.412333,-22.846483 -17.633964,-23.459466c-1.225965,-0.612501 1.88999,23.772939 1.221632,32.009442c-0.666914,8.233613 16.412333,-8.549976 16.412333,-8.549976" id="path54"/>
   <path fill="#ea786a" fill-rule="nonzero" d="m367.501035,308.622063l6.74329,25.692784c0,0 18.350957,8.849004 35.480282,-4.825854c1.837022,-15.50899 3.377423,-53.290484 3.377423,-53.290484l-45.600995,29.992811" id="path56"/>
   <path fill="#f88976" fill-rule="nonzero" d="m434.502973,226.003273c4.588943,63.890317 -53.494651,95.305074 -118.350428,95.305074c-64.854813,0 -105.502832,-34.822035 -105.502832,-87.962284c0,-53.145064 49.80857,-101.728631 110.09033,-101.728631c63.903799,0 109.958874,41.384754 113.762929,94.385841" id="path58"/>
   <path fill="#ea786a" fill-rule="nonzero" d="m275.447225,170.060062c-0.919233,-4.58798 22.307656,-44.557047 29.057206,-41.292782c6.748106,3.261857 10.399036,58.046998 6.114899,66.644164c-4.281729,8.601499 -34.252872,-20.76292 -35.172105,-25.351382" id="path60"/>
   <path fill="#d15c58" fill-rule="nonzero" d="m283.520009,167.919198c0,0 13.947401,-27.868318 17.620482,-28.157715c3.670673,-0.28699 4.283174,51.323932 -1.835577,46.316543c-6.117307,-5.005944 -16.130159,-14.490081 -15.784904,-18.158828" id="path62"/>
   <path fill="#d15c58" fill-rule="nonzero" d="m315.064296,140.677826c0,0 34.349658,-5.051689 65.948359,13.645484c2.716288,3.062024 2.749995,6.730771 2.749995,6.730771c0,0 -27.458058,-15.302415 -65.944988,-12.283729c-0.333216,-3.48047 -2.753366,-8.092526 -2.753366,-8.092526" id="path64"/>
   <path fill="#f88976" fill-rule="nonzero" d="m326.527505,319.612413l-6.116343,23.64052c0,0 -9.910768,4.670802 -35.056057,1.70701c-4.097305,-6.974423 -8.988646,-39.396533 -8.988646,-39.396533l50.161047,14.049003" id="path66"/>
   <path fill="#ea786a" fill-rule="nonzero" d="m231.757888,208.36016c-5.556329,-2.621428 -30.119934,2.661876 -30.119934,2.661876l5.464839,77.027791c0,0 21.325824,3.091879 30.160864,-2.142791c8.837447,-5.228891 14.017704,-18.698137 12.477302,-40.429887c-1.53992,-21.729343 -12.426742,-34.496524 -17.983071,-37.116988" id="path68"/>
   <path fill="#f88976" fill-rule="nonzero" d="m221.930423,248.287334c1.511029,21.272375 -5.124881,39.072947 -14.827631,39.762492c-9.696489,0.688101 -18.781922,-15.996776 -20.294396,-37.267225c-1.506695,-21.273338 5.131141,-39.07391 14.829557,-39.760566c9.700823,-0.686656 18.78433,15.998702 20.292469,37.265299" id="path70"/>
   <path fill="#d15c58" fill-rule="nonzero" d="m201.068309,260.312965c0.123271,1.795129 -1.225484,3.352384 -3.015797,3.48047l-1.146032,0.079933c-1.790314,0.12616 -3.34805,-1.225484 -3.475655,-3.019168l-1.598666,-22.519046c-0.125197,-1.79224 1.22115,-3.349977 3.016279,-3.477099l1.143624,-0.080896c1.790314,-0.12616 3.349013,1.223558 3.475655,3.018205l1.600592,22.517601" id="path72"/>
   <path fill="#d15c58" fill-rule="nonzero" d="m213.822007,260.763674c0.12953,1.791758 -1.22115,3.349013 -3.012427,3.477581l-1.14218,0.081378c-1.796092,0.12616 -3.352384,-1.223558 -3.479025,-3.018687l-1.596259,-22.51712c-0.127604,-1.79224 1.223076,-3.349495 3.011464,-3.476618l1.146995,-0.081859c1.791277,-0.128567 3.348532,1.222113 3.476618,3.016279l1.594814,22.519046" id="path74"/>
   <path fill="#ffffff" fill-rule="nonzero" d="m245.104826,194.338604c-2.12353,6.770737 1.340087,13.886729 7.739086,15.896618c6.400444,2.007963 13.313231,-1.850504 15.437243,-8.619316c2.126419,-6.771219 -1.339605,-13.88384 -7.741012,-15.895655c-6.401407,-2.009408 -13.310824,1.850023 -15.435316,8.618353" id="path76"/>
   <path fill="#221f1f" fill-rule="nonzero" d="m246.370276,194.734418c-1.661265,5.295342 1.047319,10.857449 6.049411,12.428187c5.004018,1.571219 10.403851,-1.444097 12.070413,-6.737512c1.656931,-5.293897 -1.050208,-10.855523 -6.053745,-12.428668c-5.003537,-1.570256 -10.403851,1.449393 -12.066079,6.737994" id="path78"/>
   <path fill="#ffffff" fill-rule="nonzero" d="m236.515846,192.928696c-2.338772,4.544161 -6.680692,6.967681 -9.700342,5.416686c-3.01965,-1.556774 -3.575331,-6.50012 -1.238485,-11.042836c2.339253,-4.54368 6.681655,-6.968163 9.69986,-5.414279c3.021094,1.55244 3.575812,6.497231 1.238966,11.040429" id="path80"/>
   <path fill="#221f1f" fill-rule="nonzero" d="m234.320569,191.822631c-1.828836,3.551736 -5.224076,5.446541 -7.586442,4.233095c-2.361885,-1.215372 -2.792369,-5.081063 -0.965941,-8.631354c1.827873,-3.551736 5.224557,-5.446059 7.586924,-4.23454c2.358033,1.216335 2.792851,5.078173 0.96546,8.632798" id="path82"/>
   <path fill="#ffffff" fill-rule="nonzero" d="m262.797536,193.836854c0,1.224521 -0.99387,2.216946 -2.21502,2.216946c-1.222113,0 -2.21502,-0.992425 -2.21502,-2.216946c0,-1.223076 0.992907,-2.213575 2.21502,-2.213575c1.22115,0 2.21502,0.990499 2.21502,2.213575" id="path84"/>
   <path fill="#ffffff" fill-rule="nonzero" d="m233.463453,187.344439c-0.240281,0.565793 -0.891786,0.826299 -1.452282,0.585536c-0.564348,-0.238837 -0.827262,-0.887452 -0.589869,-1.449875c0.239318,-0.565312 0.892749,-0.825336 1.455172,-0.586017c0.562422,0.237392 0.825817,0.891786 0.58698,1.450356" id="path86"/>
   <path fill="#8bc543" fill-rule="nonzero" d="m405.188632,93.15795c-16.02326,27.576032 -31.626147,55.478057 -40.358622,84.967192c-14.220908,-4.214797 -28.419666,-8.429113 -42.758066,-12.657874c7.365903,-29.79057 9.616075,-59.963472 15.965958,-91.642106c23.455614,3.72027 45.453648,10.329696 67.150729,19.332788" id="path88"/>
   <path fill="#006738" fill-rule="nonzero" d="m405.188632,93.15795l-2.424002,-1.408464c-16.034335,27.604924 -31.762901,55.680298 -40.622979,85.579211l2.68836,0.796444l0.796444,-2.68836c-14.219945,-4.214316 -28.419666,-8.429113 -42.761436,-12.658356l-0.793073,2.688841l2.721585,0.673173c3.719788,-15.045762 6.134641,-30.125712 8.415149,-45.371789c2.279544,-15.246558 4.424261,-30.659243 7.578256,-46.392624l-2.749032,-0.550866l-0.439152,2.768775c23.215332,3.682711 44.988013,10.221834 66.515596,19.15366l1.074285,-2.589647l-2.424002,-1.408464l2.424002,1.408464l1.074766,-2.589647c-21.867541,-9.073876 -44.090448,-15.754568 -67.786344,-19.511916l-2.658987,-0.421817l-0.529197,2.639726c-3.195888,15.945253 -5.351199,31.458095 -7.625928,46.665168c-2.273766,15.208518 -4.666469,30.109822 -8.312584,44.855112l-0.6438,2.603611l2.572312,0.758403c14.335511,4.227317 28.532824,8.441151 42.754214,12.65643l2.688841,0.796926l0.796444,-2.688841c8.60487,-29.078393 24.082079,-56.807069 40.094745,-84.354691l1.60926,-2.770219l-2.958977,-1.227891l-1.074766,2.589647" id="path90"/>
   <path fill="#006738" fill-rule="nonzero" d="m362.315482,109.79997c12.722399,3.643226 19.183997,14.500193 14.825223,23.531695c-4.389591,9.076765 -15.569181,14.096193 -25.674004,11.176219c-10.052819,-2.952236 -17.196739,-13.096063 -15.674635,-22.848891c1.557737,-9.707083 13.795239,-15.42376 26.523416,-11.859023" id="path92"/>
   <path fill="#006738" fill-rule="nonzero" d="m322.071945,165.467267c3.815131,1.125326 7.613889,2.245837 11.407833,3.370682c1.792721,-6.267543 -2.11101,-12.895748 -8.761366,-14.792479c-0.791147,3.820909 -1.664635,7.628335 -2.646467,11.421797" id="path94"/>
   <path fill="#8bc543" fill-rule="nonzero" d="m352.229438,122.028324c-1.63141,-0.323585 -2.759626,0.696287 -3.37309,3.03554c-0.622613,2.355625 -0.196944,3.72653 1.250042,4.127159c0.884563,0.243171 1.631892,0.05056 2.240541,-0.593722c0.624058,-0.64043 1.511029,-2.026261 2.713399,-4.162311c1.203815,-2.133642 2.597833,-3.563774 4.19987,-4.275951c1.592407,-0.710251 3.42365,-0.777665 5.445578,-0.184424c2.357551,0.691953 3.866654,2.086934 4.47434,4.141605c0.618761,2.053227 0.467562,4.148347 -0.376553,6.300768c-2.046967,5.186035 -5.432095,7.457393 -10.200166,6.876192c0.341883,-1.493212 0.690508,-2.984017 1.037689,-4.477229c2.548236,0.389555 4.314955,-0.797889 5.338197,-3.570997c0.957274,-2.601204 0.366923,-4.227798 -1.793684,-4.860042c-0.955348,-0.276877 -1.776831,-0.16709 -2.45482,0.340439c-0.675581,0.504158 -1.686304,1.860617 -2.973905,4.065043c-1.289527,2.200574 -2.626243,3.672117 -4.014964,4.418001c-1.392573,0.738179 -2.872303,0.886008 -4.481563,0.436263c-1.710862,-0.481044 -3.007612,-1.56496 -3.886878,-3.256079c-0.879267,-1.690638 -1.035281,-3.838244 -0.413149,-6.444744c1.210556,-5.172552 4.031336,-7.364459 8.338105,-6.470747c-0.358737,1.519696 -0.713622,3.038429 -1.068988,4.555236" id="path96"/>
   <path fill="#8bc543" fill-rule="nonzero" d="m346.024493,121.763003c-0.341402,1.417131 -0.686175,2.83041 -1.024687,4.240318c-1.519215,-0.405445 -3.044207,-0.80463 -4.579794,-1.20237c0.30288,-1.418094 0.60576,-2.833299 0.906713,-4.257653c1.582294,0.404482 3.147736,0.811853 4.697768,1.219705" id="path98"/>
   <path fill="#8bc543" fill-rule="nonzero" d="m373.267309,129.562761c-0.572053,1.355014 -1.136401,2.709065 -1.696898,4.063598c-1.486471,-0.453116 -2.964756,-0.895157 -4.443041,-1.335753c0.521974,-1.370423 1.050208,-2.73892 1.583739,-4.109825c1.515362,0.456005 3.033132,0.916826 4.556199,1.38198" id="path100"/>
   <path fill="#006738" fill-rule="nonzero" d="m364.154911,177.925308c1.156625,-3.764089 2.397037,-7.504101 3.71401,-11.222445c-6.428372,-1.909732 -13.192368,1.609741 -15.046725,7.859949c3.772756,1.121956 7.553217,2.242948 11.332715,3.362496" id="path102"/>
   <path fill="#006738" fill-rule="nonzero" d="m404.150462,92.732281c-5.783609,-2.375368 -11.568181,-4.579312 -17.397535,-6.604129c-2.81789,6.395147 2.242467,13.847244 11.398684,17.246817c2.000741,-3.552699 4.015927,-7.098175 5.998851,-10.642688" id="path104"/>
   <path fill="#006738" fill-rule="nonzero" d="m338.037903,73.825162c-0.773812,4.056375 -1.504769,8.080007 -2.198648,12.080525c9.678191,1.754681 18.608573,-1.775868 20.609795,-8.517232c-6.057116,-1.387276 -12.195128,-2.581461 -18.411147,-3.563293" id="path106"/>
   <path fill="#006738" fill-rule="nonzero" d="m349.273831,151.980686c2.252097,0.661135 3.530067,2.919974 2.876636,5.0488c-0.659209,2.129308 -2.946939,3.337457 -5.133549,2.692693c-2.189017,-0.642837 -3.477581,-2.897342 -2.895897,-5.043504c0.594685,-2.143272 2.900231,-3.351903 5.15281,-2.69799" id="path108"/>
   <path fill="#006738" fill-rule="nonzero" d="m367.693164,94.139781c3.123659,0.892749 4.92553,3.432317 4.079488,5.612667c-0.857598,2.178424 -3.917214,3.221891 -6.874265,2.392221c-2.944532,-0.833522 -4.814779,-3.277266 -4.136308,-5.515881c0.691953,-2.230429 3.806945,-3.381276 6.931085,-2.489008" id="path110"/>
   <path fill="#8bc543" fill-rule="nonzero" d="m394.939351,77.942209c-11.902842,29.588329 -23.349678,59.43909 -27.770568,89.874424c-14.675468,-2.134123 -29.334565,-4.27547 -44.128489,-6.403333c3.02302,-30.537417 0.925011,-60.721875 2.675359,-92.984119c23.745493,0.320215 46.463408,3.713529 69.223699,9.513028" id="path112"/>
   <path fill="#006738" fill-rule="nonzero" d="m394.939351,77.942209l-2.600722,-1.046356c-11.909583,29.617702 -23.456095,59.658184 -27.944399,90.517742l2.774553,0.403037l0.403519,-2.774071c-14.674505,-2.134123 -29.334565,-4.275951 -44.132823,-6.404296l-0.399185,2.775034l2.789962,0.276396c1.526437,-15.422797 1.755644,-30.693431 1.828354,-46.108524c0.071747,-15.416055 -0.013001,-30.97705 0.856635,-46.999828l-2.799592,-0.152162l-0.037559,2.803444c23.501359,0.317807 45.986698,3.67308 68.569305,9.426353l0.691953,-2.71677l-2.600722,-1.046356l2.600722,1.046356l0.692434,-2.71677c-22.938936,-5.845244 -45.889429,-9.276599 -69.878093,-9.599221l-2.691249,-0.036596l-0.145902,2.687878c-0.881193,16.238983 -0.792592,31.901099 -0.864821,47.277187c-0.071747,15.377052 -0.304806,30.467596 -1.801389,45.582697l-0.264358,2.669099l2.655134,0.38185c14.790072,2.127382 29.447242,4.268247 44.124155,6.402851l2.775034,0.403519l0.403037,-2.775034c4.353477,-30.010628 15.701119,-59.672149 27.597219,-89.231105l1.195629,-2.97246l-3.104398,-0.790666l-0.692434,2.71677" id="path114"/>
   <path fill="#006738" fill-rule="nonzero" d="m354.894203,100.55756c13.116769,1.778757 21.060022,11.602369 18.041335,21.162105c-3.041318,9.615593 -13.391239,16.184089 -23.803276,14.738548c-10.375441,-1.479248 -18.898452,-10.497749 -18.787701,-20.367106c0.147828,-9.830354 11.440577,-17.239594 24.549641,-15.533548" id="path116"/>
   <path fill="#006738" fill-rule="nonzero" d="m323.040293,161.4133c3.933586,0.566756 7.855134,1.133994 11.770904,1.701231c0.876859,-6.456782 -3.937438,-12.458041 -10.790035,-13.384016c-0.236429,3.893138 -0.55231,7.78772 -0.980868,11.682784" id="path118"/>
   <path fill="#8bc543" fill-rule="nonzero" d="m346.66396,114.100479c-1.658376,-0.085712 -2.631058,1.087286 -2.906491,3.492027c-0.276877,2.418705 0.34381,3.712084 1.831725,3.904213c0.910566,0.112677 1.61889,-0.187314 2.131716,-0.912492c0.525826,-0.722289 1.205741,-2.220316 2.088378,-4.507084c0.884563,-2.282433 2.064302,-3.897472 3.544995,-4.832114c1.475396,-0.930308 3.278711,-1.258227 5.360829,-0.961126c2.433151,0.343328 4.127641,1.512473 5.023279,3.456394c0.906232,1.943439 1.05695,4.039522 0.531123,6.289211c-1.284711,5.429206 -4.310621,8.157051 -9.11288,8.265876c0.129049,-1.524511 0.253283,-3.048541 0.386665,-4.576905c2.578572,0.020224 4.157496,-1.407982 4.770478,-4.300509c0.576868,-2.708102 -0.236429,-4.236947 -2.465895,-4.553792c-0.988573,-0.136272 -1.785498,0.090527 -2.381628,0.689064c-0.597574,0.597092 -1.404611,2.084526 -2.360441,4.448337c-0.962571,2.363811 -2.073933,4.012556 -3.345161,4.948161c-1.270747,0.931753 -2.711955,1.287601 -4.37033,1.074766c-1.765274,-0.231132 -3.203111,-1.11714 -4.312065,-2.66621c-1.114733,-1.548106 -1.570256,-3.649967 -1.331901,-6.320511c0.454561,-5.291489 2.93442,-7.866209 7.322566,-7.598481c-0.136753,1.556774 -0.273025,3.112103 -0.404963,4.661172" id="path120"/>
   <path fill="#8bc543" fill-rule="nonzero" d="m340.486944,114.730797c-0.138679,1.450356 -0.273025,2.896379 -0.411705,4.34192c-1.555811,-0.18298 -3.122696,-0.361145 -4.700657,-0.534975c0.096305,-1.445541 0.192129,-2.893008 0.290842,-4.341439c1.616964,0.172868 3.224298,0.351032 4.82152,0.534494" id="path122"/>
   <path fill="#8bc543" fill-rule="nonzero" d="m368.564245,118.54689c-0.37222,1.422428 -0.737698,2.841967 -1.095472,4.263431c-1.534142,-0.233059 -3.06395,-0.46082 -4.591351,-0.687138c0.321659,-1.429169 0.646689,-2.859301 0.980387,-4.290878c1.56496,0.233059 3.132327,0.469969 4.706435,0.714585" id="path124"/>
   <path fill="#006738" fill-rule="nonzero" d="m366.472977,167.715994c0.609612,-3.891212 1.297713,-7.770385 2.068154,-11.638965c-6.633021,-0.970275 -12.825927,3.48047 -13.76731,9.934845c3.898916,0.567238 7.803129,1.133512 11.699156,1.704121" id="path126"/>
   <path fill="#006738" fill-rule="nonzero" d="m393.854954,77.672554c-6.063857,-1.525474 -12.106046,-2.876636 -18.165087,-4.045782c-1.872655,6.735586 4.201796,13.38546 13.752383,15.434353c1.472988,-3.801166 2.95657,-7.599925 4.412704,-11.388572" id="path128"/>
   <path fill="#006738" fill-rule="nonzero" d="m325.715652,68.429181c-0.186832,4.126678 -0.336587,8.211945 -0.447819,12.270728c9.833243,0.350069 18.163161,-4.422816 19.178218,-11.378941c-6.191462,-0.507528 -12.43878,-0.810408 -18.730399,-0.891786" id="path130"/>
   <path fill="#006738" fill-rule="nonzero" d="m348.028123,144.169371c2.324808,0.329845 3.913362,2.382591 3.568589,4.586054c-0.345254,2.198166 -2.432188,3.721233 -4.694879,3.399092c-2.252579,-0.321659 -3.855579,-2.370071 -3.586406,-4.577868c0.283619,-2.204426 2.391258,-3.730864 4.712695,-3.407278" id="path132"/>
   <path fill="#006738" fill-rule="nonzero" d="m357.971635,84.285351c3.222854,0.436744 5.367089,2.693657 4.840781,4.971275c-0.529197,2.277137 -3.414983,3.752532 -6.460635,3.349977c-3.030243,-0.401593 -5.233225,-2.554014 -4.883155,-4.863413c0.368367,-2.30651 3.285934,-3.890249 6.503009,-3.457838" id="path134"/>
   <path fill="#e8af2e" fill-rule="nonzero" d="m462.508526,318.538128c-5.595332,18.88208 -25.434204,29.659114 -44.32447,24.069078c-18.881117,-5.591962 -29.656224,-25.433723 -24.067152,-44.315321c5.592443,-18.887377 25.434686,-29.662484 44.320136,-24.072449c18.88545,5.592443 29.657187,25.43276 24.071486,44.318692" id="path136"/>
   <path fill="#f9ca35" fill-rule="nonzero" d="m456.330547,316.709292c-4.588943,15.471912 -20.840446,24.300692 -36.311877,19.720417c-15.475283,-4.58172 -24.304063,-20.837075 -19.721861,-36.309951c4.580757,-15.473839 20.839001,-24.304063 36.310432,-19.724269c15.471431,4.583165 24.302618,20.841409 19.723306,36.313803" id="path138"/>
   <path fill="#c38728" fill-rule="nonzero" d="m436.684286,302.523536c0.462265,-2.238133 -1.223076,-3.935031 -5.080099,-5.085396c-3.857023,-1.158552 -6.096119,-0.704473 -6.717288,1.35068c-0.380406,1.262561 -0.033707,2.362848 1.044911,3.302305c1.073803,0.942828 3.380313,2.338772 6.924344,4.182535c3.548847,1.851468 5.946846,3.881581 7.198814,6.101416c1.251968,2.213575 1.4831,4.679951 0.669321,7.386128c-0.943791,3.158811 -3.091397,5.175442 -6.428372,6.049893c-3.341791,0.873488 -6.828039,0.761293 -10.478006,-0.329364c-8.802296,-2.640689 -12.812444,-7.517584 -12.016482,-14.635983l7.461246,1.598185c-0.520048,3.70149 1.555329,6.251171 6.226131,7.65193c4.372256,1.309269 7.001388,0.482971 7.887396,-2.481785c0.394851,-1.314566 0.158904,-2.451449 -0.712659,-3.41113c-0.866747,-0.963534 -3.14918,-2.413408 -6.837669,-4.351551c-3.688489,-1.943921 -6.173164,-3.96007 -7.439577,-6.05519c-1.266413,-2.097046 -1.550514,-4.313029 -0.852301,-6.653727c0.755996,-2.514529 2.518381,-4.310621 5.267895,-5.381535c2.768775,-1.069469 6.283915,-0.964015 10.550235,0.317326c8.460412,2.534271 12.057411,6.668654 10.786183,12.392554l-7.454023,-1.947291" id="path140"/>
   <path fill="#c38728" fill-rule="nonzero" d="m436.925049,293.899405l-6.93879,-2.0826l1.892397,-6.314732l6.94842,2.079711l-1.902028,6.317621" id="path142"/>
   <path fill="#c38728" fill-rule="nonzero" d="m425.633264,331.590373l-6.943605,-2.085008l1.887582,-6.316658l6.943605,2.083563l-1.887582,6.318103" id="path144"/>
   <path fill="#ffffff" fill-rule="nonzero" d="m453.869949,304.905164c0,-2.802963 1.237522,-7.065913 2.162052,-7.986591c0.905269,-0.903824 5.18122,-2.162052 7.983701,-2.162052c-2.802481,0 -6.919529,-1.096916 -7.983701,-2.162052c-1.11714,-1.114251 -2.162052,-5.182183 -2.162052,-7.982738c0,2.86845 -1.083434,6.903157 -2.301694,8.118047c-1.256783,1.260154 -5.113806,2.026743 -7.844059,2.026743c2.802481,0 6.933975,1.108954 7.983701,2.162052c1.068988,1.062728 2.162052,5.183628 2.162052,7.986591" id="path146"/>
   <path fill="#ffffff" fill-rule="nonzero" d="m460.64502,306.47542c0,-0.998685 0.438189,-2.513566 0.770442,-2.843893c0.322622,-0.320696 1.844245,-0.768034 2.841004,-0.769479c-0.996759,0.001445 -2.465413,-0.389555 -2.841004,-0.767552c-0.399667,-0.397259 -0.770442,-1.845689 -0.770442,-2.843411c0,1.021798 -0.385221,2.457709 -0.818594,2.891564c-0.447819,0.445893 -1.820168,0.7194 -2.792851,0.7194c0.996759,0 2.465413,0.396296 2.841004,0.769479c0.37559,0.379924 0.770442,1.845208 0.770442,2.843893" id="path148"/>
   <path fill="#ffffff" fill-rule="nonzero" d="m447.422316,314.11483c0,-1.382461 0.611538,-3.487693 1.068988,-3.946106c0.447819,-0.445412 2.561718,-1.067062 3.943698,-1.067062c-1.38198,0 -3.418835,-0.540272 -3.943698,-1.06658c-0.54894,-0.55231 -1.068988,-2.559792 -1.068988,-3.943698c0,1.41665 -0.529679,3.409204 -1.131586,4.010149c-0.621169,0.622613 -2.528012,1.00013 -3.876284,1.00013c1.386795,0 3.42365,0.54894 3.943698,1.067062c0.524863,0.528716 1.064172,2.563645 1.064172,3.946106" id="path150"/>
   <path fill="#f88976" fill-rule="nonzero" d="m383.933111,158.153368c0.589869,1.709899 0.603834,3.018687 0.603834,3.018687c0,0 -28.136047,-15.551846 -67.578806,-12.482117c-0.088601,-0.924048 -0.32503,-1.925141 -0.626947,-2.901676c-0.982313,0.248949 -1.926586,0.528234 -2.834744,0.828706l4.702583,33.590773c7.329789,4.259579 16.558235,7.909546 26.870115,10.317658c27.121471,6.334475 51.429868,1.694009 54.295429,-10.364366c1.689675,-7.126104 -4.491675,-15.248966 -15.431464,-22.007665" id="path152"/>
  </g>
 </g>
</svg>