<svg width="1000" height="1000" xmlns="http://www.w3.org/2000/svg">
 <metadata id="metadata8">image/svg+xml</metadata>

 <g>
  <title>background</title>
  <rect fill="none" id="canvas_background" height="402" width="582" y="-1" x="-1"/>
 </g>
 <g>
  <title>Layer 1</title>
  <path fill="#eeeeee" fill-rule="nonzero" d="m480.066257,206.978738c-2.4075,-50.158751 35.953751,-93.068751 86.223751,-96.103751c11.91375,-0.71875 23.42375,0.89125 34.117501,4.395c14.8575,-13.20875 34.071251,-21.73375 55.453751,-23.02375c29.52125,-1.7825 56.608751,10.595 74.691251,31.245c5.8875,-1.57625 12.02125,-2.59 18.34125,-2.97125c50.656251,-3.0575 94.198751,35.527501 97.256251,86.183751c0.11,1.82 0.15,3.62875 0.15375,5.42875c19.235,15.6625 32.11125,39.010001 33.723751,65.721251c3.0575,50.655001 -35.527501,94.197501 -86.183751,97.255001c-0.29,0.0175 -0.57875,0.015 -0.86875,0.03c-14.5425,27.2575 -42.480001,46.543751 -75.577501,48.541251c-24.93,1.505 -48.123751,-7.09125 -65.630001,-22.23375c-13.65875,9.88375 -30.18,16.15 -48.255001,17.24125c-35.905001,2.1675 -68.216251,-16.60125 -85.090001,-45.745001c-41.668751,-6.5825 -74.653751,-41.362501 -77.301251,-85.207501c-1.9925,-33.03 13.72625,-63.026251 38.945001,-80.756251" id="path16"/>
  <path fill="#eeeeee" fill-rule="nonzero" d="m456.673757,388.186241c2.11375,0 4.1025,0.52125 5.86,1.42625c2.28,-3.5525 6.255,-5.91375 10.79,-5.91375c7.08125,0 12.8225,5.74125 12.8225,12.8225c0,1.9325 -0.44,3.7575 -1.205,5.4c3.425,2.3025 5.67875,6.21125 5.67875,10.64875c0,7.08125 -5.74,12.82125 -12.82125,12.82125c-2.42125,0 -4.6775,-0.6825 -6.60875,-1.84875c-2.245,1.93375 -5.16125,3.11 -8.35625,3.11c-7.0825,0 -12.8225,-5.74 -12.8225,-12.82125c0,-0.6125 0.0575,-1.20875 0.14,-1.7975c-3.76625,-2.23375 -6.29875,-6.32875 -6.29875,-11.025c0,-7.08125 5.74,-12.8225 12.82125,-12.8225" id="path18"/>
  <path fill="#eeeeee" fill-rule="nonzero" d="m401.875006,428.902491c0.45125,-0.95125 1.07,-1.7675 1.80125,-2.43875c-0.7575,-1.9575 -0.7475,-4.2075 0.2225,-6.25375c1.875,-3.95625 6.60125,-5.6425 10.55625,-3.7675c0.70375,0.33375 1.33125,0.76 1.88375,1.25375c2.09875,-1.0375 4.63,-1.145 6.91,-0.065c3.955,1.875 5.64125,6.6025 3.76625,10.5575c-0.4675,0.98625 -1.1125,1.83125 -1.87875,2.515c0.95875,2.06375 1.02875,4.5225 -0.0225,6.73875c-1.875,3.95625 -6.60125,5.6425 -10.55625,3.7675c-0.89375,-0.42375 -1.665,-0.99875 -2.3125,-1.67125c-2.035,0.90125 -4.43375,0.95 -6.6025,-0.07875c-3.95625,-1.875 -5.6425,-6.60125 -3.7675,-10.5575" id="path20"/>
  <path fill="#e9e8e7" fill-rule="nonzero" d="m610.337509,243.348739c1.4,13.665 2.80125,27.33 4.20125,40.995001c34.456251,13.86625 63.618751,-23.92 98.077501,-10.0525c-1.40125,-13.66625 -2.80125,-27.33125 -4.20375,-40.996251c-34.456251,-13.86625 -63.618751,23.92 -98.075001,10.05375" id="path22"/>
  <path fill="#f7f3e0" fill-rule="nonzero" d="m606.095009,237.398739c1.4,13.665 2.80125,27.33 4.20125,40.995001c34.458751,13.8675 63.620001,-23.92 98.077501,-10.05375c-1.40125,-13.665 -2.80125,-27.33 -4.2025,-40.995001c-34.457501,-13.86625 -63.620001,23.92 -98.076251,10.05375" id="path24"/>
  <path fill="#517f59" fill-rule="nonzero" d="m702.94001,253.693739c-5.37375,-1.5675 -9.17375,2.5825 -8.64875,7.70875c-9.93125,-0.54125 -19.51625,2.28875 -29.0375,5.72875c5.17875,-4.82 8.375,-12.2625 7.61625,-19.6725c-0.76,-7.4125 -5.2625,-12.71 -11.02125,-13.53875c9.52375,-3.44 19.11,-6.27 29.04125,-5.7275l0.01,0.12875c0.5325,5.19125 5.19,9.40625 10.56375,10.97375c0.49125,4.79875 0.98375,9.59875 1.47625,14.39875zm-50.321251,18.125c-9.52125,3.44 -19.10625,6.26875 -29.03625,5.72875c-0.5325,-5.19125 -5.19,-9.40625 -10.565,-10.97375c-0.49125,-4.8 -0.98375,-9.6 -1.47625,-14.4c5.375,1.56875 9.175,-2.58125 8.65,-7.7075l-0.01625,-0.13c9.93125,0.54125 19.51625,-2.2875 29.04,-5.7275c-5.17875,4.81875 -8.375,12.26125 -7.61625,19.6725c0.76,7.41125 5.26125,12.70875 11.02,13.5375zm-44.523751,-32c1.2825,12.51 2.56375,25.02 3.84625,37.528751c33.06125,11.64625 61.370001,-23.075 94.432501,-11.42875c-1.2825,-12.50875 -2.565,-25.0175 -3.8475,-37.527501c-33.06125,-11.64625 -61.370001,23.075 -94.431251,11.4275" id="path26"/>
  <path fill="#e9e8e7" fill-rule="nonzero" d="m631.937509,153.321237c-34.778751,-13.04 -63.031251,25.43125 -97.808751,12.39125c1.72625,13.6275 3.4525,27.25625 5.17875,40.882501c34.780001,13.04125 63.031251,-25.43125 97.808751,-12.39125c-1.72625,-13.6275 -3.4525,-27.255 -5.17875,-40.882501" id="path28"/>
  <path fill="#f7f3e0" fill-rule="nonzero" d="m632.875009,188.253738c-1.72625,-13.6275 -3.45375,-27.255 -5.18,-40.883751c-34.777501,-13.04 -63.030001,25.4325 -97.808751,12.3925c1.7275,13.6275 3.45375,27.255 5.18,40.883751c34.778751,13.04 63.031251,-25.4325 97.808751,-12.3925" id="path30"/>
  <path fill="#517f59" fill-rule="nonzero" d="m535.668758,174.274988c5.40875,1.43875 9.11,-2.80125 8.4625,-7.9125c9.94,0.30375 19.45375,-2.75375 28.8925,-6.42c-5.06375,4.94125 -8.08125,12.4575 -7.145,19.84875c0.93625,7.39125 5.56375,12.58 11.34,13.27125c-9.4375,3.66625 -18.95375,6.72375 -28.895,6.42l-0.01375,-0.13c-0.655,-5.17625 -5.4125,-9.27875 -10.82125,-10.7175c-0.60625,-4.78625 -1.2125,-9.5725 -1.82,-14.36zm49.873751,-19.32125c9.43625,-3.66625 18.95125,-6.72375 28.89125,-6.42c0.65625,5.1775 5.41375,9.28 10.82375,10.71875c0.60625,4.78625 1.2125,9.57375 1.81875,14.36c-5.41,-1.44 -9.11,2.8 -8.4625,7.9125l0.01875,0.13c-9.94,-0.305 -19.455,2.7525 -28.89375,6.41875c5.0625,-4.94125 8.08,-12.4575 7.14375,-19.8475c-0.93625,-7.3925 -5.56375,-12.58125 -11.34,-13.2725zm45.275001,30.9275c-1.58,-12.475 -3.16125,-24.95 -4.74125,-37.425001c-33.33,-10.85375 -60.801251,24.5325 -94.131251,13.67875c1.57875,12.475 3.16,24.95 4.74125,37.425001c33.33,10.855 60.801251,-24.5325 94.131251,-13.67875" id="path32"/>
  <path fill="#e9e8e7" fill-rule="nonzero" d="m736.715011,253.101239c-0.82,13.7125 -1.63875,27.42375 -2.45875,41.136251c31.77125,19.23875 66.642501,-13.355 98.415001,5.8825c0.81875,-13.7125 1.63875,-27.42375 2.45875,-41.136251c-31.7725,-19.23875 -66.642501,13.35625 -98.415001,-5.8825" id="path34"/>
  <path fill="#f7f3e0" fill-rule="nonzero" d="m732.473761,247.151239c-0.82,13.71125 -1.64,27.42375 -2.45875,41.136251c31.77125,19.23875 66.641251,-13.35625 98.413751,5.8825c0.81875,-13.7125 1.64,-27.425 2.45875,-41.136251c-31.77125,-19.23875 -66.642501,13.355 -98.413751,-5.8825" id="path36"/>
  <path fill="#517f59" fill-rule="nonzero" d="m825.426262,278.838739c-5.05125,-2.4125 -9.47,1.07125 -9.7775,6.215c-9.71375,-2.135 -19.63,-0.88625 -29.58125,0.97375c5.8875,-3.92125 10.2425,-10.75125 10.68625,-18.18875c0.445,-7.43625 -3.145,-13.39 -8.695,-15.13625c9.95375,-1.86125 19.87,-3.10875 29.58375,-0.97375l-0.01,0.12875c-0.31125,5.21 3.60625,10.12 8.65625,12.5325c-0.2875,4.81625 -0.57625,9.6325 -0.8625,14.44875zm-52.583751,9.78c-9.95125,1.86 -19.8675,3.1075 -29.58,0.97375c0.31,-5.20875 -3.60625,-10.11875 -8.6575,-12.5325c0.2875,-4.81625 0.575,-9.6325 0.8625,-14.44875c5.05125,2.41375 9.47125,-1.07 9.77875,-6.21375l0.005,-0.13125c9.71375,2.135 19.63,0.8875 29.5825,-0.97375c-5.8875,3.9225 -10.24125,10.7525 -10.68625,18.18875c-0.44375,7.43625 3.14625,13.39125 8.695,15.1375zm-38.786251,-38.756251c-0.74875,12.5525 -1.5,25.105 -2.25125,37.657501c30.75375,16.82125 64.287501,-12.88375 95.041251,3.9375c0.74875,-12.55125 1.5,-25.10375 2.25,-37.656251c-30.7525,-16.8225 -64.286251,12.88375 -95.040001,-3.93875" id="path38"/>
  <path fill="#e9e8e7" fill-rule="nonzero" d="m482.135007,257.984989c1.015,13.69875 2.03125,27.3975 3.04625,41.096251c34.053751,14.83125 64.267501,-22.12 98.321251,-7.2875c-1.01625,-13.69875 -2.03125,-27.39875 -3.0475,-41.097501c-34.052501,-14.83125 -64.267501,22.11875 -98.320001,7.28875" id="path40"/>
  <path fill="#f7f3e0" fill-rule="nonzero" d="m579.260009,285.842489c-1.015,-13.69875 -2.03125,-27.3975 -3.04625,-41.096251c-34.052501,-14.83125 -64.267501,22.11875 -98.321251,7.2875c1.015,13.69875 2.03125,27.39875 3.04625,41.097501c34.053751,14.83125 64.267501,-22.11875 98.321251,-7.28875" id="path42"/>
  <path fill="#517f59" fill-rule="nonzero" d="m482.913757,266.827489c5.32625,1.71875 9.2425,-2.3225 8.86125,-7.46125c9.91125,0.81875 19.57125,-1.73875 29.1875,-4.90875c-5.3125,4.67125 -8.71875,12.02125 -8.1675,19.45c0.55125,7.43 4.9025,12.8525 10.63375,13.84375c-9.615,3.17 -19.2775,5.72875 -29.18875,4.9075l-0.0075,-0.13c-0.385,-5.20375 -4.9225,-9.5475 -10.24875,-11.26625c-0.3575,-4.81125 -0.71375,-9.6225 -1.07,-14.435zm50.810001,-16.70125c9.615,-3.17 19.275,-5.7275 29.18625,-4.90875c0.38625,5.20375 4.92375,9.54875 10.25125,11.2675c0.35625,4.81125 0.71375,9.62375 1.07,14.435c-5.32875,-1.71875 -9.245,2.3225 -8.86375,7.46125l0.01375,0.13125c-9.9125,-0.82125 -19.57375,1.7375 -29.19,4.9075c5.3125,-4.67125 8.7175,-12.02 8.16625,-19.45c-0.55,-7.43 -4.9025,-12.8525 -10.63375,-13.84375zm43.605001,33.24c-0.93,-12.54 -1.85875,-25.08 -2.78875,-37.620001c-32.72,-12.5725 -61.995001,21.3375 -94.716251,8.765c0.93,12.54 1.86,25.08 2.78875,37.621251c32.72125,12.57125 61.996251,-21.33875 94.716251,-8.76625" id="path44"/>
  <path fill="#e9e8e7" fill-rule="nonzero" d="m782.295012,201.669988c0.785,-13.71375 1.56875,-27.4275 2.3525,-41.142501c-31.8225,-19.155 -66.607501,13.53 -98.430001,-5.625c-0.78375,13.715 -1.5675,27.42875 -2.35125,41.142501c31.8225,19.155 66.607501,-13.52875 98.428751,5.625" id="path46"/>
  <path fill="#f7f3e0" fill-rule="nonzero" d="m778.053762,195.719988c0.78375,-13.71375 1.5675,-27.4275 2.35125,-41.142501c-31.8225,-19.155 -66.607501,13.53 -98.430001,-5.625c-0.78375,13.71375 -1.5675,27.4275 -2.35125,41.142501c31.8225,19.155 66.607501,-13.53 98.430001,5.625" id="path48"/>
  <path fill="#517f59" fill-rule="nonzero" d="m685.01876,164.274988c5.0575,2.4 9.4675,-1.095 9.76125,-6.24c9.71875,2.10875 19.63,0.835 29.5775,-1.05125c-5.8775,3.9375 -10.21375,10.77875 -10.6375,18.21625c-0.42625,7.43875 3.18,13.38375 8.7325,15.11375c-9.9475,1.8875 -19.86125,3.16125 -29.58,1.05125l0.01,-0.12875c0.2975,-5.21 -3.63375,-10.11125 -8.69,-12.51c0.275,-4.8175 0.55125,-9.63375 0.82625,-14.45125zm52.557501,-9.91625c9.9475,-1.88625 19.85875,-3.16 29.5775,-1.05125c-0.29875,5.20875 3.63375,10.10875 8.69125,12.51c-0.27625,4.81625 -0.55125,9.63375 -0.82625,14.45c-5.0575,-2.4 -9.46875,1.095 -9.7625,6.24l-0.005,0.13125c-9.71875,-2.11 -19.6325,-0.83625 -29.58,1.05c5.8775,-3.9375 10.21375,-10.77875 10.63875,-18.215c0.425,-7.43875 -3.18,-13.38375 -8.73375,-15.115zm38.886251,38.653751c0.7175,-12.55375 1.435,-25.1075 2.15375,-37.662501c-30.7975,-16.74125 -64.253751,13.05125 -95.050001,-3.69c-0.7175,12.555 -1.435,25.10875 -2.1525,37.662501c30.7975,16.74125 64.252501,-13.05125 95.048751,3.69" id="path50"/>
  <path fill="#e9e8e7" fill-rule="nonzero" d="m773.526262,373.722491c0.78375,-13.715 1.5675,-27.42875 2.35125,-41.143751c-31.8225,-19.15375 -66.607501,13.53 -98.430001,-5.625c-0.78375,13.715 -1.5675,27.42875 -2.35125,41.143751c31.8225,19.155 66.607501,-13.53 98.430001,5.625" id="path52"/>
  <path fill="#f7f3e0" fill-rule="nonzero" d="m769.285011,367.772491c0.78375,-13.71375 1.5675,-27.42875 2.35125,-41.142501c-31.8225,-19.15625 -66.608751,13.52875 -98.430001,-5.62625c-0.78375,13.715 -1.5675,27.42875 -2.35125,41.142501c31.8225,19.15625 66.607501,-13.52875 98.430001,5.62625" id="path54"/>
  <path fill="#517f59" fill-rule="nonzero" d="m676.25001,336.32749c5.05625,2.39875 9.46625,-1.09625 9.76125,-6.24c9.71875,2.1075 19.63125,0.835 29.5775,-1.05125c-5.8775,3.93625 -10.21375,10.77875 -10.63875,18.215c-0.425,7.43875 3.18,13.38375 8.73375,15.115c-9.94875,1.88625 -19.86,3.16 -29.58125,1.05l0.01125,-0.12875c0.29625,-5.21 -3.6325,-10.11 -8.69,-12.50875c0.27625,-4.8175 0.55,-9.63375 0.82625,-14.45125zm52.557501,-9.9175c9.94625,-1.88625 19.85875,-3.16 29.5775,-1.05125c-0.2975,5.21 3.6325,10.11 8.69,12.51c-0.275,4.81625 -0.55,9.63375 -0.825,14.45c-5.05875,-2.39875 -9.46875,1.095 -9.76375,6.24l-0.0025,0.13125c-9.72,-2.10875 -19.63375,-0.83625 -29.5825,1.05c5.87875,-3.93625 10.21375,-10.7775 10.64,-18.215c0.425,-7.4375 -3.18,-13.3825 -8.73375,-15.115zm38.886251,38.655001c0.7175,-12.555 1.435,-25.10875 2.1525,-37.663751c-30.79625,-16.74125 -64.252501,13.0525 -95.048751,-3.68875c-0.7175,12.55375 -1.43625,25.10875 -2.15375,37.662501c30.7975,16.74125 64.253751,-13.05125 95.050001,3.69" id="path56"/>
  <path fill="#dddddd" fill-rule="nonzero" d="m564.968758,397.647491l-0.08875,-0.005c-0.515,-0.0475 -0.895,-0.50375 -0.84625,-1.02c2.92,-31.44625 21.9775,-65.013751 22.17,-65.350001c0.25375,-0.44875 0.825,-0.6075 1.27875,-0.3475c0.45,0.2575 0.605,0.83 0.3475,1.28c-0.19,0.33125 -19.0475,33.556251 -21.92875,64.591251c-0.045,0.48625 -0.455,0.85125 -0.9325,0.85125" id="path58"/>
  <path fill="#dddddd" fill-rule="nonzero" d="m610.117509,408.384991l-0.08875,-0.00375c-0.515,-0.0475 -0.89375,-0.505 -0.84625,-1.02c2.92,-31.415 19.14875,-64.961251 19.3125,-65.296251c0.2275,-0.46375 0.78625,-0.65625 1.25375,-0.43c0.465,0.22625 0.6575,0.7875 0.43125,1.25375c-0.1625,0.33125 -16.24375,33.577501 -19.13,64.645001c-0.045,0.48625 -0.45375,0.85125 -0.9325,0.85125" id="path60"/>
  <path fill="#dddddd" fill-rule="nonzero" d="m588.067509,393.818741l-0.0875,-0.005c-0.515,-0.0475 -0.895,-0.50375 -0.8475,-1.02c2.92375,-31.4525 23.38375,-66.425001 23.59,-66.775001c0.2625,-0.445 0.83625,-0.59375 1.2825,-0.33c0.4475,0.2625 0.595,0.8375 0.33125,1.28375c-0.20375,0.34625 -20.4525,34.965001 -23.33625,65.995001c-0.045,0.48625 -0.45375,0.85125 -0.9325,0.85125" id="path62"/>
  <path fill="#dddddd" fill-rule="nonzero" d="m312.301255,939.358874c-79.920001,0 -144.705002,-8.67625 -144.705002,-19.3765c0,-10.701125 64.785001,-19.376375 144.705002,-19.376375c79.917501,0 144.705002,8.67525 144.705002,19.376375c0,10.70025 -64.787501,19.3765 -144.705002,19.3765" id="path64"/>
  <path fill="#fcd8b4" fill-rule="nonzero" d="m186.288753,632.324995c0,0 -35.301251,-180.988753 75.720001,-205.366253c141.525002,-31.075 132.252502,186.028753 132.252502,186.028753l-207.972503,19.3375" id="path66"/>
  <path fill="#3c3c3d" fill-rule="nonzero" d="m388.393756,354.92749c0,0 53.672501,137.491252 -165.101252,129.102502l-0.31,43.208751c0,0 -19.865,-19.08 -22.72,1.85125c-3.28875,24.1 18.90875,15.36125 18.90875,15.36125c0,0 -14.6025,59.940001 -33.928751,82.192501c-3.1375,-3.18375 -91.925126,-202.792503 2.2525,-200.882503c0,0 1.07,-44.562501 60.445001,-57.611251c82.962501,-18.23375 92.650001,51.256251 140.453752,-13.2225" id="path68"/>
  <path fill="#3c3c3d" fill-rule="nonzero" d="m274.038754,527.732493c1.12125,8.0825 -1.3575,15.1075 -5.54,15.68625c-4.1775,0.58 -8.475,-5.505 -9.59625,-13.58875c-1.12125,-8.085 1.36125,-15.10875 5.53875,-15.68875c4.18,-0.57875 8.47625,5.50625 9.5975,13.59125" id="path70"/>
  <path fill="#3c3c3d" fill-rule="nonzero" d="m368.068755,513.979993c1.12125,8.0825 -1.35875,15.1075 -5.54,15.68625c-4.1775,0.57875 -8.475,-5.50625 -9.59625,-13.59c-1.12125,-8.08375 1.36125,-15.1075 5.53875,-15.6875c4.17875,-0.57875 8.47625,5.505 9.5975,13.59125" id="path72"/>
  <path fill="#ec6180" fill-rule="nonzero" d="m345.208755,556.547493c-9.24375,0.0925 -40.663751,0.915 -62.163751,7.6825c-1.4,0.44 -2.30375,1.7975 -2.1975,3.26125c0.56625,7.80375 4.9925,30.91625 37.721251,27.75125c32.29125,-3.12 31.14875,-27.75375 29.83375,-36.013751c-0.25,-1.565 -1.61,-2.69625 -3.19375,-2.68125" id="path74"/>
  <path fill="#3c3c3d" fill-rule="nonzero" d="m180.592503,627.208744l68.888751,-8.355l74.285001,77.786251l54.296251,-91.387501l18.6375,-1.78625c8.865,77.160001 10.195,157.455002 1.48875,237.328754l-15.57375,63.561001c0,0 21.68625,-18.32625 35.591251,1.84425c13.90875,20.168375 -49.016251,11.412 -49.016251,11.412l10.5375,-77.816001l-6.5975,-48.720001c0,0 -49.248751,16.65875 -130.288752,14.32875l-1.375,39.303751l-15.84375,63.639876c0,0 16.38125,-21.973625 33.741251,-3.92475c22.73375,23.63225 -44.196251,13.09125 -44.196251,13.09125l7.3075,-74.045126c0,0 -25.5175,-149.792502 -41.882501,-216.261253" id="path76"/>
  <path fill="#f8f8f8" fill-rule="nonzero" d="m378.062506,605.252494l-54.296251,91.387501l-74.285001,-77.786251l128.581252,-13.60125" id="path78"/>
  <path fill="#7a7b7c" fill-rule="nonzero" d="m378.062506,605.252494l4.585,36.241251l-20.08125,6.28625l5.7125,27.355l-44.512501,21.505l54.296251,-91.387501" id="path80"/>
  <path fill="#7a7b7c" fill-rule="nonzero" d="m323.766255,696.639995l-46.985001,-17.16625l-0.47375,-20.26875l-22.3875,-5.60625l-4.43875,-34.745001l74.285001,77.786251" id="path82"/>
  <path fill="#b24928" fill-rule="nonzero" d="m335.188755,627.673744l-7.81375,-9.4325l-17.5275,1.18l-5.17,12.85875l7.87,7.5175l-5.55625,39.350001l16.775,17.4925l14.435,-24.27375l-10.1275,-33.770001l7.115,-10.9225" id="path84"/>
  <path fill="#7a7b7c" fill-rule="nonzero" d="m319.888755,714.111246c1.00125,3.11375 4.33875,4.81875 7.4525,3.815c3.1125,-1.0025 4.81625,-4.33875 3.815,-7.45375c-1.0025,-3.10875 -4.3425,-4.8175 -7.45125,-3.81625c-3.115,1.00875 -4.82375,4.34375 -3.81625,7.455" id="path86"/>
  <path fill="#7a7b7c" fill-rule="nonzero" d="m321.696255,741.127496c1.00625,3.11125 4.3425,4.82 7.4525,3.815c3.11125,-1.005 4.81875,-4.3425 3.81125,-7.44875c-1,-3.1125 -4.33875,-4.82125 -7.4475,-3.8175c-3.115,1.00125 -4.82375,4.34125 -3.81625,7.45125" id="path88"/>
  <path fill="#fcd8b4" fill-rule="nonzero" d="m209.193753,783.861247c0,0 18.4875,15.81125 27.1825,-0.0525c8.69375,-15.86125 -15.61,-18.8675 -15.61,-18.8675l-11.5725,18.92" id="path90"/>
  <path fill="#f8f8f8" fill-rule="nonzero" d="m218.447503,762.212496l5.27625,2.37875l-13.6175,20.66125l-4.93875,-3.19l13.28,-19.85" id="path92"/>
  <path fill="#3c3c3d" fill-rule="nonzero" d="m181.630003,630.856244c0,0 -91.486501,80.976251 23.985,154.100002l16.345,-22.94875c0,0 -85.955001,-39.778751 -33.892501,-104.988752l-6.4375,-26.1625" id="path94"/>
  <path fill="#7a7b7c" fill-rule="nonzero" d="m195.838753,774.171247c1.285,0.6175 2.8275,0.07625 3.44375,-1.205c0.615,-1.2875 0.07375,-2.82625 -1.2075,-3.44375c-1.28125,-0.6175 -2.8225,-0.0725 -3.44375,1.205c-0.61375,1.28375 -0.07375,2.82625 1.2075,3.44375" id="path96"/>
  <path fill="#7a7b7c" fill-rule="nonzero" d="m202.953753,779.306247c1.285,0.6175 2.82375,0.0775 3.44375,-1.205c0.61625,-1.28125 0.0775,-2.82125 -1.2075,-3.44c-1.285,-0.61375 -2.825,-0.07625 -3.4425,1.205c-0.615,1.28125 -0.07875,2.8225 1.20625,3.44" id="path98"/>
  <path fill="#fcd8b4" fill-rule="nonzero" d="m532.375008,493.791242c0,0 11.4425,-21.47 -5.92625,-26.52875c-17.3675,-5.0575 -15.04875,19.3225 -15.04875,19.3225l20.975,7.20625" id="path100"/>
  <path fill="#f8f8f8" fill-rule="nonzero" d="m509.238758,489.436242l1.00625,-4.8325l23.975,8.55625l-1.7675,4.95l-23.21375,-8.67375" id="path102"/>
  <path fill="#3c3c3d" fill-rule="nonzero" d="m397.303756,631.074995c0,0 103.916252,-0.21875 136.916252,-134.026252l-26.24,-9.45625c0,0 -20.92875,105.985002 -111.280002,115.873752l0.60375,27.60875" id="path104"/>
  <path fill="#7a7b7c" fill-rule="nonzero" d="m525.805008,508.926243c0.32125,-1.39 -0.5375,-2.77875 -1.9225,-3.10375c-1.38875,-0.31875 -2.77375,0.54125 -3.1,1.925c-0.325,1.38375 0.53875,2.77125 1.92,3.10125c1.3875,0.32375 2.7775,-0.53875 3.1025,-1.9225" id="path106"/>
  <path fill="#7a7b7c" fill-rule="nonzero" d="m529.282508,500.867493c0.3225,-1.3875 -0.5375,-2.7725 -1.92625,-3.1c-1.3825,-0.325 -2.77125,0.53625 -3.09375,1.92125c-0.325,1.3875 0.535,2.77625 1.92,3.1c1.385,0.32625 2.77375,-0.5325 3.1,-1.92125" id="path108"/>
  <path fill="#f7f3e0" fill-rule="nonzero" d="m500.626257,440.777492c4.92125,12.825 9.84125,25.65 14.7625,38.475001c36.881251,4.38875 55.165001,-39.702501 92.047501,-35.315001c-4.92,-12.825 -9.84125,-25.65 -14.76125,-38.475001c-36.882501,-4.38875 -55.166251,39.702501 -92.048751,35.315001" id="path110"/>
  <path fill="#517f59" fill-rule="nonzero" d="m598.365009,431.218742c-5.595,-0.11 -8.18125,4.88875 -6.335,9.7c-9.72625,2.07125 -18.24,7.305 -26.53375,13.11125c3.74125,-6.005 4.88375,-14.02375 2.215,-20.97875c-2.66875,-6.95625 -8.39875,-10.89375 -14.17375,-10.19125c8.295,-5.8075 16.80875,-11.04125 26.5375,-13.1125l0.04375,0.1225c1.87,4.87125 7.46625,7.725 13.0625,7.835c1.72875,4.505 3.45625,9.00875 5.18375,13.51375zm-43.841251,30.63625c-8.29375,5.80625 -16.80625,11.04 -26.5325,13.11125c-1.87,-4.87125 -7.46625,-7.725 -13.065,-7.83375c-1.72625,-4.505 -3.455,-9.01 -5.18375,-13.51375c5.5975,0.10875 8.1825,-4.88875 6.33625,-9.7l-0.05,-0.12125c9.7275,-2.07125 18.2425,-7.305 26.5375,-13.1125c-3.74125,6.005 -4.88375,14.02375 -2.215,20.97875c2.66875,6.95625 8.3975,10.89375 14.1725,10.19125zm-51.333751,-19.2625c4.5025,11.74 9.0075,23.48 13.51125,35.220001c34.956251,2.61 53.216251,-38.298751 88.171251,-35.690001c-4.50375,-11.74 -9.00875,-23.48 -13.51125,-35.221251c-34.956251,-2.60875 -53.216251,38.300001 -88.171251,35.691251" id="path112"/>
 </g>
</svg>