<svg width="150" height="150" xmlns="http://www.w3.org/2000/svg">
 <metadata id="metadata8">image/svg+xml</metadata>
 <defs>
  <clipPath clipPathUnits="userSpaceOnUse" id="clipPath18">
   <path d="m0,5523.78l0,-5523.78l5523.78,0l0,5523.78l-5523.78,0z" id="path20"/>
  </clipPath>
 </defs>
 <g>
  <title>background</title>
  <rect fill="none" id="canvas_background" height="152" width="152" y="-1" x="-1"/>
 </g>
 <g>
  <title>Layer 1</title>
  <path fill="#000000" fill-rule="evenodd" d="m73.668339,31.571988c-0.308125,0.5225 -0.49025,0.72875 -0.562,0.9675c-1.033625,3.39375 -2.016625,6.80125 -3.083,10.18375c-1.200125,3.80625 -2.77925,7.4875 -3.495625,11.45375c-0.28175,1.56375 -1.07175,3.03 -1.453125,4.58375c-0.4585,1.87125 -0.721625,3.79 -1.0835,5.685c-0.23525,1.23375 0.060625,1.63625 1.351125,1.60125c1.901875,-0.055 3.79975,-0.1975 5.701125,-0.25625c1.269625,-0.04 2.542,0.0075 3.812,-0.00125c0.80675,-0.0075 1.70225,0.16625 2.399,-0.1225c1.200625,-0.49625 0.246125,-1.5 0.224125,-2.26625c-0.045,-1.565 -0.118625,-3.13875 -0.3355,-4.68625c-0.296375,-2.11625 -0.8135,-4.2025 -1.097625,-6.32c-0.434125,-3.23 -0.754875,-6.475 -1.11475,-9.715c-0.354,-3.19125 -0.69675,-6.385 -1.049375,-9.5775c-0.044375,-0.40875 -0.11275,-0.81625 -0.212875,-1.53zm9.36775,75.223751c-1.148,-10.6675 -2.168,-21.34875 -3.540125,-31.99375c-0.170375,-1.31875 -1.116625,-1.8975 -2.50775,-1.595c-0.171875,0.0375 -0.3545,0.09375 -0.5205,0.065c-3.662125,-0.6225 -7.36325,-0.36 -11.017125,-0.17375c-3.07325,0.1575 -3.618625,0.42625 -4.17375,3.51625c-0.401375,2.22375 -1.037125,4.40625 -1.458125,6.6275c-0.311,1.64125 -0.385625,3.32875 -0.671875,4.975c-0.534625,3.06625 -1.19475,6.11125 -1.71725,9.17875c-1.0175,5.965 -1.2925,12.0225 -1.908625,18.03625c-0.355,3.47 -1.40875,6.8275 -1.831125,10.28875c-0.327625,2.685 0.69975,5.915 -0.812,8.24375c-1.249,1.92625 -2.525375,3.85875 -4.03225,5.58c-0.59475,0.68 -1.930125,1.26875 -2.743625,1.0825c-1.459,-0.3325 -3.09575,-0.995 -4.059125,-2.06125c-0.83925,-0.93 -1.224125,-2.625 -1.15325,-3.9475c0.339875,-6.33625 1.57275,-12.78875 2.76025,-19.02125c1.122,-5.88875 2.42775,-11.7425 3.700125,-17.6c1.025,-4.7175 2.082125,-9.4275 3.1885,-14.12625c0.6275,-2.66125 1.376,-5.29375 2.090875,-7.93375c0.409625,-1.5175 0.05025,-1.87125 -1.4785,-1.6125c-1.506375,0.255 -3.061125,0.25 -4.550375,0.5675c-3.00975,0.64375 -2.9985,0.7025 -5.276375,-2.4825c-0.406625,-0.56875 -0.805125,-1.1425 -1.200625,-1.71875c-0.4775,-0.6975 0.064875,-3.44875 0.785625,-3.8925c0.149375,-0.09375 0.383375,-0.0825 0.57525,-0.06875c4.042,0.29875 8.31875,0.0925 12.51125,-0.73875c0.462375,-0.09 0.969625,-0.89 1.119125,-1.45125c0.785125,-2.96125 1.397375,-5.96875 2.202625,-8.92375c2.03225,-7.4625 4.7465,-14.7125 7.4755,-21.94125c2.40975,-6.38125 6.766625,-14.14375 6.712,-21.095c-0.00975,-1.35625 1.99025,-3.25625 3.473125,-3.24125c5.587375,0.0525 11.2065,0.06625 16.79,0.29375c0.919,0.03875 1.851625,0.42625 2.71825,0.79375c0.392625,0.165 0.835,0.63625 0.913125,1.035c0.234375,1.205 0.30275,2.44125 0.433625,3.66625c1.436,13.6425 1.786625,27.4125 4.1655,40.945001c2.2905,13.0375 3.9815,26.39625 5.23925,39.571251c0.90425,9.45375 1.6865,18.82375 3.270625,28.19375c0.23875,1.4175 0.43375,2.845 0.725,4.2525c0.1925,0.91875 0.56,1.79875 0.77375,2.71375c0.2075,0.89375 -0.24625,1.38625 -1.105,1.64125c-1.707875,0.505 -3.424625,1 -5.0955,1.61375c-3.4375,1.26375 -7.067375,1.52375 -10.631375,2.12625c-0.42825,0.075 -0.860375,0.1475 -1.2725,0.27625c-2.19775,0.6825 -3.483375,0.36625 -4.584,-1.6725c-0.719125,-1.33375 -1.117125,-2.91375 -1.344625,-4.43c-1.175875,-7.83375 -2.091375,-15.695 -2.938,-23.5625" id="path80"/>
 </g>
</svg>