<svg width="500" height="500" xmlns="http://www.w3.org/2000/svg">
 <metadata id="metadata8">image/svg+xml</metadata>

 <g>
  <title>background</title>
  <rect fill="none" id="canvas_background" height="502" width="502" y="-1" x="-1"/>
 </g>
 <g>
  <title>Layer 1</title>
  <path fill="#efdcdf" fill-rule="nonzero" d="m407.612506,778.656247c0.005,0 0.00375,0 0.0075,0c-0.0025,0 -0.005,0 -0.0075,0" id="path144"/>
  <path fill="#feedf0" fill-rule="nonzero" d="m629.377509,763.294996l0,0c0.20875,-0.3925 0.40625,-0.7925 0.5975,-1.20375l0,0c-0.19125,0.41125 -0.38875,0.81125 -0.5975,1.20375" id="path150"/>
  <path fill="#fdecee" fill-rule="nonzero" d="m628.670009,764.547496l0,0c0.24625,-0.40625 0.4825,-0.825 0.7075,-1.2525l0,0c-0.225,0.4275 -0.46125,0.84625 -0.7075,1.2525" id="path152"/>
  <path fill="#fceaed" fill-rule="nonzero" d="m627.818759,765.858747l0,0c0.29625,-0.425 0.58,-0.8625 0.85125,-1.31125l0,0c-0.27125,0.44875 -0.555,0.88625 -0.85125,1.31125" id="path154"/>
  <path fill="#fae9eb" fill-rule="nonzero" d="m626.773759,767.247497l0,0c0.36375,-0.4475 0.7125,-0.91125 1.045,-1.38875l0,0c-0.3325,0.4775 -0.68125,0.94125 -1.045,1.38875" id="path156"/>
  <path fill="#f8e7e8" fill-rule="nonzero" d="m625.456259,768.736247l0,0c0.46,-0.4775 0.89875,-0.9725 1.3175,-1.48875l0,0c-0.41875,0.51625 -0.85625,1.01125 -1.3175,1.48875" id="path158"/>
  <path fill="#f8e4e8" fill-rule="nonzero" d="m623.723759,770.361247l0,0c0.60625,-0.515 1.185,-1.0575 1.7325,-1.625l0,0c-0.5475,0.5675 -1.12625,1.11 -1.7325,1.625" id="path160"/>
  <path fill="#f7e3e6" fill-rule="nonzero" d="m621.297509,772.178747l-0.00125,0c0.85625,-0.565 1.66375,-1.17 2.4275,-1.8175l0,0c-0.76375,0.6475 -1.57125,1.2525 -2.42625,1.8175" id="path162"/>
  <path fill="#f5e1e4" fill-rule="nonzero" d="m617.580009,774.248747l0,0c1.3225,-0.61875 2.5625,-1.3075 3.71625,-2.07l0.00125,0c-1.155,0.7625 -2.395,1.45125 -3.7175,2.07" id="path164"/>
  <path fill="#f4e0e3" fill-rule="nonzero" d="m611.431259,776.467497l0,0c2.2175,-0.60375 4.2675,-1.34 6.14875,-2.21875l0,0c-1.88125,0.87875 -3.93125,1.615 -6.14875,2.21875" id="path166"/>
  <path fill="#f3dfe2" fill-rule="nonzero" d="m602.710009,778.082497l0.00125,0c3.1475,-0.35875 6.055,-0.89125 8.72,-1.615l0,0c-2.665,0.72375 -5.5725,1.25625 -8.72125,1.615" id="path168"/>
  <path fill="#f0dde0" fill-rule="nonzero" d="m593.752509,778.637497l0,0c3.175,-0.05625 6.1625,-0.23625 8.95875,-0.555l-0.00125,0c-2.79625,0.31875 -5.78125,0.5 -8.9575,0.555" id="path170"/>
  <path fill="#efdcdf" fill-rule="nonzero" d="m591.591259,778.656247l0,0c0.73,0 1.44875,-0.00625 2.16125,-0.01875l0,0c-0.71,0.0125 -1.4325,0.01875 -2.16125,0.01875" id="path172"/>
  <g stroke="null" id="svg_1">
   <path fill="#fad60e" fill-rule="nonzero" d="m147.051031,144.399097c0,9.873144 -8.003016,17.877133 -17.877133,17.877133c-9.873144,0 -17.877133,-8.003989 -17.877133,-17.877133c0,-9.873144 8.003989,-17.877133 17.877133,-17.877133c9.874117,0 17.877133,8.003989 17.877133,17.877133" id="path68"/>
   <path fill="#f9e732" fill-rule="nonzero" d="m142.348468,144.399097c0,7.276177 -5.89742,13.17457 -13.17457,13.17457c-7.276177,0 -13.173597,-5.898393 -13.173597,-13.17457c0,-7.27715 5.89742,-13.17457 13.173597,-13.17457c7.27715,0 13.17457,5.89742 13.17457,13.17457" id="path70"/>
   <path fill="#f5b818" fill-rule="nonzero" d="m130.26659,148.258059c0.911711,-0.095355 1.367081,-0.441747 1.367081,-1.041122l0,-0.039893c0,-0.272443 -0.095355,-0.496236 -0.285092,-0.673324c-0.19071,-0.177088 -0.550724,-0.339581 -1.081988,-0.489425l0,2.243764zm-1.895426,-8.342597c-0.50402,0.040866 -0.861115,0.152763 -1.072258,0.336662c-0.21017,0.182926 -0.315256,0.411584 -0.315256,0.683054l0,0.040866c0,0.272443 0.09049,0.492344 0.274389,0.662621c0.183899,0.169304 0.554616,0.328878 1.113125,0.478721l0,-2.201924zm-0.143033,11.279145c-1.007066,-0.108004 -1.982997,-0.33277 -2.92779,-0.673324c-0.944794,-0.339581 -1.804936,-0.788139 -2.580425,-1.345674l1.836072,-2.712755c0.65289,0.46218 1.288267,0.829978 1.907102,1.101449c0.618835,0.272443 1.2474,0.46218 1.887642,0.571158l0,-2.447123c-0.816356,-0.191683 -1.534439,-0.408665 -2.152301,-0.653863c-0.618835,-0.244226 -1.136477,-0.540021 -1.55098,-0.886413c-0.414503,-0.347365 -0.726839,-0.751165 -0.937983,-1.213345c-0.21017,-0.463153 -0.316229,-1.013878 -0.316229,-1.653146l0,-0.040866c0,-0.597429 0.108977,-1.148153 0.326932,-1.652173c0.216981,-0.502074 0.53321,-0.940902 0.948686,-1.314538c0.414503,-0.374609 0.924361,-0.677216 1.529573,-0.908792c0.60424,-0.230604 1.295078,-0.373636 2.070568,-0.428125l0,-1.162748l2.120191,0l0,1.224048c0.842628,0.095355 1.618117,0.278281 2.325497,0.550724c0.707379,0.272443 1.367081,0.618835 1.979105,1.040149l-1.673579,2.733188c-0.421314,-0.298714 -0.86598,-0.550724 -1.334971,-0.755057c-0.468991,-0.203359 -0.935064,-0.359041 -1.397244,-0.468018l0,2.36539c0.815383,0.19071 1.526654,0.411584 2.130894,0.662621c0.605213,0.25201 1.112152,0.550724 1.519843,0.898089c0.407692,0.346392 0.71419,0.757976 0.918522,1.233778c0.203359,0.475802 0.305525,1.026527 0.305525,1.652173l0,0.040866c0,0.625646 -0.115788,1.187074 -0.346392,1.683309c-0.231577,0.496236 -0.558508,0.928253 -0.978849,1.295078c-0.422287,0.366825 -0.929226,0.658729 -1.520816,0.876683c-0.591591,0.217954 -1.2474,0.360987 -1.967428,0.428125l0,1.999538l-2.121164,0l0,-2.040404" id="path72"/>
   <path fill="#fad60e" fill-rule="nonzero" d="m372.789608,161.913297c0,9.873144 -8.003016,17.877133 -17.877133,17.877133c-9.873144,0 -17.877133,-8.003989 -17.877133,-17.877133c0,-9.873144 8.003989,-17.877133 17.877133,-17.877133c9.874117,0 17.877133,8.003989 17.877133,17.877133" id="path74"/>
   <path fill="#f9e732" fill-rule="nonzero" d="m368.087045,161.913297c0,7.276177 -5.898393,13.17457 -13.17457,13.17457c-7.27715,0 -13.173597,-5.898393 -13.173597,-13.17457c0,-7.27715 5.896447,-13.17457 13.173597,-13.17457c7.276177,0 13.17457,5.89742 13.17457,13.17457" id="path76"/>
   <path fill="#f5b818" fill-rule="nonzero" d="m356.005166,165.772259c0.911711,-0.095355 1.366108,-0.441747 1.366108,-1.041122l0,-0.039893c0,-0.272443 -0.095355,-0.496236 -0.285092,-0.673324c-0.189737,-0.177088 -0.550724,-0.339581 -1.081015,-0.489425l0,2.243764zm-1.896399,-8.342597c-0.50402,0.040866 -0.859169,0.152763 -1.070312,0.336662c-0.211143,0.182926 -0.317202,0.411584 -0.317202,0.683054l0,0.040866c0,0.272443 0.091463,0.492344 0.275362,0.662621c0.183899,0.169304 0.554616,0.328878 1.112152,0.478721l0,-2.201924zm-0.143033,11.279145c-1.007066,-0.108004 -1.982024,-0.33277 -2.926817,-0.673324c-0.945767,-0.339581 -1.804936,-0.788139 -2.580425,-1.345674l1.836072,-2.712755c0.65289,0.46218 1.288267,0.829978 1.908075,1.101449c0.616889,0.272443 1.246427,0.46218 1.886669,0.571158l0,-2.447123c-0.817329,-0.191683 -1.533466,-0.408665 -2.153274,-0.653863c-0.617862,-0.244226 -1.136477,-0.540021 -1.55098,-0.886413c-0.41353,-0.347365 -0.725866,-0.751165 -0.93701,-1.213345c-0.21017,-0.463153 -0.317202,-1.013878 -0.317202,-1.653146l0,-0.040866c0,-0.597429 0.108977,-1.148153 0.326932,-1.652173c0.216981,-0.502074 0.534183,-0.940902 0.948686,-1.314538c0.414503,-0.374609 0.925334,-0.677216 1.529573,-0.908792c0.60424,-0.230604 1.296051,-0.373636 2.071541,-0.428125l0,-1.162748l2.121164,0l0,1.224048c0.841655,0.095355 1.617144,0.278281 2.323551,0.550724c0.707379,0.272443 1.367081,0.618835 1.979105,1.040149l-1.672606,2.733188c-0.422287,-0.298714 -0.866953,-0.550724 -1.335944,-0.755057c-0.468018,-0.203359 -0.935064,-0.359041 -1.397244,-0.468018l0,2.36539c0.815383,0.19071 1.526654,0.411584 2.13284,0.662621c0.60424,0.25201 1.111179,0.550724 1.517897,0.898089c0.408665,0.346392 0.715163,0.757976 0.918522,1.233778c0.203359,0.475802 0.305525,1.026527 0.305525,1.652173l0,0.040866c0,0.625646 -0.115788,1.187074 -0.345419,1.683309c-0.23255,0.496236 -0.559481,0.928253 -0.978849,1.295078c-0.422287,0.366825 -0.929226,0.658729 -1.520816,0.876683c-0.590618,0.217954 -1.248373,0.360987 -1.968401,0.428125l0,1.999538l-2.121164,0l0,-2.040404" id="path78"/>
   <path fill="#efa4a9" fill-rule="nonzero" d="m180.368877,250.2413c-14.091147,18.016274 -40.119194,21.196074 -58.135468,7.104927c-18.015301,-14.09212 -7.103954,-58.135468 -7.103954,-58.135468c0,0 40.119194,-21.197047 58.135468,-7.1059c18.015301,14.09212 21.197047,40.120167 7.103954,58.136441" id="path124"/>
   <path fill="#efa4a9" fill-rule="nonzero" d="m318.520887,250.2413c14.091147,18.016274 40.120167,21.196074 58.135468,7.104927c18.015301,-14.09212 7.104927,-58.135468 7.104927,-58.135468c0,0 -40.120167,-21.197047 -58.136441,-7.1059c-18.015301,14.09212 -21.196074,40.120167 -7.103954,58.136441" id="path126"/>
   <path fill="#feedf0" fill-rule="nonzero" d="m322.980196,194.356407l0,-0.000973l0,0.000973m0.03892,-0.036974c0.001946,-0.000973 0.002919,-0.001946 0.004865,-0.003892c-0.000973,0.000973 -0.003892,0.002919 -0.004865,0.003892m0.040866,-0.036974c0.002919,-0.002919 0.005838,-0.005838 0.008757,-0.008757c-0.002919,0.002919 -0.005838,0.005838 -0.008757,0.008757m0.042812,-0.039893c0.003892,-0.002919 0.004865,-0.004865 0.008757,-0.007784c-0.001946,0.001946 -0.006811,0.005838 -0.008757,0.007784m0.108977,-0.099247c0.006811,-0.005838 0.013622,-0.012649 0.021406,-0.01946c-0.007784,0.006811 -0.014595,0.013622 -0.021406,0.01946m0.043785,-0.039893c0.007784,-0.006811 0.015568,-0.014595 0.023352,-0.021406c-0.006811,0.006811 -0.016541,0.015568 -0.023352,0.021406m0.043785,-0.039893c0.007784,-0.006811 0.018487,-0.016541 0.026271,-0.023352c-0.008757,0.006811 -0.017514,0.015568 -0.026271,0.023352m0.046705,-0.041839c0.008757,-0.008757 0.018487,-0.017514 0.028217,-0.026271c-0.008757,0.008757 -0.01946,0.017514 -0.028217,0.026271m0.043785,-0.039893c0.011676,-0.00973 0.023352,-0.021406 0.035028,-0.032109c-0.010703,0.010703 -0.024325,0.022379 -0.035028,0.032109m0.046705,-0.041839c0.030163,-0.027244 0.062273,-0.056435 0.093409,-0.083679c-0.031136,0.027244 -0.063246,0.056435 -0.093409,0.083679m0.103139,-0.092436c0.012649,-0.011676 0.027244,-0.024325 0.039893,-0.036001c-0.013622,0.012649 -0.026271,0.024325 -0.039893,0.036001m0.045732,-0.040866c0.014595,-0.012649 0.028217,-0.024325 0.041839,-0.036974c-0.014595,0.012649 -0.027244,0.024325 -0.041839,0.036974m0.049624,-0.043785c0.013622,-0.012649 0.02919,-0.026271 0.042812,-0.037947c-0.014595,0.012649 -0.028217,0.025298 -0.042812,0.037947m0.046705,-0.041839c0.461207,-0.407692 0.936037,-0.808572 1.41865,-1.19875c-0.48456,0.39115 -0.955497,0.790085 -1.41865,1.19875m1.420596,-1.200696c0.016541,-0.012649 0.033082,-0.026271 0.048651,-0.03892c-0.015568,0.012649 -0.032109,0.026271 -0.048651,0.03892m0.053516,-0.042812c0.033082,-0.026271 0.068111,-0.054489 0.101193,-0.081733c-0.033082,0.027244 -0.068111,0.054489 -0.101193,0.081733m0.102166,-0.081733c0.034055,-0.028217 0.068111,-0.054489 0.103139,-0.082706c-0.035028,0.028217 -0.069084,0.054489 -0.103139,0.082706m0.108004,-0.086598c0.015568,-0.012649 0.030163,-0.024325 0.044759,-0.036001c-0.014595,0.012649 -0.02919,0.023352 -0.044759,0.036001m0.055462,-0.043785c0.012649,-0.00973 0.025298,-0.020433 0.037947,-0.030163c-0.012649,0.010703 -0.024325,0.01946 -0.037947,0.030163m0.052543,-0.041839c0.012649,-0.00973 0.024325,-0.01946 0.036974,-0.02919c-0.011676,0.00973 -0.024325,0.01946 -0.036974,0.02919m0.050597,-0.039893c0.013622,-0.010703 0.024325,-0.01946 0.037947,-0.02919c-0.011676,0.008757 -0.026271,0.01946 -0.037947,0.02919m0.050597,-0.039893c0.016541,-0.012649 0.033082,-0.025298 0.049624,-0.03892c-0.016541,0.012649 -0.033082,0.026271 -0.049624,0.03892m34.16242,-2.247656c-0.002919,-0.000973 -0.007784,-0.001946 -0.010703,-0.002919c0.002919,0.000973 0.007784,0.001946 0.010703,0.002919m-0.062273,-0.016541c-0.018487,-0.004865 -0.039893,-0.010703 -0.058381,-0.015568c0.01946,0.004865 0.03892,0.00973 0.058381,0.015568m-0.070057,-0.01946c-5.636653,-1.510113 -11.653754,-2.590156 -17.336139,-2.590156c-3.741228,0 -7.333585,0.468018 -10.580523,1.588927c3.245965,-1.120909 6.841241,-1.588927 10.581496,-1.588927c5.681412,0 11.699486,1.080042 17.335166,2.590156" id="path128"/>
   <path fill="#f0adb2" fill-rule="nonzero" d="m325.247312,207.344159c-2.934601,-1.745582 -5.943152,-3.39289 -9.008137,-4.93122c1.859424,-2.910276 4.109026,-5.622058 6.741021,-8.056532l0,-0.000973c0.012649,-0.011676 0.026271,-0.023352 0.03892,-0.036001c0.000973,-0.000973 0.003892,-0.002919 0.004865,-0.003892c0.011676,-0.010703 0.024325,-0.022379 0.036001,-0.033082c0.002919,-0.002919 0.005838,-0.005838 0.008757,-0.008757c0.011676,-0.00973 0.023352,-0.020433 0.034055,-0.031136c0.001946,-0.001946 0.006811,-0.005838 0.008757,-0.007784c0.033082,-0.030163 0.067138,-0.0613 0.10022,-0.091463c0.006811,-0.005838 0.013622,-0.012649 0.021406,-0.01946c0.007784,-0.006811 0.014595,-0.012649 0.022379,-0.020433c0.006811,-0.005838 0.016541,-0.014595 0.023352,-0.021406c0.006811,-0.005838 0.013622,-0.012649 0.020433,-0.018487c0.008757,-0.007784 0.017514,-0.016541 0.026271,-0.023352c0.006811,-0.006811 0.012649,-0.012649 0.020433,-0.018487c0.008757,-0.008757 0.01946,-0.017514 0.028217,-0.026271c0.004865,-0.003892 0.010703,-0.008757 0.015568,-0.013622c0.010703,-0.00973 0.024325,-0.021406 0.035028,-0.032109c0.004865,-0.003892 0.006811,-0.005838 0.011676,-0.00973c0.030163,-0.027244 0.062273,-0.056435 0.093409,-0.083679c0.002919,-0.002919 0.005838,-0.005838 0.00973,-0.008757c0.013622,-0.011676 0.026271,-0.023352 0.039893,-0.036001c0.001946,-0.000973 0.003892,-0.002919 0.005838,-0.004865c0.014595,-0.012649 0.027244,-0.024325 0.041839,-0.036974c0.002919,-0.002919 0.004865,-0.004865 0.007784,-0.006811c0.014595,-0.012649 0.028217,-0.025298 0.042812,-0.037947c0.001946,-0.001946 0.002919,-0.001946 0.003892,-0.003892c0.463153,-0.408665 0.934091,-0.807599 1.41865,-1.19875c0.000973,-0.000973 0.000973,-0.000973 0.001946,-0.001946c0.016541,-0.012649 0.033082,-0.026271 0.048651,-0.03892c0.001946,-0.001946 0.002919,-0.001946 0.004865,-0.003892c0.033082,-0.027244 0.068111,-0.054489 0.101193,-0.081733l0.000973,0c0.034055,-0.028217 0.068111,-0.054489 0.103139,-0.082706c0.001946,-0.000973 0.002919,-0.002919 0.004865,-0.003892c0.015568,-0.012649 0.030163,-0.023352 0.044759,-0.036001c0.003892,-0.002919 0.006811,-0.004865 0.010703,-0.007784c0.013622,-0.010703 0.025298,-0.01946 0.037947,-0.030163c0.005838,-0.004865 0.008757,-0.006811 0.014595,-0.011676c0.012649,-0.00973 0.025298,-0.01946 0.036974,-0.02919c0.003892,-0.002919 0.00973,-0.007784 0.013622,-0.010703c0.011676,-0.00973 0.026271,-0.020433 0.037947,-0.02919c0.003892,-0.003892 0.008757,-0.007784 0.012649,-0.010703c0.016541,-0.012649 0.033082,-0.026271 0.049624,-0.03892l0,0c1.818558,-1.421569 3.859935,-2.484097 6.063805,-3.245965c3.246938,-1.120909 6.839295,-1.588927 10.580523,-1.588927c5.682385,0 11.699486,1.080042 17.336139,2.590156c0.003892,0.001946 0.006811,0.002919 0.011676,0.003892c0.018487,0.004865 0.039893,0.010703 0.058381,0.015568c0.016541,0.004865 0.034055,0.008757 0.05157,0.013622c0.002919,0.000973 0.007784,0.001946 0.010703,0.002919c6.736156,1.815639 12.920614,4.239409 17.326409,6.15916c-6.658315,-1.928508 -14.507596,-3.538841 -22.163247,-3.538841c-8.011773,0 -15.81143,1.765042 -21.801287,6.778968c-2.932655,2.453934 -5.553947,5.159878 -7.8522,8.048748" id="path130"/>
   <path fill="#feedf0" fill-rule="nonzero" d="m119.918616,196.055284c8.116859,-3.536895 22.270278,-8.785317 34.793904,-8.785317c0.319148,0 0.637322,0.003892 0.954524,0.010703c-10.764422,0.22282 -22.574831,4.145027 -30.656661,7.432832c-1.755312,0.415476 -3.459054,0.868899 -5.091767,1.341782" id="path132"/>
   <path fill="#f0adb2" fill-rule="nonzero" d="m173.789376,210.096807c-2.748756,-3.930965 -6.059913,-7.581703 -9.907199,-10.801396c-5.989856,-5.013926 -13.78854,-6.778968 -21.800314,-6.778968c-5.778713,0 -11.666403,0.917549 -17.07148,2.197059c8.08183,-3.287805 19.892239,-7.210012 30.656661,-7.432832c5.9198,0.128437 11.42315,1.486761 15.689804,4.824189c4.644182,3.63225 8.300758,8.057505 10.929834,12.934237c-2.895681,1.591846 -5.728116,3.278074 -8.497306,5.057712" id="path134"/>
   <path fill="#ec9da3" fill-rule="nonzero" d="m369.283849,247.947912c-10.247753,-14.42489 -23.087608,-26.886243 -37.841375,-36.703925c1.652173,-0.253956 3.344239,-0.386285 5.067442,-0.386285c18.237147,0 33.022051,14.785877 33.022051,33.023024c0,1.376811 -0.083679,2.734161 -0.248118,4.067186" id="path136"/>
   <path fill="#ec9da3" fill-rule="nonzero" d="m130.943805,252.61642c-0.760895,-2.782812 -1.167613,-5.711575 -1.167613,-8.735694c0,-18.237147 14.784904,-33.023024 33.022051,-33.023024c2.850923,0 5.618166,0.36196 8.256972,1.041122c-15.950571,10.769287 -29.607755,24.634695 -40.11141,40.717596" id="path138"/>
   <path fill="#e99ba2" fill-rule="nonzero" d="m286.608068,457.29709c0,20.226955 10.352838,36.622192 36.42759,36.622192c24.925626,0 35.66183,-9.202739 31.4448,-36.622192c-3.075688,-19.990513 5.752442,-36.620246 -31.4448,-36.620246c-20.118951,0 -36.42759,16.395237 -36.42759,36.620246" id="path140"/>
   <path fill="#e99ba2" fill-rule="nonzero" d="m216.176659,457.29709c0,20.226955 -10.353811,36.622192 -36.428563,36.622192c-24.925626,0 -35.662803,-9.202739 -31.4448,-36.622192c3.075688,-19.990513 -5.752442,-36.620246 31.4448,-36.620246c20.117978,0 36.428563,16.395237 36.428563,36.620246" id="path142"/>
   <path fill="#eca6ac" fill-rule="nonzero" d="m179.748096,493.919282c-21.396514,0 -32.337051,-6.780914 -32.338997,-26.044588c-0.000973,-3.177854 0.296768,-6.695289 0.894197,-10.577604c1.359297,-8.833968 0.394069,-17.011153 2.102677,-23.387295c5.874068,5.814714 12.249237,11.128328 19.050584,15.867865c-0.125518,2.432528 -0.324013,4.947761 -0.720028,7.51943c-3.524246,22.909547 3.399701,33.096 20.308688,35.828215c-2.823678,0.512777 -5.888663,0.789112 -9.213442,0.793977c-0.002919,0 -0.001946,0 -0.005838,0c-0.025298,0 -0.05157,0 -0.077841,0l0,0" id="path146"/>
   <path fill="#feedf0" fill-rule="nonzero" d="m352.914883,481.024939l0,0c2.137705,-4.604289 2.887897,-10.611659 2.227222,-18.283852c0.660675,7.672193 -0.089517,13.679563 -2.227222,18.283852" id="path148"/>
   <path fill="#feedf0" fill-rule="nonzero" d="m353.83146,451.01533c-0.387258,-6.213649 -0.172223,-11.923278 -1.341782,-16.671572l0,0c1.169559,4.748294 0.954524,10.457923 1.341782,16.671572" id="path174"/>
   <path fill="#eca6ac" fill-rule="nonzero" d="m323.036631,493.919282c-3.357861,0 -6.450091,-0.276335 -9.298094,-0.793977c16.908987,-2.732215 23.831961,-12.918668 20.308688,-35.828215c-0.376555,-2.450042 -0.57505,-4.848514 -0.701541,-7.173038c6.829565,-4.708401 13.236843,-9.993797 19.143994,-15.780294c1.169559,4.748294 0.954524,10.457923 1.341782,16.671572c0.127464,2.045269 0.320121,4.144054 0.648998,6.28176c0.292876,1.901264 0.512777,3.714956 0.661648,5.443997c0.660675,7.672193 -0.089517,13.679563 -2.227222,18.283852c-0.148871,0.320121 -0.302606,0.631484 -0.465099,0.93701c-0.175142,0.33277 -0.359041,0.658729 -0.550724,0.974957c-0.211143,0.349311 -0.432017,0.689865 -0.662621,1.020689c-0.258821,0.37169 -0.530291,0.732677 -0.813437,1.081015c-0.325959,0.401854 -0.667486,0.787166 -1.025554,1.158856c-0.426179,0.441747 -0.876683,0.864034 -1.348593,1.264914c-0.59451,0.50402 -1.223075,0.974957 -1.889588,1.414758c-0.898089,0.593537 -1.863316,1.129666 -2.892762,1.611306c-1.464382,0.684027 -3.06012,1.25713 -4.786242,1.727095c-2.07446,0.563373 -4.337684,0.977876 -6.787725,1.25713c-2.176626,0.248118 -4.502122,0.388231 -6.973571,0.432017c-0.554616,0.00973 -1.114098,0.014595 -1.683309,0.014595" id="path176"/>
   <path fill="#efa4a9" fill-rule="nonzero" d="m259.524304,187.367268l0,26.429901c0,4.765808 -3.503813,8.627689 -8.270594,8.627689c-4.764835,0 -8.269621,-3.861881 -8.269621,-8.627689l0,-26.343303c-75.894866,4.799864 -135.324439,67.374208 -135.324439,143.876233c0,79.630256 64.326737,144.182732 143.957966,144.182732c79.630256,0 144.164245,-64.552476 144.164245,-144.182732c0,-76.963233 -60.36269,-139.837264 -136.257556,-143.962831" id="path178"/>
   <path fill="#efa4a9" fill-rule="nonzero" d="m259.524304,187.367268l0,26.390007c0,4.758024 -3.503813,8.61504 -8.270594,8.61504c-4.764835,0 -8.269621,-3.857016 -8.269621,-8.61504l0,-26.303409c-75.894866,4.793053 -135.324439,67.273015 -135.324439,143.660225c0,79.509603 64.326737,143.964777 143.957966,143.964777c79.630256,0 144.164245,-64.455175 144.164245,-143.964777c0,-76.848417 -60.36269,-139.627094 -136.257556,-143.746823" id="path180"/>
   <path fill="#feedf0" fill-rule="nonzero" d="m251.25371,222.372315c-4.764835,0 -8.269621,-3.857016 -8.269621,-8.61504l0,-25.942422c2.779893,-0.188764 5.580219,-0.285092 8.407789,-0.285092c2.733188,0 5.443997,0.089517 8.132427,0.266605l0,25.960909c0,4.758024 -3.503813,8.61504 -8.270594,8.61504" id="path182"/>
   <path fill="#f0adb2" fill-rule="nonzero" d="m251.391877,431.414022c-67.347937,0 -121.942617,-54.593707 -121.942617,-121.942617c0,-64.518421 50.111045,-117.334436 113.534828,-121.656552l0,25.942422c0,4.758024 3.504786,8.61504 8.269621,8.61504c4.766781,0 8.270594,-3.857016 8.270594,-8.61504l0,-25.960909c63.55514,4.185894 113.81019,57.062236 113.81019,121.675039c0,67.34891 -54.59468,121.942617 -121.942617,121.942617" id="path184"/>
   <path fill="#fad7dd" fill-rule="nonzero" d="m251.254683,226.259495c5.030467,0 8.270594,-4.282222 8.270594,-9.565672l0,-29.302229c-1.946022,-0.158601 -4.735645,-0.245199 -7.550566,-0.245199c-3.303373,0 -7.0446,0.123572 -8.990623,0.340554l0,29.206874c0,5.28345 3.240127,9.565672 8.270594,9.565672" id="path186"/>
   <path fill="#bc858a" fill-rule="nonzero" d="m251.254683,222.424858c4.765808,0 8.270594,-3.861881 8.270594,-8.627689l0,-26.429901c-1.946022,-0.14206 -4.92149,-0.220874 -7.588514,-0.220874c-3.129204,0 -6.033642,0.110923 -8.952675,0.307472l0,26.343303c0,4.765808 3.504786,8.627689 8.270594,8.627689" id="path188"/>
   <path fill="#1b1916" fill-rule="nonzero" d="m212.171746,286.081191c0,5.082037 -4.120702,9.202739 -9.202739,9.202739c-5.08301,0 -9.203712,-4.120702 -9.203712,-9.202739c0,-5.08301 4.120702,-9.203712 9.203712,-9.203712c5.082037,0 9.202739,4.120702 9.202739,9.203712" id="path190"/>
   <path fill="#1b1916" fill-rule="nonzero" d="m309.956443,286.081191c0,5.082037 -4.121675,9.202739 -9.203712,9.202739c-5.08301,0 -9.202739,-4.120702 -9.202739,-9.202739c0,-5.08301 4.119729,-9.203712 9.202739,-9.203712c5.082037,0 9.203712,4.120702 9.203712,9.203712" id="path192"/>
   <path fill="#aad51b" fill-rule="nonzero" d="m262.670049,54.222374c-31.60632,-9.757355 -54.196719,26.548608 -85.801092,16.793199c-2.506477,-12.795096 -5.011007,-25.589219 -7.514565,-38.385288c31.607293,9.756382 54.196719,-26.549581 85.803038,-16.794172c2.502585,12.795096 5.010034,25.590192 7.512619,38.386261" id="path194"/>
   <path fill="#8cba26" fill-rule="nonzero" d="m255.43863,47.222532c-26.485362,-3.55441 -47.063574,23.057444 -73.548937,19.503035c-1.767961,-9.032462 -3.535922,-18.064924 -5.303884,-27.096413c26.484389,3.555383 47.06552,-23.057444 73.550883,-19.502062c1.766988,9.031489 3.534949,18.062978 5.301938,27.09544" id="path196"/>
   <path fill="#aad51b" fill-rule="nonzero" d="m225.670329,38.863394c1.154964,5.901312 -2.489935,12.759095 -8.093506,15.548717c-5.603571,2.793515 -11.138058,-0.012649 -12.301779,-5.955801c-1.155937,-5.903258 2.499666,-12.701687 8.103237,-15.493256c5.602598,-2.791569 11.128328,-0.044759 12.292049,5.900339" id="path198"/>
   <path fill="#8cba26" fill-rule="nonzero" d="m217.183726,46.376012c0.72392,-0.443693 1.034311,-0.921442 0.933118,-1.433245l-0.005838,-0.036001c-0.045732,-0.231577 -0.159574,-0.386285 -0.344446,-0.463153c-0.183899,-0.074922 -0.504993,-0.072003 -0.960362,0.00973c0.125518,0.641214 0.251037,1.281456 0.377528,1.92267zm-2.939467,-6.393656c-0.401854,0.234496 -0.671378,0.473856 -0.813437,0.71419c-0.139141,0.240334 -0.186818,0.478721 -0.141087,0.710298l0.005838,0.034055c0.045732,0.233523 0.157628,0.387258 0.334716,0.460234c0.177088,0.073949 0.50402,0.062273 0.983714,-0.031136c-0.123572,-0.628565 -0.247145,-1.259076 -0.369744,-1.887642zm1.774772,9.722327c-0.834844,0.306498 -1.663849,0.501101 -2.489935,0.580888c-0.823167,0.078814 -1.59963,0.028217 -2.325497,-0.150817c0.347365,-1.010959 0.693757,-2.02289 1.040149,-3.036768c0.608132,0.141087 1.186101,0.206278 1.735852,0.194602c0.546832,-0.011676 1.089772,-0.096328 1.626875,-0.257848c-0.137195,-0.699595 -0.274389,-1.39919 -0.411584,-2.098785c-0.692784,0.16152 -1.313565,0.259794 -1.855532,0.293849c-0.544886,0.034055 -1.013878,-0.015568 -1.40892,-0.150817c-0.395043,-0.133303 -0.717109,-0.360014 -0.967173,-0.673324c-0.249091,-0.315256 -0.427152,-0.7463 -0.535156,-1.295078l-0.006811,-0.034055c-0.098274,-0.512777 -0.103139,-1.0275 -0.00973,-1.542223c0.092436,-0.516669 0.274389,-1.014851 0.548778,-1.496491c0.274389,-0.48164 0.638295,-0.941875 1.093664,-1.377784c0.450504,-0.437855 0.988579,-0.832898 1.607414,-1.188047c-0.065192,-0.33277 -0.130383,-0.663594 -0.195575,-0.996363c0.57505,-0.2812 1.149126,-0.563373 1.72223,-0.843601c0.070057,0.350284 0.137195,0.699595 0.207251,1.048906c0.699595,-0.252983 1.359297,-0.4038 1.979105,-0.449531c0.619808,-0.046705 1.214318,-0.008757 1.781583,0.111896c-0.299687,1.000255 -0.598402,1.999538 -0.901008,2.999793c-0.39115,-0.09049 -0.79495,-0.12941 -1.209453,-0.117734c-0.416449,0.00973 -0.820248,0.063246 -1.213345,0.152763c0.131356,0.676243 0.263686,1.351512 0.396016,2.026782c0.69473,-0.160547 1.307727,-0.253956 1.84191,-0.276335c0.53321,-0.024325 0.99539,0.032109 1.384595,0.169304c0.390177,0.136222 0.709325,0.369744 0.952578,0.698622c0.246172,0.327905 0.422287,0.759922 0.526399,1.295078l0.007784,0.035028c0.103139,0.536129 0.103139,1.061555 0,1.579197c-0.104112,0.514723 -0.296768,1.010959 -0.578942,1.490653c-0.280227,0.48164 -0.644133,0.930199 -1.089772,1.351512c-0.440774,0.420341 -0.949659,0.802734 -1.524708,1.14718c0.112869,0.571158 0.223793,1.141342 0.336662,1.713473c-0.574077,0.280227 -1.149126,0.561427 -1.723203,0.842628c-0.114815,-0.582834 -0.228658,-1.163721 -0.3425,-1.746555" id="path200"/>
   <path fill="#aad51b" fill-rule="nonzero" d="m217.930998,182.399073c-15.859108,-15.330763 -40.239847,-0.544886 -56.097982,-15.874676c2.36539,-8.366923 4.732726,-16.731899 7.101035,-25.096875c15.859108,15.330763 40.239847,0.543913 56.098955,15.873703c-2.367336,8.36595 -4.734672,16.731899 -7.102008,25.097849" id="path202"/>
   <path fill="#8cba26" fill-rule="nonzero" d="m215.738804,176.056014c-14.681765,-10.097909 -34.944721,-0.47191 -49.626486,-10.570793c1.67066,-5.904231 3.342293,-11.810409 5.012953,-17.715613c14.681765,10.098882 34.945694,0.472883 49.627459,10.570793c-1.67066,5.904231 -3.34132,11.810409 -5.013926,17.715613" id="path204"/>
   <path fill="#aad51b" fill-rule="nonzero" d="m200.552047,162.109845c-1.091718,3.857989 -5.327236,6.839295 -9.501453,6.809132c-4.175191,-0.027244 -6.620368,-3.364672 -5.520865,-7.250879c1.091718,-3.859935 5.31556,-6.801348 9.489777,-6.772157c4.174218,0.027244 6.632044,3.326725 5.532541,7.213904" id="path206"/>
   <path fill="#8cba26" fill-rule="nonzero" d="m193.239868,164.020839c0.564346,-0.045732 0.893224,-0.236442 0.987606,-0.571158l0.005838,-0.023352c0.043785,-0.15179 0.022379,-0.278281 -0.064219,-0.379474c-0.087571,-0.10022 -0.278281,-0.194602 -0.57505,-0.284119c-0.117734,0.419368 -0.236442,0.838736 -0.354176,1.258103zm0.179034,-4.688941c-0.310391,0.018487 -0.54294,0.078814 -0.699595,0.179034c-0.154709,0.101193 -0.254929,0.228658 -0.297741,0.380447l-0.007784,0.022379c-0.041839,0.15179 -0.022379,0.277308 0.0613,0.374609c0.082706,0.096328 0.2812,0.187791 0.59451,0.277308c0.115788,-0.410611 0.23255,-0.823167 0.349311,-1.233778zm-1.875965,6.317761c-0.588672,-0.069084 -1.140369,-0.204332 -1.655092,-0.405746c-0.51375,-0.20044 -0.960362,-0.465099 -1.33789,-0.790085c0.510831,-0.496236 1.021662,-0.993444 1.533466,-1.492599c0.319148,0.267578 0.644133,0.479694 0.973984,0.639268c0.328878,0.157628 0.677216,0.270497 1.045987,0.336662c0.128437,-0.458288 0.257848,-0.91463 0.387258,-1.371946c-0.460234,-0.112869 -0.859169,-0.241307 -1.191939,-0.385312c-0.334716,-0.144006 -0.598402,-0.314283 -0.793004,-0.514723c-0.194602,-0.198494 -0.318175,-0.430071 -0.37169,-0.690838c-0.053516,-0.262713 -0.030163,-0.574077 0.072003,-0.932145l0.005838,-0.022379c0.096328,-0.334716 0.249091,-0.642187 0.459261,-0.920469c0.21017,-0.279254 0.468991,-0.520561 0.777436,-0.72392c0.308445,-0.204332 0.663594,-0.368771 1.065447,-0.491371c0.400881,-0.123572 0.839709,-0.196548 1.314538,-0.221847c0.0613,-0.216981 0.122599,-0.43299 0.183899,-0.650944c0.427152,0.005838 0.853331,0.010703 1.278537,0.016541c-0.064219,0.229631 -0.128437,0.458288 -0.193629,0.687919c0.493317,0.059354 0.931172,0.169304 1.313565,0.327905c0.383366,0.159574 0.724893,0.360987 1.025554,0.60424c-0.479694,0.504993 -0.957443,1.009013 -1.440056,1.513032c-0.205305,-0.172223 -0.43299,-0.317202 -0.683054,-0.434936c-0.251037,-0.11968 -0.506939,-0.21017 -0.768679,-0.274389c-0.125518,0.440774 -0.250064,0.882521 -0.374609,1.324268c0.461207,0.113842 0.853331,0.243253 1.178316,0.39115c0.324986,0.145952 0.582834,0.319148 0.772571,0.517642c0.191683,0.198494 0.310391,0.433963 0.357095,0.702514c0.046705,0.269524 0.021406,0.578942 -0.077841,0.929226l-0.005838,0.023352c-0.10022,0.350284 -0.258821,0.662621 -0.475802,0.938956c-0.217954,0.274389 -0.48164,0.511804 -0.793977,0.713217c-0.312337,0.201413 -0.664567,0.359041 -1.055717,0.474829c-0.389204,0.116761 -0.807599,0.19071 -1.253238,0.22282c-0.104112,0.372663 -0.21017,0.7463 -0.316229,1.119936c-0.426179,-0.005838 -0.852358,-0.012649 -1.278537,-0.018487c0.108004,-0.380447 0.214062,-0.760895 0.322067,-1.141342" id="path208"/>
   <path fill="#aad51b" fill-rule="nonzero" d="m326.314705,163.091614c-15.716075,-29.106654 -57.270461,-19.026259 -72.989455,-48.132913c7.177903,-10.883129 14.355806,-21.767231 21.533709,-32.651334c15.717048,29.103735 57.27338,19.024313 72.989455,48.130967c-7.177903,10.885075 -14.355806,21.769178 -21.533709,32.65328" id="path210"/>
   <path fill="#8cba26" fill-rule="nonzero" d="m326.059777,153.030679c-16.407886,-21.091962 -49.735463,-16.522702 -66.143349,-37.614663c5.066469,-7.683869 10.130992,-15.366764 15.19746,-23.050633c16.407886,21.093908 49.737409,16.523675 66.144322,37.615636c-5.065496,7.683869 -10.131965,15.36871 -15.198433,23.04966" id="path212"/>
   <path fill="#aad51b" fill-rule="nonzero" d="m310.674525,126.208655c-3.310184,5.019764 -10.714798,7.361802 -16.668653,5.424537c-5.953855,-1.9324 -7.937825,-7.811333 -4.604289,-12.868072c3.310184,-5.02171 10.681716,-7.312178 16.635571,-5.378805c5.953855,1.936292 7.972853,7.765602 4.637371,12.82234" id="path214"/>
   <path fill="#8cba26" fill-rule="nonzero" d="m299.355487,125.623875c0.827059,0.189737 1.383622,0.068111 1.672606,-0.367798l0.020433,-0.02919c0.12941,-0.199467 0.155682,-0.390177 0.075895,-0.573104c-0.077841,-0.182926 -0.307472,-0.405746 -0.689865,-0.663594c-0.359041,0.543913 -0.718082,1.088799 -1.079069,1.633686zm2.382904,-6.621341c-0.450504,-0.114815 -0.811491,-0.134276 -1.081015,-0.060327c-0.267578,0.073949 -0.468991,0.21017 -0.598402,0.408665l-0.01946,0.02919c-0.131356,0.197521 -0.159574,0.385312 -0.081733,0.5624c0.073949,0.176115 0.315256,0.397962 0.720028,0.66554c0.354176,-0.535156 0.707379,-1.071285 1.060582,-1.605468zm-5.54519,8.181077c-0.811491,-0.366825 -1.539304,-0.807599 -2.181491,-1.331079c-0.646079,-0.519588 -1.162748,-1.099503 -1.554872,-1.736825c0.954524,-0.475802 1.911967,-0.95647 2.867464,-1.437137c0.336662,0.526399 0.703487,0.977876 1.102422,1.353458c0.398935,0.376555 0.845547,0.695703 1.343728,0.957443c0.39115,-0.596456 0.783274,-1.189993 1.174424,-1.783529c-0.608132,-0.373636 -1.117017,-0.736569 -1.529573,-1.093664c-0.410611,-0.357095 -0.711271,-0.721001 -0.899062,-1.093664c-0.187791,-0.372663 -0.259794,-0.760895 -0.216981,-1.158856c0.041839,-0.398935 0.216981,-0.831924 0.52348,-1.29897l0.020433,-0.02919c0.287038,-0.435909 0.644133,-0.80468 1.072258,-1.10826c0.427152,-0.301633 0.907819,-0.529318 1.442002,-0.681108c0.532237,-0.153736 1.114098,-0.225739 1.744609,-0.220874c0.628565,0.006811 1.288267,0.101193 1.980078,0.282173c0.186818,-0.282173 0.372663,-0.564346 0.558508,-0.847493c0.606186,0.201413 1.212372,0.401854 1.818558,0.605213c-0.195575,0.297741 -0.39115,0.59451 -0.588672,0.892251c0.678189,0.310391 1.256157,0.66554 1.730987,1.06642c0.473856,0.398935 0.870845,0.843601 1.191939,1.329133c-0.91463,0.501101 -1.828288,1.006093 -2.743891,1.508167c-0.216981,-0.338608 -0.477748,-0.648998 -0.781328,-0.932145c-0.304552,-0.284119 -0.629538,-0.531264 -0.974957,-0.741434c-0.378501,0.574077 -0.757976,1.150099 -1.136477,1.724176c0.610078,0.370717 1.112152,0.735596 1.50914,1.093664c0.396989,0.354176 0.685973,0.720028 0.867926,1.090745c0.182926,0.369744 0.245199,0.758949 0.192656,1.165667c-0.055462,0.407692 -0.23255,0.838736 -0.532237,1.294105l-0.021406,0.02919c-0.299687,0.456342 -0.668459,0.829978 -1.104368,1.126747c-0.434936,0.293849 -0.921442,0.511804 -1.459517,0.656782c-0.535156,0.148871 -1.109233,0.214062 -1.723203,0.203359c-0.610078,-0.010703 -1.240589,-0.094382 -1.890561,-0.251037c-0.321094,0.485533 -0.641214,0.972038 -0.962308,1.458544c-0.606186,-0.203359 -1.214318,-0.4038 -1.818558,-0.606186c0.324986,-0.495263 0.653863,-0.989552 0.978849,-1.485788" id="path216"/>
   <path fill="#fad60e" fill-rule="nonzero" d="m248.705394,103.725287c0,17.397439 -14.104769,31.501235 -31.501235,31.501235c-17.398412,0 -31.498316,-14.103796 -31.498316,-31.501235c0,-17.397439 14.099904,-31.499289 31.498316,-31.499289c17.396466,0 31.501235,14.10185 31.501235,31.499289" id="path218"/>
   <path fill="#f9e732" fill-rule="nonzero" d="m240.417285,103.725287c0,12.820394 -10.389813,23.215072 -23.213126,23.215072c-12.821367,0 -23.214099,-10.394678 -23.214099,-23.215072c0,-12.821367 10.392732,-23.213126 23.214099,-23.213126c12.823313,0 23.213126,10.391759 23.213126,23.213126" id="path220"/>
   <path fill="#f5b818" fill-rule="nonzero" d="m219.256239,110.525662c1.605468,-0.168331 2.408202,-0.778409 2.408202,-1.834126l0,-0.070057c0,-0.480667 -0.167358,-0.874737 -0.503047,-1.187074c-0.336662,-0.311364 -0.969119,-0.598402 -1.905156,-0.863061l0,3.954317zm-3.342293,-14.701225c-0.888359,0.072976 -1.517897,0.270497 -1.888615,0.59451c-0.370717,0.322067 -0.554616,0.724893 -0.554616,1.203615l0,0.072003c0,0.480667 0.160547,0.868899 0.48164,1.16664c0.324986,0.299687 0.979822,0.580888 1.96159,0.845547l0,-3.882314zm-0.25201,19.875698c-1.773799,-0.19071 -3.491164,-0.586726 -5.156959,-1.186101c-1.667741,-0.598402 -3.181746,-1.38946 -4.547854,-2.371228l3.235262,-4.780404c1.151072,0.81441 2.270035,1.461463 3.361753,1.940184c1.088799,0.480667 2.198032,0.81441 3.323806,1.006093l0,-4.312385c-1.43811,-0.335689 -2.703025,-0.720028 -3.790851,-1.150099c-1.090745,-0.431044 -2.000511,-0.952578 -2.732215,-1.561683c-0.731704,-0.612997 -1.282429,-1.325241 -1.654119,-2.139651c-0.370717,-0.815383 -0.555589,-1.784502 -0.555589,-2.911249l0,-0.072976c0,-1.053771 0.188764,-2.023863 0.574077,-2.910276c0.383366,-0.886413 0.938956,-1.658984 1.672606,-2.317712c0.727812,-0.660675 1.628821,-1.191939 2.695241,-1.600603c1.062528,-0.406719 2.279765,-0.656782 3.648792,-0.754084l0,-2.049161l3.733444,0l0,2.157166c1.487734,0.168331 2.852869,0.491371 4.09735,0.971065c1.249346,0.479694 2.411122,1.089772 3.487272,1.83218l-2.947251,4.814459c-0.744353,-0.525426 -1.524708,-0.969119 -2.352741,-1.327187c-0.827059,-0.360987 -1.648281,-0.634403 -2.461718,-0.827059l0,4.167407c1.439083,0.337635 2.691349,0.724893 3.75485,1.168586c1.068366,0.443693 1.960617,0.971065 2.6787,1.581143c0.718082,0.611051 1.258103,1.335944 1.618117,2.17468c0.356122,0.838736 0.539048,1.809801 0.539048,2.911249l0,0.072003c0,1.102422 -0.203359,2.091974 -0.612024,2.966711c-0.406719,0.873764 -0.982741,1.634659 -1.723203,2.281711c-0.745327,0.647052 -1.637578,1.161775 -2.680646,1.544169c-1.044041,0.383366 -2.196086,0.635376 -3.465866,0.755057l0,3.524246l-3.739282,0l0,-3.596249" id="path222"/>
   <path fill="#fad60e" fill-rule="nonzero" d="m308.639959,43.779046c0,11.670295 -9.462533,21.133801 -21.13672,21.133801c-11.671268,0 -21.130882,-9.463506 -21.130882,-21.133801c0,-11.672241 9.459614,-21.133801 21.130882,-21.133801c11.674187,0 21.13672,9.46156 21.13672,21.133801" id="path224"/>
   <path fill="#f9e732" fill-rule="nonzero" d="m303.078227,43.779046c0,8.600445 -6.970652,15.574016 -15.574989,15.574016c-8.598499,0 -15.57207,-6.973571 -15.57207,-15.574016c0,-8.602391 6.973571,-15.574016 15.57207,-15.574016c8.604337,0 15.574989,6.971625 15.574989,15.574016" id="path226"/>
   <path fill="#f5b818" fill-rule="nonzero" d="m288.827507,48.341495c1.075177,-0.113842 1.617144,-0.522507 1.617144,-1.231832l0,-0.046705c0,-0.322067 -0.115788,-0.586726 -0.338608,-0.795923c-0.227685,-0.209197 -0.649971,-0.401854 -1.278537,-0.578942l0,2.653401zm-2.242791,-9.862441c-0.59451,0.046705 -1.016797,0.180007 -1.265887,0.397962c-0.249091,0.215035 -0.373636,0.485533 -0.373636,0.807599l0,0.047678c0,0.32304 0.108004,0.582834 0.324013,0.782301c0.218927,0.201413 0.657756,0.390177 1.315511,0.567265l0,-2.602805zm-0.167358,13.333171c-1.190966,-0.128437 -2.344957,-0.394069 -3.460027,-0.795923c-1.11799,-0.400881 -2.134786,-0.931172 -3.052336,-1.5899l2.169815,-3.208991c0.771598,0.547805 1.522762,0.982741 2.256413,1.302862c0.731704,0.32304 1.474112,0.545859 2.231114,0.67527l0,-2.891789c-0.9662,-0.226712 -1.815639,-0.48456 -2.545397,-0.773544c-0.731704,-0.288984 -1.339836,-0.638295 -1.831207,-1.04696c-0.490398,-0.410611 -0.861115,-0.888359 -1.110206,-1.436164c-0.249091,-0.546832 -0.374609,-1.197777 -0.374609,-1.95186l0,-0.050597c0,-0.706406 0.127464,-1.356377 0.386285,-1.95186c0.259794,-0.59451 0.630511,-1.112152 1.122855,-1.554872c0.488452,-0.443693 1.092691,-0.798842 1.806882,-1.073231c0.713217,-0.273416 1.532492,-0.441747 2.448096,-0.506939l0,-1.374865l2.506477,0l0,1.447841c0.998309,0.111896 1.911967,0.328878 2.747783,0.651917c0.838736,0.321094 1.616171,0.730731 2.340092,1.228913l-1.979105,3.230397c-0.497209,-0.353203 -1.021662,-0.649971 -1.577251,-0.892251c-0.556562,-0.241307 -1.103395,-0.424233 -1.6512,-0.554616l0,2.796434c0.963281,0.227685 1.803963,0.486506 2.520099,0.784247c0.716136,0.297741 1.313565,0.651917 1.796179,1.061555c0.480667,0.409638 0.843601,0.896143 1.084907,1.458544c0.241307,0.5624 0.360987,1.214318 0.360987,1.952833l0,0.048651c0,0.739488 -0.135249,1.403082 -0.410611,1.990781c-0.27147,0.585753 -0.659702,1.096584 -1.154964,1.530546c-0.500128,0.43299 -1.09853,0.778409 -1.800071,1.035284c-0.697649,0.256875 -1.471193,0.426179 -2.324524,0.507912l0,2.363444l-2.506477,0l0,-2.413068" id="path228"/>
   <path fill="#fad60e" fill-rule="nonzero" d="m256.606244,187.580357c0,3.176881 -2.57556,5.751469 -5.752442,5.751469l-0.172223,0c-3.176881,0 -5.751469,-2.574587 -5.751469,-5.751469l0,-30.33654c0,-3.176881 2.574587,-5.751469 5.751469,-5.751469l0.172223,0c3.176881,0 5.752442,2.574587 5.752442,5.751469l0,30.33654" id="path230"/>
   <path fill="#f9e732" fill-rule="nonzero" d="m253.68721,186.034243c0,2.417933 -1.960617,4.37855 -4.37855,4.37855c-2.418906,0 -4.37855,-1.960617 -4.37855,-4.37855l0,-28.217322c0,-2.417933 1.959644,-4.37855 4.37855,-4.37855c2.417933,0 4.37855,1.960617 4.37855,4.37855l0,28.217322" id="path232"/>
   <path fill="#feeef1" fill-rule="nonzero" d="m307.118169,350.959625c0,23.645143 -25.051144,42.812489 -55.953004,42.812489c-30.90186,0 -55.952031,-19.167346 -55.952031,-42.812489c0,-23.645143 25.050171,-42.812489 55.952031,-42.812489c30.90186,0 55.953004,19.167346 55.953004,42.812489" id="path234"/>
   <path fill="#f9d2d3" fill-rule="nonzero" d="m307.118169,351.932636c0,23.645143 -25.051144,42.812489 -55.953004,42.812489c-30.90186,0 -55.952031,-19.167346 -55.952031,-42.812489c0,-23.645143 25.050171,-42.812489 55.952031,-42.812489c30.90186,0 55.953004,19.167346 55.953004,42.812489" id="path236"/>
   <path fill="#c53a4c" fill-rule="nonzero" d="m240.675133,350.119917c0,6.788698 -5.503351,12.292049 -12.293022,12.292049c-6.789672,0 -12.293022,-5.503351 -12.293022,-12.292049c0,-6.788698 5.503351,-12.293022 12.293022,-12.293022c6.789672,0 12.293022,5.504324 12.293022,12.293022" id="path238"/>
   <path fill="#c53a4c" fill-rule="nonzero" d="m286.836726,350.119917c0,6.788698 -5.503351,12.292049 -12.293022,12.292049c-6.789672,0 -12.293022,-5.503351 -12.293022,-12.292049c0,-6.788698 5.503351,-12.293022 12.293022,-12.293022c6.789672,0 12.293022,5.504324 12.293022,12.293022" id="path240"/>
  </g>
 </g>
</svg>