<svg width="900" height="700" xmlns="http://www.w3.org/2000/svg">
 <metadata id="metadata8">image/svg+xml</metadata>

 <g>
  <title>background</title>
  <rect fill="none" id="canvas_background" height="702" width="902" y="-1" x="-1"/>
 </g>
 <g>
  <title>Layer 1</title>
  <g id="svg_1">
   <path fill="#dddddd" fill-rule="nonzero" d="m109.73909,150.541954c-1.095,0 -2.1625,0.11375 -3.2075,0.29c0.015,-0.36125 0.055,-0.7175 0.055,-1.0825c0,-14.6575 -11.8825,-26.54 -26.54,-26.54c-12.672125,0 -23.253125,8.8875 -25.891875,20.765c-0.21725,-0.00625 -0.429625,-0.0325 -0.648875,-0.0325c-12.36825,0 -22.395,10.02625 -22.395,22.395c0,12.3675 10.02675,22.395 22.395,22.395l56.233251,0c10.545,0 19.095,-8.55 19.095,-19.095c0,-10.54625 -8.55,-19.095 -19.095,-19.095" id="path20"/>
   <path fill="#dddddd" fill-rule="nonzero" d="m415.199094,156.979454c-0.975,0 -1.92625,0.10125 -2.8575,0.25875c0.01375,-0.3225 0.04875,-0.64 0.04875,-0.965c0,-13.06 -10.58625,-23.6475 -23.64625,-23.6475c-11.29,0 -20.7175,7.92 -23.06875,18.5025c-0.19375,-0.00625 -0.3825,-0.03 -0.57875,-0.03c-11.02,0 -19.95375,8.93375 -19.95375,19.95375c0,11.02 8.93375,19.95375 19.95375,19.95375l50.102501,0c9.39625,0 17.01375,-7.6175 17.01375,-17.0125c0,-9.3975 -7.6175,-17.01375 -17.01375,-17.01375" id="path22"/>
   <path fill="#dddddd" fill-rule="nonzero" d="m856.706601,149.865704c-0.65875,0 -1.3,0.06625 -1.93125,0.1675c0.10125,-0.8075 0.1575,-1.62875 0.1575,-2.46375c0,-10.96875 -8.89,-19.86 -19.8575,-19.86c-10.46625,0 -19.03625,8.09875 -19.79875,18.36875c-1.0925,-0.2675 -2.2275,-0.425 -3.40375,-0.425c-7.89125,0 -14.28875,6.3975 -14.28875,14.29c0,7.8925 6.3975,14.29 14.28875,14.29l44.833751,0c6.72875,0 12.1825,-5.455 12.1825,-12.18375c0,-6.72875 -5.45375,-12.18375 -12.1825,-12.18375" id="path24"/>
   <path fill="#dddddd" fill-rule="nonzero" d="m270.414092,290.485706c-0.65875,0 -1.3,0.0675 -1.93,0.1675c0.1,-0.8075 0.1575,-1.62875 0.1575,-2.46375c0,-10.9675 -8.89125,-19.86 -19.85875,-19.86c-10.46625,0 -19.035,8.09875 -19.79875,18.37c-1.0925,-0.2675 -2.22875,-0.425 -3.40375,-0.425c-7.89125,0 -14.29,6.3975 -14.29,14.28875c0,7.8925 6.39875,14.29125 14.29,14.29125l44.833751,0c6.72875,0 12.18375,-5.45625 12.18375,-12.185c0,-6.72875 -5.455,-12.18375 -12.18375,-12.18375" id="path26"/>
   <path fill="#dddddd" fill-rule="nonzero" d="m784.2266,322.685707c-0.54625,0 -1.07875,0.055 -1.6025,0.13875c0.0825,-0.67125 0.13125,-1.3525 0.13125,-2.045c0,-9.10625 -7.3825,-16.48875 -16.4875,-16.48875c-8.68875,0 -15.80375,6.72375 -16.4375,15.25125c-0.90625,-0.2225 -1.85,-0.35375 -2.825,-0.35375c-6.55375,0 -11.865,5.3125 -11.865,11.86375c0,6.5525 5.31125,11.865 11.865,11.865l37.221251,0c5.5875,0 10.11625,-4.53 10.11625,-10.11625c0,-5.58625 -4.52875,-10.115 -10.11625,-10.115" id="path28"/>
   <path fill="#ffffff" fill-rule="nonzero" d="m123.52534,561.12946c6.945,-16.96625 0.38,-30.57125 -8.2675,-40.172501c17.04875,0.59625 26.3175,-4.07875 28.735,-7.3175c7.16875,9.98 11.74875,28.26375 6.4325,40.108751c-4.265,4.1575 -18.40625,10.4975 -26.9,7.38125" id="path30"/>
   <path fill="#eeeeee" fill-rule="nonzero" d="m300.245343,655.466837c-36.746251,0 -66.533751,-4.94725 -66.533751,-11.05125c0,-6.102625 29.7875,-11.049875 66.533751,-11.049875c36.745001,0 66.533751,4.94725 66.533751,11.049875c0,6.104 -29.78875,11.05125 -66.533751,11.05125" id="path32"/>
   <path fill="#75a385" fill-rule="nonzero" d="m118.18534,521.00821c-0.94875,0 -1.925,-0.01625 -2.9275,-0.05125c0.99875,0.035 1.97,0.05125 2.91625,0.05125c5.9775,0 10.89375,-0.67 14.79875,-1.66625c0.00125,0.00125 0.00125,0.00125 0.0025,0.0025c-3.90375,0.99625 -8.8175,1.66375 -14.79,1.66375" id="path34"/>
   <path fill="#7bac8a" fill-rule="nonzero" d="m123.59534,561.15571c-0.00625,-0.0025 -0.01375,-0.005 -0.02,-0.0075c0.00625,0.0025 0.0125,0.005 0.02,0.0075m-0.03375,-0.0125c-0.01125,-0.005 -0.02375,-0.00875 -0.03625,-0.01375l0,0c0.0125,0.005 0.025,0.00875 0.03625,0.01375" id="path36"/>
   <path fill="#ededed" fill-rule="nonzero" d="m125.81784,561.72446c-0.77125,-0.13125 -1.5175,-0.31625 -2.2225,-0.56875c-0.0075,-0.0025 -0.01375,-0.005 -0.02,-0.0075c-0.005,-0.0025 -0.00875,-0.00375 -0.01375,-0.005c-0.01125,-0.005 -0.02375,-0.00875 -0.03625,-0.01375c2.035,-4.97 2.91,-9.6525 2.9125,-14.03c0.00625,-10.56375 -5.06625,-19.35375 -11.18,-26.1425l0,0c1.0025,0.035 1.97875,0.05125 2.9275,0.05125c5.9725,0 10.88625,-0.6675 14.79,-1.66375c6.48375,7.81625 11.40625,18.20625 10.69875,27.26625c-2.1475,4.39875 -10.07625,12.4275 -17.85625,15.11375" id="path38"/>
   <path fill="#ffffff" fill-rule="nonzero" d="m121.06284,562.87446c-1.1025,-18.3 -12.91875,-27.71 -24.87625,-32.6125c15.62,-6.85625 21.945,-15.08875 22.7175,-19.055c10.78875,5.88125 22.84625,20.37 23.19375,33.35c-2.03875,5.595 -12.03125,17.44 -21.035,18.3175" id="path40"/>
   <path fill="#ffffff" fill-rule="nonzero" d="m82.732839,509.329459c-16.891125,-7.12625 -20.684,-20.2475 -21.329625,-33.15375c-11.662,12.45 -24.5605,15.675 -28.5585,15.085c1.958,12.13 14.066875,28.93375 26.191375,33.580001c5.956,-0.0625 19.87425,-7.31 23.69675,-15.51125" id="path42"/>
   <path fill="#4c3625" fill-rule="nonzero" d="m165.01909,558.25946l3.71375,16.16875l-4.135,0.80375l-3.565,-16.29625l3.98625,-0.67625zm0.26875,20.12625l8.25375,-1.79875l-6.18375,-23.1775l-6.98625,2.5l-4.93125,-22.54125l-44.785001,10.8925l14.13625,64.862376l45.543751,-7.662625l-5.0475,-23.07475" id="path44"/>
   <path fill="#fbd8b6" fill-rule="nonzero" d="m164.47159,561.87321c0.19875,0.98125 1.32125,1.13875 2.08625,1.00125c-0.73375,0.06 -1.99125,0.3375 -1.86375,1.56875c0.1475,1.41875 1.96625,1.50875 2.60875,1.495l0.00125,0.015c-0.5975,0.08375 -2.18125,0.41875 -2.04,1.615c0.14,1.18625 1.785,1.145 2.42125,1.0825c-0.685,0.1025 -2.46125,0.4975 -2.2325,1.93c0.17,1.07125 2.58125,0.5275 2.58125,0.5275c43.911251,-13.6225 66.392501,-14.35375 66.392501,-14.35375l-3.65,-10.24875c-46.317501,7.30875 -59.675001,13.01375 -64.047501,13.91125c0,0 -2.4025,0.48875 -2.2575,1.45625" id="path46"/>
   <path fill="#fbd8b6" fill-rule="nonzero" d="m349.999093,489.785709c-0.9425,0.34 -0.73375,1.40125 -0.645,2.11625c-0.165,-0.71875 -0.62125,-1.9225 -1.82125,-1.6175c-1.3825,0.35 -1.20875,2.1625 -1.1025,2.79625l-0.01375,0.005c-0.17,-0.58 -0.73,-2.09875 -1.89375,-1.78625c-1.15375,0.31125 -0.87375,1.9325 -0.72125,2.55125c-0.2,-0.6625 -0.88625,-2.46875 -2.23125,-1.92875c-1.06375,0.4275 -0.14875,2.63125 -0.14875,2.63125c19.83125,41.477501 -14.43125,32.83375 -14.43125,32.83375l1.51375,10.7725c46.842501,2.1575 24.8275,-42.247501 23.30625,-46.445001c0,0 -0.75875,-2.30625 -1.81125,-1.92875" id="path48"/>
   <path fill="#f8f8f8" fill-rule="nonzero" d="m326.990343,527.38696l1.51375,10.7725c1.91,0.09 3.695,0.0925 5.3825,0.03125l-0.425,-10.0575c-3.59875,-0.02375 -6.47125,-0.74625 -6.47125,-0.74625" id="path50"/>
   <path fill="#4c3625" fill-rule="nonzero" d="m364.024093,594.006961c-2.9575,-9.71625 -13.1825,5.85 -13.1825,5.85c0,0 2.86,-13.0275 -0.515,-17.4c-3.23125,-4.19 -11.21125,1.51875 -13.3225,2.95625l-86.782501,19.082375l3.3875,13.9175l-9.99,-1.173875c0,0 -7.2875,15.4 0.46125,16.4c7.7475,0.999 2.595,-10.32375 2.595,-10.32375c0,0 7.39125,4.096625 12.73,2.536625c4.1625,-1.21775 0.85375,-13.24275 0.2825,-16.959c57.021251,-3.484875 83.605001,-18.929875 84.393751,-19.526125c0,0 1.42375,14.025125 2.93375,21.02125c0,0 19.96625,-6.662625 17.00875,-16.38125" id="path52"/>
   <path fill="#e9e8e7" fill-rule="nonzero" d="m326.990343,527.38696l1.51375,10.7725c1.05875,0.05 2.07625,0.07 3.06375,0.07l-4.28125,-10.77375c-0.1925,-0.04125 -0.29625,-0.06875 -0.29625,-0.06875" id="path54"/>
   <path fill="#fbd8b6" fill-rule="nonzero" d="m326.989093,526.67696c0,0 -16.7125,-120.852502 -96.212501,-57.927501c0,0 -15.10875,18.13 0,77.756251c81.750001,1.32875 96.212501,-19.82875 96.212501,-19.82875" id="path56"/>
   <path fill="#f8f8f8" fill-rule="nonzero" d="m326.989093,526.67696l10.015,58.736251c0,0 -34.693751,14.7465 -86.782501,19.082375l-19.445,-57.989876c0,0 65.935001,-2.83 96.212501,-19.82875" id="path58"/>
   <path fill="#e9e8e7" fill-rule="nonzero" d="m307.555343,538.61446l2.72125,3.36625l-1.965,4.94375c0,0 1.14125,29.1575 -33.808751,34.140001l-9.7,-8.475l8.6975,-8.495c28.9175,2.5625 29.37375,-15.6575 29.37375,-15.6575l-4.175,-4.0275l1.1425,-3.39625l7.71375,-2.39875" id="path60"/>
   <path fill="#4c3625" fill-rule="nonzero" d="m307.555343,538.61446l2.72125,3.36625l-1.965,4.94375c0,0 1.14125,26.52125 -33.808751,31.5025l-9.7,-8.47375l8.6975,-8.49625c28.9175,2.56375 29.37375,-13.02 29.37375,-13.02l-4.175,-4.0275l1.1425,-3.39625l7.71375,-2.39875" id="path62"/>
   <path fill="#fbd8b6" fill-rule="nonzero" d="m166.247841,562.91071l0.31,-0.03625l-0.31,0.03625" id="path64"/>
   <path fill="#f8f8f8" fill-rule="nonzero" d="m230.776591,546.50571c-2.41625,0.38125 -4.7225,0.7575 -6.96375,1.13l2.61375,9.88125c5.31625,-0.67375 8,-0.7625 8,-0.7625l-3.65,-10.24875" id="path66"/>
   <path fill="#ec6180" fill-rule="nonzero" d="m281.506592,525.15446c0,0 3.68875,-13.97875 16.21625,-15.73375c9.76875,-1.36625 9.7925,8.18625 9.7925,8.18625c0,0 -9.20625,-1.17125 -26.00875,7.5475" id="path68"/>
   <path fill="#ffffff" fill-rule="nonzero" d="m84.079089,589.311961c-17.3145,-12.83125 -34.716876,-9.29875 -48.164126,-2.23375c5.625,-19.2475 2.98825,-31.16125 0,-34.856251c13.44725,-5.2725 35.605376,-5.18625 47.557876,4.30625c3.49875,6.06375 6.61875,24.0125 0.60625,32.78375" id="path70"/>
   <path fill="#dddddd" fill-rule="nonzero" d="m220.802841,620.849586c0,-3.162625 -2.56375,-5.7265 -5.725,-5.7265c-0.2675,0 -0.5275,0.023875 -0.78375,0.06c-1.0625,-1.027375 -2.50625,-1.661125 -4.10125,-1.661125c-3.26,0 -5.90375,2.643625 -5.90375,5.903875c0,1.17625 0.3475,2.2685 0.93875,3.188375c-0.58,0.754875 -0.93875,1.69 -0.93875,2.716375c0,2.475125 2.00625,4.481375 4.48125,4.481375c0.69,0 1.335,-0.168875 1.91875,-0.44775c0.7875,0.5865 1.75375,0.945375 2.81125,0.945375c2.595,0 4.6975,-2.091375 4.725,-4.680125c1.5525,-1.024 2.5775,-2.78275 2.5775,-4.779875" id="path72"/>
   <path fill="#dddddd" fill-rule="nonzero" d="m190.385341,617.939461c0,-3.399875 -2.755,-6.15525 -6.15375,-6.15525c-0.13375,0 -0.26375,0.012625 -0.39625,0.0215c-0.53125,-2.50975 -2.7575,-4.393625 -5.425,-4.393625c-3.01,0 -5.45625,2.3985 -5.54,5.38875c-3.76375,0.205 -6.755,3.314875 -6.755,7.129875c0,3.617625 2.69,6.6 6.1775,7.076125c1.2525,2.07125 3.52,3.461375 6.1175,3.461375c3.73375,0 6.795,-2.865125 7.1175,-6.515125c2.775,-0.594625 4.8575,-3.061 4.8575,-6.013625" id="path74"/>
   <path fill="#f8f8f8" fill-rule="nonzero" d="m164.42409,463.953209c0,0 -4.3375,-6.38125 -7.78375,-7.4075c-3.445,-1.02625 -5.58125,0.74875 -6.315,3.21c-0.7325,2.46125 0.45,5.3 3.0875,6.08625c4.04375,1.20375 11.01125,-1.88875 11.01125,-1.88875" id="path76"/>
   <path fill="#f8f8f8" fill-rule="nonzero" d="m188.924091,461.731959c0,0 -4.3375,-6.3825 -7.78375,-7.40875c-3.445,-1.025 -5.58125,0.75 -6.31375,3.21125c-0.7325,2.46 0.45,5.3 3.08625,6.085c4.04375,1.205 11.01125,-1.8875 11.01125,-1.8875" id="path78"/>
   <path fill="#f8f8f8" fill-rule="nonzero" d="m188.454091,429.119458c0,0 -4.3375,-6.38125 -7.7825,-7.40875c-3.44625,-1.025 -5.5825,0.75 -6.315,3.21125c-0.7325,2.46 0.45,5.3 3.0875,6.085c4.0425,1.205 11.01,-1.8875 11.01,-1.8875" id="path80"/>
   <path fill="#f8f8f8" fill-rule="nonzero" d="m172.536591,444.114459c0,0 -4.3375,-6.38125 -7.7825,-7.40875c-3.445,-1.025 -5.58125,0.75 -6.315,3.21125c-0.7325,2.46125 0.45,5.3 3.08625,6.08625c4.04375,1.20375 11.01125,-1.88875 11.01125,-1.88875" id="path82"/>
   <path fill="#f8f8f8" fill-rule="nonzero" d="m200.444091,446.535709c0,0 -4.3375,-6.3825 -7.7825,-7.40875c-3.44625,-1.025 -5.5825,0.75 -6.315,3.21c-0.73375,2.46125 0.45,5.30125 3.08625,6.085c4.04375,1.205 11.01125,-1.88625 11.01125,-1.88625" id="path84"/>
   <path fill="#4c3625" fill-rule="nonzero" d="m282.764092,498.209459l-18.635,-1.07125c-0.3025,-0.01625 -0.5725,0.205 -0.60875,0.51c-0.03875,0.31875 0.1875,0.6075 0.50625,0.64625l16.06375,1.92875l-11.69,11.20875c-0.2175,0.21125 -0.23875,0.55875 -0.04125,0.79375c0.2075,0.245 0.57375,0.275 0.8175,0.0675l14.26125,-12.06625c0.22875,-0.19625 0.38375,-0.48375 0.4025,-0.81c0.03625,-0.63125 -0.445,-1.17125 -1.07625,-1.2075" id="path86"/>
   <path fill="#4c3625" fill-rule="nonzero" d="m313.959093,497.835709l-12.67625,-3.2175l8.1925,-10.5375c0.1825,-0.2375 0.1575,-0.58125 -0.0675,-0.78625c-0.2375,-0.215 -0.605,-0.1975 -0.82,0.04l-10.19625,11.225c-0.14,0.15375 -0.24,0.34875 -0.27875,0.57c-0.10625,0.6175 0.30875,1.205 0.92625,1.31125l14.67875,2.53c0.295,0.05 0.58625,-0.13375 0.66125,-0.43c0.07875,-0.31 -0.11,-0.62625 -0.42,-0.705" id="path88"/>
   <path fill="#4c3625" fill-rule="nonzero" d="m245.280342,509.824459l-2.285,-22.27875c40.997501,-6.23 72.763751,-23.31625 72.763751,-23.31625c-12.37375,-35.322501 -45.716251,-34.122501 -63.656251,-28.635c-22.795,6.49 -30.62625,22.29375 -32.23375,27.93c-2.01875,-2.02875 -2.5725,-4.81625 -2.5725,-4.81625c-2.77,4.3925 -0.62375,7.56625 -0.62375,7.56625c-4.52125,0.65 -5.53375,5.14 -5.53375,5.14c1.43875,-0.62625 2.83625,-0.75125 4.06,-0.65125c-22.395,13.68625 15.5775,75.742501 15.5775,75.742501c9.15875,-7.2525 13.9725,-30.43 13.9725,-30.43c0,0 -9.3575,5.075 -9.02375,-3.46375c0.33375,-8.53875 9.555,-2.7875 9.555,-2.7875" id="path90"/>
   <path fill="#fbd8b6" fill-rule="nonzero" d="m672.752848,159.974454c13.5325,35.832501 35.815001,54.265001 37.070001,55.076251c1.6125,1.0375 4.6975,3.38375 3.53,4.78125c-0.595,0.71 -1.30125,0.72875 -2.37,0.15375c0.57375,0.585 1.13375,1.2775 0.73125,2.02625c-0.35375,0.66875 -1.82875,0.6525 -2.5975,0.26625l-0.195,-0.11375l0.195,0.11375c0.61375,0.415 1.0225,1.4825 0.69625,2.095c-0.4225,0.8075 -1.64,0.5625 -2.42375,0.11375c0.5775,0.58125 0.89125,1.21375 0.49875,1.95875c-0.83125,1.5675 -3.54125,-0.595 -5.1475,-1.8975c-1.2825,-1.0425 -24.77625,-20.3475 -39.261251,-60.525001l9.27375,-4.04875" id="path92"/>
   <path fill="#f8f8f8" fill-rule="nonzero" d="m536.104096,307.280706l14.9625,32.425c1.2925,2.80125 3.7775,4.89 6.77625,5.61375c31.68875,7.65125 68.441251,4.4025 103.212502,-11.6425c43.321251,-19.99125 73.545001,-55.206251 84.571251,-92.913751c2.03875,-6.97 -1.36875,-14.35125 -7.99375,-17.32375c-35.846251,-16.07625 -82.253751,-15.92875 -125.573752,4.0625c-34.771251,16.04625 -61.090001,41.903751 -75.830001,70.981251c-1.395,2.75 -1.4175,5.9975 -0.125,8.7975" id="path94"/>
   <path fill="#af412c" fill-rule="nonzero" d="m564.796596,347.620707c7.41375,16.065 1.755,34.813751 -12.5575,44.288751c-1.995,1.3225 -2.77875,3.86625 -1.77625,6.04125l0.29875,0.64625c0.94875,2.05625 3.2125,3.1825 5.4175,2.6625c6.085,-1.43375 12.11875,-3.4875 18.01625,-6.20875c22.1375,-10.21625 38.463751,-27.88 47.401251,-48.640001c-19.69625,3.76125 -39.181251,3.76125 -57.242501,0.3125c0.14875,0.29875 0.30125,0.5925 0.4425,0.8975" id="path96"/>
   <path fill="#af412c" fill-rule="nonzero" d="m538.977846,291.718206c-7.41375,-16.06625 -25.35125,-23.925 -41.847501,-19.18375c-2.30125,0.66125 -4.74625,-0.3925 -5.74875,-2.5675l-0.29875,-0.64625c-0.94875,-2.05625 -0.33625,-4.51 1.49,-5.85c5.04,-3.69875 10.51625,-6.95875 16.41375,-9.68c22.1375,-10.21625 46.172501,-11.1775 67.767501,-4.5075c-15.6425,12.54625 -28.285,27.3725 -37.380001,43.353751c-0.13125,-0.3075 -0.25625,-0.615 -0.39625,-0.91875" id="path98"/>
   <path fill="#af412c" fill-rule="nonzero" d="m737.715349,223.478205c-15.685,-7.04375 -33.39625,-10.975 -51.986251,-11.50375l34.943751,75.721251c11.66,-14.4875 20.16125,-30.515 24.97875,-47.020001c2.01375,-6.90375 -1.3775,-14.25125 -7.93625,-17.1975" id="path100"/>
   <path fill="#9c3b29" fill-rule="nonzero" d="m693.874098,220.409455c-0.23,0 -0.46125,-0.04 -0.68125,-0.12125c-0.485,-0.17875 -0.89625,-0.55875 -1.11625,-1.03375c-0.21625,-0.46875 -0.2375,-1.0275 -0.06,-1.5125c0.18375,-0.495 0.555,-0.9025 1.03125,-1.1225c0.26,-0.12 0.54625,-0.18125 0.83125,-0.18125c0.23625,0 0.47125,0.04125 0.69125,0.12625c0.98,0.36125 1.53625,1.565 1.175,2.545c-0.18375,0.495 -0.5575,0.89625 -1.03375,1.11625c-0.26375,0.12125 -0.55,0.18375 -0.8375,0.18375" id="path102"/>
   <path fill="#9c3b29" fill-rule="nonzero" d="m698.460348,230.330705c-0.75125,0 -1.47,-0.4275 -1.805,-1.15375c-0.45875,-0.995 -0.02375,-2.175 0.9725,-2.63375c0.26875,-0.125 0.55125,-0.18375 0.83,-0.18375c0.75,0 1.46875,0.4275 1.80375,1.15375c0.45875,0.995 0.025,2.17625 -0.97,2.635c-0.27,0.12375 -0.5525,0.1825 -0.83125,0.1825" id="path104"/>
   <path fill="#9c3b29" fill-rule="nonzero" d="m712.199099,260.100706c-0.75125,0 -1.47,-0.4275 -1.805,-1.15375c-0.46,-0.99625 -0.025,-2.17625 0.97125,-2.635c0.26875,-0.12375 0.5525,-0.1825 0.83,-0.1825c0.75125,0 1.46875,0.4275 1.80375,1.1525c0.46,0.99625 0.025,2.17625 -0.97,2.63625c-0.26875,0.12375 -0.5525,0.1825 -0.83,0.1825m-4.58,-9.9225c-0.75,0 -1.47,-0.42875 -1.80375,-1.155c-0.46,-0.995 -0.025,-2.175 0.97,-2.63375c0.26875,-0.125 0.55125,-0.18375 0.83,-0.18375c0.75125,0 1.47,0.4275 1.805,1.15375c0.45875,0.995 0.025,2.17625 -0.97125,2.635c-0.26875,0.125 -0.55125,0.18375 -0.83,0.18375m-4.57875,-9.92375c-0.75,0 -1.47,-0.4275 -1.805,-1.15375c-0.46,-0.995 -0.025,-2.175 0.97125,-2.635c0.26875,-0.12375 0.55125,-0.1825 0.83,-0.1825c0.75,0 1.46875,0.4275 1.80375,1.15375c0.46,0.995 0.025,2.175 -0.97,2.635c-0.26875,0.12375 -0.55125,0.1825 -0.83,0.1825" id="path106"/>
   <path fill="#dfe0df" fill-rule="nonzero" d="m708.797849,265.321956l-24.64125,-53.396251c0.52625,0.01 1.0475,0.03375 1.5725,0.04875l24.235,52.516251c-0.38625,0.27625 -0.77625,0.555 -1.16625,0.83125" id="path108"/>
   <path fill="#77a789" fill-rule="nonzero" d="m538.731596,291.195706c-0.005,-0.01 -0.01,-0.02 -0.015,-0.02875c0.005,0.00875 0.01,0.01875 0.015,0.02875m-0.02875,-0.0575c-0.64375,-1.3325 -1.36375,-2.60375 -2.14875,-3.8175c0.00125,-0.00125 0.0025,-0.00375 0.00375,-0.005c0.78375,1.21375 1.50125,2.49 2.145,3.8225m3.89375,-3.88c0.0025,-0.00375 0.00375,-0.005 0.005,-0.00875c-0.0025,0.00375 -0.0025,0.005 -0.005,0.00875m0.01375,-0.0225c2.575,-4.08625 5.385,-8.08625 8.4225,-11.97875c-3.0375,3.89375 -5.84625,7.89125 -8.4225,11.97875m8.435,-11.995c0.01375,-0.0175 0.0275,-0.03625 0.04125,-0.0525c-0.01375,0.0175 -0.0275,0.035 -0.04125,0.0525m0.09125,-0.1175c0.0025,-0.0025 0.005,-0.005 0.00625,-0.0075c-0.0025,0.0025 -0.00375,0.005 -0.00625,0.0075m25.61375,-25.84c-0.28375,-0.0875 -0.56875,-0.175 -0.85375,-0.26c0.285,0.085 0.57,0.17125 0.85375,0.25875l0,0.00125" id="path110"/>
   <path fill="#dfe0df" fill-rule="nonzero" d="m539.374096,292.636956c0,-0.00125 0,-0.00125 0,-0.00125l0,0c0,0 0,0 0,0.00125c1.02875,-1.80875 2.10375,-3.6025 3.2225,-5.37875c0.0025,-0.00375 0.0025,-0.005 0.005,-0.00875c0.00375,-0.005 0.00625,-0.00875 0.00875,-0.01375c2.57625,-4.0875 5.385,-8.085 8.4225,-11.97875c0.00375,-0.005 0.00875,-0.01125 0.0125,-0.01625c0.01375,-0.0175 0.0275,-0.035 0.04125,-0.0525c0.0175,-0.0225 0.0325,-0.0425 0.05,-0.065c0.0025,-0.0025 0.00375,-0.005 0.00625,-0.0075c3.67625,-4.7 7.68375,-9.24625 12.0025,-13.59875c-9.49875,9.57375 -17.4825,20.07 -23.77125,31.12m37.380001,-43.353751c-0.0025,0 -0.0025,0 -0.00375,0l0,-0.00125c0.00125,0 0.0025,0.00125 0.00375,0.00125l0,0" id="path112"/>
   <path fill="#9c3b29" fill-rule="nonzero" d="m539.374096,292.636956c0,-0.00125 0,-0.00125 0,-0.00125c-0.1325,-0.30625 -0.25625,-0.61375 -0.39625,-0.9175l0,0c-0.08125,-0.175 -0.1625,-0.34875 -0.24625,-0.5225c-0.005,-0.01 -0.01,-0.02 -0.015,-0.02875c-0.00375,-0.01 -0.00875,-0.02 -0.01375,-0.02875c-0.64375,-1.3325 -1.36125,-2.60875 -2.145,-3.8225c9.17625,-14.40875 21.11875,-27.79 35.451251,-39.360001c1.30375,0.33125 2.6,0.685 3.8875,1.0675c0.285,0.085 0.57,0.1725 0.85375,0.26c0.00125,0 0.00125,0 0.00375,0c-4.8275,3.87125 -9.36875,7.96125 -13.60875,12.23375c-4.31875,4.3525 -8.32625,8.89875 -12.0025,13.59875c-0.00125,0.0025 -0.00375,0.005 -0.00625,0.0075c-0.0175,0.0225 -0.0325,0.0425 -0.05,0.065c-0.01375,0.01625 -0.0275,0.035 -0.04125,0.0525c-0.00375,0.005 -0.00875,0.01125 -0.0125,0.01625c-3.0375,3.8925 -5.8475,7.8925 -8.4225,11.97875c-0.0025,0.005 -0.005,0.00875 -0.00875,0.01375c-0.00125,0.00375 -0.0025,0.005 -0.005,0.00875c-1.11875,1.77625 -2.19375,3.57 -3.2225,5.37875" id="path114"/>
   <path fill="#77a789" fill-rule="nonzero" d="m566.584096,352.344457c-0.00125,0 -0.0025,0 -0.005,-0.00125c-0.47,-1.565 -1.04625,-3.1175 -1.74625,-4.64375c0.7,1.5275 1.28375,3.08 1.75125,4.645m-1.7575,-4.6575c-0.01,-0.0225 -0.02,-0.045 -0.03,-0.06625c-0.14125,-0.30375 -0.29375,-0.5975 -0.44125,-0.89625l0,0c0.1475,0.29875 0.3,0.5925 0.44125,0.89625c0.01,0.02125 0.02,0.04375 0.03,0.06625m56.491251,-0.63625l0,0l0,0m0.0175,-0.04c0.0875,-0.19875 0.175,-0.4 0.26125,-0.6l0,0c-0.08625,0.2 -0.17375,0.4 -0.26125,0.6" id="path116"/>
   <path fill="#9c3b29" fill-rule="nonzero" d="m588.376597,353.844457c-7.40125,0 -14.68625,-0.505 -21.7925,-1.5c-0.4675,-1.565 -1.05125,-3.1175 -1.75125,-4.645c-0.0025,-0.005 -0.00375,-0.00875 -0.00625,-0.0125c-0.01,-0.0225 -0.02,-0.045 -0.03,-0.06625c-0.14125,-0.30375 -0.29375,-0.5975 -0.44125,-0.89625c1.29875,0.2475 2.60625,0.4775 3.92,0.69c7.61875,1.23125 15.4675,1.8575 23.4625,1.8575c9.78875,0 19.7975,-0.94 29.85875,-2.86125c-0.08625,0.2 -0.17375,0.40125 -0.26125,0.6c-0.00625,0.01375 -0.01125,0.02625 -0.0175,0.04l0,0c-0.5725,1.30125 -1.1775,2.58875 -1.8075,3.865c-10.49,1.96625 -20.9225,2.92875 -31.13375,2.92875" id="path118"/>
   <path fill="#af412c" fill-rule="nonzero" d="m528.124096,362.636957c-28.68375,13.23625 -76.393751,3.24625 -76.393751,3.24625c0,0 23.35625,-42.785001 52.040001,-56.022501c14.57375,-6.725 27.51375,1.63375 34.238751,16.2075c6.725,14.5725 4.68875,29.8425 -9.885,36.568751" id="path120"/>
   <path fill="#ee9f22" fill-rule="nonzero" d="m527.887846,356.440707c-11.70375,5.40125 -32.685,3.57625 -38.085001,-8.1275c-5.40125,-11.7025 6.825,-28.8525 18.5275,-34.253751c11.705,-5.4 21.24375,1.705 26.645,13.4075c5.4,11.705 4.61625,23.5725 -7.0875,28.97375" id="path122"/>
   <path fill="#f8f8f8" fill-rule="nonzero" d="m529.842846,345.045707c-6.925,3.195 -19.52625,2.2025 -22.7225,-4.72375c-3.195,-6.92625 4.22375,-17.16 11.14875,-20.35625c6.92625,-3.195 10.8075,1.82375 14.00375,8.74875c3.195,6.92625 4.495,13.135 -2.43,16.33125" id="path124"/>
   <path fill="#af412c" fill-rule="nonzero" d="m536.229096,298.483206c-1.395,2.75 -1.4175,5.9975 -0.125,8.7975l14.9625,32.425c1.2925,2.80125 3.7775,4.89 6.77625,5.61375c2.14625,0.51875 4.31875,0.9825 6.51,1.4l-24.9775,-54.077501c-1.1,1.93125 -2.1525,3.87875 -3.14625,5.84125" id="path126"/>
   <path fill="#813124" fill-rule="nonzero" d="m541.426596,297.080706l-5.7125,2.6375c-0.15,0.4325 -0.2625,0.87375 -0.35125,1.32l6.50375,-3.00375l-0.44,-0.95375" id="path128"/>
   <path fill="#813124" fill-rule="nonzero" d="m543.696596,301.996956l-8.14,3.75875c0.09625,0.33875 0.20875,0.6725 0.34,1.00125l8.24125,-3.80625l-0.44125,-0.95375" id="path130"/>
   <path fill="#813124" fill-rule="nonzero" d="m545.967846,306.911956l-8.2725,3.82125l0.44125,0.95375l8.27125,-3.82l-0.44,-0.955" id="path132"/>
   <path fill="#813124" fill-rule="nonzero" d="m548.237846,311.829457l-8.2725,3.82l0.44,0.955l8.27375,-3.82125l-0.44125,-0.95375" id="path134"/>
   <path fill="#813124" fill-rule="nonzero" d="m550.507846,316.745707l-8.27375,3.82125l0.44125,0.95375l8.27375,-3.82125l-0.44125,-0.95375" id="path136"/>
   <path fill="#813124" fill-rule="nonzero" d="m552.779096,321.661957l-8.275,3.82125l0.44,0.955l8.275,-3.8225l-0.44,-0.95375" id="path138"/>
   <path fill="#813124" fill-rule="nonzero" d="m555.049096,326.578207l-8.27625,3.8225l0.44125,0.955l8.2775,-3.82375l-0.4425,-0.95375" id="path140"/>
   <path fill="#813124" fill-rule="nonzero" d="m557.320346,331.493207l-8.27875,3.825l0.44,0.95375l8.28,-3.82375l-0.44125,-0.955" id="path142"/>
   <path fill="#813124" fill-rule="nonzero" d="m559.591596,336.410707l-8.25125,3.81125c0.16625,0.31125 0.3475,0.61375 0.54375,0.90625l8.14875,-3.76375l-0.44125,-0.95375" id="path144"/>
   <path fill="#813124" fill-rule="nonzero" d="m561.860346,341.325707l-6.50625,3.005c0.39875,0.22125 0.80875,0.42125 1.23625,0.5875l5.71125,-2.63875l-0.44125,-0.95375" id="path146"/>
   <path fill="#81b290" fill-rule="nonzero" d="m564.355346,346.724457c-2.19375,-0.4175 -4.36375,-0.88625 -6.5125,-1.405c-2.99875,-0.72375 -5.48375,-2.8125 -6.77625,-5.61375l-4.58625,-9.93875l0,0l4.58625,9.93875c1.2925,2.80125 3.7775,4.89 6.77625,5.61375l0,0c2.14875,0.51875 4.31875,0.9875 6.5125,1.405l0,0" id="path148"/>
   <path fill="#ededed" fill-rule="nonzero" d="m591.734097,349.269457c-7.99125,0 -15.845,-0.62625 -23.45875,-1.855c-1.31375,-0.2125 -2.62125,-0.4425 -3.92125,-0.69125l0,0c0.00125,0.00125 0.00125,0.00125 0.00125,0.00125c-2.19375,-0.4175 -4.36375,-0.88625 -6.5125,-1.405c2.14625,0.51875 4.31875,0.9825 6.51,1.4l-4.32125,-9.355l0.00125,0l-0.44125,-0.95375l0,0l-1.83,-3.9625l0,0l-0.33625,-0.7275l-0.73,-1.58125c25.56625,-4.18875 56.925001,-14.04875 89.341251,-29.0075c23.8575,-11.01 45.245001,-23.375 62.761251,-35.810001l10.89125,23.60125c0.335,-0.405 0.655,-0.81875 0.98375,-1.2275l-10.70875,-23.205l0,0l10.70875,23.205c11.66,-14.4875 20.16125,-30.515 24.97875,-47.020001c0.01875,-0.06625 0.0375,-0.1325 0.05625,-0.19875c-0.02625,0.095 -0.05375,0.19125 -0.08125,0.28625l0,0c-0.1825,0.62625 -0.37125,1.25125 -0.565,1.87625c-11.46875,36.996251 -41.403751,71.377501 -84.006251,91.037501l0,0c-22.92,10.5775 -46.696251,15.59375 -69.321251,15.5925" id="path150"/>
   <path fill="#a73f2b" fill-rule="nonzero" d="m720.672849,287.695706l-10.70875,-23.205c13.7625,-9.87 25.0675,-19.76375 33.21125,-29.0375c1.72125,-1.96 2.25375,-3.65375 1.705,-4.8475c1.385,3.0025 1.745,6.4775 0.8275,9.87125c-0.01875,0.06625 -0.0375,0.1325 -0.05625,0.19875c-4.8175,16.505 -13.31875,32.5325 -24.97875,47.020001m0.685,-11.71875c-0.28625,0 -0.5725,0.06 -0.835,0.18125c-0.47625,0.22 -0.8475,0.6275 -1.0325,1.115c-0.17625,0.49375 -0.1575,1.045 0.0625,1.52c0.21875,0.47625 0.6275,0.8475 1.115,1.03375c0.22125,0.07875 0.45375,0.11875 0.68625,0.11875c0.285,0 0.57,-0.06 0.8325,-0.18125c0.47625,-0.21875 0.84875,-0.6275 1.03375,-1.11625c0.36125,-0.98 -0.1975,-2.19125 -1.1775,-2.5525c-0.22,-0.07875 -0.4525,-0.11875 -0.685,-0.11875m-4.58375,-9.925c-0.2775,0 -0.56125,0.05875 -0.83,0.18375c-0.995,0.45875 -1.43125,1.63875 -0.97,2.635c0.33375,0.72625 1.0525,1.15375 1.80375,1.15375c0.2775,0 0.56125,-0.05875 0.83,-0.18375c0.995,-0.45875 1.43,-1.63875 0.97125,-2.635c-0.335,-0.72625 -1.05375,-1.15375 -1.805,-1.15375" id="path152"/>
   <path fill="#963827" fill-rule="nonzero" d="m716.777849,270.024456c-0.75125,0 -1.47,-0.4275 -1.80375,-1.15375c-0.46125,-0.99625 -0.025,-2.17625 0.97,-2.635c0.26875,-0.125 0.5525,-0.18375 0.83,-0.18375c0.75125,0 1.47,0.4275 1.805,1.15375c0.45875,0.99625 0.02375,2.17625 -0.97125,2.635c-0.26875,0.125 -0.5525,0.18375 -0.83,0.18375" id="path154"/>
   <path fill="#963827" fill-rule="nonzero" d="m721.354099,279.945706c-0.2325,0 -0.465,-0.04 -0.68625,-0.11875c-0.4875,-0.18625 -0.89625,-0.5575 -1.115,-1.03375c-0.22,-0.475 -0.23875,-1.02625 -0.0625,-1.52c0.185,-0.4875 0.55625,-0.895 1.0325,-1.115c0.2625,-0.12125 0.54875,-0.18125 0.835,-0.18125c0.2325,0 0.465,0.04 0.685,0.11875c0.98,0.36125 1.53875,1.5725 1.1775,2.5525c-0.185,0.48875 -0.5575,0.8975 -1.03375,1.11625c-0.2625,0.12125 -0.5475,0.18125 -0.8325,0.18125" id="path156"/>
   <path fill="#d6d6d6" fill-rule="nonzero" d="m719.689099,288.923206l-10.89125,-23.60125c0.39,-0.27625 0.78,-0.555 1.16625,-0.83125l10.70875,23.205c-0.32875,0.40875 -0.64875,0.8225 -0.98375,1.2275" id="path158"/>
   <path fill="#963827" fill-rule="nonzero" d="m568.275347,347.414457c-1.31375,-0.2125 -2.62125,-0.4425 -3.92,-0.69c0,0 0,0 -0.00125,-0.00125c1.3,0.24875 2.6075,0.47875 3.92125,0.69125" id="path160"/>
   <path fill="#a73f2b" fill-rule="nonzero" d="m564.352846,346.719457c-2.19125,-0.4175 -4.36375,-0.88125 -6.51,-1.4l0,0c-2.99875,-0.72375 -5.48375,-2.8125 -6.77625,-5.61375l-4.58625,-9.93875l0.00125,0c0.09875,0.21375 0.245,0.40375 0.43625,0.5675l-0.145,0.06625l0.44125,0.955l0.95125,-0.44c0.4375,0.105 0.94625,0.15875 1.5175,0.15875c0.47125,0 0.985,-0.03625 1.535,-0.11125c1.79375,-0.245 3.62125,-0.51875 5.4775,-0.82375l0.73,1.58125l-0.105,-0.2275l-8.27875,3.825l0.44,0.95375l8.28,-3.82375l1.83,3.9625l-8.25125,3.81125c0.16625,0.31125 0.3475,0.61375 0.54375,0.90625l8.1475,-3.76375l4.32125,9.355m-2.4925,-5.39375l-6.50625,3.005c0.39875,0.22125 0.80875,0.42125 1.23625,0.5875l5.71125,-2.63875l-0.44125,-0.95375" id="path162"/>
   <path fill="#7b3022" fill-rule="nonzero" d="m547.214096,331.355707l-0.44125,-0.955l0.145,-0.06625c0.30625,0.26125 0.72625,0.4575 1.2475,0.58125l-0.95125,0.44" id="path164"/>
   <path fill="#7b3022" fill-rule="nonzero" d="m549.481596,336.271957l-0.44,-0.95375l8.27875,-3.825l0.105,0.2275l0.33625,0.7275l0,0l-8.28,3.82375" id="path166"/>
   <path fill="#7b3022" fill-rule="nonzero" d="m551.884096,341.128207c-0.19625,-0.2925 -0.3775,-0.595 -0.54375,-0.90625l8.25125,-3.81125l0,0l0.44125,0.95375l-0.00125,0l-8.1475,3.76375" id="path168"/>
   <path fill="#7b3022" fill-rule="nonzero" d="m556.590346,344.918207c-0.4275,-0.16625 -0.8375,-0.36625 -1.23625,-0.5875l6.50625,-3.005l0.44125,0.95375l-5.71125,2.63875" id="path170"/>
   <path fill="#77a789" fill-rule="nonzero" d="m599.434097,233.959455l0,0c2.22125,-1.25375 4.48375,-2.46375 6.78625,-3.63125c-2.30125,1.1675 -4.565,2.37875 -6.78625,3.63125m6.8075,-3.6425c0.02875,-0.015 0.0575,-0.02875 0.08625,-0.04375c-0.02625,0.01375 -0.05875,0.03 -0.08625,0.04375m0.18875,-0.095c0.01625,-0.00875 0.0325,-0.01625 0.04875,-0.025c-0.01625,0.00875 -0.0325,0.01625 -0.04875,0.025m0.14125,-0.07125c0.0125,-0.00625 0.025,-0.0125 0.0375,-0.01875c-0.0125,0.00625 -0.025,0.0125 -0.0375,0.01875" id="path172"/>
   <path fill="#dfe0df" fill-rule="nonzero" d="m596.917847,280.964456c-5.32375,0 -12.255,-21.08375 -12.255,-21.08375l18.18625,-17.24875l-3.415,-8.6725c2.22125,-1.2525 4.485,-2.46375 6.78625,-3.63125c0.0075,-0.00375 0.015,-0.0075 0.02125,-0.01125c0.0275,-0.01375 0.06,-0.03 0.08625,-0.04375c0.035,-0.0175 0.06875,-0.03375 0.1025,-0.05125c0.01625,-0.00875 0.0325,-0.01625 0.04875,-0.025c0.03125,-0.015 0.0625,-0.03125 0.0925,-0.04625c0.0125,-0.00625 0.025,-0.0125 0.0375,-0.01875c0.74,-0.3725 1.48375,-0.74125 2.2325,-1.105l2.785,17.20625l-19.92875,13.96875c0,0 13.8575,2.2175 8.4525,17.1325c-0.93375,2.5775 -2.0425,3.63 -3.2325,3.63" id="path174"/>
   <path fill="#f8f8f8" fill-rule="nonzero" d="m672.752848,159.974454l-9.27375,4.04875c2.43875,6.76375 5.135,12.92 7.935,18.5125l8.575,-6.34375c-2.55875,-4.94 -5.01625,-10.34 -7.23625,-16.2175" id="path176"/>
   <path fill="#f3cfad" fill-rule="nonzero" d="m674.939098,189.183205c-0.965,-1.72375 -1.925,-3.5075 -2.87375,-5.36c-0.03625,-0.56 -0.07125,-1.1225 -0.10375,-1.69125l1.83125,-1.35625c0.2925,2.85 0.6675,5.71875 1.14625,8.4075" id="path178"/>
   <path fill="#ededed" fill-rule="nonzero" d="m671.961598,182.131955c-0.43375,-7.53 -0.47375,-15.7075 0.79125,-22.1575c0,0 -0.04,10.2725 1.04,20.80125l-1.83125,1.35625" id="path180"/>
   <path fill="#f8f8f8" fill-rule="nonzero" d="m582.575347,142.699454l90.177501,17.275c-2.795,14.25 0.78125,36.923751 0.8875,42.446251c-14.27875,10.335 -63.018751,25.51375 -79.061251,22.30125c-6,-16.555 -15.07375,-30.9075 -12.00375,-82.022501" id="path182"/>
   <path fill="#4c3625" fill-rule="nonzero" d="m673.640348,202.420705l-79.061251,22.3025l4.64125,17.86375l-20.135,14.92875c0,0 6.49375,32.58375 13.27,19.195c7.16375,-14.15375 -6.32625,-18.0275 -6.32625,-18.0275l21.47,-11.4625l-0.7275,-18.34625c0,0 29.36,-10.915 58.943751,-17.62875l0.63,1.39375c3.35875,-0.325 6.70125,-0.54 10.0225,-0.64875l-2.7275,-9.57" id="path184"/>
   <path fill="#fbd8b6" fill-rule="nonzero" d="m582.575347,142.699454c0,0 6.53,-98.166251 77.056251,-53.577501c0,0 20.98375,21.52875 13.12125,70.852501c-61.710001,3.85625 -90.177501,-17.275 -90.177501,-17.275" id="path186"/>
   <path fill="#4c3625" fill-rule="nonzero" d="m586.849097,47.391953c0,0 -9.8375,62.167501 67.436251,57.155001l1.52625,22.4825c0,0 9.3225,-6.08625 10.285,3.06875c0.965,9.16125 -9.27375,3.61375 -9.27375,3.61375c0,0 5.98375,18.61625 15.93,26.2625c-0.49875,0.66125 38.531251,-89.571251 -1.3825,-83.128751c0,0 -2.86125,-18.26625 -27.38875,-23.21625c-25.4225,-5.13375 -40.782501,24.71875 -57.132501,-6.2375" id="path188"/>
   <path fill="#ec6180" fill-rule="nonzero" d="m624.822847,137.985704c0,0 -10.40375,-3.55125 -24.4575,-5.6825c0,0 -2.5775,13.2725 9.20125,16.01c12.9775,3.015 15.25625,-10.3275 15.25625,-10.3275" id="path190"/>
   <path fill="#f8f8f8" fill-rule="nonzero" d="m582.191597,155.094454l6.61375,-7.41c-4.53875,-3.56875 -8.935,-7.19375 -13.1575,-10.8075l-6.96125,7.345c4.27375,3.5475 8.77625,7.1825 13.505,10.8725" id="path192"/>
   <path fill="#fbd8b6" fill-rule="nonzero" d="m575.647847,136.876954c-29.1,-24.9075 -22.67125,-53.701251 -22.2025,-55.121251c0.6025,-1.81875 1.5325,-5.5825 -0.25375,-5.93625c-0.90875,-0.18 -1.47,0.25 -1.94125,1.36625c0.08,-0.815 0.08,-1.705 -0.7025,-2.03625c-0.69625,-0.2975 -1.8325,0.64 -2.18875,1.42375l-0.08125,0.2125l0.08125,-0.2125c0.2175,-0.70875 -0.135,-1.79625 -0.7725,-2.06625c-0.83625,-0.365 -1.63,0.59125 -1.95875,1.4325c0.085,-0.81625 -0.06875,-1.505 -0.8425,-1.83875c-1.63,-0.6975 -2.38375,2.6875 -2.815,4.70875c-0.345,1.61625 -6.145,38.132501 26.71625,65.412501l6.96125,-7.345" id="path194"/>
   <path fill="#4c3625" fill-rule="nonzero" d="m631.049097,123.716954c-1,3.63875 -0.45125,6.96375 1.225,7.42375c1.675,0.46 3.84625,-2.1175 4.84625,-5.75625c0.99875,-3.64 0.45125,-6.96375 -1.22625,-7.425c-1.67625,-0.46 -3.845,2.1175 -4.845,5.7575" id="path196"/>
   <path fill="#4c3625" fill-rule="nonzero" d="m595.495347,113.949454c-1,3.64 -0.4525,6.965 1.22375,7.425c1.6775,0.46 3.84625,-2.1175 4.84625,-5.7575c1,-3.63875 0.45125,-6.9625 -1.22375,-7.42375c-1.6775,-0.46 -3.84625,2.1175 -4.84625,5.75625" id="path198"/>
   <path fill="#dfdfdd" fill-rule="nonzero" d="m619.845347,196.686955c-3.46125,0 -7.24375,-0.38 -11.38375,-1.24l-6.54,-11.795l11.58625,-5.275c7.2975,3.39 13.15125,4.63625 17.81,4.63625c12.9425,0 16.685,-9.6125 16.685,-9.6125l-2.67875,-5.4525l2.3325,-2.93875l8.45,0.38l1.4825,4.28375l-3.6925,4.17c0,0 -7.2525,22.84375 -34.051251,22.84375" id="path200"/>
   <path fill="#4c3625" fill-rule="nonzero" d="m656.106598,165.389454l1.48375,4.28375l-3.69375,4.17c0,0 -8.30375,26.52625 -44.497501,19.00625l-6.54,-11.79375l11.58625,-5.27625c27.56875,12.80625 33.558751,-2.37875 33.558751,-2.37875l-2.68,-5.4525l2.3325,-2.93875l8.45,0.38" id="path202"/>
  </g>
 </g>
</svg>