<svg width="1000" height="750" xmlns="http://www.w3.org/2000/svg">
 <metadata id="metadata8">image/svg+xml</metadata>
 <defs>
  <clipPath clipPathUnits="userSpaceOnUse" id="clipPath20">
   <path d="m8000,2826.54l-8000,0l0,-2826.54l8000,0l0,2826.54" id="path22"/>
  </clipPath>
  <clipPath clipPathUnits="userSpaceOnUse" id="clipPath64">
   <path d="m2868.21,1444.15c0,0.02 0,0.04 0,0.07c0,-0.03 0,-0.05 0,-0.07m-0.01,0.49c0,0.01 0,0.04 0,0.05c0,-0.02 0,-0.04 0,-0.05m-0.01,0.93l0,0.03c0,-0.01 0,-0.02 0,-0.03" id="path66"/>
  </clipPath>
  <clipPath clipPathUnits="userSpaceOnUse" id="clipPath74">
   <path d="m8000,2826.54l-8000,0l0,-2826.54l8000,0l0,2826.54" id="path76"/>
  </clipPath>
 </defs>
 <g>
  <title>background</title>
  <rect fill="none" id="canvas_background" height="402" width="582" y="-1" x="-1"/>
 </g>
 <g>
  <title>Layer 1</title>
  <g transform="matrix(0.12500000186264515,0,0,-0.12500000186264515,0,749.9999999999999) " id="g16">
   <g id="g18" clip-path="url(#clipPath20)">
    <path fill="#edac22" fill-rule="nonzero" d="m976.727,8.62891l0,0" id="path24"/>
    <path fill="#fbc749" fill-rule="nonzero" d="m2003.28,-340.02c387.38,0 724.6,72.879 899.38,180.469c-187.7,-69.668 -457.58,-113.367 -757.54,-113.367c-10.79,0 -21.53,0.078 -32.23,0.188c-35.88,-1.598 -72.46,-2.442 -109.61,-2.442c-405.93,0 -744.2,98.32 -819.78,228.6642c-41.94,38.03905 -64.93,79.2187 -64.93,122.2383l0,109.8005c-90.09,-51.871 -141.843,-112.3318 -141.843,-176.90209c0,-192.55891 459.603,-348.64891 1026.553,-348.64891" id="path26"/>
    <path fill="#fbc749" fill-rule="nonzero" d="m2757.35,102.539c-152.59,-55.7773 -370.39,-90.6874 -612.23,-90.6874c-38.01,0 -75.4,0.8672 -112.06,2.5468c-390.3,5.2227 -724.6,84.4414 -884.61,197.4996c110.43,-152.0972 514.73,-264.9097 996.67,-264.9097c566.94,0 1026.55,156.1137 1026.55,348.6527c0,45.039 -25.15,88.078 -70.92,127.589l0,-60.492c0,-103.437 -132.71,-196.347 -343.4,-260.199" id="path28"/>
    <path fill="#fbc749" fill-rule="nonzero" d="m2074.2,234.012c431.04,0 799.97,90.25 952.1,218.117c-185.14,-91.207 -494.84,-151.02 -845.72,-151.02l-0.82,0c-34.57,-1.468 -69.8,-2.238 -105.56,-2.238c-329.33,0 -614.12,64.719 -750.25,158.738c-107.35,55.102 -169.92,121.141 -169.92,192.161l0,55.359c-9.61,3.66 -19.02,7.402 -28.17,11.203c-50.36,-41.16 -78.21,-86.312 -78.21,-133.66c0,-192.563 459.6,-348.66 1026.55,-348.66" id="path30"/>
    <path fill="#edac22" fill-rule="nonzero" d="m3207.13,649.77l0,219.91c0,-192.551 -459.6,-348.641 -1026.55,-348.641c-292.5,0 -556.42,41.543 -743.41,108.211c144.2,-26.23 308.95,-41.129 483.96,-41.129c38.19,0 75.86,0.738 112.97,2.109c47.56,-2.851 96.5,-4.339 146.48,-4.339c461.48,0 835.59,127.058 835.59,283.789c0,40.039 -24.46,78.121 -68.49,112.652l0,174.368c0,-192.559 -459.6,-348.649 -1026.55,-348.649c-469.21,0 -864.89,106.918 -987.364,252.939c167.884,-107.771 497.164,-182.049 878.544,-185.701c35.62,-1.57 71.94,-2.391 108.82,-2.391c263.62,0 498.68,41.481 651.83,106.25c182.55,62.942 295.25,149.322 295.25,244.652l0,219.91c0,-192.55 -459.61,-348.64 -1026.55,-348.64c-566.95,0 -1026.555,156.09 -1026.555,348.64l0,-219.91c0,-47.76 28.305,-93.27 79.481,-134.73l0,-152.289c0,-83.64 86.738,-160.371 231.274,-220.449c9.15,-3.801 18.56,-7.543 28.17,-11.203l0,-55.359c0,-71.02 62.57,-137.059 169.92,-192.161c136.13,-94.019 420.92,-158.738 750.25,-158.738c35.76,0 70.99,0.77 105.56,2.238l0.82,0c350.88,0 660.58,59.813 845.72,151.02c-152.13,-127.867 -521.06,-218.117 -952.1,-218.117c-566.95,0 -1026.55,156.097 -1026.55,348.66l0,-219.934c0,-45.019 25.15,-88.058 70.92,-127.566l0,-159.4415c0,-43.0196 22.99,-84.19925 64.93,-122.2383c75.58,-130.3442 413.85,-228.6642 819.78,-228.6642c37.15,0 73.73,0.852 109.61,2.442c10.7,-0.11 21.44,-0.188 32.23,-0.188c299.96,0 569.84,43.699 757.54,113.367c-174.78,-107.59 -512,-180.469 -899.38,-180.469c-566.95,0 -1026.55,156.098 -1026.55,348.64891l0,-219.91791c0,-71.012 62.57,-137.063 169.93,-192.16c136.13,-94.02 420.91,-158.742 750.24,-158.742c35.77,0 71.01,0.769 105.6,2.261l0.78,-0.011c350.88,0 660.58,59.8 845.72,151.011c-152.14,-127.871 -521.06,-218.109 -952.1,-218.109c-566.95,0 -1026.548,156.098 -1026.548,348.648l-0.004,0l0,-219.91c0,-72.64 65.422,-140.07 177.302,-195.91l0,-91.109c0,-45.028 25.15,-88.078 70.92,-127.59l0,-159.42c0,-71.02 62.57,-137.06 169.92,-192.16c136.12,-94.03 420.91,-158.74 750.24,-158.74c35.75,0 70.96,0.76 105.52,2.24l0.87,0c350.88,0 660.59,59.8 845.73,151.02c-152.14,-127.88 -521.07,-218.12 -952.12,-218.12c-566.94,0 -1026.54,156.1 -1026.54,348.65l0,-219.92c0,-192.55 459.6,-348.65 1026.54,-348.65c566.95,0 1026.56,156.1 1026.56,348.65l0,132.35c68.05,46.61 106.38,99.12 106.38,154.68l0,219.912c0,-192.552 -459.61,-348.652 -1026.55,-348.652c-481.93,0 -886.23,112.8 -996.66,264.902c160.01,-113.072 494.31,-192.282 884.6,-197.502c36.66,-1.67 74.05,-2.55 112.06,-2.55c241.84,0 459.64,34.91 612.22,90.68c210.7,63.849 343.41,156.759 343.41,260.22l0,219.922c0,-192.563 -459.6,-348.653 -1026.55,-348.653c-351.28,0 -661.29,59.93 -846.36,151.332c179.68,-52.5 413.45,-84.23 669.06,-84.23c19.89,0 39.64,0.199 59.25,0.578c38.57,-1.848 77.97,-2.828 118.05,-2.828c461.48,0 835.59,127.058 835.59,283.801c0,3.097 -0.2,6.168 -0.49,9.25c9.25,18.82 14.15,38.128 14.15,57.847l0,132.332c68.05,46.61 106.38,99.129 106.38,154.68l0,110.129c90.09,51.8514 141.84,112.3084 141.84,176.8905l0,219.9105c0,-192.539 -459.61,-348.6527 -1026.55,-348.6527c-481.94,0 -886.24,112.8125 -996.67,264.9097c160.01,-113.0582 494.31,-192.2769 884.61,-197.4996c36.66,-1.6796 74.05,-2.5468 112.06,-2.5468c241.84,0 459.64,34.9101 612.23,90.6874c210.69,63.852 343.4,156.762 343.4,260.199l0,132.352c68.05,46.609 106.38,99.121 106.38,154.68" id="path32"/>
    <path fill="#fbc749" fill-rule="nonzero" d="m3016.17,869.68c0,-156.731 -374.11,-283.789 -835.59,-283.789c-49.98,0 -98.92,1.488 -146.48,4.339c-37.11,-1.371 -74.78,-2.109 -112.97,-2.109c-175.01,0 -339.76,14.899 -483.96,41.129c186.99,-66.668 450.91,-108.211 743.41,-108.211c566.95,0 1026.55,156.09 1026.55,348.641c0,88.929 -98.09,170.07 -259.45,231.66l0,-119.008c44.03,-34.531 68.49,-72.613 68.49,-112.652" id="path34"/>
    <path fill="#fbc749" fill-rule="nonzero" d="m2572.96,979.148c-153.15,-64.769 -388.21,-106.25 -651.83,-106.25c-36.88,0 -73.2,0.821 -108.82,2.391c-381.38,3.652 -710.66,77.93 -878.544,185.701c122.474,-146.021 518.154,-252.939 987.364,-252.939c566.95,0 1026.55,156.09 1026.55,348.649c0,47.76 -28.3,93.27 -79.47,134.72l0,-67.62c0,-95.33 -112.7,-181.71 -295.25,-244.652" id="path36"/>
    <path fill="#edac22" fill-rule="nonzero" d="m815.105,1443.72l0,-0.01l0,0.01" id="path38"/>
    <path fill="#edac22" fill-rule="nonzero" d="m2868.21,1443.72l0,-0.01l0,0.01" id="path40"/>
    <path fill="#fbc749" fill-rule="nonzero" d="m1841.66,1727.51c461.48,0 835.59,-127.06 835.59,-283.8c0,-156.73 -374.11,-283.79 -835.59,-283.79c-461.49,0 -835.6,127.06 -835.6,283.79c0,156.74 374.11,283.8 835.6,283.8m0,-632.44c566.94,0 1026.55,156.09 1026.55,348.64l0,0.01c-0.01,192.55 -459.61,348.64 -1026.55,348.64c-566.95,0 -1026.547,-156.09 -1026.555,-348.64l0,-0.01c0,-192.55 459.605,-348.64 1026.555,-348.64" id="path42"/>
    <path fill="#edac22" fill-rule="nonzero" d="m1841.66,1159.92c461.48,0 835.59,127.06 835.59,283.79c0,156.74 -374.11,283.8 -835.59,283.8c-461.49,0 -835.6,-127.06 -835.6,-283.8c0,-156.73 374.11,-283.79 835.6,-283.79" id="path44"/>
    <path fill="#fbc749" fill-rule="nonzero" d="m6068.84,-328.598c-431.04,0 -799.97,90.227 -952.11,218.11c185.15,-91.223 494.85,-151.012 845.72,-151.012l0.79,0c34.59,-1.488 69.83,-2.25 105.6,-2.25c329.33,0 614.12,64.719 750.24,158.742c107.36,55.0978 169.92,121.1369 169.92,192.1486l0,87.5784c68.06,-46.61 106.38,-99.1174 106.38,-154.6682c0,-192.5588 -459.6,-348.6488 -1026.54,-348.6488" id="path46"/>
    <path fill="#edac22" fill-rule="nonzero" d="m4935.91,87.1406l0,219.9184c0,-192.559 459.6,-348.6488 1026.54,-348.6488c387.38,0 724.59,72.8906 899.38,180.4688c-187.7,-69.6681 -457.58,-113.3673 -757.53,-113.3673c-10.81,0 -21.57,0.0781 -32.29,0.1797c-35.86,-1.5898 -72.42,-2.4219 -109.56,-2.4219c-405.92,0 -744.19,98.3125 -819.76,228.6605c-41.95,38.031 -64.95,79.211 -64.95,122.23l0,219.922c0,-192.562 459.6,-348.652 1026.56,-348.652c566.94,0 1026.54,156.09 1026.54,348.652l0.01,0l0,-219.922c0,-64.57 -51.76,-125.031 -141.85,-176.89l0,-110.1294c0,-71.0117 -62.57,-137.0508 -169.92,-192.1486c-136.12,-94.023 -420.91,-158.742 -750.24,-158.742c-35.77,0 -71.01,0.762 -105.6,2.25l-0.79,0c-350.87,0 -660.57,59.789 -845.72,151.012c152.14,-127.883 521.07,-218.11 952.11,-218.11c566.94,0 1026.54,156.09 1026.54,348.6488l0,-219.9218c0,-45.039 -25.15,-88.078 -70.92,-127.59l0,-159.43c0,-43.007 -22.99,-84.199 -64.94,-122.25c-75.58,-130.328 -413.84,-228.64 -819.76,-228.64c-37.17,0 -73.75,0.832 -109.64,2.433c-10.7,-0.121 -21.43,-0.191 -32.2,-0.191c-299.97,0 -569.85,43.699 -757.55,113.371c174.78,-107.594 512,-180.48 899.39,-180.48c566.94,0 1026.54,156.109 1026.54,348.66l0,-219.922c0,-71.02 -62.57,-137.059 -169.93,-192.149c-136.13,-94.031 -420.91,-158.741 -750.24,-158.741c-35.75,0 -70.98,0.77 -105.56,2.24l-0.81,0c-350.88,0 -660.59,59.81 -845.74,151.021c152.14,-127.881 521.08,-218.121 952.11,-218.121c566.95,0 1026.55,156.1 1026.55,348.648l0,-219.918c0,-72.62 -65.41,-140.07 -177.3,-195.9l0,-91.11c0,-45.04 -25.15,-88.08 -70.92,-127.59l0,-159.43c0,-71.02 -62.57,-137.06 -169.93,-192.15c-136.12,-94.02 -420.91,-158.74 -750.23,-158.74c-35.75,0 -70.96,0.76 -105.52,2.25l-0.86,-0.01c-350.89,0 -660.6,59.8 -845.73,151.02c152.13,-127.88 521.06,-218.12 952.11,-218.12c566.94,0 1026.54,156.1 1026.54,348.65l0.01,0l0,-219.92c0,-192.55 -459.61,-348.65 -1026.55,-348.65c-566.96,0 -1026.56,156.1 -1026.56,348.65l0,132.34c-68.05,46.62 -106.37,99.12 -106.37,154.68l0,219.92c0,-192.56 459.6,-348.65 1026.54,-348.65c481.93,0 886.23,112.8 996.67,264.9c-160.02,-113.08 -494.35,-192.28 -884.66,-197.5c-36.64,-1.67 -74.02,-2.55 -112.01,-2.55c-241.84,0 -459.65,34.91 -612.24,90.69c-210.68,63.84 -343.39,156.75 -343.39,260.21l0,219.91c0,-192.55 459.6,-348.65 1026.56,-348.65c351.28,0 661.29,59.94 846.36,151.34c-179.68,-52.5 -413.45,-84.24 -669.07,-84.24c-19.89,0 -39.64,0.22 -59.24,0.6c-38.58,-1.86 -77.97,-2.84 -118.05,-2.84c-461.49,0 -835.6,127.05 -835.6,283.79c0,3.1 0.21,6.18 0.49,9.25c-9.25,18.82 -14.15,38.15 -14.15,57.85l0,132.352c-68.06,46.609 -106.38,99.117 -106.38,154.668l0,110.121c-90.09,51.871 -141.83,112.328 -141.83,176.898l0,219.922c0,-192.562 459.6,-348.652 1026.54,-348.652c481.94,0 886.24,112.801 996.67,264.902c-160.02,-113.07 -494.34,-192.281 -884.64,-197.5c-36.65,-1.672 -74.03,-2.551 -112.03,-2.551c-241.84,0 -459.64,34.911 -612.23,90.68c-210.69,63.86 -343.4,156.77 -343.4,260.219l0,132.3397c-68.05,46.6133 -106.37,99.1133 -106.37,154.6719" id="path48"/>
    <path fill="#fbc749" fill-rule="nonzero" d="m5142.69,251.93c75.57,-130.348 413.84,-228.6605 819.76,-228.6605c37.14,0 73.7,0.8321 109.56,2.4219c10.72,-0.1016 21.48,-0.1797 32.29,-0.1797c299.95,0 569.83,43.6992 757.53,113.3673c-174.79,-107.5782 -512,-180.4688 -899.38,-180.4688c-566.94,0 -1026.54,156.0898 -1026.54,348.6488c0,64.57 51.75,125.031 141.83,176.902l0,-109.801c0,-43.019 23,-84.199 64.95,-122.23" id="path50"/>
    <path fill="#fbc749" fill-rule="nonzero" d="m6104.3,245.43c-566.96,0 -1026.56,156.09 -1026.56,348.652c0,14.398 2.63,28.59 7.62,42.527c30.89,-150.679 343.64,-274.968 760.43,-312.461c81.41,-8.988 168.27,-13.867 258.51,-13.867c75.41,0 148.46,3.41 217.96,9.778c424.87,30.441 752.84,150.113 806.01,298.582c1.66,-8.11 2.57,-16.301 2.57,-24.559c0,-192.562 -459.6,-348.652 -1026.54,-348.652" id="path52"/>
    <path fill="#edac22" fill-rule="nonzero" d="m6322.26,320.059c-69.5,-6.368 -142.55,-9.778 -217.96,-9.778c-90.24,0 -177.1,4.879 -258.51,13.867c-416.79,37.493 -729.54,161.782 -760.43,312.461c-1.66,8.121 -2.57,16.301 -2.57,24.563l0,219.918c0,-192.551 459.6,-348.649 1026.55,-348.649c566.95,0 1026.55,156.098 1026.55,348.649l0,-219.918c0,-14.391 -2.63,-28.582 -7.62,-42.531c-53.17,-148.469 -381.14,-268.141 -806.01,-298.582" id="path54"/>
    <path fill="#fbc749" fill-rule="nonzero" d="m6944.93,881.09c0,-156.731 -374.11,-283.781 -835.59,-283.781c-461.49,0 -835.59,127.05 -835.59,283.781c0,156.74 374.1,283.8 835.59,283.8c461.48,0 835.59,-127.06 835.59,-283.8m190.96,0c0,192.56 -459.6,348.66 -1026.55,348.66c-566.95,0 -1026.55,-156.1 -1026.55,-348.66c0,-192.551 459.6,-348.649 1026.55,-348.649c566.95,0 1026.55,156.098 1026.55,348.649" id="path56"/>
    <path fill="#edac22" fill-rule="nonzero" d="m6109.34,597.309c-461.49,0 -835.59,127.05 -835.59,283.781c0,156.74 374.1,283.8 835.59,283.8c461.48,0 835.59,-127.06 835.59,-283.8c0,-156.731 -374.11,-283.781 -835.59,-283.781" id="path58"/>
   </g>
  </g>
  <g transform="matrix(0.12500000186264515,0,0,-0.12500000186264515,0,749.9999999999999) " id="g60">
   <g id="g62" clip-path="url(#clipPath64)">
    <path fill="#83b591" fill-rule="nonzero" d="m2868.19,1444.15l0.019,0l0,1.4531l-0.019,0l0,-1.4531z" id="path68"/>
   </g>
  </g>
  <g transform="matrix(0.12500000186264515,0,0,-0.12500000186264515,0,749.9999999999999) " id="g70">
   <g id="g72" clip-path="url(#clipPath74)">
    <path fill="#efbd46" fill-rule="nonzero" d="m2689.5,0l-74.05,0c-15.98,17.3516 -27.51,35.2305 -34.21,53.5391c65.13,13.5703 124.36,30.082 176.11,48.9999c95.49,28.941 174.96,63.84 233.32,103c7.42,-4.758 15.14,-9.449 23.18,-14.07l0,-81.66c-82.42,-44.3481 -193.5,-81.9496 -324.35,-109.809m471.66,345.719c-21.11,7.402 -41.29,15.133 -60.41,23.14l0,54.371c28.49,-24.589 48.99,-50.55 60.41,-77.511" id="path78"/>
    <path fill="#efbd46" fill-rule="nonzero" d="m2574.39,278.141l0,32.89l-0.01,0.071c0,5.628 0.46,11.226 1.36,16.789c109.71,15.558 209.74,37.39 296.27,64.191l0,-23.723c0,-1.679 0.03,-3.359 0.1,-5.039c-82.12,-34.418 -183.13,-63.422 -297.72,-85.179m416.23,147.3c-3.18,2.039 -6.3,4.09 -9.36,6.149c15.73,6.648 30.76,13.5 45.04,20.539c-10.82,-9.09 -22.73,-18 -35.68,-26.688" id="path80"/>
    <path fill="#e0a320" fill-rule="nonzero" d="m3041.97,0l-352.47,0c130.85,27.8594 241.93,65.4609 324.35,109.809l0,-28.4574c0,-28.0196 9.74,-55.25 28.12,-81.3516m-460.73,53.5391c-4.53,12.3711 -6.85,24.9218 -6.85,37.6406l0,186.9613c114.59,21.757 215.6,50.761 297.72,85.179c2.38,-56.941 45,-110.57 118.56,-157.781c-58.36,-39.16 -137.83,-74.059 -233.32,-103c-51.75,-18.9179 -110.98,-35.4296 -176.11,-48.9999m-5.5,274.3519c6.29,38.949 34.35,76.23 80.69,110.8l0,71.86c-22.1,13.078 -41.49,26.629 -57.96,40.59c132.51,20.078 250.19,49.422 345.9,85.589c9.51,-61.238 65.58,-118.3 156.38,-167.148l0,-100.723c-41.87,17.543 -78.8,36.473 -110.13,56.582c12.95,8.688 24.86,17.598 35.68,26.688l0,0c-14.28,-7.039 -29.31,-13.891 -45.04,-20.539c-69.85,47.082 -109.22,100.289 -109.25,156.601l0,-196.109c-86.53,-26.801 -186.56,-48.633 -296.27,-64.191m-29.82,286.488c-8.27,16.601 -12.55,33.57 -12.55,50.84l0,211.594c126.7,32.027 230.96,73.757 303.18,121.937l0,-56.359c0,-55.551 38.32,-108.051 106.38,-154.672l0,-34.399c-80.33,-60.609 -221.44,-109.91 -397.01,-138.941m33.25,366.93c27.9,28.581 67.91,55.651 118.28,80.721l0,110.13c0,55.55 44.33,108.05 123.05,154.67l0,11.52c31,33.25 47.71,68.64 47.71,105.36l0,-219.91c0,-28.79 -10.28,-56.76 -29.65,-83.51c-1.33,7.28 -2.01,14.63 -2.01,22.02l0,-24.76c-44.78,-59.73 -134.99,-113.31 -257.38,-156.241m368.51,23.051c-20.14,13.44 -37.77,27.36 -52.72,41.74c34.19,34.75 52.72,71.94 52.72,110.6l0,-152.34" id="path82"/>
    <path fill="#efbd46" fill-rule="nonzero" d="m2598.47,551.141c-23.94,20.289 -41.68,41.441 -52.55,63.238c175.57,29.031 316.68,78.332 397.01,138.941l0,-97.941c0,-6.258 0.48,-12.469 1.44,-18.649c-95.71,-36.167 -213.39,-65.511 -345.9,-85.589m606.02,343.73c-105.86,30.098 -193.6,67.328 -256.81,109.489l0,96.98c146,-55.73 240.19,-127.449 256.81,-206.469" id="path84"/>
    <path fill="#efbd46" fill-rule="nonzero" d="m2533.37,876.813l0,8.328c0,33.359 15.98,65.621 45.8,96.168c122.39,42.931 212.6,96.511 257.38,156.241l0,-138.8c-72.22,-48.18 -176.48,-89.91 -303.18,-121.937m361.59,169.287c-30.96,29.75 -50.38,61.35 -56.4,94.19c19.37,26.75 29.65,54.72 29.65,83.51l0,67.62c51.17,-41.45 79.47,-86.96 79.47,-134.72c0,-38.66 -18.53,-75.85 -52.72,-110.6" id="path86"/>
    <path fill="#efbd46" fill-rule="nonzero" d="m2820.5,1338.35l0,11.02c-70.18,34.93 -120.25,73.76 -145.46,115.11c-2.78,13.07 -8.16,25.87 -15.97,38.39c-1.75,7.73 -2.64,15.53 -2.64,23.4l0,129.52c131.74,-58.3 210.52,-131.12 211.76,-210.19l0,-0.03c0.01,-0.29 0.01,-0.58 0.01,-0.88c0,-0.01 0,-0.04 0,-0.05c0.01,-0.15 0.01,-0.28 0.01,-0.42c0,-0.03 0,-0.05 0,-0.07c0,-0.14 0,-0.29 0,-0.43l0,-0.01c0,-36.72 -16.71,-72.11 -47.71,-105.36" id="path88"/>
    <path fill="#e0a320" fill-rule="nonzero" d="m2675.04,1464.48c-7.66,12.57 -13.03,25.39 -15.97,38.39c7.81,-12.52 13.19,-25.32 15.97,-38.39" id="path90"/>
    <path fill="#e0a320" fill-rule="nonzero" d="m3171.67,115.469c-10.7,5.761 -20.93,11.633 -30.65,17.621c9.99,-3.711 20.2,-7.34 30.65,-10.899l0,-6.722m35.2,526.453c-48.24,18.18 -90.91,38.07 -127.14,59.41c5.25,3.219 10.35,6.477 15.31,9.77c34.56,-13.231 72.03,-25.563 112.08,-36.883l0,-24.449c0,-2.618 -0.08,-5.239 -0.25,-7.848" id="path92"/>
    <path fill="#efbd46" fill-rule="nonzero" d="m3079.73,701.332c-23.61,13.898 -44.49,28.41 -62.37,43.438c23.88,-11.77 49.83,-23.008 77.68,-33.668c-4.96,-3.293 -10.06,-6.551 -15.31,-9.77" id="path94"/>
    <path fill="#e0a320" fill-rule="nonzero" d="m5403.44,0l-230.11,0l0,14.2422c0,-4.77345 -0.28,-9.51173 -0.84,-14.2422l-133.66,0c18.38,26.1016 28.11,53.332 28.11,81.3516l0,55.1364c81.57,-49.2966 197.36,-91.1677 336.5,-121.8982l0,-14.5898" id="path96"/>
    <path fill="#e0a320" fill-rule="nonzero" d="m5403.44,96.1406c-131.51,40.2384 -225.2,94.4684 -260.75,155.7894c-41.95,38.031 -64.95,79.211 -64.95,122.23l0,219.922c0,-78.98 77.32,-151.82 207.65,-210.281c-12.36,-14.391 -27.78,-28.43 -46.03,-42.039l0,-49.641c104.21,-51.859 164.08,-112.32 164.08,-176.902l0,-19.0784m-467.53,34.5504l0,176.368c0,-44.309 24.35,-86.7 68.73,-125.688c-18.98,-17.601 -42.02,-34.539 -68.73,-50.68" id="path98"/>
    <path fill="#83b591" fill-rule="nonzero" d="m4935.91,307.82c0.4,64.282 52.1,124.481 141.83,176.141c-89.73,-51.672 -141.43,-111.859 -141.83,-176.141" id="path100"/>
    <path fill="#efbd46" fill-rule="nonzero" d="m5403.44,14.5898c-139.14,30.7305 -254.93,72.6016 -336.5,121.8982l0,164.774c0,-42.121 -22,-82.512 -62.3,-119.891c-44.38,38.988 -68.73,81.379 -68.73,125.688c0,0.25 0,0.511 0,0.761c0.4,64.282 52.1,124.469 141.83,176.141l0,-109.801c0,-43.019 23,-84.199 64.95,-122.23c35.55,-61.321 129.24,-115.551 260.75,-155.7894l0,-81.5508" id="path102"/>
    <path fill="#efbd46" fill-rule="nonzero" d="m5285.39,383.801c-130.33,58.461 -207.65,131.301 -207.65,210.281c0,14.398 2.63,28.59 7.62,42.527l0,0c15.3,-74.629 99.76,-142.789 231.75,-197.14c-5.51,-19.028 -16.22,-37.629 -31.72,-55.668" id="path104"/>
    <path fill="#e0a320" fill-rule="nonzero" d="m5317.11,439.469c-131.99,54.351 -216.45,122.511 -231.75,197.14l0,0c-1.66,8.121 -2.57,16.301 -2.57,24.563l0,219.918c0,-85.039 89.67,-162.981 238.62,-223.488l0,-188.25c0,-10.071 -1.46,-20.032 -4.3,-29.883" id="path106"/>
    <path fill="#83b591" fill-rule="nonzero" d="m5082.79,881.09c0,0.09 0,0.191 0,0.281c0,-0.09 0,-0.18 0,-0.281m0,0.379c0,0.062 0,0.113 0,0.179c0,-0.058 0,-0.117 0,-0.179m0,0.301c0,0.05 0,0.101 0,0.152c0,-0.063 0,-0.102 0,-0.152m0.01,0.281c0,0.051 0,0.097 0,0.148c0,-0.051 0,-0.097 0,-0.148m0,0.269c0,0.059 0,0.102 0,0.16c0,-0.05 0,-0.109 0,-0.16m0,0.282c0,0.05 0,0.109 0,0.16c0,-0.051 0,-0.11 0,-0.16m0,0.269c0.01,0.051 0.01,0.109 0.01,0.16c0,-0.062 0,-0.101 -0.01,-0.16m0.01,0.289c0,0.051 0,0.09 0,0.141c0,-0.039 0,-0.09 0,-0.141m0,0.281c0.01,0.051 0.01,0.09 0.01,0.141c0,-0.051 0,-0.102 -0.01,-0.141m0.01,0.278c0,0.051 0,0.09 0,0.133c0,-0.032 0,-0.09 0,-0.133m0.01,0.281c0,0.039 0,0.082 0,0.121c0,-0.031 0,-0.082 0,-0.121m0,0.289c0,0.031 0.01,0.07 0.01,0.109c0,-0.039 -0.01,-0.078 -0.01,-0.109m0.01,0.27c0,0.043 0,0.07 0,0.113c0,-0.043 0,-0.07 0,-0.113m0.01,0.281c0,0.031 0,0.07 0,0.101c0,-0.031 0,-0.07 0,-0.101m0.01,0.281c0,0.02 0,0.059 0,0.09c0,-0.039 0,-0.059 0,-0.09m0.01,0.277c0,0.024 0,0.063 0,0.082c0,-0.031 0,-0.05 0,-0.082m0.01,0.262c0,0.031 0,0.082 0,0.11c0,-0.028 0,-0.079 0,-0.11m0.01,0.281c0,0.028 0,0.059 0,0.09c0,-0.019 0,-0.07 0,-0.09m0.01,0.27c0,0.027 0,0.059 0,0.09c0,-0.039 0,-0.051 0,-0.09m0.01,0.289c0,0.02 0,0.031 0.01,0.051c-0.01,-0.012 -0.01,-0.039 -0.01,-0.051m0.01,0.27c0.01,0.019 0.01,0.031 0.01,0.05c0,-0.019 0,-0.031 -0.01,-0.05m0.02,0.281l0,0.008c0,-0.008 0,0 0,-0.008" id="path108"/>
    <path fill="#efbd46" fill-rule="nonzero" d="m5321.41,657.602c-148.95,60.507 -238.62,138.449 -238.62,223.488l0,0c0,0.101 0,0.191 0,0.281c0,0.031 0,0.07 0,0.098c0,0.062 0,0.121 0,0.179c0,0.043 0,0.082 0,0.122c0,0.05 0,0.089 0,0.152c0,0.039 0.01,0.09 0.01,0.129c0,0.051 0,0.097 0,0.148c0,0.043 0,0.082 0,0.121c0,0.051 0,0.11 0,0.16c0,0.04 0,0.079 0,0.122c0,0.05 0,0.109 0,0.16c0,0.039 0,0.07 0,0.109c0.01,0.059 0.01,0.098 0.01,0.16c0,0.051 0,0.09 0,0.129c0,0.051 0,0.102 0,0.141c0,0.039 0,0.097 0,0.14c0.01,0.039 0.01,0.09 0.01,0.141c0,0.039 0,0.098 0,0.137c0,0.043 0,0.101 0,0.133c0,0.05 0.01,0.097 0.01,0.148c0,0.039 0,0.09 0,0.121c0,0.059 0,0.109 0,0.168c0,0.031 0.01,0.07 0.01,0.109c0,0.051 0,0.114 0,0.161c0,0.043 0,0.07 0,0.113c0.01,0.058 0.01,0.109 0.01,0.168c0,0.031 0,0.07 0,0.101c0,0.059 0.01,0.11 0.01,0.18c0,0.031 0,0.051 0,0.09c0,0.059 0.01,0.121 0.01,0.187c0,0.032 0,0.051 0,0.082c0,0.071 0.01,0.122 0.01,0.18c0,0.031 0,0.082 0,0.11c0,0.062 0.01,0.109 0.01,0.171c0,0.02 0,0.071 0,0.09c0.01,0.071 0.01,0.117 0.01,0.18c0,0.039 0,0.051 0,0.09c0.01,0.058 0.01,0.129 0.01,0.199c0,0.012 0,0.039 0.01,0.051c0,0.07 0,0.148 0,0.219c0.01,0.019 0.01,0.031 0.01,0.05c0,0.078 0,0.149 0.01,0.231c0,0.008 0,0 0,0.008c4.46,90.242 109.87,172.111 279.48,233.181l0,-76.86c0,-13.66 -2.68,-27.14 -7.89,-40.39c-38.02,-27.111 -63.74,-56.58 -74.74,-87.599c-22.87,-17 -50.16,-33.34 -81.44,-48.911l0,-22.55c78.72,-46.61 123.05,-99.11 123.05,-154.668l0.01,0l0,-31.66" id="path110"/>
    <path fill="#e0a320" fill-rule="nonzero" d="m5279.79,915.391c11,31.019 36.72,60.488 74.74,87.599c-12.03,-30.592 -37.54,-59.959 -74.74,-87.599" id="path112"/>
    <path fill="#edac22" fill-rule="nonzero" d="m5173.33,14.25l0,-0.0078l0,0.0078" id="path114"/>
    <path fill="#fbc749" fill-rule="nonzero" d="m4146.78,-334.398c-431.06,0 -799.99,90.23 -952.12,218.117c185.14,-91.219 494.85,-151.02 845.74,-151.02l0.81,0c34.57,-1.48 69.81,-2.25 105.57,-2.25c329.33,0 614.12,64.731 750.24,158.75c107.35,55.0901 169.92,121.133 169.92,192.1526l0,87.5704c68.06,-46.621 106.38,-99.1212 106.39,-154.672l0,-0.0078c0,-192.5512 -459.61,-348.6402 -1026.55,-348.6402" id="path116"/>
    <path fill="#fbc749" fill-rule="nonzero" d="m4040.4,-47.3906c-387.38,0 -724.59,72.8906 -899.38,180.4806c187.7,-69.6798 457.58,-113.3791 757.53,-113.3791c10.79,0 21.51,0.0782 32.21,0.1875c35.89,-1.5976 72.47,-2.4375 109.64,-2.4375c405.93,0 744.19,98.3201 819.77,228.6601c41.94,38.039 64.94,79.219 64.94,122.238l0,109.789c90.09,-51.847 141.83,-112.308 141.83,-176.886c0,-192.551 -459.6,-348.6526 -1026.54,-348.6526" id="path118"/>
    <path fill="#fbc749" fill-rule="nonzero" d="m3286.31,395.18c152.59,-55.789 370.39,-90.7 612.24,-90.7c37.99,0 75.37,0.879 112.02,2.551c390.3,5.219 724.63,84.43 884.64,197.5c-110.43,-152.101 -514.72,-264.902 -996.66,-264.902c-566.87,0 -1026.42,156.051 -1026.54,348.562l-0.01,0.09c0,45.028 25.15,88.071 70.92,127.59l0,-60.492c0,-103.449 132.7,-196.359 343.39,-260.199" id="path120"/>
    <path fill="#fbc749" fill-rule="nonzero" d="m3969.47,526.641c-431.04,0 -799.97,90.238 -952.11,218.129c185.14,-91.231 494.85,-151.028 845.74,-151.028l0.85,0.008c34.56,-1.48 69.78,-2.25 105.52,-2.25c329.33,0 614.11,64.719 750.25,158.738c107.35,55.094 169.93,121.141 169.93,192.153l0,87.579c68.05,-46.611 106.38,-99.118 106.38,-154.681c0,-192.551 -459.6,-348.648 -1026.56,-348.648" id="path122"/>
    <path fill="#edac22" fill-rule="nonzero" d="m2836.55,942.391l0,219.919c0,-192.548 459.6,-348.65 1026.54,-348.65c387.38,0 724.6,72.891 899.38,180.469c-187.7,-69.668 -457.58,-113.367 -757.53,-113.367c-10.79,0 -21.53,0.078 -32.23,0.187c-35.88,-1.59 -72.46,-2.429 -109.62,-2.429c-405.91,0 -744.17,98.312 -819.76,228.64c-41.95,38.05 -64.95,79.24 -64.95,122.25l0,219.92c0,-192.55 459.6,-348.65 1026.56,-348.65c431.04,0 799.97,90.24 952.11,218.12c-185.15,-91.22 -494.85,-151.03 -845.73,-151.03l-0.89,0.01c-34.55,-1.48 -69.76,-2.24 -105.49,-2.24c-329.33,0 -614.11,64.71 -750.24,158.73c-107.36,55.1 -169.94,121.14 -169.94,192.16l0,110.12c-90.09,51.86 -141.83,112.32 -141.83,176.9l0,219.91c0,-192.55 459.59,-348.64 1026.54,-348.64c481.88,0 886.13,112.76 996.62,264.83c-160.05,-113.04 -494.33,-192.22 -884.57,-197.43c-36.66,-1.67 -74.05,-2.55 -112.05,-2.55c-241.95,0 -459.83,34.94 -612.43,90.75c-210.55,63.85 -343.16,156.73 -343.16,260.15l0,219.91c0,-192.56 459.6,-348.65 1026.55,-348.65c566.95,0 1026.55,156.09 1026.55,348.65l0,-219.91c0,-45.05 -25.15,-88.11 -70.96,-127.63l0,-159.39c0,-43.02 -22.99,-84.21 -64.94,-122.26c-75.59,-130.33 -413.85,-228.64 -819.76,-228.64c-37.16,0 -73.74,0.84 -109.61,2.43c-10.71,-0.11 -21.44,-0.19 -32.23,-0.19c-299.96,0 -569.85,43.71 -757.54,113.37c174.78,-107.58 512,-180.47 899.38,-180.47c566.94,0 1026.54,156.1 1026.54,348.66l0,-219.92c0,-55.56 -38.32,-108.06 -106.38,-154.67l0,-132.35c0,-64.58 -51.74,-125.04 -141.83,-176.89l0,-110.129c0,-71.012 -62.58,-137.059 -169.93,-192.153c-136.14,-94.019 -420.92,-158.738 -750.25,-158.738c-35.74,0 -70.96,0.77 -105.52,2.25l-0.85,-0.008c-350.89,0 -660.59,59.809 -845.74,151.028c152.14,-127.879 521.07,-218.129 952.11,-218.129c566.95,0 1026.55,156.109 1026.55,348.648l0,-219.91c0,-45.039 -25.14,-88.078 -70.91,-127.598l0,-159.422c0,-43.019 -23,-84.199 -64.95,-122.238c-75.57,-130.34 -413.83,-228.6601 -819.76,-228.6601c-37.17,0 -73.75,0.8399 -109.64,2.4375c-10.7,-0.1093 -21.42,-0.1875 -32.21,-0.1875c-299.95,0 -569.84,43.6993 -757.53,113.3791c174.79,-107.59 512,-180.4806 899.38,-180.4806c566.94,0 1026.54,156.1016 1026.54,348.6526l0,-219.9104c0,-71.0196 -62.57,-137.0625 -169.92,-192.1526c-136.12,-94.019 -420.91,-158.75 -750.24,-158.75c-35.77,0 -71,0.77 -105.57,2.25l-0.81,0c-350.89,0 -660.6,59.801 -845.74,151.02c152.13,-127.887 521.06,-218.117 952.12,-218.117c566.94,0 1026.55,156.089 1026.55,348.6402l0,-219.9102c0,-72.641 -65.42,-140.07 -177.31,-195.91l0,-91.102c0,-45.039 -25.14,-88.078 -70.91,-127.601l0,-159.43c0,-71.008 -62.58,-137.059 -169.93,-192.148c-136.13,-94.031 -420.91,-158.741 -750.24,-158.741c-35.77,0 -71.01,0.77 -105.6,2.25l-0.79,-0.01c-350.88,0 -660.59,59.8 -845.73,151.032c152.14,-127.882 521.07,-218.132 952.12,-218.132c566.94,0 1026.54,156.1 1026.54,348.651l0,-219.921c0,-192.55 -459.6,-348.65 -1026.54,-348.65c-566.96,0 -1026.56,156.1 -1026.56,348.65l0,132.351c-68.05,46.609 -106.37,99.121 -106.37,154.668l0,219.84c0.12,-192.508 459.67,-348.57 1026.54,-348.57c481.94,0 886.24,112.812 996.66,264.902c-160.02,-113.082 -494.38,-192.289 -884.73,-197.5c-36.62,-1.672 -73.97,-2.539 -111.93,-2.539c-241.83,0 -459.63,34.91 -612.21,90.668c-210.7,63.859 -343.41,156.769 -343.41,260.23l0,219.91c0,-192.55 459.59,-348.66 1026.54,-348.66c351.28,0 661.29,59.95 846.36,151.328c-179.68,-52.488 -413.45,-84.226 -669.05,-84.226c-19.88,0 -39.6,0.219 -59.19,0.598c-38.6,-1.86 -78.02,-2.84 -118.12,-2.84c-461.48,0 -835.58,127.062 -835.58,283.8c0,3.09 0.19,6.18 0.48,9.239c-9.25,18.82 -14.14,38.14 -14.14,57.863l0,132.3399c-68.06,46.6093 -106.38,99.1172 -106.38,154.6797l0,110.1174c-90.1,51.863 -141.84,112.32 -141.84,176.89l0,219.832c0.12,-192.511 459.67,-348.562 1026.54,-348.562c481.94,0 886.24,112.801 996.66,264.902c-160.01,-113.07 -494.34,-192.281 -884.64,-197.5c-36.65,-1.672 -74.03,-2.551 -112.02,-2.551c-241.85,0 -459.65,34.918 -612.24,90.7c-210.68,63.84 -343.38,156.75 -343.38,260.199l0,132.34c-68.06,46.621 -106.38,99.121 -106.38,154.672" id="path124"/>
    <path fill="#fbc749" fill-rule="nonzero" d="m3043.33,1107.16c75.59,-130.328 413.85,-228.64 819.76,-228.64c37.16,0 73.74,0.839 109.62,2.429c10.7,-0.109 21.44,-0.187 32.23,-0.187c299.95,0 569.84,43.699 757.53,113.367c-174.78,-107.578 -512,-180.469 -899.38,-180.469c-566.94,0 -1026.54,156.102 -1026.54,348.65c0,64.57 51.75,125.03 141.83,176.9l0,-109.8c0,-43.01 23,-84.2 64.95,-122.25" id="path126"/>
    <path fill="#fbc749" fill-rule="nonzero" d="m3254.7,1324.27c136.13,-94.02 420.91,-158.73 750.24,-158.73c35.73,0 70.94,0.76 105.49,2.24l0.89,-0.01c350.88,0 660.58,59.81 845.73,151.03c-152.14,-127.88 -521.07,-218.12 -952.11,-218.12c-566.96,0 -1026.56,156.1 -1026.56,348.65c0,55.55 38.33,108.06 106.39,154.67l0,-87.57c0,-71.02 62.57,-137.06 169.93,-192.16" id="path128"/>
    <path fill="#fbc749" fill-rule="nonzero" d="m4111.32,1387.7c-387.38,0 -724.6,72.88 -899.38,180.46c187.69,-69.66 457.58,-113.37 757.54,-113.37c10.79,0 21.52,0.08 32.23,0.19c35.87,-1.59 72.45,-2.43 109.61,-2.43c405.91,0 744.17,98.31 819.76,228.64c41.95,38.05 64.95,79.24 64.95,122.26l0,109.79c90.08,-51.86 141.83,-112.32 141.83,-176.89c0,-192.56 -459.6,-348.65 -1026.54,-348.65" id="path130"/>
    <path fill="#edac22" fill-rule="nonzero" d="m2942.92,2023.37l0,-0.01l0,0.01" id="path132"/>
    <path fill="#fbc749" fill-rule="nonzero" d="m3357.05,1830.32c152.59,-55.81 370.47,-90.75 612.42,-90.75c38.01,0 75.39,0.88 112.05,2.55c390.24,5.21 724.52,84.39 884.57,197.43c-110.49,-152.07 -514.74,-264.83 -996.62,-264.83c-566.95,0 -1026.55,156.09 -1026.55,348.64l0,0.01c0,45.04 25.17,88.09 70.96,127.62l0,-60.52c0,-103.42 132.61,-196.3 343.17,-260.15" id="path134"/>
    <path fill="#fbc749" fill-rule="nonzero" d="m4876.02,2310.38c0,-156.74 -374.11,-283.8 -835.59,-283.8c-461.48,0 -835.59,127.06 -835.59,283.8c0,156.74 374.11,283.79 835.59,283.79c461.48,0 835.59,-127.05 835.59,-283.79m190.96,0c0,192.56 -459.6,348.65 -1026.55,348.65c-566.95,0 -1026.55,-156.09 -1026.55,-348.65c0,-192.56 459.6,-348.65 1026.55,-348.65c566.95,0 1026.55,156.09 1026.55,348.65" id="path136"/>
    <path fill="#edac22" fill-rule="nonzero" d="m4040.43,2026.58c-461.48,0 -835.59,127.06 -835.59,283.8c0,156.74 374.11,283.79 835.59,283.79c461.48,0 835.59,-127.05 835.59,-283.79c0,-156.74 -374.11,-283.8 -835.59,-283.8" id="path138"/>
   </g>
  </g>
  <path fill="#f8f8f8" fill-rule="nonzero" d="m557.093758,283.664993l-15.85875,-3.455c0,0 2.10125,-6.305 5.2,-18.3875l15.285,3.73875c-1.445,5.775 -2.9775,11.78625 -4.62625,18.10375" id="path140"/>
  <path fill="#fbd8b6" fill-rule="nonzero" d="m546.435008,261.822493c5.20375,-20.28125 15.03125,-77.670001 20.66375,-128.127502l18.18375,5.435c-1.5075,7.0875 -6.7225,59.092501 -23.5625,126.431252l-15.285,-3.73875" id="path142"/>
  <path fill="#f7f3e0" fill-rule="nonzero" d="m611.563759,84.93374c10.6675,9.67625 20.94875,18.62125 30.80375,26.875c-24.97125,8.67875 -44.640001,24.7475 -57.060001,45.416251l-8.96,-7.60375c-3.07125,-4.31 -6.32125,-8.825 -9.74875,-13.57375c9.55625,-21.1725 25.005,-38.886251 44.965001,-51.113751" id="path144"/>
  <path fill="#517f59" fill-rule="nonzero" d="m579.661259,147.774991c-1.75875,-2.4025 -3.5775,-4.8725 -5.45375,-7.4125c1.5175,-2.85625 1.2925,-7.19125 -0.71125,-9.8c3.13375,-5.47 6.69875,-10.65125 10.67125,-15.50375c-1.115,4.30125 0.115,9.61125 3.25625,13.32c3.3075,3.89375 7.8375,5.09 11.95625,3.81125c-4.7725,4.735 -9.05,9.89375 -12.79625,15.42l-0.05125,-0.07c-2.0525,-2.6975 -5.2425,-2.655 -6.87125,0.235zm23.37,-35.217501c-3.795,-3.83625 -9.095,-5.38 -13.10375,-4.0075c4.73375,-4.94875 9.935,-9.48 15.56125,-13.54125c2.89375,2.7425 7.88,3.18375 11.335,1.21125c3.0775,2.78625 6.115,5.50125 9.11,8.14875c-3.74875,1.87625 -3.985,5.9675 -0.76375,8.85625l0.08375,0.07375c-6.84375,3.59625 -13.1675,7.8125 -18.91625,12.58c1.7325,-4.14 0.68875,-9.28125 -3.30625,-13.32125zm-24.2475,37.828751c0.8075,1.1225 1.6,2.22875 2.38,3.32125l2.87125,2.4375c1.19375,-2.03125 2.45125,-4.02375 3.78125,-5.9675c9.99625,-14.625 23.79125,-26.645 40.618751,-34.963751c3.12,-1.54375 6.34375,-2.96 9.665,-4.24375c-2.86375,-2.435 -5.765,-4.93 -8.70375,-7.4875c-3.435,-2.99 -6.92125,-6.06375 -10.45625,-9.225c-2.48,-2.2175 -4.985,-4.47875 -7.5125,-6.78375c-2.605,1.61875 -5.1325,3.33125 -7.5775,5.1325c-13.26625,9.7725 -24.13,22.18375 -32.09125,36.497501c-1.2325,2.21625 -2.39625,4.4775 -3.49,6.78125c1.54,2.1125 3.045,4.17875 4.51375,6.20125c2.0725,2.8525 4.07375,5.6175 6.00125,8.3" id="path146"/>
  <path fill="#f7f3e0" fill-rule="nonzero" d="m605.292509,80.67374c11.62875,8.35875 23.04625,16.33375 34.242501,23.93625c-24.22125,11.01 -43.105001,29.435 -54.586251,52.310001l-7.9275,-6.72625c-3.42,-3.68375 -7.02125,-7.5525 -10.80625,-11.6325c7.76375,-22.87125 21.21125,-42.818751 39.077501,-57.887501" id="path148"/>
  <path fill="#517f59" fill-rule="nonzero" d="m622.017509,98.57624c-3.46375,2.27875 -3.1825,6.375 0.45375,8.93125l0.095,0.065c-6.4025,4.22875 -12.3075,9.0425 -17.6575,14.3675c1.3325,-4.21875 -0.3175,-9.13875 -4.74375,-12.58875c-4.20875,-3.275 -9.59875,-4.02875 -13.405,-2.04125c4.1725,-5.61375 8.7975,-10.8575 13.83875,-15.68125c3.16625,2.34125 8.155,2.15875 11.30375,-0.23375c3.395,2.43375 6.7675,4.8275 10.115,7.18125zm-42.338751,48.600001c-1.89,-1.9625 -3.83125,-3.98125 -5.825,-6.0575c1.3075,-3.08125 0.78625,-7.2425 -1.3525,-9.38375c2.6575,-5.96125 5.73375,-11.675 9.2025,-17.09875c-0.70625,4.405 0.92875,9.36 4.36125,12.4275c3.6075,3.2225 8.29125,3.6675 12.375,1.87625c-4.42875,5.21625 -8.3825,10.8275 -11.82625,16.7775l-0.0575,-0.05875c-2.25125,-2.22 -5.43125,-1.5925 -6.8775,1.5175zm19.02875,-57.725001c-11.83,11.63125 -21.31625,25.60625 -27.9975,41.213751c-1.035,2.4175 -2.0025,4.87375 -2.9025,7.365c1.61875,1.72375 3.20625,3.41125 4.76125,5.06125c2.19375,2.32875 4.3225,4.58625 6.385,6.77375c1.7475,1.85375 3.445,3.6575 5.09375,5.41375c1.23875,-2.49625 2.56625,-4.94 3.97625,-7.3275c9.27,-15.70625 22.19125,-28.98875 38.013751,-38.770001c2.93375,-1.815 5.96625,-3.51 9.0925,-5.07875c-3.245,-2.22125 -6.51125,-4.4775 -9.795,-6.7675c-3.8425,-2.67625 -7.71125,-5.4 -11.6075,-8.17c-2.735,-1.945 -5.4825,-3.9125 -8.24375,-5.905c-2.33625,1.9825 -4.59625,4.0475 -6.77625,6.19125" id="path150"/>
  <path fill="#f7f3e0" fill-rule="nonzero" d="m583.753759,155.806241c-5.7925,-4.835 -12.08375,-10.12125 -18.8425,-15.905c6.30375,-23.8975 17.99,-45.380001 33.941251,-62.616251c12.24,7.1725 24.43625,14.265 36.586251,21.27875c-23.1225,12.93125 -41.038751,32.9975 -51.685001,57.242501" id="path152"/>
  <path fill="#517f59" fill-rule="nonzero" d="m617.261259,93.73999c-3.19,2.59125 -2.4875,6.6575 1.44125,8.92625l0.1025,0.0575c-5.96,4.7175 -11.4475,9.9725 -16.41375,15.69625c0.99,-4.24875 -1.14,-8.95375 -5.865,-11.89875c-4.495,-2.795 -9.88875,-2.90375 -13.48875,-0.44875c3.675,-6.08 7.7825,-11.84125 12.29,-17.235c3.34125,1.98875 8.27,1.30125 11.13125,-1.415c3.60875,2.12 7.21,4.225 10.8025,6.3175zm-38.691251,52.267501c-1.98125,-1.60375 -4.00625,-3.24875 -6.07375,-4.94125c1.1325,-3.22 0.3825,-7.195 -1.84,-8.94875c2.26,-6.27375 4.915,-12.3375 7.945,-18.15c-0.375,4.43375 1.565,9.0525 5.19625,11.58875c3.815,2.6625 8.58375,2.51875 12.5975,0.345c-4.1025,5.54625 -7.75625,11.4525 -10.92625,17.665l-0.06,-0.04875c-2.39875,-1.83 -5.54625,-0.75625 -6.83875,2.49zm14.685,-59.138751c-10.52375,13.01625 -18.79875,28.07 -24.4125,44.496251c-0.86875,2.54375 -1.675,5.12 -2.41625,7.72625c1.66375,1.4025 3.2975,2.775 4.905,4.1175c2.27,1.895 4.48375,3.73375 6.64,5.51625c1.82625,1.51 3.6125,2.98125 5.355,4.4125c1.15,-2.5875 2.37875,-5.12875 3.68875,-7.6175c8.6075,-16.37375 20.6625,-30.52875 35.457501,-41.447501c2.745,-2.025 5.58125,-3.94 8.5075,-5.7375c-3.51625,-2.03125 -7.0375,-4.07125 -10.56375,-6.11875c-4.12375,-2.39625 -8.25375,-4.8025 -12.39125,-7.2225c-2.9025,-1.69875 -5.81125,-3.4025 -8.7225,-5.11375c-2.09,2.25875 -4.10625,4.59 -6.0475,6.98875" id="path154"/>
  <path fill="#fbd8b6" fill-rule="nonzero" d="m565.798758,136.679991c0,0 -4.4125,-10.1125 -0.77125,-12.00875c3.6425,-1.895 11.56375,-4.325 12.23,-0.60875c0.7275,4.06625 -9.2975,5.69 -9.2975,5.69l-2.16125,6.9275" id="path156"/>
  <path fill="#83b591" fill-rule="nonzero" d="m546.435008,261.822493c1.73875,-6.77875 3.99625,-17.71875 6.43875,-31.14375c0,0.00125 0.00125,0.0025 0.00125,0.00375c-2.44375,13.43125 -4.7,24.35875 -6.44,31.14" id="path158"/>
  <path fill="#ecebeb" fill-rule="nonzero" d="m557.093758,283.663743l-15.85875,-3.45375c0,0 2.10125,-6.305 5.2,-18.3875l0,0l15.285,3.73875c-0.1125,0.45125 -0.22625,0.90375 -0.34,1.3575c-1.345,5.35875 -2.76625,10.9225 -4.28625,16.745" id="path160"/>
  <path fill="#f0cdaa" fill-rule="nonzero" d="m561.720008,265.561243l0,0l-15.285,-3.73875l0,0c1.74,-6.78125 3.99625,-17.70875 6.44,-31.14c2.32375,6.395 6.60375,18.66125 9.86625,30.73375c-0.33875,1.3775 -0.67375,2.7525 -1.02125,4.145l0,0" id="path162"/>
  <path fill="#e0a320" fill-rule="nonzero" d="m506.283758,472.042496c-51.827501,0 -93.821251,-6.32625 -93.796251,-14.12875c0.02625,-7.8025 42.062501,-14.12875 93.891251,-14.12875c51.826251,0 93.821251,6.32625 93.796251,14.12875c-0.02625,7.8025 -42.062501,14.12875 -93.891251,14.12875" id="path164"/>
  <path fill="#fbd8b6" fill-rule="nonzero" d="m555.960008,267.468743c0,0 -8.845,-169.210003 -133.398752,-104.016252c0,0 -20.335,42.827501 -12.715,122.585002c100.377501,9.62125 146.113752,-18.56875 146.113752,-18.56875" id="path166"/>
  <path fill="#504133" fill-rule="nonzero" d="m522.470008,92.01374c0,0 71.425001,94.407501 -84.338751,102.665002l0.895,30.43625c0,0 -14.77375,-11.3825 -16.73875,3.1775c-1.9625,14.56 16.50625,7.39875 16.50625,7.39875c0,0 -12.18875,38.667501 -28.40375,50.400001c0,0 -61.998751,-124.798752 -3.35875,-129.445002c0,0 -0.48,-22.5425 30.3275,-37.240001c43.947501,-20.96625 73.498751,27.47625 85.111251,-27.3925" id="path168"/>
  <path fill="#504133" fill-rule="nonzero" d="m431.143756,373.213744l5.285,34.703751l-4.94625,49.813751c0,0 52.128751,14.09625 38.988751,-6.46875c-12.135,-18.99375 -31.06875,-3.215 -31.06875,-3.215l9.33,-41.917501l1.0125,-23.285c0,0 52.841251,2.16375 98.045001,-11.945l3.1075,28.6525l-8.76375,52.613751c0,0 48.252501,16.1975 34.892501,-6.23625c-7.40625,-12.43625 -25.60375,-4.6325 -25.60375,-4.6325l11.55375,-41.807501l0.71375,-42.973751l-132.546252,16.6975" id="path170"/>
  <path fill="#f8f8f8" fill-rule="nonzero" d="m555.960008,267.468743l7.73,89.047501c0,0 -54.053751,17.17375 -132.546252,16.6975l-21.2975,-87.176251c0,0 90.876251,6.1925 146.113752,-18.56875" id="path172"/>
  <path fill="#f5f6f5" fill-rule="nonzero" d="m524.793758,284.784993l3.21875,4.80125l-3.2,6.34125l8.48625,52.706251l-13.32625,13.135l-13.50125,-11.42875l10.93,-53.047501l-5.075,-5.85375l1.92375,-4.38l10.54375,-2.27375" id="path174"/>
  <path fill="#504133" fill-rule="nonzero" d="m524.793758,284.784993l3.21875,4.80125l-3.2,6.34125l11.56125,51.486251l-13.3275,13.13375l-13.5,-11.4275l7.855,-51.827501l-5.075,-5.85375l1.92375,-4.38l10.54375,-2.27375" id="path176"/>
  <path fill="#ec6180" fill-rule="nonzero" d="m524.566258,239.424992c0,0 -27.1125,2.85375 -42.873751,10.41c0,0 1.54,22.195 26.73125,16.84c24.935,-5.29875 16.1425,-27.25 16.1425,-27.25" id="path178"/>
  <path fill="#f8f8f8" fill-rule="nonzero" d="m414.481256,305.729993l12.66875,-10.14375c0,0 -4.6825,-4.7125 -12.83,-14.15875l-12.03,10.14125c3.86125,4.5325 7.90625,9.23625 12.19125,14.16125" id="path180"/>
  <path fill="#fbd8b6" fill-rule="nonzero" d="m414.320006,281.427493c-13.67375,-15.855 -46.612501,-59.875001 -74.085001,-102.571252l-13.8725,12.95125c4.49875,5.67875 30.9125,46.925001 75.927501,99.761251l12.03,-10.14125" id="path182"/>
  <path fill="#504133" fill-rule="nonzero" d="m472.973757,224.474992c1.14,5.31375 -0.15375,10.09625 -2.88875,10.6825c-2.735,0.58625 -5.875,-3.245 -7.015,-8.55875c-1.14,-5.3125 0.15375,-10.095 2.88875,-10.6825c2.735,-0.58625 5.87625,3.24625 7.015,8.55875" id="path184"/>
  <path fill="#504133" fill-rule="nonzero" d="m534.810008,211.213742c1.13875,5.31375 -0.15375,10.095 -2.89,10.6825c-2.73375,0.58625 -5.875,-3.245 -7.015,-8.55875c-1.14,-5.31375 0.15375,-10.09625 2.8875,-10.6825c2.73625,-0.58625 5.8775,3.245 7.0175,8.55875" id="path186"/>
  <path fill="#f7f3e0" fill-rule="nonzero" d="m288.280004,135.754991c-8.79625,11.40375 -17.33875,22.02 -25.58375,31.8825c26.10875,4.14125 48.302501,16.4925 64.170001,34.648751l7.47875,-9.06375c2.265,-4.785 4.66625,-9.80125 7.20375,-15.07875c-13.1375,-19.1575 -31.4675,-33.871251 -53.268751,-42.388751" id="path188"/>
  <path fill="#517f59" fill-rule="nonzero" d="m323.953755,192.968742l-0.0375,0.07875c-4.6625,-4.78 -9.7825,-9.105 -15.31375,-12.92375c4.27875,0.5325 8.5275,-1.44375 11.09625,-5.86c2.43875,-4.20375 2.71375,-9.6475 0.85875,-13.685c4.76375,4.07625 9.1875,8.54875 13.23625,13.38c-1.51375,2.92125 -0.97125,7.2275 1.025,9.7725c-1.3975,2.83125 -2.75375,5.5825 -4.0625,8.2575c-2.11125,-2.5575 -5.25875,-2.0375 -6.8025,0.98zm-23.31375,-17.8325c-6.49875,-3.6775 -13.4675,-6.715 -20.83625,-9.0475l0.07,-0.0875c2.66125,-3.4125 1.70625,-7.39875 -2.315,-8.58375c2.4825,-3.13375 4.99375,-6.3425 7.5325,-9.6275c3.74875,1.33375 8.57875,0.02125 10.94375,-3.18875c6.255,3.005 12.1725,6.55 17.70375,10.58625c-4.1875,-0.64375 -9.13125,1.80875 -12.19125,6.25375c-3.22,4.68125 -3.34125,9.92625 -0.9075,13.695zm35.887501,10.04125c1.08875,-2.25 2.20625,-4.54875 3.34875,-6.89875c-1.48125,-2.07625 -3.02625,-4.0975 -4.63,-6.0625c-10.35875,-12.68625 -23.24125,-22.98875 -38.021251,-30.26875c-2.72375,-1.3425 -5.51375,-2.5825 -8.36375,-3.7175c-2.08125,2.71375 -4.14875,5.38125 -6.2,8.0025c-2.92125,3.73375 -5.81125,7.37375 -8.66625,10.9225c-2.44125,3.035 -4.8575,6.0025 -7.2475,8.905c3.495,0.6775 6.91875,1.50375 10.26125,2.47375c18.03,5.2225 33.727501,14.62375 46.145001,27.2575c1.65125,1.67875 3.24125,3.4175 4.77375,5.2075l2.3975,-2.905c0.575,-1.21375 1.16,-2.4425 1.75625,-3.69c1.425,-2.97875 2.90875,-6.05375 4.44625,-9.22625" id="path190"/>
  <path fill="#f7f3e0" fill-rule="nonzero" d="m293.701254,130.456241c-9.97375,10.27625 -19.80625,20.14 -29.48625,29.59625c25.78125,6.56875 47.617501,21.37625 62.950001,41.870001l6.6175,-8.0175c2.71875,-4.22875 5.58125,-8.67125 8.5875,-13.35625c-11.67125,-21.14375 -28.42625,-38.410001 -48.668751,-50.092501" id="path192"/>
  <path fill="#517f59" fill-rule="nonzero" d="m289.085004,142.173741c3.5225,1.8 8.465,1.1 11.1675,-1.7625c5.8125,3.86 11.29,8.2075 16.38625,12.9975c-4.09625,-1.28625 -9.26875,0.40625 -12.835,4.3725c-3.74875,4.175 -4.5075,9.30875 -2.45,13.2275c-6.20625,-4.3 -12.86625,-7.9975 -19.91375,-11.03125l0.0825,-0.08125c3.1275,-3.1575 2.68375,-7.24 -1.12875,-8.87125c2.88125,-2.90625 5.7775,-5.8575 8.69125,-8.85125zm34.512501,48.947501l-0.045,0.0675c-4.43875,-5.25 -9.32,-10.07625 -14.59875,-14.43c4.335,1.04375 8.8675,-0.22 11.85125,-4.0275c2.8375,-3.625 3.57375,-8.79125 2.1025,-13.0025c4.37,4.7275 8.405,9.80875 12.07125,15.21c-1.7275,2.48375 -1.5075,6.6725 0.32375,9.475c-1.5975,2.395 -3.15375,4.725 -4.6675,6.99c-1.97125,-2.8075 -5.21375,-2.865 -7.0375,-0.2825zm-29.6275,-58.086251c-2.3675,2.4475 -4.72625,4.86875 -7.07375,7.265c-3.3475,3.41375 -6.67625,6.77625 -9.98625,10.08875c-2.83,2.8325 -5.64625,5.62875 -8.45,8.3875c3.355,0.9925 6.63875,2.12625 9.84625,3.39625c17.29875,6.84 32.35875,17.6375 44.251251,31.46375c1.81,2.10125 3.545,4.27375 5.205,6.5125c1.31375,-2.02 2.66875,-4.095 4.06,-6.2275c1.645,-2.51625 3.3425,-5.11375 5.0925,-7.79375c1.23875,-1.8975 2.50375,-3.8375 3.79375,-5.82c-1.32375,-2.295 -2.71,-4.54125 -4.155,-6.7375c-9.3275,-14.18625 -21.1275,-26.27125 -34.822501,-35.635001c-2.52375,-1.72625 -5.1125,-3.36125 -7.76125,-4.9" id="path194"/>
  <path fill="#f7f3e0" fill-rule="nonzero" d="m328.145005,200.614992c4.85,-5.77875 10.11,-12.0925 15.745,-18.97625c-10.4175,-22.4125 -25.70625,-41.498751 -44.445001,-55.653751c-10.785,9.2175 -21.54,18.3475 -32.2625,27.39375c25.0375,8.65375 46.210001,25.2475 60.962501,47.236251" id="path196"/>
  <path fill="#517f59" fill-rule="nonzero" d="m293.743754,137.304991c3.295,2.16875 8.26875,1.97625 11.20625,-0.57c5.3875,4.515 10.445,9.4625 15.135,14.8c-3.975,-1.78375 -9.26625,-0.725 -13.19875,2.81875c-4.13125,3.73125 -5.39875,8.73875 -3.67625,12.74625c-5.89625,-4.76 -12.225,-8.965 -18.92375,-12.55875l0.09125,-0.07375c3.4675,-2.92625 3.44375,-7.05125 -0.15375,-9.04125c3.16875,-2.6925 6.34125,-5.4 9.52,-8.12125zm30.60625,51.506251l-0.05,0.05875c-4.21625,-5.5575 -8.85375,-10.7275 -13.86875,-15.46375c4.33375,1.4325 9.05375,0.73375 12.34,-2.55875c3.1275,-3.1375 4.22375,-8.025 3.0725,-12.32375c4.00625,5.1875 7.68875,10.68875 11.01875,16.46625c-1.8775,2.1175 -1.91625,6.16125 -0.23375,9.1325c-1.7375,2.03 -3.44125,4.0075 -5.1075,5.93375c-1.84375,-2.96625 -5.1325,-3.46875 -7.17125,-1.245zm-24.89125,-60.191251c-2.56375,2.19625 -5.12625,4.385 -7.685,6.56875c-3.6475,3.11125 -7.2875,6.20875 -10.92375,9.2925c-3.11125,2.63875 -6.2175,5.2675 -9.32,7.8875c3.19625,1.2525 6.3275,2.6375 9.38375,4.1475c16.49,8.14 30.85,19.94875 42.207501,34.548751c1.7275,2.22 3.3875,4.50375 4.97375,6.84875c1.46375,-1.71625 2.9625,-3.47875 4.49375,-5.2875c1.80875,-2.13375 3.66375,-4.335 5.56375,-6.6c1.34625,-1.605 2.71375,-3.24375 4.10375,-4.9175c-1.19,-2.435 -2.4375,-4.82875 -3.74125,-7.17875c-8.42125,-15.18 -19.21875,-28.54 -31.8725,-39.497501c-2.3325,-2.02 -4.72875,-3.96 -7.18375,-5.8125" id="path198"/>
  <path fill="#fbd8b6" fill-rule="nonzero" d="m342.448755,178.623741c0,0 2.56,-10.73125 -1.3575,-11.955c-3.92,-1.22375 -12.14625,-2.22 -12.14625,1.555c0,4.13125 10.155,3.9625 10.155,3.9625l3.34875,6.4375" id="path200"/>
  <path fill="#e0a320" fill-rule="nonzero" d="m229.395003,582.414998c-49.122501,0 -88.925001,-5.99625 -88.900001,-13.39125c0.02375,-7.39625 39.866251,-13.39125 88.988751,-13.39125c49.122501,0 88.925001,5.995 88.901251,13.39125c-0.025,7.395 -39.867501,13.39125 -88.990001,13.39125" id="path202"/>
  <path fill="#fbd6b1" fill-rule="nonzero" d="m269.207504,414.729995l9.62875,-5.0675c13.61125,47.777501 56.037501,20.23875 69.688751,4.7525c0.45375,-0.51375 3.475,-3.5625 4.89375,-2.1475c0.68625,0.68125 0.555,1.59125 0.18125,2.41125c0.77,-0.40125 1.64375,-0.595 2.28125,0.0375c0.6175,0.61625 0.5675,1.42 0.27625,2.17875c0.7125,-0.32375 1.4775,-0.42625 2.05375,0.14625c0.6825,0.67875 0.55125,1.5875 0.17875,2.40875c0.77375,-0.405 1.645,-0.595 2.28,0.0375c1.3275,1.3225 0.10875,3 -1.04875,4.22875c-30.30375,32.13 -75.663751,44.745001 -90.413751,-8.98625" id="path204"/>
  <path fill="#f8f8f8" fill-rule="nonzero" d="m278.836254,409.662495l-9.62875,5.0675c2.5625,9.3325 6.045,16.75875 10.2075,22.48125l8.37125,-9.53125c-3.605,-4.18375 -6.68,-10.04875 -8.95,-18.0175" id="path206"/>
  <path fill="#e2c19e" fill-rule="nonzero" d="m285.243754,443.272495c-2.02125,-1.75125 -3.935,-3.805 -5.725,-6.18l3.8475,-4.38l1.8775,10.56m-15.965,-28.28375c-0.0025,-0.00875 -0.005,-0.0175 -0.0075,-0.02625c0.0025,0.00875 0.005,0.0175 0.0075,0.02625" id="path208"/>
  <path fill="#7baa89" fill-rule="nonzero" d="m269.251254,414.888745c0,-0.00125 0,-0.00125 0,-0.00125l0,0.00125" id="path210"/>
  <path fill="#e2c19e" fill-rule="nonzero" d="m269.260004,414.919995c-0.0025,-0.01 -0.00625,-0.02125 -0.00875,-0.03125l0,-0.00125c-0.0025,-0.00875 -0.005,-0.0175 -0.0075,-0.02625c0.005,0.02 0.01125,0.03875 0.01625,0.05875" id="path212"/>
  <path fill="#e2c19e" fill-rule="nonzero" d="m269.233754,414.824995c-0.00875,-0.0325 -0.0175,-0.0625 -0.02625,-0.095l0,0c0.00875,0.03125 0.0175,0.06375 0.02625,0.095" id="path214"/>
  <path fill="#7baa89" fill-rule="nonzero" d="m279.847504,412.919995c-0.21625,-0.64 -0.42625,-1.295 -0.63,-1.965c-0.00125,-0.00375 -0.00125,-0.0025 -0.00125,-0.005c-0.00875,-0.02875 -0.0175,-0.05625 -0.02625,-0.08375c-0.00125,-0.00375 -0.00375,-0.0125 -0.00375,-0.015c-0.0075,-0.0225 -0.015,-0.04625 -0.02125,-0.06875c-0.0025,-0.00625 -0.00375,-0.01125 -0.005,-0.0175c-0.0075,-0.02375 -0.01375,-0.04625 -0.02125,-0.07c-0.00375,-0.01125 -0.0075,-0.0225 -0.01,-0.03375c-0.005,-0.015 -0.01,-0.03125 -0.01375,-0.04625c-0.00625,-0.02 -0.0125,-0.03875 -0.0175,-0.05875c-0.00375,-0.01125 -0.0075,-0.02375 -0.01125,-0.035c-0.00375,-0.01375 -0.0075,-0.0275 -0.0125,-0.0425c-0.005,-0.02 -0.01125,-0.04 -0.0175,-0.06c-0.00375,-0.01375 -0.00875,-0.03125 -0.01375,-0.045c-0.0025,-0.00875 -0.005,-0.0175 -0.0075,-0.0275c-0.0075,-0.025 -0.015,-0.05125 -0.0225,-0.0775c-0.00375,-0.00875 -0.00625,-0.0175 -0.00875,-0.0275c-0.005,-0.01625 -0.00875,-0.02875 -0.01375,-0.04625c-0.0025,-0.00875 -0.005,-0.01875 -0.0075,-0.02875c-0.0075,-0.0225 -0.015,-0.04875 -0.02125,-0.07125c-0.00375,-0.0125 -0.0075,-0.02375 -0.01125,-0.03625c-0.0025,-0.01125 -0.0075,-0.02875 -0.01125,-0.04c-0.00625,-0.02125 -0.0125,-0.04375 -0.01875,-0.06375c0,-0.00375 -0.0025,-0.01 -0.00375,-0.01375c0.2925,1.01125 0.6025,1.9775 0.92125,2.9225l0.01,0.05625" id="path216"/>
  <path fill="#e2c19e" fill-rule="nonzero" d="m279.217504,410.954995c-0.00125,-0.00125 -0.00125,-0.00375 -0.00125,-0.005c0,0.0025 0,0.00125 0.00125,0.005m-0.0275,-0.08875c-0.00125,-0.005 -0.0025,-0.01 -0.00375,-0.015c0,0.0025 0.0025,0.01125 0.00375,0.015m-0.025,-0.08375c-0.0025,-0.00625 -0.00375,-0.01125 -0.005,-0.0175c0.00125,0.00625 0.0025,0.01125 0.005,0.0175m-0.02625,-0.0875c-0.00375,-0.01125 -0.0075,-0.0225 -0.01,-0.03375c0.0025,0.01125 0.00625,0.0225 0.01,0.03375m-0.02375,-0.08c-0.00625,-0.02 -0.0125,-0.03875 -0.0175,-0.05875c0.005,0.02 0.01125,0.03875 0.0175,0.05875m-0.02875,-0.09375c-0.00375,-0.01375 -0.0075,-0.0275 -0.0125,-0.0425c0.005,0.015 0.00875,0.02875 0.0125,0.0425m-0.03,-0.1025c-0.00375,-0.015 -0.00875,-0.03 -0.01375,-0.045c0.005,0.01375 0.01,0.03125 0.01375,0.045m-0.02125,-0.0725c-0.0075,-0.025 -0.015,-0.05125 -0.0225,-0.0775c0.0075,0.02625 0.015,0.0525 0.0225,0.0775m-0.03125,-0.105c-0.00375,-0.015 -0.00875,-0.03 -0.01375,-0.04625c0.005,0.0175 0.00875,0.03 0.01375,0.04625m-0.02125,-0.075c-0.0075,-0.02375 -0.015,-0.0475 -0.02125,-0.07125c0.00625,0.0225 0.01375,0.04875 0.02125,0.07125m-0.0325,-0.1075c-0.00375,-0.01375 -0.0075,-0.0275 -0.01125,-0.04c0.00375,0.01125 0.00875,0.02875 0.01125,0.04m-0.03,-0.10375c-0.00125,-0.0075 -0.00375,-0.01375 -0.005,-0.02125c0,0.0025 0.00125,0.005 0.00125,0.0075c0.00125,0.00375 0.00375,0.01 0.00375,0.01375" id="path218"/>
  <path fill="#dfdfdd" fill-rule="nonzero" d="m279.518754,437.092495c-4.1725,-5.5375 -7.665,-12.82375 -10.24,-22.10375c-0.0025,-0.00875 -0.005,-0.0175 -0.0075,-0.02625c-0.00375,-0.015 -0.0075,-0.02875 -0.01125,-0.0425c-0.005,-0.02 -0.01125,-0.03875 -0.01625,-0.05875c-0.00375,-0.01125 -0.00625,-0.02375 -0.01,-0.03625c-0.00875,-0.03125 -0.0175,-0.06375 -0.02625,-0.095l9.62875,-5.0675c0.02625,0.09125 0.0525,0.18125 0.07875,0.27125c0.00125,0.0075 0.00375,0.01375 0.005,0.02125c0.00625,0.02 0.0125,0.0425 0.01875,0.06375c0.00375,0.0125 0.0075,0.02625 0.01125,0.04c0.00375,0.0125 0.0075,0.02375 0.01125,0.03625c0.00625,0.02375 0.01375,0.0475 0.02125,0.07125c0.0025,0.01 0.005,0.02 0.0075,0.02875c0.005,0.01625 0.01,0.03125 0.01375,0.04625c0.0025,0.01 0.005,0.01875 0.00875,0.0275c0.0075,0.02625 0.015,0.0525 0.0225,0.0775c0.0025,0.01 0.005,0.01875 0.0075,0.0275c0.005,0.015 0.01,0.03 0.01375,0.045c0.00625,0.02 0.0125,0.04 0.0175,0.06c0.005,0.015 0.00875,0.02875 0.0125,0.0425c0.00375,0.01125 0.0075,0.02375 0.01125,0.035c0.005,0.02 0.01125,0.03875 0.0175,0.05875c0.00375,0.015 0.00875,0.03125 0.01375,0.04625c0.0025,0.01125 0.00625,0.0225 0.01,0.03375c0.0075,0.02375 0.01375,0.04625 0.02125,0.07c0.00125,0.00625 0.0025,0.01125 0.005,0.0175c0.00625,0.0225 0.01375,0.04625 0.02125,0.06875c0.00125,0.005 0.0025,0.01 0.00375,0.015c0.00875,0.0275 0.0175,0.055 0.02625,0.08375c0,0.00125 0,0.00375 0.00125,0.005c0.20375,0.67 0.41375,1.325 0.63,1.965l3.51875,19.7925l-3.8475,4.38" id="path220"/>
  <path fill="#fbd6b1" fill-rule="nonzero" d="m278.736254,407.248745c0,0 -9.20875,-146.295002 -110.500002,-91.872501c0,0 -29.9575,24.5875 -14.06,103.750002c84.973751,10.8425 124.560002,-11.8775 124.560002,-11.8775" id="path222"/>
  <path fill="#504133" fill-rule="nonzero" d="m173.456253,372.136244l-0.05,-23.54c55.032501,-4.15 94.816251,-19.2775 94.816251,-19.2775c-12.6725,-49.157501 -57.656251,-49.341251 -79.843751,-44.033751c-28.155,6.1575 -38.801251,25.6725 -41.176251,32.3925c-2.2975,-2.61375 -2.76,-6.04125 -2.76,-6.04125c-3.6925,5.1225 -1.32625,9.1375 -1.32625,9.1375c-5.53625,0.4475 -7.10375,5.82 -7.10375,5.82c1.7925,-0.65125 3.4975,-0.69625 4.97625,-0.4825c-28.211375,14.92 13.19375,93.101251 13.19375,93.101251c11.6625,-8.11 19.11625,-38.636251 19.11625,-38.636251c0,0 -12.66625,5.4875 -11.61625,-4.85125c1.04875,-10.3375 11.77375,-3.58875 11.77375,-3.58875" id="path224"/>
  <path fill="#fbd6b1" fill-rule="nonzero" d="m132.676252,342.603744l-0.16125,0.00625l0.16125,-0.00625" id="path226"/>
  <path fill="#fbd6b1" fill-rule="nonzero" d="m97.654751,386.492495c-6.074125,-29.78375 15.525875,-46.643751 15.525875,-46.643751c0,0 19.155625,-15.28125 26.846875,-4.22875c0,0 1.7625,2.24625 -0.72625,2.27625c-2.48875,0.03 -5.8425,-3.55375 -9.15625,-1.33c0,0 3.36375,-1.2275 3.63875,1.53125c0.13125,1.32125 -2.525,1.54125 -3.20875,1.57625l-0.16125,0.00625l0.16125,-0.00625c0.64625,-0.0175 3.06875,0.02125 3.2675,1.5425c0.2925,2.23625 -1.695,2.375 -2.3375,2.36375c-0.1225,-0.01125 -0.20125,-0.01 -0.20125,-0.01c0,0 0.08,0.00625 0.20125,0.01c0.59125,0.04875 2.27875,0.37125 1.77,2.495c-0.54375,2.26125 -4.07375,0.905 -4.07375,0.905c0,0 -7.873125,0.28125 -11.330125,5.035c-26.955125,39.110001 16.482625,64.681251 36.311376,67.197501l3.23125,15.69375c-24.87,-3.96 -53.685251,-18.63 -59.759001,-48.413751" id="path228"/>
  <path fill="#fbd6b1" fill-rule="nonzero" d="m133.605002,346.508744c-0.12,-0.00375 -0.2,-0.01 -0.2,-0.01c0,0 0.07875,0 0.2,0.01" id="path230"/>
  <path fill="#504133" fill-rule="nonzero" d="m169.918753,495.638746l2.12125,34.321251l-2.6075,38.226251c0,0 37.008751,11.685 26.98,-4.01125c-9.26125,-14.49625 -20.935,-2.4525 -20.935,-2.4525l7.015,-33.28125l2.96375,-24.12875c0,0 45.771251,3.255 84.531251,-7.52125l-2.0275,26.60125l-7.76,44.252501c0,0 37.692501,12.36375 27.49625,-4.76c-7.89625,-12.28875 -20.46875,-2.60875 -20.46875,-2.60875l10.99375,-36.936251l4.6875,-38.348751l-112.990002,10.6475" id="path232"/>
  <path fill="#f8f8f8" fill-rule="nonzero" d="m278.736254,407.248745l4.1725,77.741251c0,0 -46.355001,13.14375 -112.990002,10.64875l-15.73625,-76.426251c0,0 76.991251,7.59 124.553752,-11.96375" id="path234"/>
  <path fill="#504133" fill-rule="nonzero" d="m251.812504,421.122495l2.605,4.16375l-2.88625,5.29875l8.445,44.025001l-11.665,10.79625l-11.16,-10.0625l8.05125,-43.797501l-4.15375,-5.10625l1.75,-3.6675l9.01375,-1.65" id="path236"/>
  <path fill="#f8f8f8" fill-rule="nonzero" d="m154.182502,419.212495c-4.505,-0.57125 -10.22875,-2.3375 -16.07,-5.1775l-0.7925,15.38c6.645,2.63375 13.50625,4.4425 20.09375,5.49125l-3.23125,-15.69375" id="path238"/>
  <path fill="#504133" fill-rule="nonzero" d="m249.387504,359.853744c0.91625,4.365 3.48875,7.52 5.74625,7.0475c2.2575,-0.47375 3.34375,-4.3975 2.4275,-8.76375c-0.91625,-4.36625 -3.48875,-7.52125 -5.74625,-7.0475c-2.2575,0.47375 -3.34375,4.3975 -2.4275,8.76375" id="path240"/>
  <path fill="#504133" fill-rule="nonzero" d="m199.152503,369.898744c0.91625,4.3675 3.49,7.5225 5.74625,7.04875c2.2575,-0.47375 3.345,-4.3975 2.4275,-8.76375c-0.91625,-4.36625 -3.48875,-7.52125 -5.74625,-7.0475c-2.2575,0.47375 -3.34375,4.3975 -2.4275,8.7625" id="path242"/>
  <path fill="#ec6180" fill-rule="nonzero" d="m218.161253,405.192495c0,0 21.45125,-0.64125 34.268751,-5.645c0,0 -0.20125,-19.20375 -19.99125,-14.795c-19.19125,4.275 -14.2775,20.44 -14.2775,20.44" id="path244"/>
  <path fill="#e0a320" fill-rule="nonzero" d="m763.267511,654.891124c-0.1225,0 -0.24375,0 -0.36625,0c-47.458751,-0.03375 -85.930001,-7.21875 -85.928751,-16.0435c0.00375,-4.78025 11.2925,-9.0615 29.185,-11.975125c-1.86,0.90725 -3.54875,2.339875 -4.84125,4.51125c-4.56375,7.663625 -0.35875,9.92725 6.205,9.92725c9.4775,-0.001 23.86875,-4.721125 23.86875,-4.721125l-2.425,-12.384875c10.31125,-0.8175 21.66125,-1.27 33.587501,-1.27c0.1175,0 0.24375,0.00125 0.3625,0.00125c19.375,0.0125 37.252501,1.21875 51.625001,3.24l1.66625,6.976125c0,0 -6.16,-5.133875 -13.255,-5.133875c-4.26875,0 -8.8775,1.860375 -12.6825,7.8165c-4.62625,7.241125 0.44,9.334875 7.8475,9.334875c10.1525,0 24.7025,-3.935 24.7025,-3.935l-1.09125,-13.92725c16.69125,2.92625 27.1125,7.07475 27.11125,11.669875c-0.00375,8.80225 -38.280001,15.913625 -85.571251,15.913625m-40.577501,-27.3735c0,0 -3.44,-1.476625 -7.7125,-1.903875c2.215,-0.276375 4.5,-0.53275 6.855,-0.76875l0.8575,2.672625" id="path246"/>
  <path fill="#fbd8b6" fill-rule="nonzero" d="m718.327511,481.553746c0,0 10.45,-140.741252 109.546252,-89.113751c0,0 17.71125,35.396251 12.725,102.095002c-83.612501,9.76 -122.271252,-12.98125 -122.271252,-12.98125" id="path248"/>
  <path fill="#504133" fill-rule="nonzero" d="m720.905011,410.186245c22.22125,-8.2925 83.113751,-1.2475 106.593752,13.75875l-4.64625,26.51c0,0 13.865,-8.15375 12.97875,4.14625c-0.90125,12.52375 -13.32875,4.855 -13.32875,4.855c0,0 3.97125,25.985 18.09625,35.078751c-0.58875,0.9375 51.333751,-83.868751 12.88,-87.036251c0,0 2.0475,-28.0475 -27.4225,-42.352501c-42.175001,-20.47 -88.248751,-4.12125 -105.151252,45.040001" id="path250"/>
  <path fill="#fbd8b6" fill-rule="nonzero" d="m862.530013,419.568745l0.15875,0.0075l-0.15875,-0.0075" id="path252"/>
  <path fill="#fbd8b6" fill-rule="nonzero" d="m861.576263,423.396245c0.11875,-0.00125 0.1975,-0.0075 0.1975,-0.0075c0,0 -0.07875,-0.00125 -0.1975,0.0075" id="path254"/>
  <path fill="#504133" fill-rule="nonzero" d="m824.325012,569.553747l-4.05875,39.086251l2.5525,32.594875c0,0 -43.518751,11.767625 -32.55,-5.399875c10.13,-15.855 25.9375,-2.682625 25.9375,-2.682625l-6.2125,-26.003625l-1.0275,-29.23625c0,0 -45.011251,2.71625 -82.983751,-8.28l-1.27625,32.8125l6.68375,34.144876c0,0 -41.226251,13.522375 -30.07375,-5.206125c6.1825,-10.3825 21.37375,-3.866125 21.37375,-3.866125l-8.0675,-25.123875l-1.21375,-44.492501l110.916252,11.6525" id="path256"/>
  <path fill="#f8f8f8" fill-rule="nonzero" d="m718.327511,481.553746l-4.91875,76.347501c0,0 45.412501,13.4025 110.916252,11.6525l16.27375,-75.018751c0,0 -75.741251,6.735 -122.271252,-12.98125" id="path258"/>
  <path fill="#504133" fill-rule="nonzero" d="m744.637511,495.471246l-2.60375,4.0625l2.78125,5.23625l-8.7625,43.172501l11.34875,10.73125l11.07125,-9.77l-7.45,-43.121251l4.135,-4.97375l-1.68125,-3.6225l-8.83875,-1.715" id="path260"/>
  <path fill="#7baa89" fill-rule="nonzero" d="m713.727511,569.573747c-0.10375,-0.07625 -0.2075,-0.15375 -0.30875,-0.23l-0.01,-11.4425l0.31875,11.6725" id="path262"/>
  <path fill="#473b2d" fill-rule="nonzero" d="m716.056261,570.598747c-0.76625,0 -1.5825,-0.48125 -2.32875,-1.025l-0.31875,-11.6725c0,0 3.775,1.11375 10.7125,2.65625c0.36625,0.71875 0.48125,1.43875 -0.005,1.97375c-0.35,0.3875 -0.77875,0.535 -1.23125,0.535c-0.37125,0 -0.7575,-0.09875 -1.1275,-0.24625c0.43,0.73875 0.66125,1.58625 0.06875,2.2425c-0.35,0.38375 -0.77875,0.53125 -1.23125,0.53125c-0.2925,0 -0.595,-0.06125 -0.8925,-0.16c0.34875,0.68375 0.485,1.43 -0.04875,2.0225c-0.35,0.385 -0.78,0.5325 -1.23125,0.5325c-0.37,0 -0.75625,-0.09875 -1.12625,-0.24625c0.4325,0.74 0.66,1.5875 0.06875,2.23875c-0.40125,0.4425 -0.84625,0.6175 -1.30875,0.6175" id="path264"/>
  <path fill="#dfdfdd" fill-rule="nonzero" d="m724.121261,560.557497c-6.9375,-1.5425 -10.7125,-2.65625 -10.7125,-2.65625l0.46,-7.115c2.7975,2.74 5.54,5.13875 7.91375,7.04125c0.3325,0.26625 1.7075,1.495 2.33875,2.73" id="path266"/>
  <path fill="#fbd8b6" fill-rule="nonzero" d="m718.327511,481.553746l-0.9325,14.465c-44.523751,12.6975 -12.255,47.345001 3.57625,60.031251c0.52625,0.42125 3.6575,3.24625 2.33375,4.705c-0.63625,0.70375 -1.53625,0.6175 -2.3575,0.28875c0.43,0.73875 0.65875,1.58625 0.06875,2.24125c-0.57625,0.635 -1.3675,0.6225 -2.12625,0.37125c0.35125,0.68375 0.4875,1.43125 -0.04875,2.02375c-0.635,0.7 -1.5325,0.61375 -2.35625,0.285c0.4325,0.74 0.66125,1.58875 0.06875,2.24c-1.2375,1.36375 -2.89125,0.185 -4.19875,-0.835c-36.196251,-28.24 -51.541251,-71.901251 5.9725,-85.816251" id="path268"/>
  <path fill="#f8f8f8" fill-rule="nonzero" d="m718.327511,481.553746l-0.9325,14.465c-4.79,1.36625 -8.68625,2.98875 -11.815,4.8075l-5.99875,-12.4825c5.11,-2.69375 11.31625,-4.99125 18.74625,-6.79" id="path270"/>
  <path fill="#e9e8e7" fill-rule="nonzero" d="m717.395011,496.018746c-1.165,0.3325 -2.27375,0.68 -3.335,1.04125l4.2675,-15.50625l-0.9325,14.465" id="path272"/>
  <path fill="#ec6180" fill-rule="nonzero" d="m785.328762,480.119996c0,0 -22.70875,-1.50625 -36.101251,-7.30375c0,0 0.5675,-18.56125 21.75625,-14.90625c20.97,3.6175 14.345,22.21 14.345,22.21" id="path274"/>
  <path fill="#fbd8b6" fill-rule="nonzero" d="m840.480013,494.739996l-3.02125,14.1775c39.422501,24.28 -1.02625,48.895001 -19.70125,56.818751c-0.62,0.2625 -4.4,2.13375 -3.52,3.89625c0.42125,0.85125 1.31,1.01125 2.19125,0.91625c-0.615,0.595 -1.065,1.34875 -0.67375,2.13875c0.38375,0.7675 1.1475,0.97 1.945,0.93375c-0.5225,0.56375 -0.855,1.24625 -0.5,1.96125c0.42125,0.84625 1.31,1.00625 2.19,0.9125c-0.61625,0.59625 -1.065,1.35 -0.67125,2.1375c0.82125,1.65 2.7325,0.9625 4.2675,0.335c42.491251,-17.3825 69.087501,-55.256251 17.49375,-84.227501" id="path276"/>
  <path fill="#f8f8f8" fill-rule="nonzero" d="m840.480013,494.739996l-3.02125,14.1775c4.24125,2.6125 7.55375,5.22875 10.07125,7.8275l9.15625,-10.3925c-4.19,-3.9775 -9.54125,-7.86875 -16.20625,-11.6125" id="path278"/>
  <path fill="#504133" fill-rule="nonzero" d="m749.887511,434.099995c-1.0675,4.75125 -3.91625,8.1575 -6.36125,7.6075c-2.44625,-0.55 -3.5625,-4.8475 -2.495,-9.5975c1.0675,-4.75125 3.91625,-8.15875 6.36125,-7.6075c2.44625,0.54875 3.56375,4.84625 2.495,9.5975" id="path280"/>
  <path fill="#504133" fill-rule="nonzero" d="m805.182512,446.527495c-1.06875,4.75 -3.91625,8.15625 -6.36125,7.6075c-2.44625,-0.55 -3.56375,-4.84625 -2.495,-9.59875c1.06625,-4.75125 3.915,-8.15625 6.36,-7.6075c2.44625,0.54875 3.56375,4.8475 2.49625,9.59875" id="path282"/>
  <path fill="#dddddd" fill-rule="nonzero" d="m347.020005,356.046244c-0.94625,0 -1.715,-0.76875 -1.715,-1.71375l0,-24.56375c0,-0.945 0.76875,-1.715 1.715,-1.715c0.94625,0 1.715,0.77 1.715,1.715l0,24.56375c0,0.945 -0.76875,1.71375 -1.715,1.71375" id="path284"/>
  <path fill="#dddddd" fill-rule="nonzero" d="m334.740005,343.764994c-0.94625,0 -1.715,-0.77 -1.715,-1.71375c0,-0.94625 0.76875,-1.715 1.715,-1.715l24.56125,0c0.94625,0 1.715,0.76875 1.715,1.715c0,0.94375 -0.76875,1.71375 -1.715,1.71375l-24.56125,0" id="path286"/>
  <path fill="#dddddd" fill-rule="nonzero" d="m671.20751,151.956241c-0.88125,0 -1.5975,-0.71625 -1.5975,-1.5975l0,-22.88375c0,-0.88125 0.71625,-1.5975 1.5975,-1.5975c0.88125,0 1.5975,0.71625 1.5975,1.5975l0,22.88375c0,0.88125 -0.71625,1.5975 -1.5975,1.5975" id="path288"/>
  <path fill="#dddddd" fill-rule="nonzero" d="m659.76626,140.514991c-0.88125,0 -1.5975,-0.7175 -1.5975,-1.5975c0,-0.88125 0.71625,-1.59875 1.5975,-1.59875l22.8825,0c0.88125,0 1.5975,0.7175 1.5975,1.59875c0,0.88 -0.71625,1.5975 -1.5975,1.5975l-22.8825,0" id="path290"/>
  <path fill="#dddddd" fill-rule="nonzero" d="m363.747505,104.78249c-0.88125,0 -1.5975,-0.71625 -1.5975,-1.5975l0,-22.88375c0,-0.88125 0.71625,-1.5975 1.5975,-1.5975c0.88125,0 1.5975,0.71625 1.5975,1.5975l0,22.88375c0,0.88125 -0.71625,1.5975 -1.5975,1.5975" id="path292"/>
  <path fill="#dddddd" fill-rule="nonzero" d="m352.307505,93.34124c-0.88125,0 -1.59875,-0.7175 -1.59875,-1.5975c0,-0.88125 0.7175,-1.59875 1.59875,-1.59875l22.88125,0c0.88125,0 1.59875,0.7175 1.59875,1.59875c0,0.88 -0.7175,1.5975 -1.59875,1.5975l-22.88125,0" id="path294"/>
  <path fill="#dddddd" fill-rule="nonzero" d="m496.250007,54.52624c-2.46625,0 -4.4725,2.00625 -4.4725,4.4725c0,2.465 2.00625,4.4725 4.4725,4.4725c2.46625,0 4.4725,-2.0075 4.4725,-4.4725c0,-2.46625 -2.00625,-4.4725 -4.4725,-4.4725zm0,11.64375c-3.955,0 -7.17125,-3.2175 -7.17125,-7.17125c0,-3.955 3.21625,-7.1725 7.17125,-7.1725c3.955,0 7.17125,3.2175 7.17125,7.1725c0,3.95375 -3.21625,7.17125 -7.17125,7.17125" id="path296"/>
  <path fill="#dddddd" fill-rule="nonzero" d="m291.583754,244.298742c-1.2775,0 -2.31875,-1.03 -2.31875,-2.2975c0,-1.27875 1.03625,-2.32 2.30875,-2.32c1.27375,0 2.30875,1.03625 2.30875,2.30875c0,1.27375 -1.03125,2.30875 -2.29875,2.30875zm9.24875,3.79875c-0.61,0 -1.1875,-0.235 -1.625,-0.65875c-0.89375,-0.91 -0.90125,-2.3875 -0.0075,-3.2825c0.43625,-0.435 1.0175,-0.67625 1.635,-0.67625c0.61625,0 1.19375,0.24125 1.63,0.67625c0.895,0.89625 0.9025,2.35875 0.015,3.26c-0.455,0.4425 -1.02875,0.68125 -1.6475,0.68125zm-18.49375,0.0575c-0.615,0 -1.195,-0.24 -1.63375,-0.6775c-0.8975,-0.9 -0.8975,-2.36625 0,-3.26375c0.4325,-0.43875 1.01,-0.68 1.62875,-0.68c0.61625,0 1.1975,0.2425 1.635,0.68c0.4375,0.43125 0.67875,1.00375 0.68,1.6175c0.0025,0.62125 -0.23875,1.20625 -0.68,1.6475c-0.43625,0.4375 -1.015,0.67625 -1.63,0.67625zm22.3625,9.23625c-1.2725,0 -2.30875,-1.04125 -2.30875,-2.32125c0,-1.29875 1.03,-2.355 2.2975,-2.355c1.26375,0 2.305,1.0275 2.32,2.29c0,1.335 -1.015,2.38625 -2.30875,2.38625zm-26.16125,0.0225c-1.28,0 -2.32,-1.035 -2.32,-2.30875c0,-1.27375 1.035,-2.30875 2.30875,-2.30875c1.2725,0 2.30875,1.03 2.30875,2.2975c0,1.28 -1.03,2.32 -2.2975,2.32zm22.3275,9.21375c-0.615,0 -1.195,-0.24125 -1.63125,-0.6775c-0.8925,-0.89375 -0.89375,-2.35625 -0.00375,-3.26125c0.44,-0.4325 1.025,-0.67375 1.64,-0.67375c0.615,0 1.19375,0.2375 1.62625,0.67c0.4425,0.44125 0.68375,1.025 0.68125,1.645c-0.0025,0.61625 -0.24625,1.1925 -0.6825,1.62375c-0.425,0.4375 -1,0.67375 -1.63,0.67375zm-18.49625,0.0225c-0.465,0 -0.9125,-0.14 -1.29375,-0.405l-0.14875,-0.1025l-0.01375,0l-0.18125,-0.17625c-0.88625,-0.885 -0.8875,-2.3475 0.00375,-3.25375c0.4375,-0.44 1.02125,-0.6825 1.63875,-0.6825c0.6175,0 1.1975,0.24125 1.63125,0.6825c0.90375,0.8875 0.905,2.34625 0.0125,3.2575c-0.45625,0.44125 -1.03,0.68 -1.64875,0.68zm9.26,3.8225c-1.2725,0 -2.30875,-1.03625 -2.30875,-2.31c0,-1.2725 1.03625,-2.30875 2.30875,-2.30875c1.27375,0 2.31,1.03625 2.31,2.30875c0,1.27375 -1.03625,2.31 -2.31,2.31" id="path298"/>
  <path fill="#dddddd" fill-rule="nonzero" d="m611.877509,332.749994c-1.27875,0 -2.31875,-1.03125 -2.31875,-2.29875c0,-1.28 1.03625,-2.32 2.30875,-2.32c1.27375,0 2.31,1.035 2.31,2.31c0,1.2725 -1.03125,2.30875 -2.3,2.30875zm9.24875,3.79625c-0.61,0 -1.1875,-0.23375 -1.625,-0.65875c-0.89375,-0.90875 -0.90125,-2.38625 -0.0075,-3.28125c0.43625,-0.43625 1.01625,-0.67625 1.635,-0.67625c0.615,0 1.19375,0.24 1.63,0.67625c0.895,0.895 0.9025,2.35875 0.015,3.26c-0.45625,0.44125 -1.03,0.68 -1.6475,0.68zm-18.495,0.05875c-0.61375,0 -1.19375,-0.24125 -1.6325,-0.6775c-0.89875,-0.90125 -0.89875,-2.36625 0,-3.265c0.4325,-0.43875 1.00875,-0.67875 1.62875,-0.67875c0.61625,0 1.1975,0.24125 1.635,0.68c0.43875,0.43125 0.6775,1.00375 0.68,1.6175c0.0025,0.62125 -0.23875,1.2075 -0.68125,1.6475c-0.435,0.43625 -1.01375,0.67625 -1.63,0.67625zm22.3625,9.23625c-1.27125,0 -2.30875,-1.04125 -2.30875,-2.32125c0,-1.29875 1.03125,-2.355 2.2975,-2.355c1.265,0 2.305,1.0275 2.32125,2.29125c0,1.335 -1.015,2.385 -2.31,2.385zm-26.16125,0.0225c-1.27875,0 -2.31875,-1.035 -2.31875,-2.30875c0,-1.27375 1.035,-2.30875 2.30875,-2.30875c1.2725,0 2.30875,1.03 2.30875,2.2975c0,1.27875 -1.03125,2.32 -2.29875,2.32zm22.32875,9.21375c-0.61625,0 -1.195,-0.24125 -1.63125,-0.6775c-0.8925,-0.89375 -0.895,-2.35625 -0.00375,-3.26125c0.44,-0.4325 1.025,-0.67375 1.64,-0.67375c0.615,0 1.19375,0.2375 1.62625,0.67c0.4425,0.44125 0.6825,1.025 0.68125,1.645c-0.0025,0.61625 -0.24625,1.1925 -0.68375,1.6225c-0.4225,0.44 -0.9975,0.675 -1.62875,0.675zm-18.49625,0.0225c-0.465,0 -0.9125,-0.14 -1.29375,-0.405l-0.14875,-0.1025l-0.01375,0l-0.18125,-0.17625c-0.88625,-0.885 -0.8875,-2.3475 0.0025,-3.25375c0.43875,-0.43875 1.0225,-0.6825 1.64,-0.6825c0.61875,0 1.1975,0.2425 1.63,0.6825c0.905,0.88875 0.90625,2.34625 0.01375,3.2575c-0.45625,0.44125 -1.03,0.68 -1.64875,0.68zm9.26,3.8225c-1.27375,0 -2.30875,-1.03625 -2.30875,-2.30875c0,-1.275 1.035,-2.31 2.30875,-2.31c1.27375,0 2.31,1.035 2.31,2.31c0,1.2725 -1.03625,2.30875 -2.31,2.30875" id="path300"/>
  <path fill="#dddddd" fill-rule="nonzero" d="m663.99501,238.347492c-0.8475,0 -1.53625,-0.69 -1.53625,-1.5375l0,-8.7425c0,-0.84875 0.68875,-1.5375 1.53625,-1.5375c0.8475,0 1.53875,0.68875 1.53875,1.5375l0,8.7425c0,0.8475 -0.69125,1.5375 -1.53875,1.5375" id="path302"/>
  <path fill="#dddddd" fill-rule="nonzero" d="m656.31126,240.958742c-0.41,0 -0.79625,-0.16 -1.08625,-0.45l-6.18375,-6.1825c-0.29,-0.29 -0.45,-0.67625 -0.45,-1.08625c0,-0.41125 0.16,-0.79625 0.45,-1.0875c0.29125,-0.29125 0.67625,-0.45 1.08875,-0.45c0.41,0 0.79625,0.16 1.0875,0.45l6.18,6.18125c0.59875,0.59875 0.59875,1.575 0,2.175c-0.28875,0.29 -0.67625,0.45 -1.08625,0.45" id="path304"/>
  <path fill="#dddddd" fill-rule="nonzero" d="m643.98126,248.239993c-0.84875,0 -1.53875,-0.69 -1.53875,-1.53875c0,-0.8475 0.69,-1.5375 1.53875,-1.5375l8.7425,0c0.8475,0 1.53625,0.69 1.53625,1.5375c0,0.84875 -0.68875,1.53875 -1.53625,1.53875l-8.7425,0" id="path306"/>
  <path fill="#dddddd" fill-rule="nonzero" d="m649.15251,262.106243c-0.41,0 -0.79625,-0.16 -1.0875,-0.45c-0.29,-0.29125 -0.45,-0.6775 -0.45,-1.08875c0,-0.41 0.16,-0.79625 0.45,-1.0875l6.1825,-6.18125c0.29,-0.29125 0.675,-0.45 1.0875,-0.45c0.41125,0 0.79625,0.16 1.0875,0.45c0.5975,0.59875 0.59875,1.575 0,2.17375l-6.18375,6.18375c-0.28875,0.29 -0.67625,0.45 -1.08625,0.45" id="path308"/>
  <path fill="#dddddd" fill-rule="nonzero" d="m662.61501,268.253743c-0.84875,0 -1.5375,-0.69 -1.5375,-1.5375l0,-8.7425c0,-0.8475 0.68875,-1.5375 1.5375,-1.5375c0.84875,0 1.5375,0.69 1.5375,1.5375l0,8.7425c0,0.8475 -0.68875,1.5375 -1.5375,1.5375" id="path310"/>
  <path fill="#dddddd" fill-rule="nonzero" d="m676.48251,263.082493c-0.41125,0 -0.7975,-0.16125 -1.08875,-0.45125l-6.18125,-6.18125c-0.29,-0.29 -0.45,-0.67625 -0.45,-1.0875c0,-0.41125 0.16,-0.7975 0.45,-1.0875c0.2925,-0.29 0.6775,-0.45 1.0875,-0.45c0.41,0 0.79625,0.16 1.0875,0.45l6.18125,6.1825c0.29125,0.29 0.45125,0.67625 0.45125,1.0875c0,0.41 -0.16,0.79625 -0.45125,1.0875c-0.29,0.29 -0.67625,0.45 -1.08625,0.45" id="path312"/>
  <path fill="#dddddd" fill-rule="nonzero" d="m673.88751,249.619993c-0.8475,0 -1.53875,-0.69 -1.53875,-1.5375c0,-0.84875 0.69125,-1.53875 1.53875,-1.53875l8.7425,0c0.8475,0 1.5375,0.69 1.5375,1.53875c0,0.8475 -0.69,1.5375 -1.5375,1.5375l-8.7425,0" id="path314"/>
  <path fill="#dddddd" fill-rule="nonzero" d="m671.27626,241.934992c-0.41,0 -0.79625,-0.16125 -1.08625,-0.45c-0.29125,-0.29125 -0.45125,-0.6775 -0.45125,-1.08875c0,-0.41 0.16,-0.79625 0.45125,-1.0875l6.18,-6.18c0.29,-0.29 0.67875,-0.45 1.08875,-0.45c0.41,0 0.79625,0.16 1.08625,0.45c0.5975,0.59875 0.59875,1.575 0,2.17375l-6.18,6.1825c-0.29375,0.28875 -0.67875,0.45 -1.08875,0.45" id="path316"/>
 </g>
</svg>