<svg width="1000" height="1000" xmlns="http://www.w3.org/2000/svg">
 <metadata id="metadata8">image/svg+xml</metadata>
 <defs>
  <clipPath clipPathUnits="userSpaceOnUse" id="clipPath52">
   <path d="m5886.026294,1598.394946c0,161.65 84.25,301.38 206.54,367.9l-2332.05,0c-203.19,0 -367.9,-164.72 -367.9,-367.9c0,-203.19 164.71,-367.9 367.9,-367.9l2332.05,0c-122.29,66.52 -206.54,206.24 -206.54,367.9" id="path54"/>
  </clipPath>
  <clipPath clipPathUnits="userSpaceOnUse" id="clipPath80">
   <path d="m2899.126294,2430.014946c0,161.65 -84.25,301.38 -206.54,367.9l2332.05,0c203.19,0 367.9,-164.72 367.9,-367.9c0,-203.19 -164.71,-367.9 -367.9,-367.9l-2332.05,0c122.29,66.52 206.54,206.24 206.54,367.9" id="path82"/>
  </clipPath>
 </defs>
 <g>
  <title>background</title>
  <rect fill="none" id="canvas_background" height="402" width="582" y="-1" x="-1"/>
 </g>
 <g>
  <title>Layer 1</title>
  <g id="svg_1">
   <path fill="#ffffff" fill-rule="nonzero" d="m292.782041,550.281874c-11.39125,0 -17.57625,-1.1575 -19.2,-1.51125l8.1325,-37.296251l-0.2975,-0.06125c0.39125,0.07125 40.238751,6.87125 132.517502,-25.99125c45.398751,-16.1675 82.177501,-17.35875 109.311252,-3.5425c25.5275,12.99875 32.4775,34.443751 33.18625,36.846251l-36.613751,10.79625c0,0 0.04,0.1675 0.14875,0.47125c-0.1275,-0.35375 -3.23,-8.73875 -14.40875,-14.28125c-11.99375,-5.9475 -35.403751,-9.79125 -78.817501,5.67c-68.383751,24.3525 -111.386252,28.89875 -133.958752,28.9" id="path16"/>
   <path fill="#ffffff" fill-rule="nonzero" d="m760.957048,553.809374c-25.34375,0 -63.706251,-6.6425 -115.303752,-33.47375c-28.66375,-14.905 -52.626251,-19.16125 -69.296251,-12.31c-15.94125,6.55125 -21.47,21.79625 -21.51875,21.9475l-36.335001,-11.6975c1.05375,-3.27375 11.22125,-32.355 43.343751,-45.556251c27.78875,-11.42 61.910001,-6.795 101.415002,13.75c79.438751,41.307501 118.497502,26.465 118.882502,26.3075c-0.27625,0.11125 -0.4125,0.18125 -0.4125,0.18125l15.925,34.691251c-2.51375,1.15375 -14.7025,6.15875 -36.700001,6.16" id="path18"/>
   <path fill="#d5e4dc" fill-rule="nonzero" d="m345.289541,539.145624c0,0 0.70375,-0.21375 2.02375,-0.61375c1.3225,-0.38875 3.25125,-1.0175 5.72875,-1.69875c1.23625,-0.35125 2.60625,-0.73875 4.09625,-1.16125c1.485,-0.44375 3.05375,-0.9775 4.745,-1.51375c1.68125,-0.54375 3.47125,-1.12125 5.35875,-1.73c0.9425,-0.29625 1.90875,-0.59875 2.89875,-0.90875c0.985,-0.34875 1.99125,-0.70375 3.02,-1.0675c2.05375,-0.72625 4.1925,-1.4825 6.40625,-2.265c2.2225,-0.74 4.49375,-1.60625 6.8275,-2.48875c2.3325,-0.8775 4.72875,-1.78 7.17875,-2.7025c2.425,-1 4.93,-1.9425 7.46125,-2.9425c5.095,-1.89625 10.2375,-4.25 15.58,-6.29375c5.30375,-2.19625 10.69125,-4.42875 16.07875,-6.66c2.71125,-1.09125 5.42125,-2.1825 8.12125,-3.26875l0.25375,-0.1025l0.345,-0.13375l0.12875,-0.045l0.51625,-0.17625l1.0325,-0.355l2.14125,-0.705c1.45625,-0.47125 2.86625,-0.895 4.30625,-1.30125c2.85875,-0.8375 5.7425,-1.50625 8.62,-2.04375c2.875,-0.54875 5.735,-1.00875 8.575,-1.3125c5.67,-0.6725 11.255,-0.69875 16.5225,-0.1575c5.27375,0.46375 10.21625,1.745 14.545,3.4575c4.33625,1.74 7.99,4.0775 10.83625,6.53125c2.88,2.43 4.88875,5.02625 6.3675,7.2075c0.71375,1.11625 1.35125,2.09875 1.78,3.03125c0.465,0.9075 0.86375,1.66875 1.11375,2.325c0.54,1.28125 0.8275,1.96375 0.8275,1.96375l-0.445,0.2275c0,0 -0.355,-0.635 -1.01875,-1.825c-0.3125,-0.6075 -0.7825,-1.305 -1.325,-2.13c-0.515,-0.845 -1.2225,-1.73375 -1.995,-2.74125c-1.60625,-1.96375 -3.73875,-4.225 -6.5925,-6.32c-2.84375,-2.1 -6.395,-4.01125 -10.51625,-5.42375c-4.13875,-1.3525 -8.81,-2.28125 -13.80625,-2.535c-4.9925,-0.3025 -10.29,-0.015 -15.6975,0.73875c-5.41,0.7575 -10.94125,1.98 -16.4425,3.615c-2.7425,0.8175 -5.51625,1.7175 -8.19875,2.7375c-2.6925,1.1175 -5.39375,2.24 -8.09625,3.3625c-5.41375,2.22375 -10.85625,4.3825 -16.21125,6.51125c-5.39,2.0425 -10.6525,4.15875 -15.8425,5.95625c-2.585,0.92375 -5.12625,1.83125 -7.615,2.72c-2.5125,0.8175 -4.97125,1.6175 -7.365,2.39625c-4.7625,1.63375 -9.375,2.82625 -13.59125,4.05625c-1.05625,0.30125 -2.09,0.59625 -3.10125,0.88375c-1.0225,0.24625 -2.02125,0.4875 -2.995,0.72125c-1.94875,0.46375 -3.7975,0.90375 -5.535,1.3175c-1.74,0.3975 -3.3575,0.83375 -4.8725,1.12375c-1.5175,0.28 -2.91125,0.5375 -4.17,0.77c-5.035,0.92875 -7.9125,1.46 -7.9125,1.46l-0.09125,-0.49125" id="path20"/>
   <path fill="#d5e4dc" fill-rule="nonzero" d="m275.72579,536.876874c0,0 0.2525,0.04625 0.725,0.13125c0.47,0.09375 1.175,0.19 2.0425,0.39625c0.87,0.21625 1.935,0.3925 3.14125,0.58125c1.2,0.2125 2.56125,0.4025 4.0525,0.61375c1.47875,0.24125 3.1,0.39 4.79625,0.61c1.6975,0.21125 3.5075,0.30625 5.3575,0.50375c1.8625,0.13625 3.785,0.2325 5.74375,0.33375c1.9525,0.1375 3.95,0.13625 5.94,0.19375c1.995,0.02875 3.99,0.095 5.95875,0.05375c1.9725,-0.01 3.9125,-0.02 5.79125,-0.03c3.77625,-0.06375 7.3025,-0.12375 10.32375,-0.175c3.0325,-0.06 5.58625,-0.0025 7.365,-0.04375c0.89,-0.02625 1.59875,0.02375 2.0775,0.02625c0.48125,0.0125 0.7375,0.01875 0.7375,0.01875l0.03375,0.24875c0,0 -1.005,0.135 -2.7625,0.3725c-1.75875,0.23 -4.2725,0.5625 -7.2975,0.87375c-3.02375,0.33625 -6.56125,0.6325 -10.35875,0.87125c-1.89875,0.09125 -3.86125,0.2075 -5.86,0.2375c-1.99625,0.075 -4.02625,0.04125 -6.05625,0.04375c-2.02875,-0.08375 -4.06,-0.12125 -6.0525,-0.2925c-1.99625,-0.11375 -3.95,-0.345 -5.8425,-0.5475c-1.885,-0.26125 -3.7125,-0.49375 -5.42625,-0.8225c-1.715,-0.3225 -3.3375,-0.6225 -4.8125,-1.00625c-0.74,-0.1775 -1.45,-0.3475 -2.125,-0.51c-0.66625,-0.195 -1.29875,-0.38125 -1.89375,-0.555c-1.19,-0.3425 -2.225,-0.6475 -3.05375,-0.9625c-1.6725,-0.59125 -2.6275,-0.92875 -2.6275,-0.92875l0.0825,-0.23625" id="path22"/>
   <path fill="#d5e4dc" fill-rule="nonzero" d="m404.329542,513.796873c0,0 0.42375,-0.28625 1.21875,-0.82125c0.80625,-0.5075 1.97,-1.3075 3.475,-2.2275c1.50125,-0.9275 3.31375,-2.1 5.44125,-3.32375c2.11375,-1.26125 4.5025,-2.68 7.1725,-4.10625c2.655,-1.4625 5.5425,-3.03625 8.69625,-4.52125c3.1275,-1.5325 6.465,-3.12375 10.0225,-4.5375c1.78375,-0.70625 3.585,-1.45125 5.45,-2.13375c0.93,-0.34375 1.8575,-0.71125 2.80875,-1.0425c0.9575,-0.31 1.92,-0.62375 2.88625,-0.9375c3.88625,-1.22375 7.9025,-2.3075 12.0325,-3.1175c4.13125,-0.7625 8.32625,-1.39875 12.555,-1.51875c4.215,-0.1875 8.42,0.06 12.46625,0.72125c4.04625,0.60875 7.91,1.74125 11.3675,3.2875c1.75625,0.6825 3.3675,1.60625 4.91125,2.45875c0.75875,0.45625 1.4625,0.9825 2.16875,1.455c0.6925,0.49875 1.4075,0.92125 2.01875,1.47c2.57125,2.005 4.6275,4.15 6.2475,6.1625c0.7825,1.03375 1.575,1.9325 2.1675,2.87375c0.57375,0.9425 1.10125,1.80875 1.5775,2.59125c0.49625,0.75625 0.845,1.49375 1.13375,2.14125c0.295,0.63625 0.54625,1.17875 0.75,1.6175c0.3875,0.88 0.59375,1.34875 0.59375,1.34875l-0.5225,0.34375c0,0 -0.29375,-0.40125 -0.845,-1.15375c-0.275,-0.37625 -0.61375,-0.84 -1.01375,-1.385c-0.39625,-0.5475 -0.845,-1.1825 -1.43625,-1.82125c-0.56875,-0.65625 -1.19875,-1.3825 -1.88625,-2.1725c-0.70625,-0.77125 -1.5525,-1.52625 -2.41125,-2.375c-1.76375,-1.6475 -3.915,-3.33 -6.4075,-4.9375c-0.5975,-0.4425 -1.2925,-0.755 -1.96,-1.14c-0.68125,-0.36125 -1.35375,-0.77125 -2.0775,-1.11125c-1.475,-0.615 -2.95,-1.37625 -4.58375,-1.85875c-3.195,-1.16625 -6.73625,-1.8775 -10.42,-2.30375c-3.6875,-0.46 -7.55,-0.42625 -11.44625,-0.18125c-3.9025,0.23 -7.84,0.85625 -11.7425,1.61875c-3.91375,0.725 -7.77125,1.7425 -11.54875,2.79875c-3.77375,1.08 -7.44625,2.29375 -10.98125,3.52125c-7.06125,2.4875 -13.54875,5.11125 -19.0975,7.38875c-5.5575,2.27 -10.1875,4.16125 -13.43,5.485c-3.2575,1.2875 -5.11875,2.02375 -5.11875,2.02375l-0.2325,-0.58" id="path24"/>
   <path fill="#d5e4dc" fill-rule="nonzero" d="m278.48579,526.504373l3.06375,0.9c1.035,0.2125 2.02875,0.4825 3.035,0.705l3.07,0.54125l3.0775,0.405c2.06375,0.18625 4.12,0.33625 6.1825,0.425l3.10125,0.05375c1.03875,-0.0175 2.0725,-0.02625 3.10625,-0.01875c2.07375,-0.0275 4.15125,-0.09375 6.23375,-0.19375c2.085,-0.1275 4.175,-0.2175 6.27375,-0.31875l6.3275,-0.335c2.1225,-0.12875 4.2575,-0.15625 6.405,-0.18875l-0.29625,0.01375l8.66875,-0.98375c2.88125,-0.37125 5.7675,-0.7 8.65125,-1.05125c2.87375,-0.40625 5.73375,-0.8875 8.62125,-1.23125l8.595,-1.3925l8.57875,-1.54375c1.42,-0.3 2.83875,-0.615 4.27,-0.88625l4.29,-0.85875c2.825,-0.69375 5.69,-1.29125 8.55,-1.945c2.8375,-0.7175 5.69,-1.42875 8.5875,-2.06875l0.1375,0.34875l-8.27,3.05375l-8.3975,2.68625l-8.50125,2.33375l-8.58625,2.0025l-8.6525,1.69625l-8.7025,1.415l-8.74125,1.155l-8.77125,0.87875l-0.015,0.00125l-0.01625,0c-4.21625,-0.01125 -8.43875,0.11375 -12.66375,0.19c-2.1125,0.0375 -4.2275,0.05625 -6.3425,0.0575c-2.115,-0.01 -4.23,-0.055 -6.345,-0.14l-3.17,-0.18625l-3.16375,-0.28625l-3.1525,-0.40625l-3.13125,-0.545l-3.10125,-0.7025l-3.05625,-0.88125l-3.00125,-1.0775l-2.89875,-1.2775l0.15,-0.34375" id="path26"/>
   <path fill="#d5e4dc" fill-rule="nonzero" d="m451.830793,485.993123c0,0 0.32125,-0.20875 0.92375,-0.6c0.61625,-0.3575 1.475,-0.965 2.65375,-1.57625c1.17125,-0.63375 2.6,-1.43625 4.28875,-2.1775c1.6775,-0.79125 3.60125,-1.64 5.765,-2.38125c2.15125,-0.7925 4.5225,-1.58875 7.1075,-2.16875c2.5675,-0.655 5.33875,-1.21625 8.25625,-1.55125c2.9175,-0.33375 5.9875,-0.51875 9.1325,-0.36375c3.1475,0.06375 6.36,0.5675 9.55,1.2175c3.15125,0.8 6.3525,1.76375 9.225,3.185l0.4925,0.22875l0.58,0.3025l1.17,0.635c0.8,0.43 1.4675,0.885 2.145,1.335c0.6875,0.4375 1.34375,0.905 1.97125,1.4c0.6375,0.48 1.2575,0.97375 1.83125,1.505c2.37875,2.03 4.31875,4.33125 5.9375,6.60125c1.64875,2.25 2.925,4.545 3.87875,6.735c0.5125,1.07625 0.92125,2.14 1.295,3.15c0.31125,1.04125 0.64,2 0.8725,2.92875c0.5175,1.8325 0.7525,3.48375 0.93625,4.82125c0.1725,1.325 0.21625,2.435 0.2225,3.13625c-0.00125,0.7175 -0.00125,1.1 -0.00125,1.1l-0.60125,0.17c0,0 -0.10625,-0.3525 -0.30375,-1.01375c-0.1825,-0.67 -0.51,-1.6 -0.94375,-2.81c-0.4525,-1.195 -1.03625,-2.63375 -1.80875,-4.235c-0.775,-1.6 -1.7325,-3.36375 -2.90625,-5.20625c-1.1475,-1.85875 -2.58875,-3.745 -4.23,-5.6275c-1.64125,-1.8825 -3.5625,-3.7025 -5.7325,-5.3425c-2.16875,-1.645 -4.575,-3.1025 -7.17375,-4.25375c-2.61875,-1.16875 -5.42125,-1.96875 -8.24375,-2.6525c-2.84125,-0.61125 -5.71875,-1.09625 -8.58625,-1.2725c-1.4275,-0.1525 -2.85625,-0.1225 -4.26125,-0.19375c-1.40875,0.025 -2.80125,0.00875 -4.16875,0.08625c-2.73625,0.14 -5.38,0.36625 -7.87,0.73c-2.495,0.325 -4.83875,0.74875 -6.9925,1.1875c-1.08,0.2025 -2.105,0.445 -3.08375,0.6625c-0.98125,0.20875 -1.90875,0.41875 -2.775,0.64c-1.74,0.4125 -3.24375,0.82 -4.4825,1.15625c-2.47625,0.68625 -3.8875,1.11125 -3.8875,1.11125l-0.1825,-0.59875" id="path28"/>
   <path fill="#d5e4dc" fill-rule="nonzero" d="m281.18204,516.174373c0,0 0.63125,0.09375 1.81625,0.2675c1.18125,0.1825 2.92625,0.4075 5.125,0.78125c1.10125,0.17125 2.31875,0.4025 3.64875,0.575c1.3325,0.105 2.76,0.26375 4.285,0.41c1.5175,0.15125 3.13375,0.31125 4.83625,0.48125c1.7025,0.1425 3.52375,0.165 5.4,0.25875c1.88375,0.06 3.835,0.2 5.86,0.20375c2.02625,-0.02875 4.12,-0.0575 6.2725,-0.0875c1.075,-0.0175 2.1625,-0.0125 3.26375,-0.05c1.10125,-0.0825 2.215,-0.165 3.3425,-0.24875c2.25,-0.19875 4.55125,-0.255 6.885,-0.46625c2.32875,-0.27375 4.69625,-0.55125 7.0925,-0.8325c1.1975,-0.13875 2.40375,-0.26375 3.605,-0.495c1.20625,-0.1875 2.41875,-0.375 3.63625,-0.56375c4.88125,-0.64875 9.77625,-1.78 14.69125,-2.7425c4.8875,-1.14375 9.8025,-2.17125 14.57,-3.53125c4.79125,-1.23875 9.49,-2.58 14.03625,-3.885c2.27,-0.665 4.47625,-1.4125 6.67,-2.04c2.18875,-0.64375 4.32875,-1.28 6.395,-1.9625c4.15125,-1.32375 8.07625,-2.575 11.69875,-3.73c3.62875,-1.16625 6.95625,-2.235 9.905,-3.1825c2.96,-0.935 5.54,-1.75 7.665,-2.42c2.12125,-0.685 3.815,-1.155 4.95875,-1.505c1.1475,-0.34125 1.76,-0.52375 1.76,-0.52375l0.14,0.3475c0,0 -2.355,0.95625 -6.47875,2.62875c-2.065,0.82625 -4.57375,1.83125 -7.45125,2.9825c-2.875,1.15375 -6.13125,2.43 -9.69875,3.78125c-3.55375,1.38875 -7.4375,2.80125 -11.54875,4.29c-2.0475,0.765 -4.17375,1.48875 -6.34875,2.2225c-2.175,0.73125 -4.3875,1.5125 -6.6575,2.245c-4.5575,1.4075 -9.24375,2.94375 -14.09,4.22375c-4.8075,1.42125 -9.7825,2.51375 -14.73,3.72125c-5.00375,0.94125 -9.9825,2.03125 -14.9625,2.6475c-4.9475,0.82875 -9.87625,1.1575 -14.62875,1.6175c-2.38125,0.145 -4.73125,0.18125 -7.0275,0.275c-1.1475,0.04 -2.28375,0.07875 -3.40625,0.1175c-1.1225,-0.00625 -2.23125,-0.055 -3.325,-0.08c-2.1875,-0.06 -4.31625,-0.12 -6.37375,-0.1775c-2.055,-0.11375 -4.0325,-0.3625 -5.935,-0.52625c-1.89875,-0.2025 -3.72875,-0.3075 -5.45,-0.57c-1.7175,-0.29 -3.3475,-0.565 -4.87875,-0.82375c-1.53125,-0.25875 -2.96375,-0.5 -4.28875,-0.725c-1.31125,-0.27875 -2.5,-0.60625 -3.58125,-0.86375c-4.31875,-1.06875 -6.78625,-1.68 -6.78625,-1.68l0.08875,-0.365" id="path30"/>
   <path fill="#d5e4dc" fill-rule="nonzero" d="m664.214546,522.604373c0,0 -0.49,-0.12 -1.40625,-0.34375c-0.90375,-0.25125 -2.25625,-0.56375 -3.92375,-1.0725c-1.675,-0.49375 -3.7225,-1.0675 -6.01375,-1.83875c-2.30875,-0.74 -4.90875,-1.58 -7.6925,-2.60875c-0.69875,-0.25 -1.4125,-0.505 -2.14,-0.76625c-0.7375,-0.275 -1.49,-0.55625 -2.255,-0.8425c-1.48875,-0.54 -3.035,-1.26625 -4.5675,-1.79125c-3.0575,-1.16125 -6.35375,-2.2675 -9.71875,-3.49625c-1.7,-0.545 -3.41,-1.1625 -5.16625,-1.67125c-0.87625,-0.25375 -1.75875,-0.50875 -2.645,-0.765c-0.87625,-0.29 -1.76375,-0.54125 -2.6575,-0.775c-0.89125,-0.2425 -1.785,-0.4875 -2.68375,-0.73125c-0.8975,-0.21875 -1.79875,-0.4375 -2.7025,-0.6575c-1.8,-0.48 -3.61875,-0.8 -5.43125,-1.16125c-3.61875,-0.6725 -7.25125,-1.19375 -10.78125,-1.36375c-0.8875,-0.0675 -1.76875,-0.105 -2.63375,-0.0925c-0.8675,-0.00875 -1.7425,-0.055 -2.59875,-0.03875c-1.70125,0.0825 -3.39875,0.135 -5.0175,0.39375l-1.22375,0.15l-1.18125,0.24625c-0.77375,0.19375 -1.5875,0.26625 -2.33875,0.47625c-0.76,0.2 -1.5125,0.39625 -2.25625,0.59125l-0.14,0.03625l-0.07,0.0175c-0.05,0.01875 0.30375,-0.135 0.13625,-0.0625l-0.03875,0.01375l-0.30375,0.1125l-0.6075,0.225c-0.4025,0.14875 -0.80375,0.29625 -1.20125,0.44375c-0.8675,0.29375 -1.4,0.5875 -2.04375,0.87c-0.625,0.2675 -1.24625,0.56125 -1.8925,0.91125c-1.305,0.62 -2.485,1.37375 -3.64625,2.08875c-2.22875,1.54875 -4.22875,3.1425 -5.9125,4.70375c-1.665,1.57625 -3.05125,3.07625 -4.15125,4.36375c-1.0825,1.29875 -1.92125,2.3625 -2.455,3.115c-0.52625,0.75 -0.8075,1.15 -0.8075,1.15l-0.595,-0.19125c0,0 0.1675,-0.49625 0.5425,-1.34375c0.38375,-0.85 0.95,-2.095 1.82125,-3.59875c0.87375,-1.49875 1.9775,-3.305 3.48125,-5.2075c1.49375,-1.90625 3.3325,-3.9475 5.59375,-5.9075c2.27375,-1.92625 4.9875,-3.77125 8.0625,-5.28875c3.04375,-1.55 6.5475,-2.6325 10.2025,-3.345c3.66375,-0.74625 7.53625,-0.975 11.44125,-0.8725c3.91625,0.04875 7.86125,0.58125 11.76375,1.2625c1.94125,0.39875 3.8875,0.7775 5.78875,1.30375c1.91875,0.45875 3.79875,1.025 5.65875,1.6025c3.72375,1.1425 7.3125,2.48625 10.75375,3.85625c1.7175,0.69125 3.3775,1.44 5.01875,2.135c1.6325,0.71375 3.2,1.48625 4.74125,2.1975c3.0725,1.45625 5.86625,2.97625 8.53625,4.24625c10.5775,5.255 17.63,8.75875 17.63,8.75875l-0.2725,0.5625" id="path32"/>
   <path fill="#d5e4dc" fill-rule="nonzero" d="m741.720797,540.850624c0,0 -0.385,0.01125 -1.10625,0.0325c-0.72125,0.01125 -1.78375,0.07375 -3.125,0.06375c-1.3425,0.0025 -2.975,0.0225 -4.83875,-0.03c-1.87,-0.10875 -3.99,-0.26125 -6.3,-0.4925c-1.16,-0.1075 -2.3675,-0.21875 -3.6175,-0.335c-1.24125,-0.1525 -2.50125,-0.39625 -3.81125,-0.6c-2.60625,-0.45125 -5.3925,-0.81875 -8.205,-1.47875c-2.8025,-0.69 -5.73125,-1.305 -8.65625,-2.11375c-1.47625,-0.36125 -2.93,-0.82875 -4.39375,-1.29c-1.46375,-0.45875 -2.9325,-0.92 -4.4025,-1.38c-1.4575,-0.49625 -2.915,-0.99125 -4.3675,-1.485c-1.44875,-0.5025 -2.85625,-1.09375 -4.2725,-1.63125c-2.83,-1.0775 -5.555,-2.29125 -8.22125,-3.38125c-2.6475,-1.13375 -5.1125,-2.44875 -7.48375,-3.6075c-2.36875,-1.16125 -4.5825,-2.31375 -6.6025,-3.41625c-3.99375,-2.30625 -7.2475,-4.35875 -9.50375,-5.82125c-1.13625,-0.71375 -1.995,-1.34 -2.595,-1.7375c-0.59625,-0.40625 -0.9125,-0.6225 -0.9125,-0.6225l0.16625,-0.335c0,0 5.50875,2.58375 13.77,6.46c2.10125,0.8875 4.3775,1.84875 6.78625,2.86625c2.415,0.9975 4.9375,2.11125 7.59,3.1525c2.6725,0.9925 5.435,2.0175 8.24,3.05875c1.4075,0.50875 2.8075,1.07125 4.24625,1.545c1.44125,0.46375 2.8875,0.93 4.335,1.39625c1.4425,0.47625 2.88625,0.9525 4.32375,1.4275c1.43625,0.4775 2.865,0.9625 4.31375,1.34125c2.88,0.80875 5.715,1.60625 8.45875,2.37625c2.7525,0.73625 5.45375,1.29 7.99375,1.9c1.27375,0.29 2.5125,0.5725 3.71125,0.845c1.2075,0.22 2.375,0.4325 3.49625,0.63625c2.2425,0.405 4.29875,0.7775 6.12125,1.10625c1.83875,0.2425 3.44125,0.455 4.76125,0.62875c2.64,0.35 4.15,0.54875 4.15,0.54875l-0.04875,0.3725" id="path34"/>
   <path fill="#d5e4dc" fill-rule="nonzero" d="m682.779546,519.316873c0,0 -3.325,-0.37375 -8.13,-1.47125c-1.20375,-0.27125 -2.50875,-0.54625 -3.86375,-0.9375c-1.35625,-0.4075 -2.7925,-0.825 -4.255,-1.33125c-1.46125,-0.505 -2.99875,-0.96125 -4.51625,-1.545c-1.52375,-0.565 -3.08875,-1.1075 -4.59375,-1.76375c-1.50125,-0.6725 -3.0025,-1.345 -4.48,-2.0075c-1.48375,-0.64875 -2.89875,-1.3875 -4.29125,-2.0475c-0.69125,-0.3425 -1.3825,-0.65125 -2.0325,-1.0125c-0.64625,-0.36875 -1.2775,-0.72875 -1.8925,-1.08125c-1.23625,-0.6875 -2.38,-1.39 -3.43375,-2.0375c-4.22875,-2.57 -6.8625,-4.61 -6.8625,-4.61l0.11125,-0.22375c0,0 2.9575,1.38875 7.39375,3.47375c1.10875,0.52125 2.31,1.085 3.58,1.6825c1.265,0.61125 2.61125,1.22375 4.03,1.80375c2.8175,1.1975 5.825,2.47375 8.83125,3.75125c1.4875,0.67625 3.0175,1.24625 4.51375,1.83375c1.4975,0.58375 2.97,1.15875 4.39625,1.71625c1.42625,0.55625 2.805,1.095 4.1125,1.605c1.3175,0.4825 2.58,0.8975 3.7375,1.3025c4.635,1.5975 7.725,2.6625 7.725,2.6625l-0.08,0.2375" id="path36"/>
   <path fill="#d5e4dc" fill-rule="nonzero" d="m647.449546,499.688123c0,0 -0.4725,-0.1725 -1.3575,-0.49625c-0.8825,-0.33125 -2.19625,-0.77625 -3.82625,-1.425c-1.63625,-0.64125 -3.62125,-1.38625 -5.8875,-2.31c-2.2675,-0.9475 -4.83125,-1.82 -7.575,-2.90375c-2.8025,-0.975 -5.8275,-2.02375 -9.04,-3.0475c-3.2175,-1.01375 -6.64625,-1.90875 -10.175,-2.81625c-1.77875,-0.38375 -3.58125,-0.8075 -5.4175,-1.1325c-1.84125,-0.28875 -3.69,-0.6525 -5.565,-0.875c-3.7425,-0.545 -7.56375,-0.75125 -11.33875,-0.6475c-1.895,-0.01875 -3.7625,0.16125 -5.6275,0.31625c-1.84125,0.27 -3.68375,0.51625 -5.455,0.9725c-0.9025,0.1725 -1.7675,0.445 -2.63,0.70875l-1.30125,0.36875l-0.1625,0.04625l-0.08125,0.02375c-0.185,0.07125 0.20625,-0.08625 0.15,-0.06375l-0.0425,0.0175l-0.33625,0.13625l-0.67125,0.27125c-0.8925,0.36125 -1.78125,0.72 -2.6625,1.07625c-0.7975,0.38375 -1.4375,0.80625 -2.165,1.19375l-1.0625,0.58375c-0.35,0.215 -0.68875,0.49 -1.0325,0.73c-0.68125,0.50125 -1.3725,0.9775 -2.0625,1.4475c-0.63625,0.54625 -1.265,1.0875 -1.8875,1.62125l-0.93125,0.8l-0.84375,0.88c-0.5625,0.58375 -1.11625,1.16 -1.66375,1.7275c-0.50375,0.6125 -1.00125,1.21625 -1.49,1.80875c-1.04,1.14375 -1.83625,2.425 -2.71375,3.575c-1.5875,2.41625 -2.99875,4.705 -4.0975,6.82875c-0.565,1.055 -1.055,2.0625 -1.50375,3.0025c-0.47,0.93125 -0.85125,1.81 -1.2,2.605c-0.68125,1.59375 -1.215,2.86 -1.54375,3.7375c-0.325,0.86375 -0.4925,1.37 -0.4925,1.37l-0.3575,-0.115c0,0 0.10875,-0.4825 0.315,-1.3875c0.22875,-0.91125 0.5725,-2.24625 1.105,-3.915c0.2675,-0.835 0.56,-1.76 0.93625,-2.7475c0.34625,-0.99875 0.77,-2.06 1.2475,-3.18375c0.92625,-2.26 2.15875,-4.73 3.65,-7.3425c0.82375,-1.2575 1.565,-2.6475 2.5675,-3.9275c0.48,-0.655 0.9675,-1.32125 1.4625,-1.9975c0.54875,-0.63375 1.10625,-1.2775 1.67125,-1.93c0.2825,-0.3275 0.5675,-0.655 0.85375,-0.98625l0.955,-0.915c0.64125,-0.61125 1.29125,-1.23125 1.9475,-1.8575c0.71875,-0.555 1.445,-1.11625 2.17875,-1.68375c0.37125,-0.2775 0.725,-0.58125 1.115,-0.84l1.215,-0.73125c0.81875,-0.47625 1.62375,-1.01 2.4725,-1.4475c0.87,-0.38375 1.74625,-0.77 2.6275,-1.15875c0.45625,-0.185 0.85125,-0.41 1.35875,-0.56375l1.39875,-0.45c0.93125,-0.31125 1.87125,-0.60875 2.84125,-0.81125c1.915,-0.5175 3.88875,-0.8125 5.8675,-1.12375c1.9925,-0.195 3.9925,-0.40875 6.00375,-0.41625c4.015,-0.07 8.035,0.21125 11.9325,0.825c3.91375,0.54 7.695,1.4475 11.3275,2.39c3.6125,1.0225 7.0675,2.13625 10.29125,3.33375c1.60125,0.62625 3.1775,1.1875 4.66875,1.81625c1.48875,0.63125 2.92625,1.2425 4.3075,1.82875c2.7175,1.2725 5.23625,2.38875 7.39125,3.5175c2.17,1.1025 4.0625,2.0625 5.62125,2.85375c3.11125,1.59125 4.89,2.5 4.89,2.5l-0.17,0.335" id="path38"/>
   <path fill="#d5e4dc" fill-rule="nonzero" d="m777.545798,527.370623c0,0 -0.655,0.2125 -1.8075,0.54375c-0.5775,0.15875 -1.27875,0.35 -2.08375,0.57c-0.8,0.23125 -1.73375,0.39 -2.745,0.58875c-1.01375,0.19125 -2.115,0.4175 -3.28625,0.5875c-1.17,0.1425 -2.405,0.305 -3.6875,0.42375c-1.28125,0.1425 -2.60625,0.27375 -3.95875,0.29c-1.35125,0.045 -2.72375,0.09125 -4.09625,0.13625c-1.4475,-0.01625 -2.74375,-0.1075 -4.1025,-0.15625c-1.33875,-0.045 -2.65375,-0.1625 -3.92875,-0.2375c-1.275,-0.07875 -2.50375,-0.1575 -3.67625,-0.36875c-1.17125,-0.16875 -2.275,-0.36 -3.29125,-0.53875c-4.07,-0.69875 -6.7225,-1.38125 -6.7225,-1.38125c0,0 2.76625,-0.15125 6.82375,-0.05125c1.01625,0.02125 2.11375,0.04625 3.27,0.10625c1.15125,0.08625 2.3925,0.01625 3.6675,0.03375c1.2775,0.01125 2.5975,-0.01875 3.93625,0.025c1.32,0.02125 2.745,0.08 4.0175,0.07125c1.34875,-0.0175 2.6975,-0.03375 4.02625,-0.05c0.66375,-0.0125 1.3225,-0.0075 1.975,0.00125c0.65,-0.02375 1.2925,-0.0475 1.925,-0.07125c1.26375,-0.0575 2.49,-0.065 3.65375,-0.085c1.15875,-0.05375 2.25375,-0.105 3.265,-0.15125c1.01375,-0.0625 1.95,-0.03625 2.7825,-0.11125c0.8325,-0.04625 1.55875,-0.08625 2.15625,-0.11875c1.19875,-0.05 1.8875,-0.05625 1.8875,-0.05625" id="path40"/>
   <path fill="#f9aa43" fill-rule="nonzero" d="m481.259543,748.629377l-131.388752,0c-27.72875,0 -50.207501,23.2325 -50.207501,51.890001c0,28.6575 22.47875,51.888751 50.207501,51.888751l131.388752,0l0,-103.778752" id="path42"/>
   <path fill="#f79213" fill-rule="nonzero" d="m360.679542,800.519378c0,-25.73375 17.89375,-47.217501 41.495001,-51.890001l-26.5975,0c-15.56625,11.6425 -25.72125,30.55875 -25.72125,51.890001c0,21.33125 10.155,40.246251 25.72125,51.888751l26.6,0c-23.6025,-4.67125 -41.497501,-26.155 -41.497501,-51.888751" id="path44"/>
   <path fill="#ffffff" fill-rule="nonzero" d="m735.753297,800.200628c0,-20.20625 10.53125,-37.672501 25.8175,-45.987501l-291.506254,0c-25.39875,0 -45.987501,20.59 -45.987501,45.987501c0,25.39875 20.58875,45.988751 45.987501,45.988751l291.506254,0c-15.28625,-8.31625 -25.8175,-25.78125 -25.8175,-45.988751" id="path46"/>
   <g transform="matrix(0.12500000186264515,0,0,-0.12500000186264515,0,1000) " id="g48">
    <g id="g50" clip-path="url(#clipPath52)">
     <path fill="#d5e4dc" fill-rule="nonzero" d="m3311.796294,1850.454946l2873.98,0l0,84.7695l-2873.98,0l0,-84.7695z" id="path56"/>
     <path fill="#d5e4dc" fill-rule="nonzero" d="m3311.796294,1654.154946l2873.98,0l0,84.7695l-2873.98,0l0,-84.7695z" id="path58"/>
     <path fill="#d5e4dc" fill-rule="nonzero" d="m3311.796294,1457.854946l2873.98,0l0,84.7695l-2873.98,0l0,-84.7695z" id="path60"/>
     <path fill="#d5e4dc" fill-rule="nonzero" d="m3311.796294,1261.554946l2873.98,0l0,84.7695l-2873.98,0l0,-84.7695z" id="path62"/>
    </g>
   </g>
   <path fill="#f79213" fill-rule="nonzero" d="m768.043298,747.004377l-297.978754,0c-14.7325,-0.0025 -28.14375,5.95375 -37.805001,15.565c-9.67125,9.5975 -15.68625,22.95125 -15.6825,37.631251c-0.00375,14.68 6.01125,28.035 15.6825,37.632501c9.66125,9.61 23.0725,15.5675 37.805001,15.56375l297.978754,0l0,-15l-297.978754,0c-10.66625,-0.00375 -20.24875,-4.27625 -27.23125,-11.20375c-6.9725,-6.94125 -11.2525,-16.435 -11.25625,-26.9925c0.00375,-10.5575 4.28375,-20.05 11.25625,-26.99125c6.9825,-6.92875 16.565,-11.20125 27.23125,-11.205l297.978754,0l0,-15" id="path64"/>
   <path fill="#60bdaf" fill-rule="nonzero" d="m614.518295,644.040625l136.145002,0c28.73375,0 52.026251,23.29375 52.026251,52.026251c0,28.7325 -23.2925,52.025001 -52.026251,52.025001l-136.145002,0l0,-104.051252" id="path66"/>
   <path fill="#60bdaf" fill-rule="nonzero" d="m561.817045,644.040625l136.145002,0c28.7325,0 52.025001,23.29375 52.025001,52.026251c0,28.7325 -23.2925,52.025001 -52.025001,52.025001l-136.145002,0l0,-104.051252" id="path68"/>
   <path fill="#449c91" fill-rule="nonzero" d="m709.350797,644.040625l-20.5175,0c25.42125,0 46.028751,23.29375 46.028751,52.026251c0,28.7325 -20.6075,52.025001 -46.028751,52.025001l20.5175,0c18.86125,0 39.788751,-23.2925 39.788751,-52.025001c0,-28.7325 -21.295,-52.026251 -39.788751,-52.026251" id="path70"/>
   <path fill="#449c91" fill-rule="nonzero" d="m740.030797,644.040625l-20.51875,0c25.42125,0 46.030001,23.29375 46.030001,52.026251c0,28.7325 -20.60875,52.025001 -46.030001,52.025001l20.51875,0c18.86125,0 39.787501,-23.2925 39.787501,-52.025001c0,-28.7325 -21.29375,-52.026251 -39.787501,-52.026251" id="path72"/>
   <path fill="#ffffff" fill-rule="nonzero" d="m362.390792,696.248126c0,-20.20625 -10.53125,-37.672501 -25.8175,-45.987501l291.506254,0c25.39875,0 45.987501,20.59 45.987501,45.987501c0,25.39875 -20.58875,45.987501 -45.987501,45.987501l-291.506254,0c15.28625,-8.315 25.8175,-25.78 25.8175,-45.987501" id="path74"/>
   <g transform="matrix(0.12500000186264515,0,0,-0.12500000186264515,0,1000) " id="g76">
    <g id="g78" clip-path="url(#clipPath80)">
     <path fill="#d5e4dc" fill-rule="nonzero" d="m2592.976294,2451.354946l2873.97,0l0,50.6289l-2873.97,0l0,-50.6289z" id="path84"/>
     <path fill="#d5e4dc" fill-rule="nonzero" d="m2592.976294,2578.974946l2873.97,0l0,50.6289l-2873.97,0l0,-50.6289z" id="path86"/>
     <path fill="#d5e4dc" fill-rule="nonzero" d="m2592.976294,2706.604946l2873.97,0l0,50.6289l-2873.97,0l0,-50.6289z" id="path88"/>
     <path fill="#d5e4dc" fill-rule="nonzero" d="m2592.976294,2334.094946l2873.97,0l0,50.6289l-2873.97,0l0,-50.6289z" id="path90"/>
     <path fill="#d5e4dc" fill-rule="nonzero" d="m2592.976294,2216.844946l2873.97,0l0,50.6328l-2873.97,0l0,-50.6328z" id="path92"/>
     <path fill="#d5e4dc" fill-rule="nonzero" d="m2592.976294,2099.584946l2873.97,0l0,50.6406l-2873.97,0l0,-50.6406z" id="path94"/>
    </g>
   </g>
   <path fill="#449c91" fill-rule="nonzero" d="m330.100791,658.051875l297.978754,0c10.66625,0.00375 20.24875,4.27625 27.2325,11.205c6.9725,6.94125 11.25125,16.43375 11.255,26.99125c-0.00375,10.5575 -4.2825,20.05125 -11.255,26.9925c-6.98375,6.9275 -16.56625,11.2 -27.2325,11.20375l-297.978754,0l0,15l297.978754,0c14.7325,0.00375 28.14375,-5.95375 37.805001,-15.56375c9.67125,-9.5975 15.6875,-22.9525 15.6825,-37.632501c0.005,-14.68 -6.01125,-28.03375 -15.6825,-37.632501c-9.66125,-9.61 -23.0725,-15.56625 -37.805001,-15.56375l-297.978754,0l0,15" id="path96"/>
   <path fill="#449c91" fill-rule="nonzero" d="m806.178298,568.274374l-233.107503,-56.282501l-1.76625,7.28c-1.64,6.7525 -5.4325,13.015 -11.1275,17.58375c-2.85375,2.28625 -6.18875,4.165 -10.05,5.4875c-3.86125,1.32125 -8.255,2.09 -13.2375,2.09125c-4.90625,-0.00125 -9.30375,-0.82875 -13.22,-2.24125c-5.87,-2.11875 -10.6825,-5.5775 -14.2825,-9.65375c-3.6,-4.06875 -5.93625,-8.75875 -6.8725,-13.095l-1.56375,-7.1825l-239.110004,47.037501l2.895,14.7175l231.897503,-45.617501l-1.4475,-7.35875l-7.3275,1.595c1.02875,4.72 2.95125,9.33375 5.65,13.63875c4.05125,6.45 9.87375,12.22375 17.22625,16.415c7.345,4.19 16.2375,6.75125 26.155,6.745c6.535,0.00125 12.60875,-1.01875 18.0975,-2.9c8.2375,-2.81625 15.12375,-7.57125 20.33125,-13.46c5.21375,-5.89 8.77375,-12.89125 10.56375,-20.265l-7.28875,-1.76875l-1.76,7.29l225.825003,54.525001l3.52,-14.58125" id="path98"/>
   <path fill="#449c91" fill-rule="nonzero" d="m571.418295,529.416874c-4.09875,-4.0525 -9.10875,-7.41375 -14.9125,-9.745c-5.8025,-2.33375 -12.39125,-3.6325 -19.61625,-3.63125c-7.435,-0.0025 -14.235,1.49375 -20.185,4.06c-5.9525,2.565 -11.0525,6.19 -15.17,10.42375l7.16875,6.9725c3.23125,-3.3225 7.2475,-6.1825 11.96,-8.2125c4.71375,-2.03 10.125,-3.2425 16.22625,-3.24375c6.03375,0.00125 11.31625,1.07375 15.8875,2.91c4.57,1.8375 8.43625,4.4425 11.6125,7.57875l7.02875,-7.1125" id="path100"/>
   <path fill="#292a35" fill-rule="nonzero" d="m536.889544,521.040623c-13.53625,0 -24.4225,5.415 -31.77,12.97c0,0 13.01,19.8325 33.46,19.56c25.62875,-2.18125 29.325,-20.5975 29.325,-20.5975c-7.275,-7.18875 -17.755,-11.9325 -31.015,-11.9325" id="path102"/>
   <path fill="#449c91" fill-rule="nonzero" d="m730.262047,696.066876c0,14.095 -9.49,25.52 -21.19625,25.52c-11.70625,0 -21.195,-11.425 -21.195,-25.52c0,-14.095 9.48875,-25.52125 21.195,-25.52125c11.70625,0 21.19625,11.42625 21.19625,25.52125" id="path104"/>
   <path fill="#ef313f" fill-rule="nonzero" d="m322.022041,642.709375l404.060006,0l0,-76.886251l-404.060006,0l0,76.886251z" id="path106"/>
   <path fill="#c11e25" fill-rule="nonzero" d="m377.417042,642.709375l34.759751,0l0,-76.886251l-34.759751,0l0,76.886251z" id="path108"/>
   <path fill="#c11e25" fill-rule="nonzero" d="m439.135793,642.709375l10.477538,0l0,-76.886251l-10.477538,0l0,76.886251z" id="path110"/>
   <path fill="#c11e25" fill-rule="nonzero" d="m422.440793,642.709375l10.477538,0l0,-76.886251l-10.477538,0l0,76.886251z" id="path112"/>
   <path fill="#ea232c" fill-rule="nonzero" d="m726.082047,601.668125l-276.468754,0l0,-35.845001l276.468754,0l0,35.845001m-286.946254,0l-6.2175,0l0,-35.845001l6.2175,0l0,35.845001" id="path114"/>
   <path fill="#b41d24" fill-rule="nonzero" d="m439.135793,601.668125l10.477538,0l0,-35.844751l-10.477538,0l0,35.844751z" id="path116"/>
   <path fill="#ea232c" fill-rule="nonzero" d="m422.440793,601.668125l-10.26375,0l0,-35.845001l10.26375,0l0,35.845001m-45.023751,0l-55.395001,0l0,-35.845001l55.395001,0l0,35.845001" id="path118"/>
   <path fill="#b41d24" fill-rule="nonzero" d="m377.417042,601.668125l34.759751,0l0,-35.844751l-34.759751,0l0,35.844751z" id="path120"/>
   <path fill="#b41d24" fill-rule="nonzero" d="m422.440793,601.668125l10.477538,0l0,-35.844751l-10.477538,0l0,35.844751z" id="path122"/>
   <path fill="#ef313f" fill-rule="nonzero" d="m433.607043,500.675623c0,0 14.36,-7.08875 31.0825,-9.815c0,0 -6.81625,26.72 -5.18,46.896251l-14.99625,-12.815l-12.815,19.63125c0,0 -4.3625,-28.62875 1.90875,-43.897501" id="path124"/>
   <path fill="#ef6e28" fill-rule="nonzero" d="m286.177041,389.561871c-2.405,1.37625 -4.67875,2.96375 -6.7825,4.7575c18.20125,1.86375 36.542501,1.43 54.468751,-2.25c-2.15625,-1.55625 -4.465,-2.9225 -6.90125,-4.07875c-13.41125,2.8525 -27.26125,3.64375 -40.785001,1.57125" id="path136"/>
   <path fill="#dc2e23" fill-rule="nonzero" d="m326.962041,387.990621c-4.245,-2.01375 -8.88375,-3.38125 -13.81,-3.95375c-9.73,-1.13 -19.08,1.0075 -26.975,5.525c13.52375,2.0725 27.37375,1.28125 40.785001,-1.57125" id="path138"/>
   <path fill="#ef6e28" fill-rule="nonzero" d="m350.989541,417.558122c-0.4575,-1.8925 -1.0325,-3.74375 -1.7275,-5.54c-7.17,0.9775 -14.44625,1.7475 -21.965,2.285c-20.2825,1.26875 -39.876251,-1.1125 -58.941251,-5.75c-0.80625,1.6525 -1.5125,3.36625 -2.11375,5.135c27.8125,7.66125 56.527501,8.235 84.747501,3.87" id="path140"/>
   <path fill="#dc2e23" fill-rule="nonzero" d="m349.073291,441.801872c0.3175,-0.055 0.64125,-0.11 0.96,-0.16375c0.9,-2.75875 1.54125,-5.6475 1.88875,-8.64c0.6175,-5.31875 0.25625,-10.52375 -0.9325,-15.44c-28.22,4.365 -56.935001,3.79125 -84.747501,-3.87c-0.985,2.9025 -1.6825,5.95125 -2.05,9.12c-0.80875,6.9575 0.055,13.72125 2.25875,19.9c27.2975,3.59375 54.585001,2.97125 82.622501,-0.90625" id="path142"/>
   <path fill="#ef6e28" fill-rule="nonzero" d="m350.033291,441.638122c-0.31875,0.05375 -0.6425,0.10875 -0.96,0.16375c-28.0375,3.8775 -55.325001,4.5 -82.622501,0.90625c0.61625,1.7275 1.34375,3.40625 2.16375,5.03375c26.25,2.7475 52.896251,2.9 79.031251,-0.27c0.92375,-1.87 1.72875,-3.815 2.3875,-5.83375" id="path144"/>
   <path fill="#dc2e23" fill-rule="nonzero" d="m302.962041,471.768123c4.92875,0.5725 9.7575,0.30375 14.3525,-0.6825c-9.96125,-1.68 -19.97375,-3.085 -30.07375,-4.23c4.74875,2.5425 10.045,4.2525 15.72125,4.9125" id="path146"/>
   <path fill="#ef6e28" fill-rule="nonzero" d="m287.240791,466.855623c10.1,1.145 20.1125,2.55 30.07375,4.23c5.7025,-1.2225 11.0375,-3.56125 15.74,-6.795c-16.95375,-1.53625 -33.887501,-2.08625 -50.657501,-0.4575c1.54125,1.105 3.15625,2.11875 4.84375,3.0225" id="path148"/>
   <path fill="#dc2e23" fill-rule="nonzero" d="m347.645791,447.471872c-26.135,3.17 -52.781251,3.0175 -79.031251,0.27c3.21625,6.38125 7.95125,11.91625 13.7825,16.09125c16.77,-1.62875 33.703751,-1.07875 50.657501,0.4575c6.15,-4.23 11.21625,-9.9925 14.59125,-16.81875" id="path150"/>
   <path fill="#dc2e23" fill-rule="nonzero" d="m327.297041,414.303122c7.51875,-0.5375 14.795,-1.3075 21.965,-2.285c-3.0925,-7.99375 -8.45875,-14.94125 -15.39875,-19.94875c-17.92625,3.68 -36.267501,4.11375 -54.468751,2.25c-4.5675,3.8975 -8.35125,8.725 -11.03875,14.23375c19.065,4.6375 38.658751,7.01875 58.941251,5.75" id="path152"/>
   <path fill="#cf581e" fill-rule="nonzero" d="m350.957041,417.431872l0.0325,0.12625c0.5175,2.14 0.8675,4.3375 1.05875,6.5725c4.82625,3.1225 7.46,6.475 7.085,9.70375c-1.04125,8.96125 -24.7525,13.56875 -52.961251,10.2925c-28.2075,-3.27625 -50.231251,-13.19625 -49.191251,-22.15625c0.375,-3.22875 3.70625,-5.88875 9.11875,-7.8225c0.05,-0.1525 0.09125,-0.30875 0.1425,-0.46c0.60125,-1.76875 1.3075,-3.4825 2.11375,-5.135c0.1125,-0.23 0.2375,-0.45 0.3525,-0.67625c-14.6075,1.99 -24.275,6.42125 -24.9875,12.55375c-1.27125,10.95125 26.50125,23.175 62.032501,27.30125c35.532501,4.1275 65.367501,-1.405 66.640001,-12.3575c0.71125,-6.13 -7.68,-12.65875 -21.43625,-17.9425" id="path154"/>
   <path fill="#ffffff" fill-rule="nonzero" d="m325.882041,169.218118c1.65625,2.72875 0.78625,6.2825 -1.94125,7.93875l-42.391251,25.72875c-2.72875,1.65625 -6.2825,0.78625 -7.93875,-1.94125c-1.65625,-2.72875 -0.7875,-6.28375 1.94125,-7.94l42.391251,-25.72875c2.72875,-1.65625 6.2825,-0.78625 7.93875,1.9425" id="path156"/>
   <path fill="#ffffff" fill-rule="nonzero" d="m352.153291,226.873119l-29.6475,-48.846251c-2.79875,-4.61125 -8.80625,-6.08 -13.4175,-3.28125l-8.6275,5.23625l-5.5675,3.37875l-8.6275,5.23625c-4.61125,2.8 -6.08125,8.80625 -3.2825,13.41875l29.6475,48.846251l14.73375,80.750001c1.04625,5.50625 8.80625,6.08 13.4175,3.28125l33.677501,-20.44l5.56625,-3.37875l33.678751,-20.44c4.61125,-2.79875 7.43375,-9.22625 3.28125,-13.41875l-64.832501,-50.342501" id="path158"/>
   <path fill="#ef313f" fill-rule="nonzero" d="m350.240791,231.731869l-10.84625,-17.87125c-2.45375,-4.04125 -7.51,-5.455 -11.29625,-3.1575l-7.0825,4.29875l-4.56875,2.7725l-7.0825,4.29875c-3.785,2.2975 -4.865,7.43625 -2.4125,11.47875l10.84625,17.87l14.30625,69.928751c1.01,4.76875 7.51,5.455 11.295,3.1575l27.645,-16.77875l4.57,-2.77375l27.64375,-16.7775c3.785,-2.2975 5.98625,-7.765 2.4125,-11.47875l-55.430001,-44.967501" id="path160"/>
   <path fill="#ee5368" fill-rule="nonzero" d="m321.938291,233.976869c1.21375,1.99875 0.57625,4.60125 -1.42125,5.815c-1.99875,1.2125 -4.6025,0.57625 -5.815,-1.4225c-1.2125,-1.99875 -0.57625,-4.60125 1.4225,-5.815c1.9975,-1.2125 4.60125,-0.57625 5.81375,1.4225" id="path162"/>
   <path fill="#ee5368" fill-rule="nonzero" d="m385.942042,273.54062c2.2275,3.67 1.0575,8.45 -2.6125,10.6775c-3.67,2.2275 -8.45125,1.05875 -10.6775,-2.61125c-2.2275,-3.67 -1.05875,-8.45125 2.61125,-10.67875c3.67,-2.2275 8.45125,-1.0575 10.67875,2.6125" id="path164"/>
   <path fill="#ee5368" fill-rule="nonzero" d="m343.818291,229.551869c2.3325,3.84375 1.1075,8.84875 -2.735,11.18125c-3.8425,2.3325 -8.84875,1.10875 -11.18125,-2.735c-2.3325,-3.8425 -1.1075,-8.84875 2.735,-11.18125c3.8425,-2.3325 8.84875,-1.1075 11.18125,2.735" id="path166"/>
   <path fill="#ee5368" fill-rule="nonzero" d="m343.829541,256.395619c1.8425,3.03625 0.875,6.99125 -2.16125,8.83375c-3.035,1.8425 -6.99,0.875 -8.8325,-2.16c-1.8425,-3.03625 -0.875,-6.99125 2.16,-8.83375c3.03625,-1.8425 6.99125,-0.875 8.83375,2.16" id="path168"/>
   <path fill="#ffffff" fill-rule="nonzero" d="m744.893297,170.284368c0,2.9475 -2.39,5.3375 -5.3375,5.3375l-45.797501,0c-2.9475,0 -5.3375,-2.39 -5.3375,-5.3375c0,-2.9475 2.39,-5.3375 5.3375,-5.3375l45.797501,0c2.9475,0 5.3375,2.39 5.3375,5.3375" id="path170"/>
   <path fill="#ffffff" fill-rule="nonzero" d="m738.005797,242.726869l0,-67.105001c0,-4.9825 -4.03875,-9.02125 -9.02,-9.02125l-24.6575,0c-4.98125,0 -9.02125,4.03875 -9.02125,9.02125l0,67.105001l42.698751,0" id="path172"/>
   <path fill="#ffffff" fill-rule="nonzero" d="m764.140798,273.82187c0,26.225 -21.25875,47.483751 -47.483751,47.483751c-26.225,0 -47.483751,-21.25875 -47.483751,-47.483751c0,-26.22375 21.25875,-47.483751 47.483751,-47.483751c26.225,0 47.483751,21.26 47.483751,47.483751" id="path174"/>
   <path fill="#97d336" fill-rule="nonzero" d="m734.983297,237.416869l0,-46.237501c0,-4.27625 -3.46625,-7.7425 -7.74375,-7.7425l-21.165,0c-4.2775,0 -7.74375,3.46625 -7.74375,7.7425l0,46.237501c-13.30375,6.71 -22.43375,20.4875 -22.43375,36.405001c0,22.51125 18.24875,40.760001 40.760001,40.760001c22.51125,0 40.760001,-18.24875 40.760001,-40.760001c0,-15.9175 -9.13,-29.695 -22.43375,-36.405001" id="path176"/>
   <path fill="#b7e05e" fill-rule="nonzero" d="m725.047047,238.853119c0,2.15875 1.75,3.90875 3.91,3.90875c2.15875,0 3.90875,-1.75 3.90875,-3.90875c0,-2.15875 -1.75,-3.90875 -3.90875,-3.90875c-2.16,0 -3.91,1.75 -3.91,3.90875" id="path178"/>
   <path fill="#b7e05e" fill-rule="nonzero" d="m693.474547,300.75812c0,3.965 3.21375,7.17875 7.17875,7.17875c3.965,0 7.18,-3.21375 7.18,-7.17875c0,-3.965 -3.215,-7.17875 -7.18,-7.17875c-3.965,0 -7.17875,3.21375 -7.17875,7.17875" id="path180"/>
   <path fill="#b7e05e" fill-rule="nonzero" d="m705.653297,245.844369c0,4.15125 3.365,7.51625 7.51625,7.51625c4.1525,0 7.5175,-3.365 7.5175,-7.51625c0,-4.1525 -3.365,-7.5175 -7.5175,-7.5175c-4.15125,0 -7.51625,3.365 -7.51625,7.5175" id="path182"/>
   <path fill="#b7e05e" fill-rule="nonzero" d="m718.507047,267.04312c0,3.28 2.65875,5.93875 5.93875,5.93875c3.28,0 5.93875,-2.65875 5.93875,-5.93875c0,-3.28 -2.65875,-5.93875 -5.93875,-5.93875c-3.28,0 -5.93875,2.65875 -5.93875,5.93875" id="path184"/>
   <path fill="#e8eaeb" fill-rule="nonzero" d="m164.290789,368.298121c-27.0825,-8.33 -42.369126,-37.043751 -34.075626,-64.005001c7.11475,-23.13125 29.809375,-38.203751 53.963126,-35.840001l-1.0375,10.61c-19.1325,-1.87125 -37.104376,10.0575 -42.735251,28.36375c-6.565375,21.34375 5.556125,44.078751 27.02025,50.681251l-3.135,10.19" id="path186"/>
   <path fill="#574335" fill-rule="nonzero" d="m197.915789,242.419369c1.18375,2.2375 0.33125,5.01125 -1.90625,6.195l-12.915,6.84c-2.2375,1.18375 -5.01125,0.33125 -6.195,-1.90625l-2.9275,-5.5275c-1.18375,-2.23625 -0.33125,-5.01 1.90625,-6.195l12.915,-6.83875c2.2375,-1.185 5.01,-0.33125 6.195,1.905l2.9275,5.5275" id="path188"/>
   <path fill="#574335" fill-rule="nonzero" d="m218.183289,284.74062c0.99625,1.88 0.27875,4.2125 -1.6025,5.20875l-10.85875,5.75c-1.88,0.99625 -4.2125,0.27875 -5.20875,-1.6025l-2.46125,-4.6475c-0.995,-1.88 -0.2775,-4.2125 1.6025,-5.20875l10.85875,-5.75c1.88125,-0.99625 4.21375,-0.27875 5.20875,1.6025l2.46125,4.6475" id="path190"/>
   <path fill="#574335" fill-rule="nonzero" d="m187.920789,234.898119c0.6075,1.14625 0.17,2.5675 -0.97625,3.175l-7.475,3.95875c-1.14625,0.60625 -2.5675,0.16875 -3.175,-0.9775l-5.8925,-11.12875c-0.6075,-1.14625 -0.17,-2.5675 0.97625,-3.175l7.47375,-3.95875c1.1475,-0.60625 2.56875,-0.16875 3.17625,0.9775l5.8925,11.12875" id="path192"/>
   <path fill="#574335" fill-rule="nonzero" d="m192.232039,280.09812c0.6075,1.14625 0.17,2.56875 -0.97625,3.17625l-3.69875,1.95875c-1.1475,0.60625 -2.56875,0.17 -3.17625,-0.9775l-10.59375,-20.005c-0.60625,-1.1475 -0.17,-2.56875 0.9775,-3.17625l3.69875,-1.95875c1.14625,-0.6075 2.56875,-0.17 3.17625,0.9775l10.5925,20.005" id="path194"/>
   <path fill="#e8eaeb" fill-rule="nonzero" d="m217.707039,277.78187c1.185,2.23625 0.33125,5.01 -1.905,6.195l-14.58125,7.72125c-2.2375,1.18375 -5.01125,0.33125 -6.195,-1.90625l-19.83625,-37.457501c-1.18375,-2.2375 -0.33125,-5.01125 1.90625,-6.195l14.58125,-7.72125c2.23625,-1.185 5.01,-0.33125 6.195,1.905l19.835,37.458751" id="path196"/>
   <path fill="#6a574a" fill-rule="nonzero" d="m213.565789,394.580621c-0.54625,1.77625 -2.43,2.77375 -4.20625,2.2275l-66.619501,-20.49125c-1.776375,-0.5475 -2.774,-2.43 -2.227625,-4.20625l0.527875,-1.715c0.546375,-1.7775 2.42975,-2.77375 4.206125,-2.2275l66.619376,20.49125c1.77625,0.54625 2.77375,2.43 2.2275,4.20625l-0.5275,1.715" id="path198"/>
   <path fill="#574335" fill-rule="nonzero" d="m217.747039,406.369372c-0.75125,2.4425 -2.9275,3.94125 -4.86125,3.34625l-80.611626,-24.795c-1.934,-0.595 -2.8925,-3.0575 -2.141125,-5.5l0.725625,-2.35875c0.7515,-2.44375 2.92825,-3.94125 4.86225,-3.34625l80.611126,24.795c1.93375,0.595 2.8925,3.0575 2.14125,5.5l-0.72625,2.35875" id="path200"/>
   <path fill="#6a574a" fill-rule="nonzero" d="m183.857039,381.083121l-30.434375,-9.36125l11.033125,-35.868751l30.43375,9.36125l-11.0325,35.868751" id="path202"/>
   <path fill="#574335" fill-rule="nonzero" d="m175.185789,366.964371c-2.07625,6.75375 -9.235,10.54375 -15.98875,8.4675c-6.753375,-2.0775 -10.544375,-9.23625 -8.46675,-15.99c2.077125,-6.75375 9.2355,-10.54375 15.98925,-8.46625c6.75375,2.07625 10.54375,9.235 8.46625,15.98875" id="path204"/>
   <path fill="#574335" fill-rule="nonzero" d="m244.96204,359.871871c-0.345,1.125 -1.53875,1.7575 -2.66375,1.41125l-90.353251,-27.79125c-1.1255,-0.34625 -1.75725,-1.54 -1.411125,-2.665l0.3345,-1.0875c0.34625,-1.125 1.539125,-1.75625 2.664625,-1.41l90.352751,27.79125c1.125,0.34625 1.7575,1.53875 1.41125,2.665l-0.335,1.08625" id="path206"/>
   <path fill="#b2c1ba" fill-rule="nonzero" d="m477.459543,380.188121l1.07375,29.35875l32.2225,-30.91l-33.29625,1.55125" id="path208"/>
   <path fill="#ffffff" fill-rule="nonzero" d="m486.768293,380.426871l39.382501,32.93875l46.066251,-121.252502l-137.243752,63.967501l51.795001,24.34625" id="path210"/>
   <path fill="#d5e4dc" fill-rule="nonzero" d="m478.533293,409.546872l-4.89375,-35.206251l95.952501,-79.363751l-81.988751,86.405001l-9.07,28.165" id="path212"/>
   <path fill="#dc2e23" fill-rule="nonzero" d="m814.317048,377.521871c21.06625,6.09375 50.356251,43.331251 50.356251,43.331251c2.94125,-3.56625 5.1475,-7.62125 6.4475,-12.1125c6.9575,-24.05375 -14.60125,-51.421251 -48.152501,-61.126251c-33.55125,-9.705 -66.391251,1.9275 -73.348751,25.98125c-1.29875,4.49125 -1.5975,9.0975 -1.015,13.6825c0,0 44.646251,-15.84875 65.712501,-9.75625" id="path214"/>
   <path fill="#cf581e" fill-rule="nonzero" d="m816.912048,368.550621c-28.5125,-8.24875 -56.501251,-1.08 -68.537501,16.02125c0.045,0.9025 0.115,1.805 0.23,2.70625c0,0 44.646251,-15.84875 65.712501,-9.75625c21.06625,6.09375 50.356251,43.331251 50.356251,43.331251c0.57875,-0.70125 1.12,-1.4275 1.64125,-2.16625c-1.05,-20.88625 -20.88875,-41.888751 -49.402501,-50.136251" id="path216"/>
   <path fill="#dc2e23" fill-rule="nonzero" d="m787.045798,479.424373c-4.23875,-1.22625 -13.1375,-21.35625 1.75,-72.822501l35.537501,10.28c-14.09375,48.725001 -33.295,63.697501 -37.287501,62.542501" id="path218"/>
   <path fill="#cf581e" fill-rule="nonzero" d="m793.735798,456.240622c-3.08375,-0.89125 -9.5575,-15.53375 1.2725,-52.973751l25.8525,7.47875c-10.2525,35.443751 -24.22125,46.335001 -27.125,45.495001" id="path220"/>
   <path fill="#858d90" fill-rule="nonzero" d="m786.859548,389.836871l-3.3,11.40375c-1.28375,4.43875 1.27375,9.07625 5.71125,10.36l32.14375,9.2975c4.4375,1.285 9.07625,-1.2725 10.36,-5.71125l3.29875,-11.40375l-48.213751,-13.94625" id="path222"/>
   <path fill="#dc2e23" fill-rule="nonzero" d="m853.140799,251.008119c-5.9625,-1.72375 -22.405,12.7125 -34.535001,25.46l49.993751,14.46125c-3.565,-17.2875 -9.84375,-38.296251 -15.45875,-39.921251" id="path224"/>
   <path fill="#e8eaeb" fill-rule="nonzero" d="m818.605798,276.46812c-7.13625,7.49875 -12.78125,14.41375 -13.91875,17.1075c0,0 25.2,7.29 33.598751,9.72c8.275,2.3925 33.1,9.57375 33.1,9.57375c0.46875,-2.8875 -0.69,-11.77125 -2.78625,-21.94l-49.993751,-14.46125" id="path226"/>
   <path fill="#cf581e" fill-rule="nonzero" d="m871.298299,313.28812c0.03375,-0.12 0.0625,-0.26375 0.0875,-0.41875l-66.698751,-19.29375c-0.06,0.145 -0.11375,0.28125 -0.1475,0.40125l-6.9475,24.015l66.758751,19.31125l6.9475,-24.015" id="path228"/>
   <path fill="#e8eaeb" fill-rule="nonzero" d="m864.350799,337.303121l-66.758751,-19.31125l-2.30625,7.97625l66.758751,19.31l2.30625,-7.975" id="path230"/>
   <path fill="#cf581e" fill-rule="nonzero" d="m862.044549,345.278121l-66.758751,-19.31l-1.73,5.98125l66.758751,19.31l1.73,-5.98125" id="path232"/>
   <path fill="#e8eaeb" fill-rule="nonzero" d="m860.314549,351.259371l-66.758751,-19.31l-2.52375,8.72375l66.758751,19.31l2.52375,-8.72375" id="path234"/>
   <path fill="#cf581e" fill-rule="nonzero" d="m857.790799,359.983121l-66.758751,-19.31l-8.14625,28.1625l66.758751,19.31125l8.14625,-28.16375" id="path236"/>
   <path fill="#a8abab" fill-rule="nonzero" d="m782.885798,368.835621l-4.5675,15.79125c-1.7775,6.145 1.7625,12.5675 7.9075,14.345l44.506251,12.87375c6.145,1.7775 12.5675,-1.76375 14.345,-7.90875l4.5675,-15.79l-66.758751,-19.31125" id="path238"/>
   <path fill="#a8abab" fill-rule="nonzero" d="m851.632049,340.375621c-5.36375,18.545 -19.6575,30.7025 -31.92625,27.15375c-12.2675,-3.54875 -17.865,-21.45875 -12.5,-40.003751c5.36375,-18.545 19.6575,-30.7025 31.92625,-27.15375c12.2675,3.54875 17.865,21.45875 12.5,40.003751" id="path240"/>
   <path fill="#99dcc4" fill-rule="nonzero" d="m848.170799,339.374371c-4.52875,15.655 -16.595,25.9175 -26.95125,22.92125c-10.35625,-2.995 -15.08,-18.11375 -10.5525,-33.768751c4.52875,-15.655 16.595,-25.9175 26.95125,-22.92125c10.35625,2.995 15.08,18.11375 10.5525,33.768751" id="path242"/>
   <path fill="#fbce5c" fill-rule="nonzero" d="m506.144544,202.840619l-9.16625,26.25l13.95875,0l-15.20875,29.16625l36.666251,-39.583751l-13.3325,0l7.29125,-14.79125l-20.20875,-1.04125" id="path244"/>
   <path fill="#ffffff" fill-rule="nonzero" d="m572.399545,185.769368c-1.3025,-10.29625 -10.0725,-18.26375 -20.72125,-18.26375c-6.26625,0 -11.87375,2.77125 -15.70625,7.1375c-3.56,-2.8125 -8.0475,-4.50375 -12.9375,-4.50375c-1.6825,0 -3.31,0.22 -4.87625,0.595c-1.75125,-13.655 -11.94375,-24.135 -24.26,-24.135c-13.54625,0 -24.5275,12.67625 -24.5275,28.31375c0,4.09875 0.76,7.98875 2.11625,11.505c-4.72625,1.875 -8.0425,6.2625 -8.0425,11.37625c0,6.81875 5.89625,12.34625 13.16875,12.34625l92.843751,0c7.2725,0 13.16875,-5.5275 13.16875,-12.34625c0,-5.86875 -4.3725,-10.77 -10.22625,-12.025" id="path246"/>
  </g>
 </g>
</svg>