<svg width="2500" height="2500" xmlns="http://www.w3.org/2000/svg">
 <metadata id="metadata8">image/svg+xml</metadata>
 <defs>
  <clipPath clipPathUnits="userSpaceOnUse" id="clipPath18">
   <path d="m0,0l14659,0l0,14666.8l-14659,0l0,-14666.8z" id="path20"/>
  </clipPath>
 </defs>
 <g>
  <title>background</title>
  <rect fill="none" id="canvas_background" height="2502" width="2502" y="-1" x="-1"/>
 </g>
 <g>
  <title>Layer 1</title>
  <g stroke="null" id="svg_1">
   <path fill="#fefbe0" fill-rule="nonzero" d="m1576.964329,720.445329l0,114.933186l-604.046703,0l-22.857397,-14.36132l-9.467934,-37.230652l4.247186,-44.074572l19.585478,-23.512122l31.351769,-4.893386l581.187601,9.138867" id="path24"/>
   <path fill="#8f1543" fill-rule="nonzero" d="m982.469106,725.082963l618.546129,0l0,-24.364628l-618.546129,0c-29.602427,0 -53.677203,24.091826 -53.677203,53.673793l0,43.825641c0,29.592196 24.074776,53.672088 53.677203,53.672088l618.546129,0l0,-24.359513l-618.546129,0c-16.160108,0 -29.314279,-13.147351 -29.314279,-29.312574l0,-43.825641c0,-16.163518 13.154171,-29.309164 29.314279,-29.309164" id="path26"/>
   <path fill="#f9ab11" fill-rule="nonzero" d="m1060.521167,793.624464l0,54.585974l21.877015,-12.444886l21.877015,12.444886l0,-54.585974l-43.75403,0" id="path28"/>
   <path fill="#fefbe0" fill-rule="nonzero" d="m973.739442,1127.26301l0,-108.6451l561.987455,0l24.125926,13.580424l9.999898,35.184637l-4.475658,41.66539l-20.698851,22.221428l-33.089177,4.629109l-537.849594,-8.635888" id="path30"/>
   <path fill="#203533" fill-rule="nonzero" d="m1525.640044,1122.881128l-577.293352,0l0,23.027898l577.293352,0c31.249469,0 56.674615,-22.765327 56.674615,-50.739466l0,-41.419868c0,-27.97414 -25.425146,-50.734351 -56.674615,-50.734351l-577.293352,0l0,23.022783l577.293352,0c17.06206,0 30.937451,12.429541 30.937451,27.711568l0,41.419868c0,15.282027 -13.875391,27.711568 -30.937451,27.711568" id="path32"/>
   <path fill="#a9caa3" fill-rule="nonzero" d="m1348.688734,1088.946264l0,51.598792l23.087574,-11.761176l23.125084,11.761176l0,-51.598792l-46.212658,0" id="path34"/>
   <path fill="#8d658c" fill-rule="nonzero" d="m1055.119687,1000.21912l22.181189,0l0,-74.225331l-22.181189,0l0,74.225331z" id="path36"/>
   <path fill="#8d658c" fill-rule="nonzero" d="m1369.089209,925.993108l0,51.192999l-174.052788,0l0,-51.192999l-88.727144,0l0,74.226013l351.505371,0l0,-74.226013l-88.725439,0" id="path38"/>
   <path fill="#8d658c" fill-rule="nonzero" d="m991.130569,1000.21912l34.984128,0l0,-74.225331l-34.984128,0l0,74.225331z" id="path40"/>
   <path fill="#8d658c" fill-rule="nonzero" d="m1538.015024,1000.21912l34.975432,0l0,-74.225331l-34.975432,0l0,74.225331z" id="path42"/>
   <path fill="#8d658c" fill-rule="nonzero" d="m1486.815205,1000.21912l22.187157,0l0,-74.225331l-22.187157,0l0,74.225331z" id="path44"/>
   <path fill="#806687" fill-rule="nonzero" d="m991.130569,925.993108l34.984128,0l0,-74.223967l-34.984128,0l0,74.223967z" id="path46"/>
   <path fill="#806687" fill-rule="nonzero" d="m1538.015024,925.993108l34.975432,0l0,-74.223967l-34.975432,0l0,74.223967z" id="path48"/>
   <path fill="#806687" fill-rule="nonzero" d="m1055.119687,925.993108l22.181189,0l0,-74.223967l-22.181189,0l0,74.223967z" id="path50"/>
   <path fill="#806687" fill-rule="nonzero" d="m1195.036421,925.993108l0,-51.189589l174.052788,0l0,51.189589l88.725439,0l0,-74.222603l-351.505371,0l0,74.222603l88.727144,0" id="path52"/>
   <path fill="#806687" fill-rule="nonzero" d="m1486.815205,925.993108l22.187157,0l0,-74.223967l-22.187157,0l0,74.223967z" id="path54"/>
   <path fill="#fef8d4" fill-rule="nonzero" d="m1026.11572,1000.21912l29.003797,0l0,-74.225331l-29.003797,0l0,74.225331z" id="path56"/>
   <path fill="#e9e5d0" fill-rule="nonzero" d="m1026.11572,925.993108l29.003797,0l0,-74.223967l-29.003797,0l0,74.223967z" id="path58"/>
   <path fill="#fef8d4" fill-rule="nonzero" d="m1077.300194,1000.21912l29.009253,0l0,-74.225331l-29.009253,0l0,74.225331z" id="path60"/>
   <path fill="#e9e5d0" fill-rule="nonzero" d="m1077.300194,925.993108l29.009253,0l0,-74.223967l-29.009253,0l0,74.223967z" id="path62"/>
   <path fill="#fef8d4" fill-rule="nonzero" d="m1457.814647,1000.21912l29.000557,0l0,-74.225331l-29.000557,0l0,74.225331z" id="path64"/>
   <path fill="#e9e5d0" fill-rule="nonzero" d="m1457.814647,925.993108l29.000557,0l0,-74.223967l-29.000557,0l0,74.223967z" id="path66"/>
   <path fill="#fef8d4" fill-rule="nonzero" d="m1509.002532,1000.21912l29.012492,0l0,-74.225331l-29.012492,0l0,74.225331z" id="path68"/>
   <path fill="#e9e5d0" fill-rule="nonzero" d="m1509.002532,925.993108l29.012492,0l0,-74.223967l-29.012492,0l0,74.223967z" id="path70"/>
   <path fill="#fef8d4" fill-rule="nonzero" d="m1195.036421,977.186107l174.052788,0l0,-51.191635l-174.052788,0l0,51.191635z" id="path72"/>
   <path fill="#e9e5d0" fill-rule="nonzero" d="m1195.036421,925.993108l174.052788,0l0,-51.189589l-174.052788,0l0,51.189589z" id="path74"/>
   <path fill="#d4513d" fill-rule="nonzero" d="m958.348294,1285.936585l21.47378,0l0,-71.855705l-21.47378,0l0,71.855705z" id="path76"/>
   <path fill="#d4513d" fill-rule="nonzero" d="m1344.889967,1214.08054l0,49.554482l-168.506382,0l0,-49.554482l-168.477397,0l0,71.856046l505.045154,0l0,-71.856046l-168.061374,0" id="path78"/>
   <path fill="#d4513d" fill-rule="nonzero" d="m896.398371,1285.936585l33.868538,0l0,-71.855705l-33.868538,0l0,71.855705z" id="path80"/>
   <path fill="#d4513d" fill-rule="nonzero" d="m1590.602724,1285.936585l33.8624,0l0,-71.855705l-33.8624,0l0,71.855705z" id="path82"/>
   <path fill="#d4513d" fill-rule="nonzero" d="m1541.039716,1285.936585l21.475144,0l0,-71.855705l-21.475144,0l0,71.855705z" id="path84"/>
   <path fill="#a83a31" fill-rule="nonzero" d="m896.398371,1214.08054l33.868538,0l0,-71.858262l-33.868538,0l0,71.858262z" id="path86"/>
   <path fill="#a83a31" fill-rule="nonzero" d="m1590.602724,1214.08054l33.8624,0l0,-71.858262l-33.8624,0l0,71.858262z" id="path88"/>
   <path fill="#a83a31" fill-rule="nonzero" d="m958.348294,1214.08054l21.47378,0l0,-71.858262l-21.47378,0l0,71.858262z" id="path90"/>
   <path fill="#a83a31" fill-rule="nonzero" d="m1176.383584,1214.08054l0,-49.559597l168.506382,0l0,49.559597l168.061374,0l0,-71.857751l-505.045154,0l0,71.857751l168.477397,0" id="path92"/>
   <path fill="#a83a31" fill-rule="nonzero" d="m1541.039716,1214.08054l21.475144,0l0,-71.858262l-21.475144,0l0,71.858262z" id="path94"/>
   <path fill="#fef8d4" fill-rule="nonzero" d="m930.266739,1285.936585l28.080021,0l0,-71.855705l-28.080021,0l0,71.855705z" id="path96"/>
   <path fill="#e9e5d0" fill-rule="nonzero" d="m930.266739,1214.08054l28.080021,0l0,-71.858262l-28.080021,0l0,71.858262z" id="path98"/>
   <path fill="#fef8d4" fill-rule="nonzero" d="m979.821221,1285.936585l28.084795,0l0,-71.855705l-28.084795,0l0,71.855705z" id="path100"/>
   <path fill="#e9e5d0" fill-rule="nonzero" d="m979.821221,1214.08054l28.084795,0l0,-71.858262l-28.084795,0l0,71.858262z" id="path102"/>
   <path fill="#fef8d4" fill-rule="nonzero" d="m1512.951341,1285.936585l28.087352,0l0,-71.855705l-28.087352,0l0,71.855705z" id="path104"/>
   <path fill="#e9e5d0" fill-rule="nonzero" d="m1512.951341,1214.08054l28.087352,0l0,-71.858262l-28.087352,0l0,71.858262z" id="path106"/>
   <path fill="#fef8d4" fill-rule="nonzero" d="m1562.514348,1285.936585l28.087352,0l0,-71.855705l-28.087352,0l0,71.855705z" id="path108"/>
   <path fill="#e9e5d0" fill-rule="nonzero" d="m1562.514348,1214.08054l28.087352,0l0,-71.858262l-28.087352,0l0,71.858262z" id="path110"/>
   <path fill="#fef8d4" fill-rule="nonzero" d="m1176.383584,1263.635022l168.505189,0l0,-49.555335l-168.505189,0l0,49.555335z" id="path112"/>
   <path fill="#e9e5d0" fill-rule="nonzero" d="m1176.383584,1214.08054l168.505189,0l0,-49.558574l-168.505189,0l0,49.558574z" id="path114"/>
   <path fill="#3b85a0" fill-rule="nonzero" d="m1019.266685,1438.698883l24.688751,0l0,-74.225331l-24.688751,0l0,74.225331z" id="path116"/>
   <path fill="#3b85a0" fill-rule="nonzero" d="m948.046609,1438.698883l38.93754,0l0,-74.225331l-38.93754,0l0,74.225331z" id="path118"/>
   <path fill="#3b85a0" fill-rule="nonzero" d="m1556.739471,1438.698883l38.93754,0l0,-74.225331l-38.93754,0l0,74.225331z" id="path120"/>
   <path fill="#3b85a0" fill-rule="nonzero" d="m1499.764774,1438.698883l24.687387,0l0,-74.225331l-24.687387,0l0,74.225331z" id="path122"/>
   <path fill="#2f6b80" fill-rule="nonzero" d="m948.046609,1364.47287l38.93754,0l0,-74.224649l-38.93754,0l0,74.224649z" id="path124"/>
   <path fill="#2f6b80" fill-rule="nonzero" d="m1556.739471,1364.47287l38.93754,0l0,-74.224649l-38.93754,0l0,74.224649z" id="path126"/>
   <path fill="#2f6b80" fill-rule="nonzero" d="m1019.266685,1364.47287l24.688751,0l0,-74.224649l-24.688751,0l0,74.224649z" id="path128"/>
   <path fill="#2f6b80" fill-rule="nonzero" d="m1499.764774,1364.47287l24.687387,0l0,-74.224649l-24.687387,0l0,74.224649z" id="path130"/>
   <path fill="#fef8d4" fill-rule="nonzero" d="m986.983979,1438.698883l32.282706,0l0,-74.225331l-32.282706,0l0,74.225331z" id="path132"/>
   <path fill="#e9e5d0" fill-rule="nonzero" d="m986.983979,1364.47287l32.282706,0l0,-74.224649l-32.282706,0l0,74.224649z" id="path134"/>
   <path fill="#fef8d4" fill-rule="nonzero" d="m1043.955266,1438.698883l32.28731,0l0,-74.225331l-32.28731,0l0,74.225331z" id="path136"/>
   <path fill="#e9e5d0" fill-rule="nonzero" d="m1043.955266,1364.47287l32.28731,0l0,-74.224649l-32.28731,0l0,74.224649z" id="path138"/>
   <path fill="#fef8d4" fill-rule="nonzero" d="m1467.476953,1438.698883l32.287992,0l0,-74.225331l-32.287992,0l0,74.225331z" id="path140"/>
   <path fill="#e9e5d0" fill-rule="nonzero" d="m1467.476953,1364.47287l32.287992,0l0,-74.224649l-32.287992,0l0,74.224649z" id="path142"/>
   <path fill="#fef8d4" fill-rule="nonzero" d="m1524.45165,1438.698883l32.28731,0l0,-74.225331l-32.28731,0l0,74.225331z" id="path144"/>
   <path fill="#e9e5d0" fill-rule="nonzero" d="m1524.45165,1364.47287l32.28731,0l0,-74.224649l-32.28731,0l0,74.224649z" id="path146"/>
   <path fill="#3b85a0" fill-rule="nonzero" d="m1368.726041,1364.47287l-292.482954,0l0,74.226013l391.233866,0l0,-74.226013l-98.750912,0" id="path148"/>
   <path fill="#2f6b80" fill-rule="nonzero" d="m1076.243087,1290.248562l0,74.224308l391.233866,0l0,-74.224308l-391.233866,0" id="path150"/>
   <path fill="#fefbe0" fill-rule="nonzero" d="m919.629166,1589.723772l0,-130.926203l677.248003,0l29.075578,16.363005l12.037388,42.40025l-5.387839,50.212617l-24.937512,26.775516l-39.875127,5.575391l-648.160491,-10.400576" id="path152"/>
   <path fill="#a03f2e" fill-rule="nonzero" d="m1584.715316,1584.436528l-695.686008,0l0,27.749078l695.686008,0c37.66202,0 68.29939,-27.425126 68.29939,-61.136632l0,-49.912535c0,-33.713212 -30.637369,-61.138337 -68.29939,-61.138337l-695.686008,0l0,27.737143l695.686008,0c20.56245,0 37.286918,14.975125 37.286918,33.401194l0,49.912535c0,18.41243 -16.724467,33.387554 -37.286918,33.387554" id="path154"/>
   <path fill="#a9caa3" fill-rule="nonzero" d="m1371.464291,1543.548624l0,62.174985l27.837739,-14.161834l27.849674,14.161834l0,-62.174985l-55.687412,0" id="path156"/>
   <path fill="#4b4352" fill-rule="nonzero" d="m838.323942,1789.974077l40.600609,0l0,-86.13706l-40.600609,0l0,86.13706z" id="path158"/>
   <path fill="#3b3340" fill-rule="nonzero" d="m838.323942,1703.836847l40.600609,0l0,-86.150359l-40.600609,0l0,86.150359z" id="path160"/>
   <path fill="#fef8d4" fill-rule="nonzero" d="m878.925403,1789.974077l33.660697,0l0,-86.13706l-33.660697,0l0,86.13706z" id="path162"/>
   <path fill="#e9e5d0" fill-rule="nonzero" d="m878.925403,1703.836847l33.660697,0l0,-86.150359l-33.660697,0l0,86.150359z" id="path164"/>
   <path fill="#4b4352" fill-rule="nonzero" d="m1676.927505,1703.836847c0,24.325413 -19.725289,44.048997 -44.062637,44.048997c-24.325413,0 -44.050702,-19.723584 -44.050702,-44.048997l-676.228406,0l0,86.13723l798.530655,0l0,-86.13723l-34.18891,0l0,0" id="path166"/>
   <path fill="#3b3340" fill-rule="nonzero" d="m1670.503018,1617.685977l-757.917258,0l0,86.15087l676.228406,0c0,-24.337348 19.725289,-44.050702 44.050702,-44.050702c24.337348,0 44.062637,19.713354 44.062637,44.050702l34.18891,0l0,-86.15087l-40.613397,0" id="path168"/>
   <path fill="#fef8d4" fill-rule="nonzero" d="m1632.864868,1747.885844c24.337348,0 44.062637,-19.723584 44.062637,-44.048997l-88.113339,0l0,0c0,24.325413 19.725289,44.048997 44.050702,44.048997" id="path170"/>
   <path fill="#e9e5d0" fill-rule="nonzero" d="m1636.852892,1703.836847l40.074613,0c0,-24.337348 -19.725289,-44.050702 -44.062637,-44.050702c-24.325413,0 -44.050702,19.713354 -44.050702,44.050702l48.038726,0" id="path172"/>
   <path fill="#ffffff" fill-rule="nonzero" d="m1982.111097,1825.535522c10.451726,8.976891 11.747536,22.351008 3.239524,32.250311c-8.490962,9.901007 -21.653658,10.375001 -32.122435,1.38788c-10.178924,-8.738189 -12.24199,-21.788354 -3.256574,-32.250311c8.508012,-9.899302 21.960561,-10.124364 32.139485,-1.38788" id="path174"/>
   <path fill="#ffffff" fill-rule="nonzero" d="m1878.395189,1932.523349c8.866065,10.550617 7.962408,23.96395 -2.011915,32.350907c-9.991373,8.386956 -23.068819,6.724569 -31.934884,-3.837983c-8.627363,-10.274405 -8.525062,-23.486547 2.028965,-32.349202c9.974323,-8.388661 23.30752,-6.438127 31.917833,3.836278" id="path176"/>
   <path fill="#ffffff" fill-rule="nonzero" d="m1758.771514,2021.248788c7.024651,11.849837 3.972679,24.937512 -7.246303,31.600701c-11.201932,6.649549 -23.853124,2.886586 -30.877776,-8.963251c-6.85415,-11.537819 -4.637634,-24.56241 7.229253,-31.598996c11.218982,-6.663189 24.040676,-2.576274 30.894826,8.961546" id="path178"/>
   <path fill="#ffffff" fill-rule="nonzero" d="m1626.302275,2089.486797c5.038312,12.837039 -0.100596,25.261465 -12.236875,30.02527c-12.137984,4.7621 -24.001461,-0.987202 -29.038067,-13.812306c-4.900206,-12.487511 -0.600164,-24.988663 12.224939,-30.02527c12.149919,-4.7621 24.149797,1.324795 29.050002,13.812306" id="path180"/>
   <path fill="#ffffff" fill-rule="nonzero" d="m1337.225935,2158.360776c0.712695,13.762861 -8.074939,23.92644 -21.099529,24.601625c-13.02459,0.68712 -22.461834,-8.525062 -23.18817,-22.287923c-0.68712,-13.399693 7.338374,-23.900865 21.113169,-24.61356c13.026295,-0.67348 22.475474,8.900165 23.174529,22.299858" id="path182"/>
   <path fill="#ffffff" fill-rule="nonzero" d="m1188.214666,2157.186023c-1.508936,13.699775 -11.829377,22.313498 -24.792586,20.888108c-12.96321,-1.437326 -20.790922,-12.037388 -19.280281,-25.750803c1.468016,-13.336608 11.091106,-22.386814 24.794291,-20.886403c12.961505,1.437326 20.748297,12.412491 19.278576,25.749098" id="path184"/>
   <path fill="#ffffff" fill-rule="nonzero" d="m1041.390927,2131.948428c-3.711812,13.275227 -15.292257,20.100392 -27.851379,16.588066c-12.557417,-3.512326 -18.562471,-15.249632 -14.852364,-28.524859c3.612921,-12.912059 14.576152,-20.299878 27.851379,-16.588066c12.560827,3.512326 18.465285,15.612799 14.852364,28.524859" id="path186"/>
   <path fill="#ffffff" fill-rule="nonzero" d="m900.596112,2083.248157c-5.810682,12.501151 -18.342524,17.363847 -30.170196,11.863477c-11.824261,-5.50037 -15.851501,-18.049262 -10.040818,-30.550413c5.653821,-12.161854 17.667339,-17.674159 30.168491,-11.875412c11.827672,5.50037 15.696345,18.400495 10.042523,30.562349" id="path188"/>
   <path fill="#ffffff" fill-rule="nonzero" d="m769.364712,2012.435579c-7.728822,11.413353 -20.872763,14.212984 -31.672312,6.900185c-10.799549,-7.311093 -12.772248,-20.349324 -5.043427,-31.760972c7.519105,-11.113271 20.257253,-14.637532 31.672312,-6.900185c10.799549,7.312798 12.564237,20.649406 5.043427,31.760972" id="path190"/>
   <path fill="#ffffff" fill-rule="nonzero" d="m651.168133,1921.674355c-9.462819,10.037408 -22.886382,10.687018 -32.369662,1.737408c-9.484984,-8.94961 -9.338353,-22.137882 0.124466,-32.16165c9.205362,-9.764606 22.342483,-11.188292 32.371367,-1.725473c9.483279,8.94961 9.082601,22.398749 -0.126171,32.149715" id="path192"/>
   <path fill="#ffffff" fill-rule="nonzero" d="m549.199862,1813.061651c-10.96323,8.361381 -24.315183,6.825165 -32.221326,-3.537901c-7.909553,-10.375001 -5.626541,-23.362081 5.338394,-31.725167c10.666558,-8.124384 23.863355,-7.411689 32.223031,3.549836c7.907848,10.375001 5.326459,23.587143 -5.340099,31.713232" id="path194"/>
   <path fill="#ffffff" fill-rule="nonzero" d="m466.182805,1689.335716c-12.170379,6.475637 -25.099489,2.801335 -31.225598,-8.712614c-6.124405,-11.512244 -1.773213,-23.95031 10.398871,-30.424243c11.843017,-6.300021 24.749961,-3.46288 31.225598,8.712614c6.12611,11.512244 1.444146,24.124221 -10.398871,30.424243" id="path196"/>
   <path fill="#ffffff" fill-rule="nonzero" d="m404.207306,1553.811094c-13.053575,4.436442 -25.222249,-1.261709 -29.41658,-13.61282c-4.196036,-12.349405 2.09887,-23.93667 15.155856,-28.374818c12.700638,-4.311977 24.983548,0.562654 29.41658,13.624755c4.196036,12.349405 -2.451808,24.049201 -15.155856,28.362882" id="path198"/>
   <path fill="#ffffff" fill-rule="nonzero" d="m364.778893,1410.061493c-13.595769,2.286422 -24.695401,-5.300884 -26.857356,-18.149858c-2.161956,-12.862614 5.909573,-23.288765 19.503638,-25.575187c13.229192,-2.225041 24.57264,4.548973 26.857356,18.149858c2.163661,12.862614 -6.276151,23.350146 -19.503638,25.575187" id="path200"/>
   <path fill="#ffffff" fill-rule="nonzero" d="m348.896702,1261.873744c-13.788436,0.075021 -23.525762,-9.188312 -23.595668,-22.229953c-0.069906,-13.043345 9.570235,-22.037286 23.355261,-22.110602c13.415038,-0.073316 23.524057,8.443222 23.595668,22.229953c0.069906,13.046755 -9.943633,22.035581 -23.355261,22.110602" id="path202"/>
   <path fill="#ffffff" fill-rule="nonzero" d="m357.058597,1113.068781c-13.61964,-2.153431 -21.732089,-12.869434 -19.694599,-25.749098c2.039195,-12.881369 13.00413,-20.200988 26.622065,-18.047557c13.247947,2.09546 21.84462,12.132869 19.691189,25.750803c-2.03749,12.879664 -13.370708,20.141312 -26.618655,18.045852" id="path204"/>
   <path fill="#ffffff" fill-rule="nonzero" d="m389.170801,967.634627c-13.089381,-4.332437 -19.358712,-16.219784 -15.258157,-28.601584c4.09885,-12.380096 16.107253,-17.8242 29.194929,-13.490059c12.734738,4.214791 19.592298,15.513908 15.258157,28.601584c-4.100555,12.380096 -16.461895,17.704849 -29.194929,13.490059" id="path206"/>
   <path fill="#ffffff" fill-rule="nonzero" d="m444.462651,829.242175c-12.214709,-6.386977 -16.482356,-19.131945 -10.441496,-30.688519c6.042564,-11.56169 18.773892,-14.988765 30.990307,-8.612018c11.889052,6.223296 16.831883,18.478925 10.443201,30.697045c-6.044269,11.556575 -19.10296,14.819968 -30.992012,8.603493" id="path208"/>
   <path fill="#ffffff" fill-rule="nonzero" d="m521.276873,701.43444c-11.045071,-8.25226 -13.230897,-21.517257 -5.42876,-31.968984c7.803842,-10.434676 20.917093,-11.815736 31.963869,-3.563476c10.744989,8.030609 13.675905,20.920503 5.42535,31.968984c-7.802137,10.434676 -21.21206,11.594085 -31.960459,3.563476" id="path210"/>
   <path fill="#ffffff" fill-rule="nonzero" d="m617.442986,587.624858c-9.570235,-9.940223 -9.58899,-23.375721 -0.201191,-32.429337c9.389504,-9.053616 22.5522,-8.286361 32.12073,1.636812c9.311073,9.667421 10.126069,22.847167 0.201191,32.429337c-9.389504,9.053616 -22.809657,8.013559 -32.12073,-1.636812" id="path212"/>
   <path fill="#ffffff" fill-rule="nonzero" d="m730.73936,490.8995c-7.832827,-11.355383 -5.670871,-24.62038 5.058772,-32.020134c10.733054,-7.416804 23.595668,-4.518283 31.4302,6.82005c7.621406,11.048481 6.284676,24.194127 -5.060477,32.020134c-10.731348,7.416804 -23.807089,4.211381 -31.428495,-6.82005" id="path214"/>
   <path fill="#ffffff" fill-rule="nonzero" d="m858.235077,413.781786c-5.899343,-12.463641 -1.624877,-25.200084 10.165284,-30.775475c11.785046,-5.592441 24.015101,-0.647905 29.911034,11.798686c5.740777,12.139689 2.298357,24.893182 -10.161874,30.792525c-11.790161,5.575391 -24.177077,0.306902 -29.914444,-11.815736" id="path216"/>
   <path fill="#ffffff" fill-rule="nonzero" d="m996.545689,358.19838c-3.820933,-13.247947 2.444988,-25.131884 14.975125,-28.74651c12.531842,-3.614626 23.808794,3.205423 27.629727,16.45337c3.718632,12.889894 -1.727178,24.927282 -14.975125,28.74651c-12.530137,3.614626 -23.911095,-3.563476 -27.629727,-16.45337" id="path218"/>
   <path fill="#ffffff" fill-rule="nonzero" d="m1141.940627,325.513291c-1.652157,-13.69125 6.438127,-24.415779 19.384287,-25.98439c12.94616,-1.551561 22.985273,6.990551 24.635725,20.681801c1.606122,13.316147 -5.698152,24.330528 -19.384287,25.98439c-12.947865,1.551561 -23.031308,-7.365654 -24.635725,-20.681801" id="path220"/>
   <path fill="#ffffff" fill-rule="nonzero" d="m1290.7149,316.561975c0.574589,-13.776501 10.274405,-23.068819 23.31093,-22.523215c13.026295,0.528554 21.563293,10.588127 20.988704,24.364628c-0.550719,13.401398 -9.53784,23.102919 -23.312636,22.523215c-13.02459,-0.545604 -21.549653,-10.96323 -20.986998,-24.364628" id="path222"/>
   <path fill="#ffffff" fill-rule="nonzero" d="m1438.926519,331.702486c2.801335,-13.503699 13.887327,-21.108054 26.65105,-18.465285c12.775658,2.642769 19.573543,13.947002 16.773913,27.450701c-2.71097,13.128596 -13.149056,21.244455 -26.649345,18.448235c-12.775658,-2.642769 -19.488293,-14.305055 -16.775618,-27.433651" id="path224"/>
   <path fill="#ffffff" fill-rule="nonzero" d="m1582.739206,370.644971c4.949651,-12.872844 17.125145,-18.567586 29.288704,-13.895852c12.173789,4.688784 17.050125,16.930774 12.100474,29.803618c-4.81325,12.514792 -16.414155,18.840388 -29.288704,13.895852c-12.175494,-4.688784 -16.912019,-17.271776 -12.100474,-29.803618" id="path226"/>
   <path fill="#ffffff" fill-rule="nonzero" d="m1842.487626,514.991327c8.763764,-10.639278 22.114012,-12.207889 32.190635,-3.921529c10.059574,8.286361 10.826829,21.449057 2.063065,32.088335c-8.508012,10.366476 -21.534308,12.685293 -32.173585,3.938579c-10.076624,-8.286361 -10.588127,-21.738909 -2.080115,-32.105385" id="path228"/>
   <path fill="#ffffff" fill-rule="nonzero" d="m1951.659574,616.405468c10.383526,-9.087716 23.801974,-8.473912 32.412287,1.32991c8.593263,9.803822 7.212203,22.915368 -3.171323,32.003084c-10.076624,8.849015 -23.29047,9.036566 -32.378187,-1.32991c-8.610313,-9.803822 -6.939401,-23.171119 3.137223,-32.003084" id="path230"/>
   <path fill="#ffffff" fill-rule="nonzero" d="m2042.945942,734.136579c11.713436,-7.297453 24.842032,-4.501233 31.747332,6.564298c6.905301,11.065531 3.392975,23.767874 -8.303411,31.065327c-11.389483,7.092852 -24.449879,5.149138 -31.730282,-6.564298c-6.905301,-11.065531 -3.086073,-23.972475 8.286361,-31.065327" id="path232"/>
   <path fill="#ffffff" fill-rule="nonzero" d="m2113.976762,865.100292c12.719393,-5.309409 25.268285,-0.441598 30.281021,11.59238c5.012737,12.035683 -0.477403,24.020216 -13.196797,29.329625c-12.378391,5.164483 -24.978433,1.130423 -30.263971,-11.594085c-5.029787,-12.035683 0.801356,-24.161732 13.179746,-29.32792" id="path234"/>
   <path fill="#ffffff" fill-rule="nonzero" d="m2163.064071,1005.876352c13.401398,-3.200308 24.995483,3.611216 28.030405,16.294804c3.017872,12.686998 -4.330732,23.634883 -17.74918,26.835191c-13.043345,3.113353 -24.824982,-2.886586 -28.013355,-16.298214c-3.034922,-12.683588 4.688784,-23.718428 17.73213,-26.831781" id="path236"/>
   <path fill="#ffffff" fill-rule="nonzero" d="m2190.923974,1301.67385c13.72535,1.224199 22.557315,11.350268 21.397907,24.349283c-1.142358,12.98708 -11.577035,21.038149 -25.319435,19.812245c-13.367298,-1.174754 -22.625515,-10.600063 -21.397907,-24.337348c1.142358,-12.98708 11.969188,-21.012574 25.319435,-19.82418" id="path238"/>
   <path fill="#ffffff" fill-rule="nonzero" d="m2168.844063,1448.973288c13.350248,3.42537 20.426049,14.862594 17.169476,27.488211c-3.239524,12.637552 -14.833608,18.886423 -28.200906,15.461053c-12.992195,-3.324774 -20.596551,-14.136258 -17.169476,-27.486506c3.239524,-12.637552 15.191661,-18.787532 28.200906,-15.462758" id="path240"/>
   <path fill="#ffffff" fill-rule="nonzero" d="m2123.149729,1590.77406c12.634142,5.549816 17.74918,17.974241 12.514792,29.912739c-5.251438,11.936792 -17.71508,16.236834 -30.332172,10.687018c-12.29314,-5.387839 -18.056082,-17.287121 -12.497741,-29.912739c5.234388,-11.938497 18.039032,-16.074858 30.315122,-10.687018" id="path242"/>
   <path fill="#ffffff" fill-rule="nonzero" d="m2055.068581,1723.637157c11.559985,7.512285 14.611957,20.599961 7.502055,31.537616c-7.109902,10.924015 -20.102097,13.149056 -31.662082,5.636771c-11.253082,-7.312798 -15.02116,-19.974221 -7.502055,-31.537616c7.109902,-10.937655 20.408999,-12.94957 31.662082,-5.636771" id="path244"/>
   <path fill="#ffffff" fill-rule="nonzero" d="m674.209671,1505.610392c0,129.788959 -105.214615,235.001869 -234.998459,235.001869c-129.787254,0 -235.001869,-105.21291 -235.001869,-235.001869c0,-129.787254 105.214615,-235.000164 235.001869,-235.000164c129.783844,0 234.998459,105.21291 234.998459,235.000164" id="path246"/>
   <path fill="#555658" fill-rule="nonzero" d="m1409.813431,583.260026l332.30011,0l0,-452.50349l-332.30011,0l0,452.50349z" id="path248"/>
   <path fill="#fffef7" fill-rule="nonzero" d="m1437.151601,556.50838l277.625476,0l0,-382.79235l-277.625476,0l0,382.79235z" id="path250"/>
   <path fill="#ffffff" fill-rule="nonzero" d="m1501.727244,134.449593c-0.900247,0 -1.624877,0.733155 -1.624877,1.636812l0,24.944332c0,0.886606 0.72463,1.619762 1.624877,1.619762l148.475896,0c0.898542,0 1.624877,-0.733155 1.624877,-1.619762l0,-24.944332c0,-0.903657 -0.726335,-1.636812 -1.624877,-1.636812l-148.475896,0zm148.475896,32.037184l-148.475896,0c-3.012757,0 -5.450925,-2.455218 -5.450925,-5.45604l0,-24.944332c0,-3.017872 2.438168,-5.45604 5.450925,-5.45604l148.475896,0c3.011052,0 5.44922,2.438168 5.44922,5.45604l0,24.944332c0,3.000822 -2.438168,5.45604 -5.44922,5.45604" id="path252"/>
   <path fill="#1e1f23" fill-rule="nonzero" d="m1516.564262,150.067507c4.525103,3.290674 8.550638,7.229253 11.962367,11.662285l94.875419,0c3.413435,-4.433032 7.450904,-8.371611 11.962367,-11.662285c5.837963,-0.119351 10.538682,-4.893386 10.538682,-10.758629l0,-10.758629c0,-5.950494 -4.81325,-10.758629 -10.763744,-10.758629l-118.350031,0c-5.950494,0 -10.762039,4.808135 -10.762039,10.758629l0,10.758629c0,5.865243 4.699014,10.639278 10.536977,10.758629" id="path254"/>
   <path fill="#392625" fill-rule="nonzero" d="m1647.802482,248.173925l38.388356,0l0,-38.396881l-38.388356,0l0,38.396881zm44.412165,6.018694l-50.437679,0l0,-50.434269l50.437679,0l0,50.434269" id="path256"/>
   <path fill="#392625" fill-rule="nonzero" d="m1665.851744,240.126266l-11.299118,-12.27609l3.899364,-3.597576l7.512285,8.16701l24.761896,-25.387636l3.788538,3.699877l-28.662965,29.394415" id="path258"/>
   <path fill="#db5a1d" fill-rule="nonzero" d="m1465.014915,211.95946l5.086052,10.315325l11.387778,1.653862l-8.236915,8.030609l1.936894,11.338333l-10.173809,-5.353739l-10.18745,5.353739l1.936894,-11.338333l-8.236915,-8.030609l11.387778,-1.653862l5.099692,-10.315325" id="path260"/>
   <path fill="#db5a1d" fill-rule="nonzero" d="m1503.002593,211.95946l5.087757,10.315325l11.386073,1.653862l-8.236915,8.030609l1.950534,11.338333l-10.18745,-5.353739l-10.18745,5.353739l1.948829,-11.338333l-8.24885,-8.030609l11.387778,-1.653862l5.099692,-10.315325" id="path262"/>
   <path fill="#db5a1d" fill-rule="nonzero" d="m1540.990271,211.95946l5.099692,10.315325l11.375843,1.653862l-8.23862,8.030609l1.950534,11.338333l-10.18745,-5.353739l-10.18745,5.353739l1.948829,-11.338333l-8.236915,-8.030609l11.387778,-1.653862l5.087757,-10.315325" id="path264"/>
   <path fill="#db5a1d" fill-rule="nonzero" d="m1578.977949,211.95946l5.099692,10.315325l11.387778,1.653862l-8.23862,8.030609l1.938599,11.338333l-10.18745,-5.353739l-10.18745,5.353739l1.948829,-11.338333l-8.236915,-8.030609l11.387778,-1.653862l5.087757,-10.315325" id="path266"/>
   <path fill="#db5a1d" fill-rule="nonzero" d="m1616.977562,211.95946l5.087757,10.315325l11.387778,1.653862l-8.23862,8.030609l1.936894,11.338333l-10.173809,-5.353739l-10.18745,5.353739l1.936894,-11.338333l-8.236915,-8.030609l11.387778,-1.653862l5.099692,-10.315325" id="path268"/>
   <path fill="#392625" fill-rule="nonzero" d="m1647.802482,317.602033l38.388356,0l0,-38.379831l-38.388356,0l0,38.379831zm44.412165,6.035744l-50.437679,0l0,-50.451319l50.437679,0l0,50.451319" id="path270"/>
   <path fill="#db5a1d" fill-rule="nonzero" d="m1465.014915,278.642498l5.086052,10.332376l11.387778,1.653862l-8.236915,8.030609l1.936894,11.338333l-10.173809,-5.353739l-10.18745,5.353739l1.936894,-11.338333l-8.236915,-8.030609l11.387778,-1.653862l5.099692,-10.332376" id="path272"/>
   <path fill="#db5a1d" fill-rule="nonzero" d="m1503.002593,278.642498l5.087757,10.332376l11.386073,1.653862l-8.236915,8.030609l1.950534,11.338333l-10.18745,-5.353739l-10.18745,5.353739l1.948829,-11.338333l-8.24885,-8.030609l11.387778,-1.653862l5.099692,-10.332376" id="path274"/>
   <path fill="#db5a1d" fill-rule="nonzero" d="m1540.990271,278.642498l5.099692,10.332376l11.375843,1.653862l-8.23862,8.030609l1.950534,11.338333l-10.18745,-5.353739l-10.18745,5.353739l1.948829,-11.338333l-8.236915,-8.030609l11.387778,-1.653862l5.087757,-10.332376" id="path276"/>
   <path fill="#db5a1d" fill-rule="nonzero" d="m1578.977949,278.642498l5.099692,10.332376l11.387778,1.653862l-8.23862,8.030609l1.938599,11.338333l-10.18745,-5.353739l-10.18745,5.353739l1.948829,-11.338333l-8.236915,-8.030609l11.387778,-1.653862l5.087757,-10.332376" id="path278"/>
   <path fill="#392625" fill-rule="nonzero" d="m1647.802482,387.030141l38.388356,0l0,-38.379831l-38.388356,0l0,38.379831zm44.412165,6.035744l-50.437679,0l0,-50.451319l50.437679,0l0,50.451319" id="path280"/>
   <path fill="#db5a1d" fill-rule="nonzero" d="m1465.014915,352.094435l5.086052,10.315325l11.387778,1.653862l-8.236915,8.030609l1.936894,11.338333l-10.173809,-5.353739l-10.18745,5.353739l1.936894,-11.338333l-8.236915,-8.030609l11.387778,-1.653862l5.099692,-10.315325" id="path282"/>
   <path fill="#db5a1d" fill-rule="nonzero" d="m1503.002593,352.094435l5.087757,10.315325l11.386073,1.653862l-8.236915,8.030609l1.950534,11.338333l-10.18745,-5.353739l-10.18745,5.353739l1.948829,-11.338333l-8.24885,-8.030609l11.387778,-1.653862l5.099692,-10.315325" id="path284"/>
   <path fill="#db5a1d" fill-rule="nonzero" d="m1540.990271,352.094435l5.099692,10.315325l11.375843,1.653862l-8.23862,8.030609l1.950534,11.338333l-10.18745,-5.353739l-10.18745,5.353739l1.948829,-11.338333l-8.236915,-8.030609l11.387778,-1.653862l5.087757,-10.315325" id="path286"/>
   <path fill="#392625" fill-rule="nonzero" d="m1647.802482,525.903406l38.388356,0l0,-38.396881l-38.388356,0l0,38.396881zm44.412165,6.018694l-50.437679,0l0,-50.434269l50.437679,0l0,50.434269" id="path288"/>
   <path fill="#db5a1d" fill-rule="nonzero" d="m1465.014915,491.035901l5.086052,10.315325l11.387778,1.653862l-8.236915,8.030609l1.936894,11.338333l-10.173809,-5.353739l-10.18745,5.353739l1.936894,-11.338333l-8.236915,-8.030609l11.387778,-1.653862l5.099692,-10.315325" id="path290"/>
   <path fill="#392625" fill-rule="nonzero" d="m1647.802482,456.458248l38.388356,0l0,-38.379831l-38.388356,0l0,38.379831zm44.412165,6.035744l-50.437679,0l0,-50.451319l50.437679,0l0,50.451319" id="path292"/>
   <path fill="#db5a1d" fill-rule="nonzero" d="m1465.014915,421.590743l5.086052,10.332376l11.387778,1.653862l-8.236915,8.030609l1.936894,11.338333l-10.173809,-5.353739l-10.18745,5.353739l1.936894,-11.338333l-8.236915,-8.030609l11.387778,-1.653862l5.099692,-10.332376" id="path294"/>
   <path fill="#db5a1d" fill-rule="nonzero" d="m1503.002593,421.590743l5.087757,10.332376l11.386073,1.653862l-8.236915,8.030609l1.950534,11.338333l-10.18745,-5.353739l-10.18745,5.353739l1.948829,-11.338333l-8.24885,-8.030609l11.387778,-1.653862l5.099692,-10.332376" id="path296"/>
   <path fill="#e0caa7" fill-rule="nonzero" d="m1784.534252,547.966268c3.000822,0 5.865243,0.306902 8.473912,0.852506l11.508834,-19.675844l-1.34696,-14.407355l-33.315944,-1.210559l-5.319639,14.816558l11.781636,20.391949c2.540469,-0.494454 5.319639,-0.767256 8.21816,-0.767256" id="path298"/>
   <path fill="#392625" fill-rule="nonzero" d="m1776.316092,548.733523l8.337511,14.407355l8.354561,-14.322105c-2.608669,-0.545604 -5.47309,-0.852506 -8.473912,-0.852506c-2.898521,0 -5.677692,0.272802 -8.21816,0.767256" id="path300"/>
   <path fill="#392625" fill-rule="nonzero" d="m1791.13265,528.000572c0.05115,0.170501 0.05115,0.341002 0.085251,0.511504c0.289852,-3.392975 3.154273,-6.052794 6.632499,-6.052794c3.682827,0.01705 6.666599,3.000822 6.666599,6.683649l-0.0682,-253.194352l-13.350248,0.170501l0.0341,251.881492" id="path302"/>
   <path fill="#4b3334" fill-rule="nonzero" d="m1777.714202,276.272531l0.0682,252.086094c0.01705,0.221652 0.0341,0.460353 0.0341,0.699055l0.102301,0c0.01705,-3.665777 3.000822,-6.632499 6.666599,-6.615448c3.307724,0 6.035744,2.404068 6.547248,5.558341l-0.0341,-251.881492l-13.384348,0.153451" id="path304"/>
   <path fill="#392625" fill-rule="nonzero" d="m1764.483305,276.425982l0.05115,251.915593c0.358053,-3.341824 3.188373,-5.933443 6.632499,-5.916393c3.427075,0 6.240346,2.591619 6.615448,5.933443l-0.0682,-252.086094l-13.230897,0.153451" id="path306"/>
   <path fill="#1e1717" fill-rule="nonzero" d="m1764.483305,276.425982l13.230897,-0.153451l13.384348,-0.153451l13.350248,-0.170501l0,-6.88825l-13.350248,-0.01705l-13.384348,-0.01705l-13.230897,-0.01705l0,7.416804" id="path308"/>
   <path fill="#c52932" fill-rule="nonzero" d="m852.153298,594.461958c0,121.362788 -98.38263,219.750532 -219.742007,219.750532c-121.367903,0 -219.743712,-98.387745 -219.743712,-219.750532c0,-121.345738 98.37581,-219.742007 219.743712,-219.742007c121.359378,0 219.742007,98.39627 219.742007,219.742007" id="path310"/>
   <path fill="#dcf1f6" fill-rule="nonzero" d="m784.469418,477.1571c0.936052,8.388661 1.43221,16.930774 1.43221,25.575187c0,125.966321 -102.116607,228.079518 -228.089748,228.079518c-25.227365,0 -49.491397,-4.09203 -72.181703,-11.662285c35.278413,41.636405 87.936018,68.064098 146.781114,68.064098c106.213752,0 192.320292,-86.10313 192.320292,-192.308357c0,-44.364424 -15.03139,-85.216523 -40.262164,-117.748161" id="path312"/>
   <path fill="#f9fcfe" fill-rule="nonzero" d="m785.901628,502.732287c0,-8.644413 -0.496159,-17.186526 -1.43221,-25.575187c-35.179522,-45.370382 -90.207095,-74.577245 -152.058127,-74.577245c-106.217162,0 -192.321997,86.10313 -192.321997,192.325407c0,47.365246 17.13708,90.723714 45.540883,124.244259c22.690306,7.570255 46.954338,11.662285 72.181703,11.662285c125.973141,0 228.089748,-102.113197 228.089748,-228.079518" id="path314"/>
   <path fill="#204072" fill-rule="nonzero" d="m647.814373,425.051919c0,8.508012 -6.893365,15.413313 -15.403083,15.413313c-8.511422,0 -15.408198,-6.905301 -15.408198,-15.413313c0,-8.508012 6.896775,-15.396263 15.408198,-15.396263c8.509717,0 15.403083,6.88825 15.403083,15.396263" id="path316"/>
   <path fill="#204072" fill-rule="nonzero" d="m647.814373,764.741553c0,8.508012 -6.893365,15.413313 -15.403083,15.413313c-8.511422,0 -15.408198,-6.905301 -15.408198,-15.413313c0,-8.508012 6.896775,-15.413313 15.408198,-15.413313c8.509717,0 15.403083,6.905301 15.403083,15.413313" id="path318"/>
   <path fill="#204072" fill-rule="nonzero" d="m802.254403,610.301524c-8.509717,0 -15.406493,-6.88825 -15.406493,-15.396263c0,-8.525062 6.896775,-15.413313 15.406493,-15.413313c8.508012,0 15.408198,6.88825 15.408198,15.413313c0,8.508012 -6.900185,15.396263 -15.408198,15.396263" id="path320"/>
   <path fill="#204072" fill-rule="nonzero" d="m462.561358,610.301524c-8.508012,0 -15.403083,-6.88825 -15.403083,-15.396263c0,-8.525062 6.89507,-15.413313 15.403083,-15.413313c8.514832,0 15.409903,6.88825 15.409903,15.413313c0,8.508012 -6.89507,15.396263 -15.409903,15.396263" id="path322"/>
   <path fill="#dc3c22" fill-rule="nonzero" d="m561.411161,452.315068c0,5.268489 -4.282991,9.56512 -9.56171,9.56512c-5.285539,0 -9.563415,-4.296631 -9.563415,-9.56512c0,-5.285539 4.277876,-9.56512 9.563415,-9.56512c5.278719,0 9.56171,4.279581 9.56171,9.56512" id="path324"/>
   <path fill="#dc3c22" fill-rule="nonzero" d="m499.78178,520.328016c0,5.268489 -4.282991,9.54807 -9.566825,9.54807c-5.280424,0 -9.56171,-4.279581 -9.56171,-9.54807c0,-5.285539 4.281286,-9.56512 9.56171,-9.56512c5.283834,0 9.566825,4.279581 9.566825,9.56512" id="path326"/>
   <path fill="#dc3c22" fill-rule="nonzero" d="m782.438748,663.770715c0,5.285539 -4.281286,9.56512 -9.56171,9.56512c-5.282129,0 -9.563415,-4.279581 -9.563415,-9.56512c0,-5.285539 4.281286,-9.56512 9.563415,-9.56512c5.280424,0 9.56171,4.279581 9.56171,9.56512" id="path328"/>
   <path fill="#dc3c22" fill-rule="nonzero" d="m720.804252,731.783662c0,5.285539 -4.277876,9.56512 -9.563415,9.56512c-5.280424,0 -9.56171,-4.279581 -9.56171,-9.56512c0,-5.285539 4.281286,-9.56512 9.56171,-9.56512c5.285539,0 9.563415,4.279581 9.563415,9.56512" id="path330"/>
   <path fill="#dc3c22" fill-rule="nonzero" d="m494.467257,655.279753c5.282129,0 9.56512,4.279581 9.56512,9.56512c0,5.268489 -4.282991,9.56512 -9.56512,9.56512c-5.282129,0 -9.56512,-4.296631 -9.56512,-9.56512c0,-5.285539 4.282991,-9.56512 9.56512,-9.56512" id="path332"/>
   <path fill="#dc3c22" fill-rule="nonzero" d="m562.478499,716.898903c5.277014,0 9.56171,4.296631 9.56171,9.56512c0,5.285539 -4.284696,9.56512 -9.56171,9.56512c-5.282129,0 -9.563415,-4.279581 -9.563415,-9.56512c0,-5.268489 4.281286,-9.56512 9.563415,-9.56512" id="path334"/>
   <path fill="#dc3c22" fill-rule="nonzero" d="m705.929723,434.241936c5.282129,0 9.563415,4.279581 9.563415,9.56512c0,5.285539 -4.281286,9.56512 -9.563415,9.56512c-5.282129,0 -9.563415,-4.279581 -9.563415,-9.56512c0,-5.285539 4.281286,-9.56512 9.563415,-9.56512" id="path336"/>
   <path fill="#dc3c22" fill-rule="nonzero" d="m773.939261,495.878137c5.278719,0 9.56512,4.279581 9.56512,9.56512c0,5.285539 -4.286401,9.56512 -9.56512,9.56512c-5.282129,0 -9.563415,-4.279581 -9.563415,-9.56512c0,-5.285539 4.281286,-9.56512 9.563415,-9.56512" id="path338"/>
   <path fill="#204072" fill-rule="nonzero" d="m708.420746,708.697793l-64.744439,-107.313485c0.671775,-1.602712 1.040058,-3.358875 1.040058,-5.200288l0,-0.920707c0,-7.502055 -6.080074,-13.571899 -13.582129,-13.571899c-7.50376,0 -13.583834,6.069844 -13.583834,13.571899l0,0.920707c0,7.502055 6.080074,13.588949 13.583834,13.588949c0.874671,0 1.723768,-0.085251 2.554109,-0.255752l63.781106,105.710773c1.802198,3.017872 5.716907,4.006779 8.738189,2.199466c3.022987,-1.790263 4.015304,-5.711792 2.213106,-8.729664" id="path340"/>
   <path fill="#dc3c22" fill-rule="nonzero" d="m632.571562,605.817341c-5.870358,0 -10.622228,-4.756985 -10.622228,-10.622228c0,-5.865243 4.75187,-10.622228 10.622228,-10.622228c5.866948,0 10.629048,4.756985 10.629048,10.622228c0,5.865243 -4.7621,10.622228 -10.629048,10.622228zm7.406574,-29.957069c0.00682,-0.102301 0.032395,-0.204601 0.032395,-0.323952l0,-81.414345c0,-4.10908 -3.328184,-7.450904 -7.438969,-7.450904c-4.107375,0 -7.438969,3.341824 -7.438969,7.450904l0,81.414345c0,0.119351 0.028985,0.221652 0.0341,0.323952c-7.781677,2.983772 -13.316147,10.502877 -13.316147,19.334841c0,11.440634 9.280383,20.732952 20.721017,20.732952c11.445749,0 20.722722,-9.292318 20.722722,-20.732952c0,-8.831965 -5.532765,-16.35107 -13.316147,-19.334841" id="path342"/>
   <path fill="#a09f9e" fill-rule="evenodd" d="m2085.520104,1969.786397l-90.706663,0l0,60.463152l1.32991,0l12.105589,12.112409l19.300741,2.11251l0,2.513188l11.542934,-1.251479l11.525884,1.251479l0,-2.513188l19.317791,-2.11251l12.105589,-12.112409l3.478225,0l0,-60.463152" id="path344"/>
   <path fill="#cbc9c5" fill-rule="nonzero" d="m2099.381855,1990.986522c0,5.912983 -4.808135,10.700658 -10.724528,10.700658l-99.146475,0c-5.916393,0 -10.707478,-4.787675 -10.707478,-10.700658l0,0c0,-5.912983 4.791085,-10.712593 10.707478,-10.712593l99.146475,0c5.916393,0 10.724528,4.79961 10.724528,10.712593l0,0" id="path346"/>
   <path fill="#cbc9c5" fill-rule="nonzero" d="m2099.381855,2020.82424c0,5.912983 -4.808135,10.698953 -10.724528,10.698953l-99.146475,0c-5.916393,0 -10.707478,-4.78597 -10.707478,-10.698953l0,0c0,-5.912983 4.791085,-10.700658 10.707478,-10.700658l99.146475,0c5.916393,0 10.724528,4.787675 10.724528,10.700658l0,0" id="path348"/>
   <path fill="#cbc9c5" fill-rule="nonzero" d="m2073.431565,2048.049879c0,5.911278 -4.808135,10.710888 -10.724528,10.710888l-47.245896,0c-5.916393,0 -10.707478,-4.79961 -10.707478,-10.710888l0,0c0,-5.912983 4.791085,-10.700658 10.707478,-10.700658l47.245896,0c5.916393,0 10.724528,4.787675 10.724528,10.700658l0,0" id="path350"/>
   <path fill="#face0b" fill-rule="nonzero" d="m2039.075564,1671.823533c-68.3369,0 -123.937356,54.550169 -123.937356,121.613424c0,34.437842 14.560806,72.186818 38.908385,100.999824l1.023007,1.33673c3.188373,4.05111 31.048277,40.187144 31.048277,65.400868c0,4.649569 3.222474,8.536997 7.553205,9.61286l0,0.300082l45.421532,0l0,-299.263789c0,0 0,0 -0.01705,0" id="path352"/>
   <path fill="#d9b712" fill-rule="nonzero" d="m2039.092614,1671.823533l0,299.263789l39.147086,0l0,-0.651315l8.16701,-0.136401c3.682827,-1.551561 6.069844,-5.137203 6.069844,-9.113292c0,-22.299858 22.403864,-54.761591 31.031227,-65.387228c0.426253,-0.537079 0.750205,-1.075863 0.869556,-1.31286l0.818406,-1.29922c23.716723,-28.824941 37.834227,-66.012968 37.834227,-99.75005c0,-67.063256 -55.583407,-121.613424 -123.937356,-121.613424" id="path354"/>
   <path fill="#9c801f" fill-rule="nonzero" d="m2080.677868,1856.948672c-1.824363,1.988045 -4.756985,3.000822 -8.729664,3.000822l-13.742401,0l-0.01705,-2.01362c-0.01705,-0.098891 -0.971857,-10.199385 4.194331,-15.912881c2.369967,-2.635949 5.779992,-3.960744 10.127774,-3.960744c3.103123,0 5.45604,0.861031 7.195153,2.661524c3.341824,3.474815 3.188373,9.287203 3.188373,9.336648l0,0.151746l0,0.150041c0,0.02387 0.289852,3.861853 -2.216516,6.586463zm-60.544993,0.987202l-0.01705,2.01362l-13.742401,0c-3.972679,0 -6.905301,-1.012777 -8.729664,-3.000822c-2.523418,-2.72461 -2.233566,-6.562593 -2.233566,-6.586463l0.01705,-0.150041l0,-0.151746c0,-0.049445 -0.153451,-5.861833 3.188373,-9.336648c1.739113,-1.800493 4.09203,-2.661524 7.195153,-2.661524c4.347782,0 7.757807,1.324795 10.127774,3.960744c5.166188,5.713497 4.194331,15.813991 4.194331,15.912881zm67.194541,-7.837942c0.01705,-1.086093 -0.0341,-7.885683 -4.415982,-12.436361c-2.574569,-2.6871 -6.069844,-4.03747 -10.400576,-4.03747c-5.677692,0 -10.195975,1.824363 -13.452548,5.437285c-6.189195,6.900185 -5.42194,17.83784 -5.285539,19.212081l0,1.676027l-29.223914,0l0,-1.676027c0.136401,-1.37424 0.903657,-12.311895 -5.302589,-19.212081c-3.239524,-3.612921 -7.774857,-5.437285 -13.435498,-5.437285c-4.330732,0 -7.826007,1.35037 -10.400576,4.03747c-4.381882,4.550678 -4.450083,11.350268 -4.415982,12.436361c-0.0682,0.963332 -0.187551,5.950494 3.341824,9.814052c2.69392,2.975247 6.734799,4.473953 12.037388,4.473953l13.742401,0l0,106.537704l4.433032,0l0,-106.537704l29.223914,0l0,106.537704l4.433032,0l0,-106.537704l13.742401,0c5.285539,0 9.343468,-1.498706 12.054438,-4.473953c3.512326,-3.863558 3.392975,-8.85072 3.324774,-9.814052" id="path356"/>
   <path fill="#f26f16" fill-rule="nonzero" d="m2198.136177,1182.172936c0,36.695278 -52.00288,86.125295 -52.00288,86.125295c0,0 -51.98583,-49.430017 -51.98583,-86.125295c0,-36.703803 23.27342,-46.780427 51.98583,-46.780427c28.71241,0 52.00288,10.076624 52.00288,46.780427" id="path358"/>
   <path fill="#eaae0f" fill-rule="nonzero" d="m2182.023809,1174.916403c0,25.32455 -35.890513,59.436735 -35.890513,59.436735c0,0 -35.873462,-34.112184 -35.873462,-59.436735c0,-25.333075 16.061217,-32.287821 35.873462,-32.287821c19.812245,0 35.890513,6.954746 35.890513,32.287821" id="path360"/>
   <path fill="#f5c850" fill-rule="nonzero" d="m2166.917399,1162.783534c0,14.673337 -20.784102,34.431022 -20.784102,34.431022c0,0 -20.784102,-19.757685 -20.784102,-34.431022c0,-14.669927 9.309368,-18.698872 20.784102,-18.698872c11.474734,0 20.784102,4.028944 20.784102,18.698872" id="path362"/>
   <path fill="#ea2255" fill-rule="nonzero" d="m2103.712587,1050.861401c0,0 -71.576424,37.58359 -71.576424,119.011575c0,0 4.484183,8.94961 11.628185,-1.791968c7.161052,-10.734759 13.418448,-40.265575 59.061632,-40.265575l0.886606,-76.954033" id="path364"/>
   <path fill="#bb2644" fill-rule="nonzero" d="m2188.195954,1050.861401c0,0 71.576424,37.58359 71.576424,119.011575c0,0 -4.467133,8.94961 -11.628185,-1.791968c-7.161052,-10.734759 -13.418448,-40.265575 -59.061632,-40.265575l-0.886606,-76.954033" id="path366"/>
   <path fill="#e2f5f5" fill-rule="nonzero" d="m2225.433427,971.736887c0,-33.339814 -5.626541,-64.723978 -14.015203,-92.174679l-65.472479,0l0,27.854789c24.228227,0 43.852921,19.634924 43.852921,43.849511c0,24.219702 -19.624694,43.851216 -43.852921,43.851216l0,140.926101l42.846963,0c22.028761,-34.671429 36.640718,-95.303377 36.640718,-164.306937" id="path368"/>
   <path fill="#e2f5f5" fill-rule="nonzero" d="m2102.109875,951.266507c0,-24.214587 19.624694,-43.849511 43.835871,-43.849511l0,-27.854789l-65.455429,0c-8.388661,27.450701 -14.015203,58.834865 -14.015203,92.174679c0,69.00356 14.594907,129.635508 36.640718,164.306937l42.829913,0l0,-140.926101c-24.211177,0 -43.835871,-19.631514 -43.835871,-43.851216" id="path370"/>
   <path fill="#e0c41e" fill-rule="nonzero" d="m2103.729637,1136.17511c-1.108258,0 -1.994865,0.895132 -1.994865,2.001685l0,9.351993c0,1.103143 0.886606,2.00339 1.994865,2.00339l42.216109,0l0,-13.357068l-42.216109,0" id="path372"/>
   <path fill="#c6ae19" fill-rule="nonzero" d="m2188.144804,1136.17511l-42.199059,0l0,13.357068l42.199059,0c1.108258,0 2.011915,-0.900247 2.011915,-2.00339l0,-9.351993c0,-1.106553 -0.903657,-2.001685 -2.011915,-2.001685" id="path374"/>
   <path fill="#c6ae19" fill-rule="nonzero" d="m2176.005115,951.266507c0,16.593181 -13.452548,30.047435 -30.05937,30.047435l0,13.803781c24.228227,0 43.852921,-19.631514 43.852921,-43.851216c0,-24.214587 -19.624694,-43.849511 -43.852921,-43.849511l0,13.803781c16.606821,0 30.05937,13.449138 30.05937,30.04573" id="path376"/>
   <path fill="#e0c41e" fill-rule="nonzero" d="m2102.109875,951.266507c0,24.219702 19.624694,43.851216 43.835871,43.851216l0,-13.803781c-16.572721,0 -30.04232,-13.454253 -30.04232,-30.047435c0,-16.596591 13.469599,-30.04573 30.04232,-30.04573l0,-13.803781c-24.211177,0 -43.835871,19.634924 -43.835871,43.849511" id="path378"/>
   <path fill="#87d6cd" fill-rule="nonzero" d="m2176.005115,951.266507c0,-16.596591 -13.452548,-30.04573 -30.05937,-30.04573l0,60.093165c16.606821,0 30.05937,-13.454253 30.05937,-30.047435" id="path380"/>
   <path fill="#aae2e1" fill-rule="nonzero" d="m2115.903426,951.266507c0,16.593181 13.469599,30.047435 30.04232,30.047435l0,-60.093165c-16.572721,0 -30.04232,13.449138 -30.04232,30.04573" id="path382"/>
   <path fill="#bb2644" fill-rule="nonzero" d="m2145.945745,776.710741l0,102.851467l65.472479,0c-18.721037,-61.226998 -51.167424,-102.851467 -65.472479,-102.851467" id="path384"/>
   <path fill="#ea2255" fill-rule="nonzero" d="m2145.945745,776.710741c-14.288005,0 -46.734392,41.624469 -65.455429,102.851467l65.455429,0l0,-102.851467" id="path386"/>
   <path fill="#bb2644" fill-rule="nonzero" d="m2148.707866,1073.142504c-0.221652,-0.0682 -0.443303,-0.109121 -0.699055,-0.109121l-2.063065,0l0,100.438875l2.335867,0c1.244659,0 2.267667,-1.019597 2.267667,-2.281307l0,-3.050267l0.085251,-4.407457l6.342646,-80.766441c0,-8.18747 -6.8712,-9.473049 -8.26931,-9.824282" id="path388"/>
   <path fill="#ea2255" fill-rule="nonzero" d="m2143.695129,1073.033383l-0.05115,0c-0.238702,0 -0.477403,0.04092 -0.699055,0.109121c-0.392153,0.098891 -0.835456,0.276212 -1.295809,0.533669c-2.489318,0.809881 -6.717749,2.983772 -6.717749,9.409964l6.342646,80.844871l0.085251,4.09203l0,3.046857c0,0.959922 0.579704,1.780033 1.41516,2.11592c0.341002,0.182436 0.716105,0.286442 1.108258,0.286442l2.063065,0l0,-100.438875l-2.250616,0" id="path390"/>
   <path fill="#f68619" fill-rule="nonzero" d="m377.211844,1386.336245l-48.51272,151.512523l-41.472723,-120.563137l89.985443,-30.949386zm-48.060892,321.950685l129.85034,-405.550856l-240.856882,82.849966l111.006542,322.70089" id="path392"/>
   <path fill="#48bac5" fill-rule="nonzero" d="m321.026568,1684.674212l10.797844,-3.713517" id="path394"/>
   <path fill="#ffffff" fill-rule="nonzero" d="m331.418619,1679.785941l0.809881,2.349507l-10.797844,3.713517l-0.809881,-2.349507l10.797844,-3.713517" id="path396"/>
   <path fill="#48bac5" fill-rule="nonzero" d="m319.374411,1679.872896l5.399774,-1.861874" id="path398"/>
   <path fill="#ffffff" fill-rule="nonzero" d="m324.370097,1676.836269l0.809881,2.349507l-5.40148,1.863579l-0.809881,-2.351212l5.40148,-1.861874" id="path400"/>
   <path fill="#48bac5" fill-rule="nonzero" d="m317.722254,1675.061351l5.399774,-1.849939" id="path402"/>
   <path fill="#ffffff" fill-rule="nonzero" d="m322.716235,1672.036659l0.809881,2.349507l-5.40148,1.861874l-0.808176,-2.361442l5.399774,-1.849939" id="path404"/>
   <path fill="#48bac5" fill-rule="nonzero" d="m316.068392,1670.261741l5.40148,-1.863579" id="path406"/>
   <path fill="#ffffff" fill-rule="nonzero" d="m321.064078,1667.223409l0.809881,2.363147l-5.399774,1.849939l-0.811586,-2.349507l5.40148,-1.863579" id="path408"/>
   <path fill="#48bac5" fill-rule="nonzero" d="m314.416235,1665.460426l5.399774,-1.861874" id="path410"/>
   <path fill="#ffffff" fill-rule="nonzero" d="m319.410216,1662.423799l0.809881,2.349507l-5.399774,1.863579l-0.809881,-2.363147l5.399774,-1.849939" id="path412"/>
   <path fill="#48bac5" fill-rule="nonzero" d="m312.764078,1660.648881l5.399774,-1.849939" id="path414"/>
   <path fill="#ffffff" fill-rule="nonzero" d="m317.759764,1657.610549l0.808176,2.363147l-5.40148,1.849939l-0.808176,-2.349507l5.40148,-1.863579" id="path416"/>
   <path fill="#48bac5" fill-rule="nonzero" d="m311.110215,1655.849271l10.797844,-3.713517" id="path418"/>
   <path fill="#ffffff" fill-rule="nonzero" d="m321.503971,1650.961l0.809881,2.351212l-10.797844,3.711812l-0.811586,-2.351212l10.799549,-3.711812" id="path420"/>
   <path fill="#48bac5" fill-rule="nonzero" d="m309.458058,1651.047956l5.399774,-1.861874" id="path422"/>
   <path fill="#ffffff" fill-rule="nonzero" d="m314.453745,1648.011328l0.809881,2.349507l-5.40148,1.863579l-0.808176,-2.351212l5.399774,-1.861874" id="path424"/>
   <path fill="#48bac5" fill-rule="nonzero" d="m307.804196,1646.23641l5.399774,-1.863579" id="path426"/>
   <path fill="#ffffff" fill-rule="nonzero" d="m312.799883,1643.198078l0.809881,2.363147l-5.40148,1.849939l-0.809881,-2.349507l5.40148,-1.863579" id="path428"/>
   <path fill="#48bac5" fill-rule="nonzero" d="m306.153744,1641.4368l5.399774,-1.863579" id="path430"/>
   <path fill="#ffffff" fill-rule="nonzero" d="m311.147726,1638.398468l0.809881,2.349507l-5.399774,1.863579l-0.811586,-2.351212l5.40148,-1.861874" id="path432"/>
   <path fill="#48bac5" fill-rule="nonzero" d="m304.499882,1636.62355l5.40148,-1.849939" id="path434"/>
   <path fill="#ffffff" fill-rule="nonzero" d="m309.495569,1633.598858l0.809881,2.349507l-5.40148,1.863579l-0.809881,-2.363147l5.40148,-1.849939" id="path436"/>
   <path fill="#48bac5" fill-rule="nonzero" d="m302.84602,1631.82394l5.40148,-1.863579" id="path438"/>
   <path fill="#ffffff" fill-rule="nonzero" d="m307.843412,1628.785608l0.808176,2.363147l-5.399774,1.849939l-0.808176,-2.349507l5.399774,-1.863579" id="path440"/>
   <path fill="#48bac5" fill-rule="nonzero" d="m301.193863,1627.02433l10.797844,-3.725452" id="path442"/>
   <path fill="#ffffff" fill-rule="nonzero" d="m311.585914,1622.124124l0.811586,2.361442l-10.797844,3.713517l-0.811586,-2.363147l10.797844,-3.711812" id="path444"/>
   <path fill="#48bac5" fill-rule="nonzero" d="m299.541706,1622.21108l5.399774,-1.849939" id="path446"/>
   <path fill="#ffffff" fill-rule="nonzero" d="m304.537392,1619.172747l0.809881,2.363147l-5.399774,1.849939l-0.811586,-2.349507l5.40148,-1.863579" id="path448"/>
   <path fill="#48bac5" fill-rule="nonzero" d="m297.889549,1617.41147l5.399774,-1.861874" id="path450"/>
   <path fill="#ffffff" fill-rule="nonzero" d="m302.88353,1614.373137l0.809881,2.363147l-5.399774,1.849939l-0.809881,-2.349507l5.399774,-1.863579" id="path452"/>
   <path fill="#48bac5" fill-rule="nonzero" d="m296.237392,1612.610154l5.399774,-1.861874" id="path454"/>
   <path fill="#ffffff" fill-rule="nonzero" d="m301.231373,1609.573527l0.809881,2.349507l-5.399774,1.863579l-0.809881,-2.351212l5.399774,-1.861874" id="path456"/>
   <path fill="#48bac5" fill-rule="nonzero" d="m294.58353,1607.798609l5.40148,-1.849939" id="path458"/>
   <path fill="#ffffff" fill-rule="nonzero" d="m299.579216,1604.761982l0.809881,2.361442l-5.399774,1.849939l-0.811586,-2.349507l5.40148,-1.861874" id="path460"/>
   <path fill="#48bac5" fill-rule="nonzero" d="m292.929667,1602.998999l5.40148,-1.863579" id="path462"/>
   <path fill="#ffffff" fill-rule="nonzero" d="m297.927059,1599.960667l0.808176,2.349507l-5.399774,1.863579l-0.808176,-2.349507l5.399774,-1.863579" id="path464"/>
   <path fill="#48bac5" fill-rule="nonzero" d="m291.27751,1598.199389l10.799549,-3.725452" id="path466"/>
   <path fill="#ffffff" fill-rule="nonzero" d="m301.671266,1593.299183l0.809881,2.361442l-10.797844,3.713517l-0.808176,-2.351212l10.796139,-3.723747" id="path468"/>
   <path fill="#48bac5" fill-rule="nonzero" d="m289.625353,1593.386139l5.40148,-1.849939" id="path470"/>
   <path fill="#ffffff" fill-rule="nonzero" d="m294.619335,1590.347807l0.811586,2.363147l-5.399774,1.849939l-0.809881,-2.349507l5.398069,-1.863579" id="path472"/>
   <path fill="#48bac5" fill-rule="nonzero" d="m287.973196,1588.586529l5.40148,-1.863579" id="path474"/>
   <path fill="#ffffff" fill-rule="nonzero" d="m292.968883,1585.548197l0.808176,2.349507l-5.398069,1.863579l-0.809881,-2.349507l5.399774,-1.863579" id="path476"/>
   <path fill="#48bac5" fill-rule="nonzero" d="m286.319334,1583.773279l5.40148,-1.849939" id="path478"/>
   <path fill="#ffffff" fill-rule="nonzero" d="m291.315021,1580.748586l0.809881,2.349507l-5.399774,1.863579l-0.809881,-2.363147l5.399774,-1.849939" id="path480"/>
   <path fill="#48bac5" fill-rule="nonzero" d="m284.667177,1578.973668l5.40148,-1.849939" id="path482"/>
   <path fill="#ffffff" fill-rule="nonzero" d="m289.662864,1575.935336l0.809881,2.363147l-5.40148,1.849939l-0.808176,-2.349507l5.399774,-1.863579" id="path484"/>
   <path fill="#48bac5" fill-rule="nonzero" d="m283.01502,1574.174058l5.399774,-1.863579" id="path486"/>
   <path fill="#ffffff" fill-rule="nonzero" d="m288.010707,1571.135726l0.809881,2.351212l-5.40148,1.861874l-0.808176,-2.349507l5.399774,-1.863579" id="path488"/>
   <path fill="#48bac5" fill-rule="nonzero" d="m281.361158,1569.360808l10.799549,-3.711812" id="path490"/>
   <path fill="#ffffff" fill-rule="nonzero" d="m291.754914,1564.474242l0.809881,2.349507l-10.797844,3.725452l-0.808176,-2.363147l10.796139,-3.711812" id="path492"/>
   <path fill="#48bac5" fill-rule="nonzero" d="m279.709001,1564.561198l5.399774,-1.861874" id="path494"/>
   <path fill="#ffffff" fill-rule="nonzero" d="m284.704687,1561.522866l0.811586,2.363147l-5.40148,1.849939l-0.809881,-2.349507l5.399774,-1.863579" id="path496"/>
   <path fill="#48bac5" fill-rule="nonzero" d="m278.056844,1559.761588l5.399774,-1.863579" id="path498"/>
   <path fill="#ffffff" fill-rule="nonzero" d="m283.050825,1556.723256l0.811586,2.349507l-5.399774,1.863579l-0.809881,-2.349507l5.398069,-1.863579" id="path500"/>
   <path fill="#48bac5" fill-rule="nonzero" d="m276.404687,1554.948338l5.399774,-1.849939" id="path502"/>
   <path fill="#ffffff" fill-rule="nonzero" d="m281.400373,1551.923646l0.808176,2.349507l-5.399774,1.861874l-0.809881,-2.361442l5.40148,-1.849939" id="path504"/>
   <path fill="#48bac5" fill-rule="nonzero" d="m274.750825,1550.148728l5.40148,-1.861874" id="path506"/>
   <path fill="#ffffff" fill-rule="nonzero" d="m279.746511,1547.110395l0.809881,2.363147l-5.399774,1.849939l-0.809881,-2.349507l5.399774,-1.863579" id="path508"/>
   <path fill="#48bac5" fill-rule="nonzero" d="m273.098667,1545.349118l5.399774,-1.863579" id="path510"/>
   <path fill="#ffffff" fill-rule="nonzero" d="m278.094354,1542.310785l0.809881,2.349507l-5.40148,1.863579l-0.809881,-2.363147l5.40148,-1.849939" id="path512"/>
   <path fill="#48bac5" fill-rule="nonzero" d="m271.444805,1540.535867l10.797844,-3.713517" id="path514"/>
   <path fill="#ffffff" fill-rule="nonzero" d="m281.838561,1535.647597l0.809881,2.351212l-10.797844,3.711812l-0.808176,-2.349507l10.796139,-3.713517" id="path516"/>
   <path fill="#48bac5" fill-rule="nonzero" d="m269.792648,1535.736257l5.40148,-1.863579" id="path518"/>
   <path fill="#ffffff" fill-rule="nonzero" d="m274.79004,1532.697925l0.809881,2.351212l-5.40148,1.861874l-0.809881,-2.349507l5.40148,-1.863579" id="path520"/>
   <path fill="#48bac5" fill-rule="nonzero" d="m268.140491,1530.923007l5.399774,-1.849939" id="path522"/>
   <path fill="#ffffff" fill-rule="nonzero" d="m273.136178,1527.898315l0.809881,2.349507l-5.399774,1.863579l-0.809881,-2.363147l5.399774,-1.849939" id="path524"/>
   <path fill="#48bac5" fill-rule="nonzero" d="m266.488334,1526.123397l5.399774,-1.849939" id="path526"/>
   <path fill="#ffffff" fill-rule="nonzero" d="m271.482316,1523.085065l0.811586,2.363147l-5.40148,1.849939l-0.809881,-2.349507l5.399774,-1.863579" id="path528"/>
   <path fill="#48bac5" fill-rule="nonzero" d="m264.834472,1521.323787l5.40148,-1.863579" id="path530"/>
   <path fill="#ffffff" fill-rule="nonzero" d="m269.830159,1518.285455l0.809881,2.351212l-5.399774,1.861874l-0.809881,-2.349507l5.399774,-1.863579" id="path532"/>
   <path fill="#48bac5" fill-rule="nonzero" d="m263.18061,1516.510537l5.40148,-1.849939" id="path534"/>
   <path fill="#ffffff" fill-rule="nonzero" d="m268.178001,1513.485845l0.808176,2.349507l-5.399774,1.863579l-0.808176,-2.363147l5.399774,-1.849939" id="path536"/>
   <path fill="#48bac5" fill-rule="nonzero" d="m261.530158,1511.710927l10.797844,-3.711812" id="path538"/>
   <path fill="#ffffff" fill-rule="nonzero" d="m271.922209,1506.824361l0.809881,2.349507l-10.797844,3.711812l-0.808176,-2.349507l10.796139,-3.711812" id="path540"/>
   <path fill="#48bac5" fill-rule="nonzero" d="m259.876296,1506.911316l5.399774,-1.861874" id="path542"/>
   <path fill="#ffffff" fill-rule="nonzero" d="m264.873687,1503.872984l0.808176,2.351212l-5.399774,1.861874l-0.809881,-2.349507l5.40148,-1.863579" id="path544"/>
   <path fill="#48bac5" fill-rule="nonzero" d="m258.225844,1502.098066l5.399774,-1.849939" id="path546"/>
   <path fill="#ffffff" fill-rule="nonzero" d="m263.219825,1499.061439l0.809881,2.361442l-5.399774,1.863579l-0.809881,-2.363147l5.399774,-1.861874" id="path548"/>
   <path fill="#48bac5" fill-rule="nonzero" d="m256.571982,1497.298456l5.399774,-1.861874" id="path550"/>
   <path fill="#ffffff" fill-rule="nonzero" d="m261.567668,1494.261829l0.809881,2.349507l-5.40148,1.861874l-0.809881,-2.349507l5.40148,-1.861874" id="path552"/>
   <path fill="#48bac5" fill-rule="nonzero" d="m254.919824,1492.498846l5.399774,-1.863579" id="path554"/>
   <path fill="#ffffff" fill-rule="nonzero" d="m259.915511,1489.460514l0.808176,2.349507l-5.40148,1.863579l-0.808176,-2.363147l5.40148,-1.849939" id="path556"/>
   <path fill="#48bac5" fill-rule="nonzero" d="m253.265962,1487.685596l5.399774,-1.849939" id="path558"/>
   <path fill="#ffffff" fill-rule="nonzero" d="m258.261649,1484.660904l0.809881,2.349507l-5.399774,1.863579l-0.809881,-2.363147l5.399774,-1.849939" id="path560"/>
   <path fill="#48bac5" fill-rule="nonzero" d="m251.613805,1482.885986l10.797844,-3.713517" id="path562"/>
   <path fill="#ffffff" fill-rule="nonzero" d="m262.005856,1477.997715l0.809881,2.351212l-10.797844,3.711812l-0.808176,-2.349507l10.796139,-3.713517" id="path564"/>
   <path fill="#48bac5" fill-rule="nonzero" d="m249.959943,1478.072735l5.399774,-1.849939" id="path566"/>
   <path fill="#ffffff" fill-rule="nonzero" d="m254.957335,1475.048043l0.808176,2.351212l-5.399774,1.861874l-0.809881,-2.363147l5.40148,-1.849939" id="path568"/>
   <path fill="#48bac5" fill-rule="nonzero" d="m248.307786,1473.273125l5.40148,-1.849939" id="path570"/>
   <path fill="#ffffff" fill-rule="nonzero" d="m253.303473,1470.236498l0.809881,2.361442l-5.40148,1.849939l-0.809881,-2.349507l5.40148,-1.861874" id="path572"/>
   <path fill="#48bac5" fill-rule="nonzero" d="m246.655629,1468.473515l5.40148,-1.861874" id="path574"/>
   <path fill="#ffffff" fill-rule="nonzero" d="m251.651316,1465.435183l0.809881,2.351212l-5.40148,1.861874l-0.809881,-2.349507l5.40148,-1.863579" id="path576"/>
   <path fill="#48bac5" fill-rule="nonzero" d="m245.003472,1463.673905l5.40148,-1.863579" id="path578"/>
   <path fill="#ffffff" fill-rule="nonzero" d="m249.999158,1460.635573l0.808176,2.351212l-5.399774,1.861874l-0.809881,-2.363147l5.40148,-1.849939" id="path580"/>
   <path fill="#48bac5" fill-rule="nonzero" d="m243.34961,1458.860655l5.40148,-1.861874" id="path582"/>
   <path fill="#ffffff" fill-rule="nonzero" d="m248.345296,1455.824028l0.811586,2.361442l-5.40148,1.849939l-0.809881,-2.349507l5.399774,-1.861874" id="path584"/>
   <path fill="#48bac5" fill-rule="nonzero" d="m241.697453,1454.061045l10.797844,-3.713517" id="path586"/>
   <path fill="#ffffff" fill-rule="nonzero" d="m252.089504,1449.160839l0.811586,2.363147l-10.799549,3.711812l-0.808176,-2.349507l10.796139,-3.725452" id="path588"/>
   <path fill="#48bac5" fill-rule="nonzero" d="m239.92083,1448.886332l5.399774,-1.849939" id="path590"/>
   <path fill="#ffffff" fill-rule="nonzero" d="m244.914811,1445.848l0.811586,2.363147l-5.40148,1.849939l-0.809881,-2.349507l5.399774,-1.863579" id="path592"/>
   <path fill="#48bac5" fill-rule="nonzero" d="m238.266968,1444.085017l5.40148,-1.861874" id="path594"/>
   <path fill="#ffffff" fill-rule="nonzero" d="m243.260949,1441.04839l0.811586,2.363147l-5.399774,1.849939l-0.811586,-2.351212l5.399774,-1.861874" id="path596"/>
   <path fill="#48bac5" fill-rule="nonzero" d="m236.613106,1439.285407l5.40148,-1.861874" id="path598"/>
   <path fill="#ffffff" fill-rule="nonzero" d="m241.610497,1436.24878l0.809881,2.349507l-5.40148,1.861874l-0.809881,-2.361442l5.40148,-1.849939" id="path600"/>
   <path fill="#48bac5" fill-rule="nonzero" d="m234.960949,1434.473862l5.40148,-1.849939" id="path602"/>
   <path fill="#ffffff" fill-rule="nonzero" d="m239.956635,1431.435529l0.809881,2.363147l-5.399774,1.849939l-0.809881,-2.351212l5.399774,-1.861874" id="path604"/>
   <path fill="#48bac5" fill-rule="nonzero" d="m233.308791,1429.672546l5.399774,-1.861874" id="path606"/>
   <path fill="#ffffff" fill-rule="nonzero" d="m238.304478,1426.635919l0.811586,2.349507l-5.40148,1.863579l-0.809881,-2.351212l5.399774,-1.861874" id="path608"/>
   <path fill="#48bac5" fill-rule="nonzero" d="m231.656634,1424.861001l10.797844,-3.711812" id="path610"/>
   <path fill="#ffffff" fill-rule="nonzero" d="m242.048685,1419.972731l0.811586,2.363147l-10.799549,3.713517l-0.809881,-2.363147l10.797844,-3.713517" id="path612"/>
   <path fill="#48bac5" fill-rule="nonzero" d="m230.004477,1420.061391l5.399774,-1.849939" id="path614"/>
   <path fill="#ffffff" fill-rule="nonzero" d="m235.000164,1417.023059l0.809881,2.363147l-5.40148,1.849939l-0.809881,-2.351212l5.40148,-1.861874" id="path616"/>
   <path fill="#48bac5" fill-rule="nonzero" d="m228.350615,1415.261781l5.40148,-1.863579" id="path618"/>
   <path fill="#ffffff" fill-rule="nonzero" d="m233.346302,1412.223449l0.809881,2.349507l-5.40148,1.863579l-0.809881,-2.351212l5.40148,-1.861874" id="path620"/>
   <path fill="#48bac5" fill-rule="nonzero" d="m226.698458,1410.448531l5.399774,-1.849939" id="path622"/>
   <path fill="#ffffff" fill-rule="nonzero" d="m231.69244,1407.423839l0.811586,2.349507l-5.40148,1.861874l-0.809881,-2.361442l5.399774,-1.849939" id="path624"/>
   <path fill="#48bac5" fill-rule="nonzero" d="m225.044596,1405.648921l5.399774,-1.863579" id="path626"/>
   <path fill="#ffffff" fill-rule="nonzero" d="m230.040283,1402.610589l0.809881,2.351212l-5.40148,1.861874l-0.808176,-2.349507l5.399774,-1.863579" id="path628"/>
   <path fill="#48bac5" fill-rule="nonzero" d="m223.392439,1400.847606l5.40148,-1.861874" id="path630"/>
   <path fill="#ffffff" fill-rule="nonzero" d="m228.38983,1397.810978l0.806471,2.349507l-5.399774,1.863579l-0.808176,-2.351212l5.40148,-1.861874" id="path632"/>
   <path fill="#48bac5" fill-rule="nonzero" d="m221.740282,1396.03606l10.797844,-3.713517" id="path634"/>
   <path fill="#ffffff" fill-rule="nonzero" d="m232.132333,1391.14779l0.811586,2.363147l-10.797844,3.711812l-0.811586,-2.361442l10.797844,-3.713517" id="path636"/>
   <path fill="#e83a37" fill-rule="nonzero" d="m513.836198,1329.110911c0,7.512285 -6.08519,13.599179 -13.592359,13.599179l0,0c-7.50717,0 -13.594064,-6.086895 -13.594064,-13.599179l0,-16.100433c0,-7.50035 6.086895,-13.587244 13.594064,-13.587244l0,0c7.50717,0 13.592359,6.086895 13.592359,13.587244l0,16.100433" id="path638"/>
   <path fill="#e83a37" fill-rule="nonzero" d="m427.695558,1641.748818c0,0 0.511504,0.874671 1.200329,2.337572c0.327362,0.72463 0.736565,1.599302 1.087798,2.588209c0.189256,0.487634 0.390448,1.011072 0.600164,1.573727c0.199486,0.537079 -0.410908,0.850801 -0.427958,1.38788c-1.234429,3.849918 -2.889996,8.987121 -4.537038,14.112388c-1.657272,5.149138 -3.302609,10.288045 -4.548973,14.137963c-0.300082,0.436483 0.03751,1.062223 -0.518324,1.362305c-0.494454,0.325657 -0.966742,0.637675 -1.40834,0.924117c-0.852506,0.588229 -1.689667,1.075863 -2.385312,1.474836c-1.38106,0.787716 -2.272782,1.213969 -2.272782,1.213969c0,0 -0.477403,-0.862736 -1.145768,-2.325637c-0.323952,-0.712695 -0.733155,-1.601007 -1.075863,-2.574569c-0.192666,-0.499569 -0.387038,-1.012777 -0.603574,-1.575432c-0.272802,-0.574589 0.363168,-0.874671 0.368283,-1.399815c1.241249,-3.863558 2.888291,-8.999056 4.540448,-14.137963c1.648747,-5.137203 3.309429,-10.274405 4.545563,-14.124323c0.289852,-0.438188 -0.02387,-1.063928 0.462058,-1.38788c0.491044,-0.325657 0.965037,-0.62574 1.406635,-0.912182c0.852506,-0.600164 1.693077,-1.075863 2.392132,-1.474836c1.396405,-0.801356 2.320522,-1.200329 2.320522,-1.200329" id="path640"/>
   <path fill="#e83a37" fill-rule="nonzero" d="m607.717595,1643.673777c0.999137,4.049405 -1.468016,8.14996 -5.519125,9.150802l0,0c-4.049405,1.011072 -8.148255,-1.476541 -9.152507,-5.51401l-4.889976,-19.774735c-1.004252,-4.049405 1.466311,-8.138025 5.52083,-9.149097l0,0c4.05111,-1.000842 8.13973,1.474836 9.149097,5.52424l4.891681,19.7628" id="path642"/>
   <path fill="#e83a37" fill-rule="nonzero" d="m597.932528,1635.610773l-19.445667,4.81325" id="path644"/>
   <path fill="#e83a37" fill-rule="nonzero" d="m599.074887,1640.222831l-19.450782,4.81325l-2.284717,-9.225822l19.452487,-4.811545l2.283012,9.224117" id="path646"/>
   <path fill="#e83a37" fill-rule="nonzero" d="m577.330863,1651.099106l11.094516,41.725065" id="path648"/>
   <path fill="#e83a37" fill-rule="nonzero" d="m577.330863,1651.099106c0,0 0.898542,0.450123 2.262552,1.311155c0.671775,0.426253 1.497001,0.951397 2.317112,1.589072c0.424548,0.312017 0.874671,0.64961 1.355485,0.999137c0.462058,0.349528 0.119351,0.937757 0.388743,1.38788c1.038353,3.913004 2.427938,9.137162 3.814113,14.349385c1.38788,5.213928 2.77576,10.438086 3.814113,14.349385c-0.022165,0.526849 0.598459,0.862736 0.291557,1.42539c-0.240407,0.538784 -0.467173,1.050288 -0.682005,1.537921c-0.397268,0.949692 -0.847391,1.812428 -1.208854,2.525123c-0.73827,1.41175 -1.258299,2.250616 -1.258299,2.250616c0,0 -0.867851,-0.463763 -2.216516,-1.338435c-0.65984,-0.424548 -1.481656,-0.949692 -2.303472,-1.587367c-0.426253,-0.312017 -0.878081,-0.64961 -1.355485,-0.987202c-0.538784,-0.337592 -0.172206,-0.937757 -0.450123,-1.38788c-1.038353,-3.911299 -2.426233,-9.125227 -3.815818,-14.349385c-1.386175,-5.212223 -2.76894,-10.426151 -3.814113,-14.33745c0.01023,-0.525144 -0.583114,-0.874671 -0.352938,-1.413455c0.238702,-0.537079 0.470583,-1.048583 0.68371,-1.536216c0.400678,-0.963332 0.849096,-1.814133 1.219084,-2.525123c0.75191,-1.42539 1.311155,-2.262552 1.311155,-2.262552" id="path650"/>
   <path fill="#e83a37" fill-rule="nonzero" d="m570.83647,1466.473536c-1.196919,-2.325637 -3.993139,-3.224179 -6.272741,-1.99998c-1.369125,0.736565 -2.74507,1.399815 -4.11931,2.086935l-2.525123,-6.612038c-1.178164,-3.099713 -4.595009,-4.637634 -7.624816,-3.437305c-3.031512,1.212264 -4.528513,4.712654 -3.345234,7.800432l2.649589,6.949631c-40.101893,15.200186 -79.052903,6.473932 -99.710834,-0.612099l2.416003,-6.337531c1.183279,-3.087778 -0.315427,-6.588168 -3.345234,-7.800432c-3.028102,-1.200329 -6.441537,0.337592 -7.624816,3.437305l-2.467153,6.461997c-2.617194,-1.149178 -4.1159,-1.911319 -4.213086,-1.962469c-2.289832,-1.198624 -5.082642,-0.274507 -6.257396,2.063065c-1.173049,2.337572 -0.271097,5.186648 2.01021,6.400617c0.407498,0.211422 2.204581,1.123603 5.067297,2.387017l-2.538764,6.649549c-1.181574,3.099713 0.320542,6.588168 3.345234,7.800432c3.031512,1.200329 6.439832,-0.325657 7.623111,-3.42537l2.550699,-6.687059c12.968325,4.574548 32.74647,9.774836 55.784598,9.774836c15.791826,0 33.104522,-2.499548 50.751401,-9.275268l2.356327,6.18749c1.184984,3.099713 4.596714,4.625699 7.624816,3.42537c3.026397,-1.212264 4.530218,-4.700719 3.348644,-7.800432l-2.502958,-6.562593c1.684552,-0.825226 3.37763,-1.587367 5.067297,-2.499548c2.276192,-1.225904 3.150863,-4.100555 1.952239,-6.412552" id="path652"/>
   <path fill="#f68619" fill-rule="nonzero" d="m435.673312,1660.011206c-1.870399,7.413394 -9.392914,11.900987 -16.804603,10.037408l0,0c-7.411689,-1.875514 -11.906102,-9.399734 -10.033998,-16.813128l77.063154,-305.475149c1.866989,-7.399754 9.389504,-11.899282 16.801193,-10.025473l0,0c7.415099,1.863579 11.906102,9.387799 10.037408,16.801193l-77.063154,305.475149" id="path654"/>
   <path fill="#f68619" fill-rule="nonzero" d="m564.804136,1660.011206c1.872104,7.413394 9.394619,11.900987 16.809718,10.037408l0,0c7.409984,-1.875514 11.902692,-9.399734 10.032293,-16.813128l-77.061449,-305.475149c-1.872104,-7.399754 -9.394619,-11.899282 -16.804603,-10.025473l0,0c-7.415099,1.863579 -11.906102,9.387799 -10.037408,16.801193l77.061449,305.475149" id="path656"/>
   <path fill="#e83a37" fill-rule="nonzero" d="m536.494109,1357.310112c0,20.025371 -16.231719,36.26391 -36.25027,36.26391c-20.021961,0 -36.25027,-16.238539 -36.25027,-36.26391c0,-20.011731 16.228309,-36.25027 36.25027,-36.25027c20.018551,0 36.25027,16.238539 36.25027,36.25027" id="path658"/>
   <path fill="#f68619" fill-rule="nonzero" d="m521.334843,1357.310112c0,11.65035 -9.440654,21.101234 -21.091004,21.101234c-11.64694,0 -21.089299,-9.450884 -21.089299,-21.101234c0,-11.63671 9.442359,-21.087594 21.089299,-21.087594c11.65035,0 21.091004,9.450884 21.091004,21.087594" id="path660"/>
   <path fill="#fdfcfe" fill-rule="nonzero" d="m1345.790213,2277.411567c0,24.663005 -17.626419,44.662802 -39.363623,44.662802c-21.749139,0 -39.373853,-19.999796 -39.373853,-44.662802c0,-24.663005 17.624714,-44.649162 39.373853,-44.649162c21.737204,0 39.363623,19.986156 39.363623,44.649162zm52.64908,-161.725548c0,0 54.563809,-55.298669 5.587326,-104.261513c-48.986713,-48.988418 -129.250175,-31.312554 -129.250175,-31.312554c0,0 -139.360899,35.338088 -142.390706,176.724543c-3.031512,141.374519 115.127557,194.900658 182.779042,196.900808c67.64978,2.024702 80.786901,-88.850757 39.387493,-145.412841c-41.413048,-56.550149 43.887021,-92.638443 43.887021,-92.638443" id="path662"/>
   <path fill="#f0442f" fill-rule="nonzero" d="m1391.027604,2046.511958c0,15.899241 -12.888189,28.787431 -28.801071,28.787431c-15.887306,0 -28.775495,-12.888189 -28.775495,-28.787431c0,-15.900946 12.888189,-28.787431 28.775495,-28.787431c15.912881,0 28.801071,12.886484 28.801071,28.787431" id="path664"/>
   <path fill="#fbcc47" fill-rule="nonzero" d="m1312.302063,2032.411505c0,15.899241 -12.888189,28.787431 -28.787431,28.787431c-15.900946,0 -28.787431,-12.888189 -28.787431,-28.787431c0,-15.899241 12.886484,-28.787431 28.787431,-28.787431c15.899241,0 28.787431,12.888189 28.787431,28.787431" id="path666"/>
   <path fill="#69ccb1" fill-rule="nonzero" d="m1241.786157,2075.299389c0,15.899241 -12.889894,28.787431 -28.790841,28.787431c-15.892421,0 -28.780611,-12.888189 -28.780611,-28.787431c0,-15.899241 12.888189,-28.787431 28.780611,-28.787431c15.900946,0 28.790841,12.888189 28.790841,28.787431" id="path668"/>
   <path fill="#58bf34" fill-rule="nonzero" d="m1207.128369,2144.036966c0,15.899241 -12.888189,28.787431 -28.792546,28.787431c-15.892421,0 -28.778905,-12.888189 -28.778905,-28.787431c0,-15.900946 12.886484,-28.787431 28.778905,-28.787431c15.904356,0 28.792546,12.886484 28.792546,28.787431" id="path670"/>
   <path fill="#bc39a3" fill-rule="nonzero" d="m1224.176789,2222.760802c0,15.900946 -12.891599,28.789136 -28.795956,28.789136c-15.889011,0 -28.7772,-12.888189 -28.7772,-28.789136c0,-15.885601 12.888189,-28.77379 28.7772,-28.77379c15.904356,0 28.795956,12.888189 28.795956,28.77379" id="path672"/>
   <path fill="#fdfcfe" fill-rule="nonzero" d="m1497.689774,2257.561812c0,11.488374 -11.038251,20.761937 -24.63743,20.761937l0,0c-13.624755,0 -24.65107,-9.273563 -24.65107,-20.761937l0,-23.93667c0,-11.462799 11.026316,-20.763642 24.65107,-20.763642l0,0c13.599179,0 24.63743,9.300843 24.63743,20.763642l0,23.93667" id="path674"/>
   <path fill="#f0442f" fill-rule="nonzero" d="m1455.46514,2273.699755c0,0 -18.750022,9.188312 -11.099631,44.887863c5.123562,23.836586 16.898379,19.386844 36.187185,51.449774c0,0 49.049799,-58.887039 12.698933,-97.099778l-37.786486,0.762141" id="path676"/>
   <path fill="#fbcc47" fill-rule="nonzero" d="m1499.026504,2272.100453c0,3.437305 -2.79963,6.223296 -6.248871,6.223296l-39.476154,0c-3.437305,0 -6.236936,-2.78599 -6.236936,-6.223296l0,0c0,-3.43901 2.79963,-6.238641 6.236936,-6.238641l39.476154,0c3.44924,0 6.248871,2.79963 6.248871,6.238641l0,0" id="path678"/>
   <path fill="#f0442f" fill-rule="nonzero" d="m1500.364939,2217.787281l-4.025534,-204.838493c0,-11.999878 -9.737326,-21.737204 -21.750844,-21.737204c-0.523439,0 -1.011072,0.124466 -1.536216,0.150041c-0.525144,-0.025575 -1.024712,-0.150041 -1.537921,-0.150041c-12.011813,0 -21.749139,9.737326 -21.749139,21.737204l-4.039175,204.838493c0,0.187551 0.075021,0.361463 0.088661,0.525144l-0.088661,2.211401c0,6.438127 4.937716,11.61284 11.300823,15.087655c4.424507,2.888291 9.57535,4.700719 14.487491,4.700719c0.487634,0 1.024712,-0.075021 1.537921,-0.100596c0.511504,0.025575 1.050288,0.100596 1.536216,0.100596c4.900206,0 10.051049,-1.812428 14.489196,-4.700719c6.361402,-3.474815 11.287183,-8.649528 11.287183,-15.087655l-0.075021,-2.211401c0.011935,-0.163681 0.075021,-0.337592 0.075021,-0.525144" id="path680"/>
   <path fill="#ebe8e3" fill-rule="nonzero" d="m837.193518,2058.610727c-0.395563,-49.436837 -35.213623,-81.712723 -81.666687,-91.900172l0,-77.948055l6.787655,0c5.512305,0 9.989668,-4.475658 9.989668,-9.987963c0,-5.525945 -4.477363,-9.987963 -9.989668,-9.987963l-29.143778,0l0,189.824153l104.022811,0" id="path682"/>
   <path fill="#fffbf8" fill-rule="nonzero" d="m733.170707,1868.786573l-29.159123,0c-5.5106,0 -9.986258,4.462018 -9.986258,9.987963c0,5.512305 4.475658,9.987963 9.986258,9.987963l6.803,0l0,77.948055c-46.466705,10.18745 -81.269419,42.463336 -81.668392,91.900172l104.024516,0l0,-189.824153" id="path684"/>
   <path fill="#4bc3c3" fill-rule="nonzero" d="m629.146192,2058.610727c0,0.288147 -0.066495,0.550719 -0.066495,0.838866c0,57.487905 45.588623,94.312765 103.079939,94.312765c0.334182,0 0.67689,-0.05115 1.011072,-0.05115l0,-95.100481l-104.024516,0" id="path686"/>
   <path fill="#3a9fa8" fill-rule="nonzero" d="m837.261719,2059.449593c0,-0.288147 -0.0682,-0.550719 -0.0682,-0.838866l-104.022811,0l0,95.100481c57.025847,-0.424548 104.091011,-37.124942 104.091011,-94.261614" id="path688"/>
   <path fill="#ffffff" fill-rule="nonzero" d="m1965.606576,559.031799l-53.537392,145.471664l14.049303,26.206042l27.689403,-7.382704l56.11196,-149.154491l-44.313274,-15.140511" id="path690"/>
   <path fill="#ebe8e3" fill-rule="nonzero" d="m2006.424575,574.121159l-54.406948,145.966118l-20.119147,8.16701l-6.700699,-2.506368l-9.889072,-19.334841l54.406948,-145.966118l-7.331554,-3.171323l-55.225354,148.182634l13.912902,27.194949l-10.332376,27.706453l4.586484,1.722063l0.255752,0.085251l4.586484,1.705012l10.315325,-27.689403l28.320257,-11.491784l55.225354,-148.165584l-7.604356,-2.404068" id="path692"/>
   <path fill="#4bc3c3" fill-rule="nonzero" d="m1945.265778,633.864796l-25.847989,69.376957l8.064709,17.78328l5.762942,2.148316l17.74918,-8.16701l25.865039,-69.376957l-31.593881,-11.764586" id="path694"/>
   <path fill="#3a9fa8" fill-rule="nonzero" d="m2015.904444,561.725718l9.58217,-25.728638c4.671734,-12.497741 -1.687962,-26.410643 -14.185704,-31.065327l-18.021982,48.371204l22.625515,8.422762" id="path696"/>
   <path fill="#4bc3c3" fill-rule="nonzero" d="m2011.300911,504.931753c-12.480691,-4.654684 -26.393593,1.705012 -31.048277,14.185704l-9.59922,25.745688l22.625515,8.439812l18.021982,-48.371204" id="path698"/>
   <path fill="#2c3234" fill-rule="nonzero" d="m1970.653413,544.863145l-8.047659,-3.000822c-4.501233,-1.670912 -9.650371,0.988907 -11.508834,5.967544c-1.858464,4.978636 0.289852,10.366476 4.791085,12.037388l30.673174,11.440634l2.472268,-6.615448l4.245481,-11.389483l-22.625515,-8.439812" id="path700"/>
   <path fill="#3a474c" fill-rule="nonzero" d="m2023.969153,564.74359l-8.064709,-3.017872l-22.625515,-8.422762l-4.245481,11.389483l-2.472268,6.615448l30.690224,11.440634c4.501233,1.670912 9.650371,-1.005957 11.508834,-5.967544c1.858464,-4.978636 -0.289852,-10.366476 -4.791085,-12.037388" id="path702"/>
  </g>
 </g>
</svg>